<svg width="11" height="11" viewBox="0 0 11 11" fill="none" xmlns="http://www.w3.org/2000/svg">
<g clip-path="url(#clip0_183_18)">
<path d="M7.9095 5.23931V10.3677H0.610815V3.10165L4.19854 0.745462L7.69946 2.97297L8.2942 2.60801L4.19318 0L0 2.75444V11H8.52031V4.56595L7.9095 5.23931Z" fill="#2BB018"/>
<path d="M0.952762 5.59982C1.50892 6.24544 2.07902 6.95652 2.65125 7.73748C3.06489 8.30323 3.44531 8.85789 3.79251 9.40145C3.88199 9.49689 4.0038 9.55258 4.13221 9.55676C4.1992 9.55708 4.26558 9.5435 4.32742 9.51683C4.38926 9.49015 4.44531 9.45092 4.49227 9.40145C5.15987 8.35869 5.76426 7.51561 6.21862 6.91991C8.02748 4.52489 9.17088 3.59195 9.49665 3.33016C9.91886 2.99736 10.2821 2.74444 10.5211 2.58802C10.5661 2.56473 11.0387 2.30958 10.999 2.17868C10.968 2.07884 10.6583 2.09549 10.5575 2.10325C10.4064 2.13209 10.1878 2.17868 9.92851 2.2519C8.14 2.75553 6.94945 3.79385 6.07074 4.58147C5.3997 5.18097 4.78145 5.84103 4.22329 6.55383C4.18773 6.59033 4.14041 6.61198 4.0904 6.61465C4.04038 6.61731 3.99117 6.60079 3.95218 6.56825C3.51601 5.86296 2.9824 5.22761 2.36835 4.68241C2.28101 4.60278 2.17892 4.54239 2.0683 4.50492C1.90584 4.45556 1.7338 4.4506 1.56893 4.4905C1.11457 4.60809 0.925973 5.08399 0.898111 5.14056C0.85811 5.21519 0.841979 5.30101 0.852033 5.38572C0.864495 5.4658 0.899537 5.54029 0.952762 5.59982Z" fill="#2E2D2C"/>
</g>
<defs>
<clipPath id="clip0_183_18">
<rect width="11" height="11" fill="white"/>
</clipPath>
</defs>
</svg>
