<svg width="26" height="26" viewBox="0 0 26 26" fill="none" xmlns="http://www.w3.org/2000/svg">
<g clip-path="url(#clip0_148_230)">
<path d="M25.8002 12.8C25.8002 5.73 20.0702 0 13.0002 0C5.9302 0 0.200195 5.73 0.200195 12.8C0.200195 19.87 5.9302 25.6 13.0002 25.6C13.0752 25.6 13.1502 25.6 13.2252 25.595V15.635H10.4752V12.43H13.2252V10.07C13.2252 7.335 14.8952 5.845 17.3352 5.845C18.5052 5.845 19.5102 5.93 19.8002 5.97V8.83H18.1202C16.7952 8.83 16.5352 9.46 16.5352 10.385V12.425H19.7102L19.2952 15.63H16.5352V25.105C21.8852 23.57 25.8002 18.645 25.8002 12.8Z" fill="white"/>
</g>
<defs>
<clipPath id="clip0_148_230">
<rect width="25.6" height="25.6" fill="white" transform="translate(0.200195)"/>
</clipPath>
</defs>
</svg>
