<svg width="26" height="26" viewBox="0 0 26 26" fill="none" xmlns="http://www.w3.org/2000/svg">
<g clip-path="url(#clip0_148_235)">
<path d="M15.2501 12.8001C15.2501 14.1532 14.1532 15.2501 12.8001 15.2501C11.447 15.2501 10.3501 14.1532 10.3501 12.8001C10.3501 11.447 11.447 10.3501 12.8001 10.3501C14.1532 10.3501 15.2501 11.447 15.2501 12.8001Z" fill="white"/>
<path d="M18.5299 8.46523C18.4121 8.14609 18.2242 7.85723 17.9801 7.62012C17.743 7.37598 17.4543 7.18809 17.135 7.07031C16.876 6.96973 16.4869 6.85 15.7703 6.81738C14.9951 6.78203 14.7627 6.77441 12.8002 6.77441C10.8375 6.77441 10.6051 6.78184 9.83008 6.81719C9.11348 6.85 8.72422 6.96973 8.46543 7.07031C8.14609 7.18809 7.85723 7.37598 7.62031 7.62012C7.37617 7.85723 7.18828 8.1459 7.07031 8.46523C6.96973 8.72422 6.85 9.11348 6.81738 9.83008C6.78203 10.6051 6.77441 10.8375 6.77441 12.8002C6.77441 14.7627 6.78203 14.9951 6.81738 15.7703C6.85 16.4869 6.96973 16.876 7.07031 17.135C7.18828 17.4543 7.37598 17.743 7.62012 17.9801C7.85723 18.2242 8.1459 18.4121 8.46523 18.5299C8.72422 18.6307 9.11348 18.7504 9.83008 18.783C10.6051 18.8184 10.8373 18.8258 12.8 18.8258C14.7629 18.8258 14.9953 18.8184 15.7701 18.783C16.4867 18.7504 16.876 18.6307 17.135 18.5299C17.776 18.2826 18.2826 17.776 18.5299 17.135C18.6305 16.876 18.7502 16.4869 18.783 15.7703C18.8184 14.9951 18.8258 14.7627 18.8258 12.8002C18.8258 10.8375 18.8184 10.6051 18.783 9.83008C18.7504 9.11348 18.6307 8.72422 18.5299 8.46523ZM12.8002 16.5742C10.7156 16.5742 9.02578 14.8846 9.02578 12.8C9.02578 10.7154 10.7156 9.02578 12.8002 9.02578C14.8846 9.02578 16.5744 10.7154 16.5744 12.8C16.5744 14.8846 14.8846 16.5742 12.8002 16.5742ZM16.7236 9.75859C16.2365 9.75859 15.8416 9.36367 15.8416 8.87656C15.8416 8.38945 16.2365 7.99453 16.7236 7.99453C17.2107 7.99453 17.6057 8.38945 17.6057 8.87656C17.6055 9.36367 17.2107 9.75859 16.7236 9.75859Z" fill="white"/>
<path d="M12.8 0C5.73184 0 0 5.73184 0 12.8C0 19.8682 5.73184 25.6 12.8 25.6C19.8682 25.6 25.6 19.8682 25.6 12.8C25.6 5.73184 19.8682 0 12.8 0ZM20.1057 15.8303C20.0701 16.6127 19.9457 17.1469 19.7641 17.6145C19.3822 18.6018 18.6018 19.3822 17.6145 19.7641C17.1471 19.9457 16.6127 20.0699 15.8305 20.1057C15.0467 20.1414 14.7963 20.15 12.8002 20.15C10.8039 20.15 10.5537 20.1414 9.76973 20.1057C8.9875 20.0699 8.45312 19.9457 7.98574 19.7641C7.49512 19.5795 7.05098 19.2902 6.68379 18.9162C6.30996 18.5492 6.0207 18.1049 5.83613 17.6145C5.65449 17.1471 5.53008 16.6127 5.49453 15.8305C5.4584 15.0465 5.45 14.7961 5.45 12.8C5.45 10.8039 5.4584 10.5535 5.49434 9.76973C5.52988 8.9873 5.6541 8.45312 5.83574 7.98555C6.02031 7.49512 6.30977 7.05078 6.68379 6.68379C7.05078 6.30977 7.49512 6.02051 7.98555 5.83594C8.45312 5.6543 8.9873 5.53008 9.76973 5.49434C10.5535 5.45859 10.8039 5.45 12.8 5.45C14.7961 5.45 15.0465 5.45859 15.8303 5.49453C16.6127 5.53008 17.1469 5.6543 17.6145 5.83574C18.1049 6.02031 18.5492 6.30977 18.9164 6.68379C19.2902 7.05098 19.5797 7.49512 19.7641 7.98555C19.9459 8.45312 20.0701 8.9873 20.1059 9.76973C20.1416 10.5535 20.15 10.8039 20.15 12.8C20.15 14.7961 20.1416 15.0465 20.1057 15.8303Z" fill="white"/>
</g>
<defs>
<clipPath id="clip0_148_235">
<rect width="25.6" height="25.6" fill="white"/>
</clipPath>
</defs>
</svg>
