<svg width="22" height="22" viewBox="0 0 22 22" fill="none" xmlns="http://www.w3.org/2000/svg">
<g clip-path="url(#clip0_148_221)">
<path d="M17.5214 3.6619C15.9135 1.33488 13.3653 0 10.5307 0C7.696 0 5.1478 1.33488 3.53995 3.6619C1.94 5.97715 1.57056 8.90832 2.54974 11.498C2.81165 12.2052 3.22798 12.8923 3.78421 13.5361L9.97004 20.802C10.1099 20.9664 10.3149 21.0612 10.5307 21.0612C10.7464 21.0612 10.9514 20.9665 11.0913 20.802L17.2754 13.5381C17.8341 12.8905 18.2499 12.2042 18.5096 11.5027C19.4908 8.90832 19.1213 5.97715 17.5214 3.6619ZM17.1306 10.9869C16.9303 11.5282 16.6033 12.0633 16.1593 12.578C16.1581 12.5793 16.1568 12.5805 16.1558 12.582L10.5307 19.189L4.90206 12.5778C4.45825 12.0636 4.13127 11.5285 3.92901 10.982C3.11922 8.84033 3.42654 6.4168 4.75134 4.49945C6.0803 2.57597 8.18691 1.4728 10.5307 1.4728C12.8744 1.4728 14.9808 2.57593 16.3098 4.49945C17.6348 6.4168 17.9424 8.84033 17.1306 10.9869Z" fill="#2BB018"/>
<path d="M10.5306 4.36914C8.25684 4.36914 6.40674 6.21899 6.40674 8.49303C6.40674 10.7671 8.25659 12.6169 10.5306 12.6169C12.8047 12.6169 14.6545 10.7671 14.6545 8.49303C14.6545 6.21924 12.8044 4.36914 10.5306 4.36914ZM10.5306 11.1441C9.06884 11.1441 7.87954 9.95477 7.87954 8.49299C7.87954 7.03121 9.06884 5.8419 10.5306 5.8419C11.9924 5.8419 13.1817 7.03121 13.1817 8.49299C13.1817 9.95477 11.9924 11.1441 10.5306 11.1441Z" fill="#2BB018"/>
</g>
<defs>
<clipPath id="clip0_148_221">
<rect width="21.0612" height="21.0612" fill="white"/>
</clipPath>
</defs>
</svg>
