<svg width="171" height="87" viewBox="0 0 171 87" fill="none" xmlns="http://www.w3.org/2000/svg">
<path d="M151.049 34.0049H147.178V22.8268H151.049L153.649 27.0518C154.047 27.6849 154.398 28.3454 154.701 29.0285H154.822C154.604 28.1625 154.486 27.2743 154.47 26.3814V22.8268H158.353V34.0049H154.47L151.662 29.5949C151.377 29.1254 151.12 28.639 150.893 28.1384H150.778C150.921 28.8176 151.004 29.508 151.026 30.2018L151.049 34.0049ZM139.24 26.1791C138.97 26.1671 138.701 26.2125 138.45 26.3121C138.199 26.4117 137.972 26.5634 137.784 26.757C137.356 27.2087 137.126 27.8115 137.142 28.4332C137.134 28.7359 137.188 29.037 137.301 29.3182C137.413 29.5994 137.581 29.8548 137.795 30.0688C138.189 30.4303 138.705 30.6308 139.24 30.6308C139.774 30.6308 140.29 30.4303 140.684 30.0688C140.897 29.85 141.063 29.5901 141.173 29.3049C141.282 29.0197 141.332 28.7152 141.32 28.4101C141.337 28.1017 141.289 27.7933 141.18 27.5046C141.07 27.2158 140.901 26.9533 140.684 26.7339C140.493 26.5487 140.267 26.4041 140.019 26.3087C139.77 26.2134 139.505 26.1693 139.24 26.1791ZM145.439 28.4101C145.465 29.1547 145.34 29.8969 145.072 30.5921C144.804 31.2873 144.398 31.9212 143.879 32.4559C142.611 33.6126 140.956 34.2537 139.24 34.2537C137.523 34.2537 135.869 33.6126 134.6 32.4559C133.596 31.3479 133.039 29.9058 133.039 28.4101C133.039 26.9143 133.596 25.4722 134.6 24.3642C135.873 23.2172 137.526 22.5825 139.24 22.5825C140.953 22.5825 142.606 23.2172 143.879 24.3642C144.398 24.8991 144.803 25.533 145.071 26.2282C145.339 26.9233 145.464 27.6654 145.439 28.4101ZM130.018 34.0049H126.032V26.364L123.755 26.4623V22.8268H132.3V26.4623L130.018 26.364V34.0049ZM109.981 34.0049L106.058 22.8268H110.264L111.489 28.1268C111.596 28.5761 111.658 29.035 111.674 29.4966H111.795C111.829 28.8643 111.925 28.237 112.084 27.624L113.303 22.8268H116.417L117.706 27.9188C117.829 28.4372 117.908 28.965 117.943 29.4966H118.023C118.046 28.8926 118.13 28.2924 118.272 27.7049L119.427 22.8268H123.651L119.711 34.0049H116.175L115.117 29.4446C115.008 28.9418 114.935 28.4319 114.898 27.9188H114.765C114.754 28.431 114.7 28.9415 114.603 29.4446L113.447 34.0049H109.981ZM105.439 34.0049H97.7954V22.8268H105.307V25.8959H101.84V26.9304H105.006V29.8665H101.84V30.9358H105.439V34.0049ZM88.2447 34.0049H84.3735V22.8268H88.2447L90.8447 27.0518C91.2417 27.6849 91.5931 28.3454 91.8962 29.0285H92.0176C91.7965 28.163 91.6782 27.2745 91.6651 26.3814V22.8268H95.5478V34.0049H91.6651L88.8802 29.5949C88.5948 29.1254 88.3382 28.639 88.1118 28.1384H87.9904C88.1376 28.8171 88.2227 29.5077 88.2447 30.2018V34.0049Z" fill="white"/>
<path d="M141.123 51.2516H133.485V40.0736H140.996V43.1426H137.529V44.1772H140.684V47.1133H137.518V48.1826H141.1L141.123 51.2516ZM131.376 40.7961L130.284 43.6397C129.628 43.136 128.834 42.8455 128.008 42.8074C127.737 42.7876 127.467 42.8566 127.239 43.0039C127.173 43.0485 127.12 43.1089 127.083 43.1796C127.047 43.2503 127.029 43.329 127.031 43.4085C127.028 43.4871 127.039 43.5656 127.066 43.6397C127.108 43.7179 127.173 43.7821 127.251 43.8247C127.385 43.9085 127.534 43.9654 127.69 43.9923L128.978 44.2812C129.695 44.4098 130.359 44.743 130.891 45.2407C131.178 45.5298 131.402 45.8752 131.549 46.2551C131.696 46.6351 131.763 47.0414 131.746 47.4486C131.758 47.9319 131.676 48.413 131.502 48.8642C131.329 49.3155 131.068 49.7281 130.735 50.0783C130.212 50.5743 129.593 50.957 128.916 51.2027C128.239 51.4483 127.519 51.5515 126.8 51.506C126.272 51.5059 125.746 51.4536 125.228 51.3499C124.837 51.2759 124.451 51.1754 124.073 51.0494L123.004 50.6332L122.634 50.4829L123.853 47.3272L124.292 47.6682C124.933 48.1866 125.728 48.4755 126.552 48.4889C126.856 48.5165 127.162 48.4456 127.424 48.2866C127.496 48.2251 127.554 48.1478 127.592 48.0606C127.63 47.9735 127.648 47.8788 127.644 47.7838C127.648 47.7137 127.639 47.6433 127.616 47.5769C127.593 47.5104 127.557 47.4491 127.511 47.3965C127.276 47.2501 127.011 47.1591 126.736 47.1307L125.754 46.9457C125.02 46.8358 124.337 46.5006 123.801 45.9863C123.537 45.7143 123.331 45.392 123.194 45.0385C123.057 44.6851 122.992 44.3076 123.004 43.9287C122.993 43.4338 123.083 42.9418 123.27 42.4834C123.457 42.025 123.736 41.61 124.09 41.2642C124.605 40.7693 125.215 40.3857 125.884 40.1371C126.553 39.8885 127.266 39.7803 127.979 39.8193C129.18 39.8225 130.356 40.1608 131.376 40.7961ZM110.576 47.2174V40.0736H114.62V46.5585C114.583 46.975 114.709 47.3897 114.973 47.7144C115.077 47.8204 115.202 47.9027 115.341 47.9555C115.479 48.0084 115.628 48.0307 115.776 48.0208C115.924 48.033 116.073 48.0153 116.214 47.9686C116.355 47.9219 116.485 47.8473 116.596 47.7491C116.841 47.4163 116.95 47.0033 116.903 46.5932V40.0736H120.947V46.9284C120.975 47.5094 120.888 48.0902 120.689 48.637C120.491 49.1837 120.186 49.6855 119.792 50.113C118.884 51.0378 117.55 51.506 115.799 51.506C113.95 51.506 112.563 51.0089 111.651 50.0263C111.291 49.6536 111.009 49.2137 110.819 48.7317C110.63 48.2497 110.537 47.7351 110.547 47.2174H110.576ZM102.637 43.4258C102.367 43.4142 102.097 43.4596 101.845 43.5592C101.593 43.6588 101.365 43.8103 101.175 44.0038C100.751 44.4567 100.522 45.0592 100.54 45.68C100.528 45.9851 100.578 46.2896 100.687 46.5748C100.796 46.86 100.962 47.1199 101.175 47.3387C101.573 47.706 102.093 47.9099 102.634 47.9099C103.175 47.9099 103.696 47.706 104.093 47.3387C104.306 47.1199 104.472 46.86 104.582 46.5748C104.691 46.2896 104.741 45.9851 104.729 45.68C104.746 45.3716 104.698 45.0632 104.589 44.7745C104.479 44.4857 104.31 44.2232 104.093 44.0038C103.899 43.8105 103.666 43.6594 103.411 43.56C103.155 43.4605 102.882 43.4149 102.608 43.4258H102.637ZM108.802 45.6742C108.828 46.4184 108.704 47.1604 108.437 47.8555C108.17 48.5507 107.766 49.1849 107.248 49.72C105.979 50.8767 104.325 51.5179 102.608 51.5179C100.892 51.5179 99.2373 50.8767 97.9687 49.72C96.9643 48.6121 96.4079 47.1699 96.4079 45.6742C96.4079 44.1785 96.9643 42.7363 97.9687 41.6283C99.2373 40.4716 100.892 39.8305 102.608 39.8305C104.325 39.8305 105.979 40.4716 107.248 41.6283C107.766 42.1635 108.17 42.7976 108.437 43.4928C108.704 44.188 108.828 44.9299 108.802 45.6742ZM88.2793 51.269H84.3735V40.0736H88.2793V43.8593H90.758V40.0736H94.6638V51.2516H90.758V47.3676H88.2793V51.269Z" fill="white"/>
<path d="M159.635 62.3139C159.539 61.9002 159.466 61.4815 159.416 61.0597H159.266C159.25 61.4833 159.188 61.9039 159.081 62.3139L158.503 64.4582H160.132L159.635 62.3139ZM160.86 67.1053H157.775L157.474 68.4982H153.182L157.053 57.3202H161.542L165.529 68.4982H161.218L160.86 67.1053ZM144.729 68.4982H140.857V57.3202H144.729L147.329 61.5452C147.726 62.1782 148.077 62.8388 148.38 63.5219H148.502C148.284 62.6558 148.165 61.7677 148.149 60.8747V57.3202H152.032V68.4982H148.195L145.41 64.0883C145.125 63.6188 144.868 63.1324 144.642 62.6318H144.526C144.669 63.311 144.752 64.0014 144.775 64.6952L144.729 68.4982ZM138.616 68.4982H134.571V57.3202H138.616V68.4982ZM126.124 60.7418V65.0766H126.43C127.052 65.1251 127.669 64.9418 128.164 64.5622C128.385 64.3584 128.558 64.1081 128.671 63.8293C128.784 63.5504 128.834 63.25 128.817 62.9497C128.832 62.6409 128.781 62.3325 128.669 62.0446C128.556 61.7567 128.384 61.4959 128.164 61.2793C127.724 60.8996 127.154 60.7067 126.575 60.7418H126.124ZM127.395 68.4982H122.08V57.3202H126.39C128.543 57.3202 130.19 57.8847 131.33 59.0136C131.843 59.5499 132.242 60.1853 132.501 60.881C132.76 61.5767 132.875 62.318 132.838 63.0595C132.875 63.769 132.767 64.4787 132.519 65.1447C132.272 65.8107 131.891 66.419 131.399 66.9319C130.876 67.4552 130.25 67.8645 129.561 68.1341C128.872 68.4037 128.135 68.5277 127.395 68.4982ZM115.955 53.7656H117.735C117.697 54.4343 117.408 55.064 116.926 55.5285C116.292 56.059 115.493 56.3497 114.667 56.3497C113.841 56.3497 113.041 56.059 112.408 55.5285C111.925 55.064 111.636 54.4343 111.599 53.7656H113.372C113.413 54.0387 113.558 54.2854 113.777 54.4534C114.039 54.6303 114.351 54.7175 114.667 54.7019C114.982 54.7143 115.293 54.6273 115.556 54.4534C115.774 54.2847 115.917 54.038 115.955 53.7656ZM115.083 62.2965C114.996 61.9151 114.921 61.4989 114.863 61.0423H114.719C114.7 61.4657 114.638 61.886 114.534 62.2965L113.956 64.4408H115.585L115.083 62.2965ZM116.308 67.088H113.228L112.922 68.4809H108.635L112.506 57.3028H116.995L120.982 68.4809H116.677L116.308 67.088ZM101.8 60.3892V62.3023H102.268C102.574 62.3248 102.878 62.2343 103.123 62.048C103.219 61.9619 103.294 61.8555 103.344 61.7366C103.394 61.6176 103.417 61.4891 103.412 61.3602C103.427 61.1169 103.348 60.877 103.192 60.6898C103.107 60.592 103.001 60.5143 102.882 60.4624C102.763 60.4104 102.634 60.3854 102.504 60.3892H101.8ZM101.8 68.4809H97.8417V57.3202H102.886C103.529 57.3101 104.17 57.3879 104.792 57.5514C105.367 57.7257 105.889 58.044 106.306 58.4761C106.66 58.8385 106.937 59.2695 107.119 59.7426C107.301 60.2156 107.384 60.7209 107.364 61.2273C107.398 61.9439 107.179 62.6498 106.745 63.2213C106.352 63.6908 105.806 64.0061 105.203 64.1114V64.2097C105.438 64.3279 105.638 64.5076 105.78 64.7298L108.294 68.4982H103.62L102.013 65.2327L101.944 65.1113L101.857 64.8801L101.794 64.9148L101.8 68.4809ZM89.8395 64.6489V61.996H96.1257V62.2445C96.1304 63.1023 96.0354 63.9576 95.8426 64.7934C95.648 65.5905 95.2498 66.3234 94.687 66.9204C94.1076 67.526 93.3956 67.9889 92.607 68.2728C91.7559 68.594 90.8531 68.7566 89.9435 68.7525C89.0858 68.796 88.2288 68.6537 87.4311 68.3355C86.6334 68.0173 85.9137 67.5307 85.3212 66.9088C84.372 65.7692 83.8604 64.3281 83.8784 62.8448C83.8964 61.3616 84.4428 59.9334 85.4194 58.8171C86.5442 57.6612 88.108 57.0832 90.111 57.0832C91.2539 57.0688 92.3822 57.341 93.3928 57.875C94.2886 58.3475 95.0334 59.0625 95.5422 59.9384L91.7577 61.3429C91.6001 61.0744 91.3732 60.8532 91.1008 60.7027C90.8283 60.5522 90.5203 60.4779 90.2092 60.4875C89.6862 60.4715 89.1771 60.6578 88.7879 61.0077C88.5072 61.2794 88.2886 61.6086 88.147 61.9727C88.0054 62.3368 87.9441 62.7273 87.9674 63.1173C87.9439 63.4838 87.9976 63.8512 88.125 64.1957C88.2524 64.5402 88.4507 64.8541 88.707 65.1171C89.0625 65.4522 89.5361 65.6329 90.0244 65.6199C90.8968 65.6199 91.4515 65.302 91.6826 64.6663L89.8395 64.6489Z" fill="#2FB04A"/>
<path d="M165.973 71.0298H167.753C167.711 71.689 167.422 72.3082 166.944 72.7637C166.311 73.2979 165.51 73.591 164.682 73.591C163.854 73.591 163.053 73.2979 162.42 72.7637C161.943 72.3076 161.656 71.6883 161.617 71.0298H163.391C163.431 71.3029 163.576 71.5495 163.795 71.7176C164.057 71.8952 164.369 71.9825 164.685 71.9661C164.998 71.9792 165.308 71.8921 165.569 71.7176C165.678 71.6352 165.77 71.532 165.84 71.414C165.909 71.296 165.954 71.1654 165.973 71.0298ZM165.101 79.5607C165.004 79.147 164.931 78.7283 164.881 78.3065H164.737C164.718 78.7298 164.657 79.1501 164.552 79.5607L163.974 81.705H165.603L165.101 79.5607ZM166.326 84.3521H163.246L162.94 85.7451H158.653L162.524 74.5728H167.013L171 85.7508H166.684L166.326 84.3521ZM158.046 81.3698L157.93 85.5485C157.027 85.865 156.074 86.0177 155.117 85.9994C154.356 86.0238 153.598 85.8923 152.889 85.613C152.181 85.3337 151.537 84.9125 150.997 84.3753C150.456 83.8373 150.032 83.1927 149.752 82.4824C149.473 81.772 149.344 81.0113 149.374 80.2485C149.352 79.4654 149.489 78.6859 149.776 77.957C150.063 77.228 150.494 76.5645 151.043 76.0062C151.595 75.451 152.254 75.0144 152.98 74.7232C153.707 74.4319 154.485 74.2923 155.267 74.3127C156.173 74.3133 157.072 74.4617 157.93 74.752L158.046 79.0116C157.749 78.676 157.387 78.4045 156.982 78.2137C156.576 78.0229 156.136 77.9168 155.689 77.9019C155.384 77.8917 155.08 77.948 154.798 78.0667C154.517 78.1855 154.265 78.3639 154.059 78.5897C153.668 79.0268 153.461 79.5985 153.482 80.1849C153.474 80.4819 153.528 80.7773 153.639 81.0527C153.75 81.3281 153.917 81.5777 154.129 81.7859C154.35 81.9978 154.611 82.1636 154.896 82.2737C155.182 82.3839 155.487 82.4361 155.793 82.4275C156.223 82.4263 156.647 82.331 157.036 82.1483C157.426 81.9656 157.77 81.6999 158.046 81.3698ZM147.646 85.7451H143.602V74.5728H147.646V85.7451ZM134.039 85.7451H130.168V74.5728H134.039L136.639 78.792C137.041 79.4231 137.395 80.0839 137.697 80.7687H137.795C137.575 79.9031 137.456 79.0147 137.442 78.1216V74.5728H141.325V85.7508H137.442L134.657 81.3409C134.372 80.8714 134.115 80.385 133.889 79.8844H133.75C133.897 80.563 133.983 81.2537 134.005 81.9478L134.039 85.7451ZM123.148 79.5607C123.052 79.147 122.978 78.7283 122.929 78.3065H122.773C122.754 78.7298 122.692 79.1501 122.588 79.5607L122.01 81.705H123.639L123.148 79.5607ZM124.373 84.3521H121.293L120.987 85.7451H116.7L120.571 74.567H125.055L129.047 85.7451H124.737L124.373 84.3521ZM114.805 85.7451H110.812V78.1042L108.536 78.2025V74.5728H117.081V78.2083L114.805 78.11V85.7451ZM101.395 77.9193C101.125 77.9077 100.856 77.9532 100.605 78.0528C100.354 78.1524 100.127 78.3038 99.9386 78.4972C99.5139 78.9501 99.2855 79.5526 99.3031 80.1734C99.2908 80.4786 99.3409 80.783 99.4501 81.0682C99.5594 81.3534 99.7256 81.6133 99.9386 81.8322C100.336 82.1994 100.857 82.4033 101.398 82.4033C101.938 82.4033 102.459 82.1994 102.856 81.8322C103.069 81.6133 103.236 81.3534 103.345 81.0682C103.454 80.783 103.504 80.4786 103.492 80.1734C103.509 79.8651 103.461 79.5566 103.352 79.2679C103.242 78.9792 103.074 78.7166 102.856 78.4972C102.665 78.3068 102.436 78.1574 102.185 78.058C101.934 77.9587 101.665 77.9115 101.395 77.9193ZM107.594 80.1502C107.619 80.8948 107.494 81.6368 107.226 82.3319C106.958 83.027 106.552 83.661 106.034 84.1961C104.766 85.3528 103.111 85.9939 101.395 85.9939C99.6782 85.9939 98.0236 85.3528 96.7551 84.1961C95.7542 83.0864 95.2003 81.6448 95.2003 80.1502C95.2003 78.6557 95.7542 77.2141 96.7551 76.1044C98.0236 74.9477 99.6782 74.3066 101.395 74.3066C103.111 74.3066 104.766 74.9477 106.034 76.1044C106.556 76.6375 106.965 77.2707 107.236 77.966C107.507 78.6613 107.635 79.4043 107.612 80.1502H107.594ZM88.1057 81.2022V83.0459H88.9261C89.2228 83.0646 89.5188 83.0006 89.7812 82.861C89.9079 82.7812 90.0106 82.6688 90.0788 82.5356C90.1469 82.4023 90.1778 82.2532 90.1684 82.1038C90.1741 81.9766 90.1492 81.8499 90.0959 81.7343C90.0427 81.6186 89.9625 81.5174 89.8621 81.4391C89.6042 81.2593 89.2914 81.1755 88.9781 81.2022H88.1057ZM88.1057 77.2488V78.8556H88.7412C89.0218 78.8768 89.2996 78.7876 89.5155 78.6071C89.6596 78.4498 89.7364 78.2423 89.7292 78.0291C89.7332 77.9203 89.713 77.8121 89.6701 77.7121C89.6271 77.6122 89.5624 77.523 89.4808 77.4511C89.2623 77.3075 89.0016 77.2423 88.7412 77.2662L88.1057 77.2488ZM84.3501 85.7451V74.5728H89.2612C90.8289 74.5728 91.9402 74.8868 92.595 75.5149C92.8838 75.7955 93.1095 76.1345 93.257 76.5092C93.4044 76.8839 93.4703 77.2859 93.4501 77.6881C93.4759 78.241 93.3107 78.7859 92.9821 79.2313C92.7304 79.548 92.3937 79.7866 92.0115 79.9191V80.0173C92.4467 80.1434 92.8438 80.3758 93.167 80.6935C93.4303 80.9431 93.6391 81.2445 93.7803 81.5787C93.9215 81.9129 93.992 82.2727 93.9875 82.6356C94.0006 83.0682 93.9123 83.4979 93.7297 83.8903C93.5471 84.2827 93.2753 84.6269 92.9359 84.8954C92.1019 85.5084 91.0802 85.811 90.047 85.7508L84.3501 85.7451Z" fill="#2FB04A"/>
<path d="M71.4137 85.9706H0V22.8556L0.0693353 22.8094L35.2273 0.499512L35.3082 0.545751L71.4137 22.7285V85.9706ZM0.283114 85.6701H71.119V22.8961L35.2331 0.852078L0.283114 23.0175V85.6701Z" fill="white"/>
<path d="M67.0577 81.6126H4.35693V25.2542L4.42627 25.208L35.2682 5.6377L35.3433 5.68393L67.0577 25.1675V81.6126ZM4.65738 81.3121H66.7573V25.3351L35.2682 5.99026L4.65738 25.4449V81.3121Z" fill="white"/>
<path d="M62.6835 77.2489H8.71875V27.647L8.78809 27.6065L35.3024 10.7759L35.3833 10.8279L62.7008 27.5892L62.6835 77.2489ZM8.99609 76.9541H62.383V27.7568L35.2909 11.1111L9.01342 27.8146L8.99609 76.9541Z" fill="white"/>
<path d="M58.6391 73.1915H12.7749V29.8838L35.3372 15.5615L58.6391 29.878V73.1915ZM13.6705 72.2957H57.7436V30.3808L35.343 16.6192L13.6705 30.3751V72.2957Z" fill="#2FB04A"/>
<path d="M19.7832 34.2996V64.4815H35.7068H51.6305V34.2996L35.4468 24.3584L19.7832 34.2996Z" fill="white"/>
</svg>
