<svg width="22" height="22" viewBox="0 0 22 22" fill="none" xmlns="http://www.w3.org/2000/svg">
<g clip-path="url(#clip0_148_217)">
<path d="M19.2101 2.61133H1.85108C0.831672 2.61133 0 3.44209 0 4.46241V16.803C0 17.8198 0.827969 18.6541 1.85108 18.6541H19.2101C20.227 18.6541 21.0612 17.8261 21.0612 16.803V4.46241C21.0612 3.44555 20.2333 2.61133 19.2101 2.61133ZM18.9545 3.84538L10.5699 12.2301L2.11266 3.84538H18.9545ZM1.23406 16.5474V4.71206L7.17723 10.6043L1.23406 16.5474ZM2.10666 17.42L8.05357 11.4731L10.1374 13.539C10.3786 13.7781 10.7678 13.7774 11.0081 13.5371L13.0399 11.5053L18.9546 17.42H2.10666ZM19.8272 16.5474L13.9125 10.6327L19.8272 4.71794V16.5474Z" fill="#2BB018"/>
</g>
<defs>
<clipPath id="clip0_148_217">
<rect width="21.0612" height="21.0612" fill="white" transform="translate(0 0.102051)"/>
</clipPath>
</defs>
</svg>
