<svg width="24" height="24" viewBox="0 0 24 24" fill="none" xmlns="http://www.w3.org/2000/svg">
<path d="M10.6507 13.3435C11.6315 14.3594 12.8182 15.1438 14.1274 15.6415L15.8987 14.2022C15.9512 14.1653 16.0135 14.1455 16.0772 14.1455C16.141 14.1455 16.2032 14.1653 16.2557 14.2022L19.5445 16.366C19.6694 16.4426 19.7751 16.5479 19.8532 16.6734C19.9314 16.7989 19.9799 16.9413 19.995 17.0893C20.01 17.2372 19.9912 17.3868 19.9399 17.526C19.8886 17.6652 19.8063 17.7904 19.6996 17.8916L18.1585 19.446C17.9378 19.6687 17.6666 19.8321 17.369 19.9217C17.0714 20.0113 16.7568 20.0242 16.4531 19.9594C13.4237 19.3205 10.6315 17.8242 8.39558 15.6415C6.20924 13.4371 4.69631 10.6323 4.0403 7.56712C3.9755 7.26182 3.98903 6.9446 4.07957 6.64621C4.17012 6.34781 4.33461 6.07836 4.55711 5.86397L6.15452 4.29035C6.25337 4.18662 6.37392 4.10707 6.50714 4.05765C6.64036 4.00824 6.78281 3.99024 6.92381 4.00501C7.06481 4.01977 7.20071 4.06692 7.32134 4.14293C7.44197 4.21893 7.5442 4.32181 7.62037 4.44387L9.80975 7.75903C9.84751 7.81109 9.8679 7.87416 9.8679 7.93894C9.8679 8.00372 9.84751 8.06679 9.80975 8.11885L8.36739 9.88917C8.86802 11.1994 9.64801 12.3793 10.6507 13.3435Z" fill="#2BB018"/>
</svg>
