<svg width="26" height="26" viewBox="0 0 26 26" fill="none" xmlns="http://www.w3.org/2000/svg">
<g clip-path="url(#clip0_148_232)">
<path d="M11.6055 15.1979L15.7691 12.7999L11.6055 10.4019V15.1979Z" fill="white"/>
<path d="M13.1999 0C6.13174 0 0.399902 5.73184 0.399902 12.8C0.399902 19.8682 6.13174 25.6 13.1999 25.6C20.2681 25.6 25.9999 19.8682 25.9999 12.8C25.9999 5.73184 20.2681 0 13.1999 0ZM21.198 12.8131C21.198 12.8131 21.198 15.409 20.8687 16.6607C20.6841 17.3459 20.1438 17.8861 19.4587 18.0705C18.2069 18.4 13.1999 18.4 13.1999 18.4C13.1999 18.4 8.20596 18.4 6.94111 18.0574C6.25596 17.873 5.71572 17.3326 5.53115 16.6475C5.20166 15.409 5.20166 12.8 5.20166 12.8C5.20166 12.8 5.20166 10.2043 5.53115 8.95254C5.71553 8.26738 6.26904 7.71387 6.94111 7.52949C8.19287 7.2 13.1999 7.2 13.1999 7.2C13.1999 7.2 18.2069 7.2 19.4587 7.54258C20.1438 7.72695 20.6841 8.26738 20.8687 8.95254C21.2112 10.2043 21.198 12.8131 21.198 12.8131Z" fill="white"/>
</g>
<defs>
<clipPath id="clip0_148_232">
<rect width="25.6" height="25.6" fill="white" transform="translate(0.399902)"/>
</clipPath>
</defs>
</svg>
