<svg width="306" height="161" viewBox="0 0 306 161" fill="none" xmlns="http://www.w3.org/2000/svg">
<g clip-path="url(#clip0_301_853)">
<path d="M39.7442 57.4833V77.1389H36.5256V63.1264L30.5678 73.0093H30.1784L24.2205 63.0996V77.1322H21.002V57.4833H24.4702L30.3714 67.3094L36.3026 57.4833H39.7442Z" fill="#2D2D2B"/>
<path d="M46.8768 74.0484H55.5473V77.1389H43.6582V57.4833H55.4075V60.5704H46.8768V65.6823H54.7052V68.7427H46.8768V74.0484Z" fill="#2D2D2B"/>
<path d="M71.2108 57.4833V60.5704H65.689V77.1389H62.4738V60.5704H56.9453V57.4833H71.2108Z" fill="#2D2D2B"/>
<path d="M88.8451 74.5395C87.1765 76.2393 84.9718 77.3048 82.6075 77.554C80.2432 77.8032 77.8661 77.2206 75.8822 75.9058C73.8983 74.591 72.4307 72.6256 71.7301 70.3453C71.0295 68.0649 71.1395 65.6111 72.0411 63.4031C72.9427 61.195 74.5801 59.3697 76.6735 58.239C78.767 57.1082 81.1866 56.7422 83.519 57.2034C85.8515 57.6646 87.9521 58.9244 89.4619 60.7676C90.9718 62.6108 91.7973 64.9231 91.7973 67.3094C91.8234 68.6531 91.5749 69.9878 91.0671 71.2314C90.5593 72.4749 89.8031 73.6007 88.8451 74.5395ZM76.7064 72.3411C78.0297 73.6292 79.8007 74.3496 81.6441 74.3496C83.4874 74.3496 85.2584 73.6292 86.5817 72.3411C87.866 70.9796 88.5817 69.176 88.5817 67.301C88.5817 65.4261 87.866 63.6225 86.5817 62.261C85.2584 60.9729 83.4874 60.2525 81.6441 60.2525C79.8007 60.2525 78.0297 60.9729 76.7064 62.261C75.4221 63.6225 74.7064 65.4261 74.7064 67.301C74.7064 69.176 75.4221 70.9796 76.7064 72.3411V72.3411Z" fill="#2D2D2B"/>
<path d="M102.425 57.4833C103.678 57.4509 104.924 57.6865 106.079 58.1744C107.234 58.6623 108.273 59.3914 109.125 60.3132C110.846 62.2297 111.798 64.718 111.798 67.2977C111.798 69.8774 110.846 72.3657 109.125 74.2822C108.275 75.2084 107.237 75.9416 106.082 76.4331C104.926 76.9246 103.68 77.1629 102.425 77.1322H94.7334V57.4833H102.425ZM102.425 74.0484C103.274 74.0793 104.119 73.9247 104.903 73.5953C105.686 73.2659 106.389 72.7695 106.962 72.1406C108.127 70.8665 108.709 69.2561 108.709 67.3094C108.709 65.3627 108.127 63.7489 106.962 62.4682C106.388 61.8447 105.688 61.3524 104.908 61.025C104.128 60.6975 103.287 60.5425 102.442 60.5704H97.952V74.0484H102.425Z" fill="#2D2D2B"/>
<path d="M126.763 77.1389L125.391 73.1797H117.07L115.699 77.1389H112.188L119.294 57.4833H123.155L130.231 77.1389H126.763ZM121.224 56.0232C119.826 56.0232 118.74 55.6813 117.966 54.9975C117.191 54.3137 116.804 53.3459 116.804 52.0941H119.547C119.547 53.1967 120.101 53.748 121.211 53.748C122.309 53.748 122.875 53.1967 122.875 52.0941H125.601C125.601 53.3481 125.214 54.3159 124.439 54.9975C123.665 55.6791 122.593 56.021 121.224 56.0232V56.0232ZM118.119 70.146H124.33L121.224 61.2754L118.119 70.146Z" fill="#2D2D2B"/>
<path d="M147.012 57.4833C148.265 57.4509 149.511 57.6865 150.666 58.1744C151.821 58.6623 152.859 59.3914 153.712 60.3132C155.431 62.2307 156.381 64.7186 156.381 67.2977C156.381 69.8768 155.431 72.3647 153.712 74.2822C152.862 75.2084 151.824 75.9416 150.669 76.4331C149.513 76.9246 148.267 77.1629 147.012 77.1322H139.32V57.4833H147.012ZM147.012 74.0484C147.858 74.077 148.699 73.9213 149.479 73.592C150.259 73.2626 150.958 72.7674 151.529 72.1406C152.694 70.8665 153.276 69.2561 153.276 67.3094C153.276 65.3627 152.694 63.7489 151.529 62.4682C150.956 61.8446 150.256 61.3523 149.477 61.0248C148.697 60.6973 147.857 60.5423 147.012 60.5704H142.536V74.0484H147.012Z" fill="#2D2D2B"/>
<path d="M162.546 74.0484H171.199V77.1389H159.32V57.4833H171.066V60.5704H162.546V65.6823H170.367V68.7427H162.546V74.0484Z" fill="#2D2D2B"/>
<path d="M193.892 77.1389L192.521 73.1797H184.18L182.809 77.1389H179.317L186.424 57.4833H190.284L197.361 77.1389H193.892ZM185.239 70.146H191.449L188.344 61.2754L185.239 70.146Z" fill="#2D2D2B"/>
<path d="M207.988 77.503C205.042 77.503 202.601 76.5252 200.666 74.5696C198.799 72.6177 197.757 70.0168 197.757 67.3111C197.757 64.6053 198.799 62.0044 200.666 60.0526C202.603 58.0969 205.044 57.1191 207.988 57.1191C209.706 57.105 211.398 57.5403 212.898 58.382C214.356 59.1823 215.57 60.3662 216.409 61.8066L213.61 63.4371C213.088 62.4611 212.298 61.6562 211.334 61.1184C210.313 60.542 209.159 60.2469 207.988 60.2631C205.903 60.2631 204.211 60.9313 202.913 62.2677C201.662 63.6514 200.969 65.4528 200.969 67.3211C200.969 69.1894 201.662 70.9908 202.913 72.3745C204.209 73.7109 205.9 74.3791 207.988 74.3791C209.163 74.3929 210.322 74.0968 211.347 73.5205C212.313 72.9901 213.1 72.1844 213.61 71.2051L216.409 72.8055C215.584 74.2507 214.38 75.441 212.928 76.2468C211.419 77.091 209.716 77.5241 207.988 77.503Z" fill="#2D2D2B"/>
<path d="M230.675 57.4833H233.89V77.1389H230.675V68.6291H222.284V77.1389H219.065V57.4833H222.284V65.542H230.675V57.4833Z" fill="#2D2D2B"/>
<path d="M237.808 57.4833H241.023V77.1389H237.808V57.4833Z" fill="#2D2D2B"/>
<path d="M257.665 57.4833V60.5704H252.156V77.1389H248.938V60.5704H243.399V57.4833H257.665Z" fill="#2D2D2B"/>
<path d="M271.401 77.1389L270.03 73.1797H261.709L260.341 77.1389H256.826L263.932 57.4833H267.793L274.869 77.1389H271.401ZM262.747 70.146H268.955L265.853 61.2754L262.747 70.146Z" fill="#2D2D2B"/>
<path d="M288.127 77.1389L283.986 69.9789H280.182V77.1389H276.967V57.4833H284.799C285.626 57.4784 286.447 57.6385 287.213 57.9543C287.979 58.2701 288.674 58.7353 289.26 59.3229C289.845 59.9106 290.309 60.609 290.623 61.3777C290.938 62.1465 291.097 62.9702 291.093 63.8013C291.102 65.0311 290.729 66.2332 290.024 67.2393C289.334 68.2578 288.355 69.0456 287.215 69.5012L291.662 77.1389H288.127ZM280.182 60.517V67.0856H284.799C285.209 67.0918 285.616 67.0098 285.992 66.845C286.368 66.6801 286.704 66.4364 286.979 66.13C287.559 65.4906 287.881 64.6565 287.881 63.7913C287.881 62.926 287.559 62.0919 286.979 61.4525C286.704 61.1471 286.367 60.9042 285.991 60.7399C285.615 60.5757 285.208 60.494 284.799 60.5003L280.182 60.517Z" fill="#2D2D2B"/>
<path d="M297.347 74.0484H306V77.1389H294.111V57.4833H305.861V60.5704H297.347V65.6823H305.178V68.7427H297.347V74.0484Z" fill="#2D2D2B"/>
<path d="M29.8361 98.4015L29.0007 95.9826H23.9082L23.0861 98.4015H20.9326L25.2595 86.3937H27.6194L31.9463 98.4015H29.8361ZM24.5572 94.1316H28.3516L26.4544 88.7124L24.5572 94.1316Z" fill="#2D2D2B"/>
<path d="M35.5972 98.4015L31.4434 86.3937H33.5968L36.7755 96.0193L39.9741 86.3937H42.1076L37.957 98.4015H35.5972Z" fill="#2D2D2B"/>
<path d="M50.5017 98.4015L49.663 95.9826H44.5705L43.7218 98.4015H41.585L45.9119 86.3937H48.2684L52.5953 98.4015H50.5017ZM45.2196 94.1383H49.014L47.1168 88.7124L45.2196 94.1383Z" fill="#2D2D2B"/>
<path d="M60.8235 86.4003V88.288H57.4585V98.4015H55.4914V88.288H52.1064V86.4003H60.8235Z" fill="#2D2D2B"/>
<path d="M69.2174 98.4015L68.3786 95.9826H63.2861L62.4474 98.4015H60.3105L64.6375 86.3937H67.0206L71.3475 98.4015H69.2174ZM63.9352 94.1316H67.7296L65.8324 88.7124L63.9352 94.1316Z" fill="#2D2D2B"/>
<path d="M75.8638 98.632C74.0066 98.632 72.7252 97.9003 72.0195 96.4369L73.7104 95.4346C74.1009 96.281 74.8243 96.7042 75.8805 96.7042C76.4527 96.7434 77.0182 96.5617 77.4615 96.1964C77.6524 96.0132 77.8011 95.7902 77.8972 95.5432C77.9932 95.2962 78.0342 95.031 78.0173 94.7664V86.4003H80.001V94.7731C80.001 96.0048 79.6138 96.957 78.8394 97.6297C78.005 98.3213 76.945 98.6784 75.8638 98.632V98.632Z" fill="#2D2D2B"/>
<path d="M92.263 96.8212C91.2437 97.8591 89.8971 98.5096 88.4531 98.6616C87.0091 98.8135 85.5574 98.4575 84.3458 97.6544C83.1343 96.8512 82.2381 95.6507 81.8104 94.258C81.3826 92.8652 81.4499 91.3666 82.0007 90.0181C82.5514 88.6696 83.5515 87.5549 84.8301 86.8643C86.1087 86.1738 87.5865 85.9503 89.011 86.232C90.4356 86.5137 91.7185 87.2831 92.6406 88.4089C93.5627 89.5346 94.0669 90.9468 94.067 92.4043C94.0826 93.2251 93.9305 94.0405 93.6203 94.8001C93.31 95.5597 92.8481 96.2475 92.263 96.8212ZM84.8473 95.4847C85.6549 96.2726 86.7367 96.7133 87.8628 96.7133C88.989 96.7133 90.0708 96.2726 90.8784 95.4847C91.6648 94.6534 92.1032 93.5507 92.1032 92.4043C92.1032 91.2578 91.6648 90.1551 90.8784 89.3238C90.0708 88.536 88.989 88.0952 87.8628 88.0952C86.7367 88.0952 85.6549 88.536 84.8473 89.3238C84.0632 90.1563 83.6262 91.2585 83.6262 92.4043C83.6262 93.55 84.0632 94.6522 84.8473 95.4847V95.4847Z" fill="#2D2D2B"/>
<path d="M103.21 98.4015L102.375 95.9826H97.2791L96.4437 98.4015H94.3135L98.6404 86.3937H101L105.327 98.4015H103.21ZM97.9314 94.1316H101.726L99.8286 88.7124L97.9314 94.1316Z" fill="#2D2D2B"/>
<path d="M110.29 98.632C109.258 98.6642 108.239 98.3899 107.361 97.8435C106.571 97.3358 105.977 96.5734 105.677 95.6819L107.368 94.6795C107.847 96.0293 108.839 96.7042 110.343 96.7042C110.931 96.7472 111.516 96.5933 112.007 96.2665C112.184 96.1355 112.327 95.9635 112.424 95.7652C112.521 95.5669 112.569 95.348 112.563 95.1272C112.573 94.9033 112.522 94.6809 112.418 94.483C112.313 94.2851 112.158 94.1188 111.967 94.0013C111.297 93.6335 110.586 93.3486 109.847 93.1527C109.377 93.0173 108.915 92.8567 108.463 92.6715C108.069 92.5007 107.694 92.2914 107.341 92.0468C106.965 91.7965 106.662 91.4506 106.462 91.0444C106.26 90.6038 106.161 90.1227 106.173 89.6378C106.153 89.1574 106.245 88.679 106.441 88.2401C106.637 87.8013 106.931 87.414 107.301 87.1087C108.065 86.48 109.029 86.148 110.017 86.1731C110.906 86.153 111.78 86.3984 112.53 86.8781C113.258 87.3514 113.835 88.0238 114.194 88.8159L112.53 89.7748C112.338 89.2671 111.993 88.8326 111.542 88.5328C111.091 88.233 110.557 88.0831 110.017 88.1043C109.528 88.0789 109.046 88.2215 108.649 88.5086C108.483 88.6359 108.35 88.8012 108.261 88.9907C108.172 89.1802 108.129 89.3883 108.136 89.5978C108.129 89.8034 108.173 90.0077 108.265 90.192C108.356 90.3763 108.491 90.5349 108.659 90.6535C109.244 91.0177 109.88 91.2925 110.546 91.4688C111.002 91.6158 111.335 91.7294 111.545 91.8029C111.754 91.8764 112.051 91.9933 112.433 92.137C112.742 92.2562 113.032 92.4181 113.295 92.6181C113.516 92.8041 113.724 93.0051 113.918 93.2195C114.136 93.4533 114.298 93.7345 114.391 94.0414C114.485 94.3817 114.531 94.7338 114.527 95.0871C114.547 95.5796 114.451 96.0698 114.247 96.5184C114.044 96.9669 113.738 97.3613 113.355 97.6698C112.477 98.3399 111.392 98.6803 110.29 98.632V98.632Z" fill="#2D2D2B"/>
<path d="M123.859 98.4015L123.021 95.9826H117.945L117.089 98.4015H114.949L119.276 86.3937H121.636L125.963 98.4015H123.859ZM120.474 85.5083C119.754 85.5545 119.042 85.3307 118.477 84.8802C118.235 84.6561 118.045 84.3806 117.922 84.0737C117.799 83.7668 117.745 83.4363 117.765 83.106H119.429C119.429 83.7743 119.762 84.1084 120.454 84.1084C120.59 84.1258 120.727 84.1119 120.856 84.0677C120.985 84.0235 121.103 83.9502 121.199 83.8534C121.295 83.7566 121.368 83.6389 121.412 83.5094C121.456 83.3798 121.47 83.2418 121.453 83.106H123.117C123.137 83.436 123.083 83.7661 122.961 84.0729C122.838 84.3796 122.649 84.6553 122.408 84.8802C121.861 85.3177 121.173 85.5409 120.474 85.5083V85.5083ZM118.577 94.1383H122.372L120.474 88.7124L118.577 94.1383Z" fill="#2D2D2B"/>
<path d="M136.232 86.4003C136.998 86.3812 137.758 86.5256 138.464 86.824C139.17 87.1224 139.805 87.5679 140.326 88.131C141.378 89.3017 141.961 90.8225 141.961 92.3992C141.961 93.976 141.378 95.4968 140.326 96.6675C139.807 97.2338 139.173 97.6821 138.466 97.9823C137.76 98.2825 136.998 98.4277 136.232 98.4082H131.532V86.4003H136.232ZM136.232 96.5205C136.749 96.5379 137.264 96.4427 137.741 96.2415C138.217 96.0402 138.645 95.7375 138.994 95.3544C139.685 94.5256 140.063 93.4796 140.063 92.3992C140.063 91.3189 139.685 90.2729 138.994 89.4441C138.644 89.0635 138.215 88.7632 137.739 88.5637C137.262 88.3642 136.748 88.2702 136.232 88.288H133.499V96.5205H136.232Z" fill="#2D2D2B"/>
<path d="M143.754 86.4003H145.718V98.4015H143.754V86.4003Z" fill="#2D2D2B"/>
<path d="M151.922 98.632C150.889 98.6642 149.871 98.3899 148.993 97.8435C148.203 97.3358 147.609 96.5734 147.309 95.6819L148.999 94.6795C149.479 96.0293 150.471 96.7042 151.975 96.7042C152.563 96.7472 153.148 96.5933 153.639 96.2665C153.816 96.1355 153.959 95.9635 154.056 95.7652C154.153 95.5669 154.201 95.348 154.195 95.1272C154.205 94.9029 154.154 94.68 154.049 94.4819C153.944 94.2839 153.787 94.1179 153.596 94.0013C152.927 93.6328 152.217 93.3478 151.479 93.1527C151.009 93.0179 150.547 92.8572 150.094 92.6715C149.701 92.5007 149.325 92.2914 148.973 92.0468C148.597 91.7965 148.294 91.4506 148.094 91.0444C147.892 90.6038 147.793 90.1227 147.805 89.6378C147.785 89.1574 147.877 88.679 148.073 88.2401C148.268 87.8013 148.563 87.414 148.933 87.1087C149.697 86.48 150.661 86.148 151.649 86.1731C152.538 86.153 153.412 86.3984 154.162 86.8781C154.889 87.3514 155.467 88.0238 155.826 88.8159L154.162 89.7748C153.97 89.2671 153.625 88.8326 153.174 88.5328C152.723 88.233 152.189 88.0831 151.649 88.1043C151.16 88.0789 150.678 88.2215 150.281 88.5086C150.115 88.6359 149.982 88.8012 149.893 88.9907C149.804 89.1802 149.761 89.3883 149.768 89.5978C149.761 89.8034 149.805 90.0077 149.897 90.192C149.988 90.3763 150.123 90.5349 150.291 90.6535C150.876 91.0177 151.512 91.2925 152.178 91.4688C152.634 91.6158 152.967 91.7294 153.177 91.8029C153.386 91.8764 153.682 91.9933 154.065 92.137C154.374 92.2562 154.664 92.4181 154.927 92.6181C155.148 92.8041 155.356 93.0051 155.55 93.2195C155.768 93.4533 155.93 93.7345 156.022 94.0414C156.117 94.3817 156.163 94.7338 156.159 95.0871C156.178 95.5796 156.083 96.0698 155.879 96.5184C155.676 96.9669 155.37 97.3613 154.987 97.6698C154.109 98.3399 153.024 98.6803 151.922 98.632V98.632Z" fill="#2D2D2B"/>
<path d="M162.177 86.4003C162.7 86.3865 163.221 86.4798 163.707 86.6745C164.194 86.8692 164.636 87.1613 165.006 87.533C165.739 88.2826 166.149 89.2909 166.149 90.3411C166.149 91.3914 165.739 92.3997 165.006 93.1493C164.637 93.5237 164.196 93.8183 163.709 94.0148C163.223 94.2114 162.701 94.3057 162.177 94.292H159.734V98.4015H157.767V86.4003H162.177ZM162.177 92.4377C162.444 92.4461 162.711 92.3978 162.958 92.2959C163.206 92.194 163.43 92.0408 163.615 91.8463C163.979 91.4309 164.18 90.8963 164.18 90.3428C164.18 89.7893 163.979 89.2548 163.615 88.8393C163.431 88.6437 163.207 88.4895 162.959 88.387C162.711 88.2845 162.445 88.2359 162.177 88.2446H159.734V92.431L162.177 92.4377Z" fill="#2D2D2B"/>
<path d="M177.756 96.8212C176.737 97.8591 175.39 98.5096 173.946 98.6616C172.502 98.8135 171.051 98.4575 169.839 97.6544C168.627 96.8512 167.731 95.6507 167.304 94.258C166.876 92.8652 166.943 91.3666 167.494 90.0181C168.045 88.6696 169.045 87.5549 170.323 86.8643C171.602 86.1738 173.08 85.9503 174.504 86.232C175.929 86.5137 177.212 87.2831 178.134 88.4089C179.056 89.5346 179.56 90.9468 179.56 92.4043C179.576 93.2251 179.424 94.0405 179.113 94.8001C178.803 95.5597 178.341 96.2475 177.756 96.8212V96.8212ZM170.337 95.4847C171.145 96.2736 172.227 96.7149 173.354 96.7149C174.481 96.7149 175.564 96.2736 176.372 95.4847C177.156 94.6522 177.593 93.55 177.593 92.4043C177.593 91.2585 177.156 90.1563 176.372 89.3238C175.564 88.535 174.481 88.0936 173.354 88.0936C172.227 88.0936 171.145 88.535 170.337 89.3238C169.553 90.1563 169.116 91.2585 169.116 92.4043C169.116 93.55 169.553 94.6522 170.337 95.4847V95.4847Z" fill="#2D2D2B"/>
<path d="M188.531 86.4003H190.504V98.4015H188.967L183.308 90.2526V98.4015H181.345V86.4003H182.882L188.521 94.5492L188.531 86.4003Z" fill="#2D2D2B"/>
<path d="M192.891 86.4003H194.854V98.4015H192.891V86.4003Z" fill="#2D2D2B"/>
<path d="M204.291 92.1804C204.795 92.4399 205.221 92.8312 205.522 93.313C205.823 93.8171 205.977 94.396 205.965 94.9836C205.977 95.4439 205.89 95.9014 205.71 96.3251C205.53 96.7488 205.262 97.1287 204.923 97.4393C204.235 98.0873 203.321 98.4378 202.377 98.4149H197.248V86.4003H202.001C202.922 86.3783 203.815 86.7203 204.487 87.3525C204.813 87.6538 205.071 88.0218 205.243 88.4315C205.416 88.8413 205.498 89.2834 205.486 89.728C205.505 90.2043 205.406 90.6778 205.197 91.106C204.989 91.5341 204.677 91.9034 204.291 92.1804V92.1804ZM202.001 88.2513H199.215V91.4086H202.001C202.204 91.4132 202.407 91.3751 202.595 91.2969C202.783 91.2186 202.952 91.1019 203.093 90.9542C203.379 90.6512 203.539 90.2494 203.539 89.8316C203.539 89.4138 203.379 89.012 203.093 88.709C202.952 88.5609 202.783 88.4436 202.595 88.3648C202.407 88.286 202.205 88.2474 202.001 88.2513ZM202.377 96.5572C202.593 96.5614 202.807 96.5198 203.005 96.4351C203.204 96.3505 203.382 96.2247 203.529 96.0661C203.832 95.7441 204.001 95.318 204.001 94.875C204.001 94.432 203.832 94.0058 203.529 93.6839C203.382 93.5252 203.204 93.3995 203.005 93.3148C202.807 93.2302 202.593 93.1886 202.377 93.1927H199.215V96.5572H202.377Z" fill="#2D2D2B"/>
<path d="M207.672 86.4003H209.639V98.4015H207.672V86.4003Z" fill="#2D2D2B"/>
<path d="M213.996 96.5205H218.869V98.4015H212.032V86.4003H213.996V96.5205Z" fill="#2D2D2B"/>
<path d="M228.449 98.4015L227.613 95.9826H222.521L221.689 98.4015H219.552L223.879 86.3937H226.239L230.565 98.4015H228.449ZM225.067 85.5016C224.347 85.5478 223.635 85.324 223.07 84.8735C222.827 84.6494 222.638 84.3739 222.514 84.067C222.391 83.7602 222.338 83.4296 222.358 83.0994H224.022C224.022 83.7676 224.355 84.1017 225.047 84.1017C225.182 84.1192 225.32 84.1053 225.449 84.0611C225.578 84.0169 225.695 83.9435 225.791 83.8467C225.888 83.7499 225.961 83.6322 226.005 83.5027C226.049 83.3731 226.063 83.2351 226.045 83.0994H227.71C227.729 83.4293 227.676 83.7595 227.553 84.0662C227.431 84.3729 227.242 84.6486 227.001 84.8735C226.456 85.3119 225.771 85.5374 225.074 85.5083L225.067 85.5016ZM223.17 94.1316H226.964L225.074 88.7124L223.17 94.1316Z" fill="#2D2D2B"/>
<path d="M240.83 86.4003C241.595 86.3812 242.356 86.5256 243.062 86.824C243.768 87.1224 244.402 87.5679 244.924 88.131C245.974 89.3027 246.555 90.8231 246.555 92.3992C246.555 93.9754 245.974 95.4958 244.924 96.6675C244.404 97.2326 243.769 97.6796 243.063 97.9787C242.357 98.2777 241.596 98.4219 240.83 98.4015H236.13V86.4003H240.83ZM240.83 96.5205C241.347 96.5379 241.861 96.4427 242.338 96.2415C242.815 96.0402 243.243 95.7375 243.592 95.3544C244.282 94.5256 244.661 93.4796 244.661 92.3992C244.661 91.3189 244.282 90.2729 243.592 89.4441C243.241 89.0635 242.813 88.7632 242.336 88.5637C241.86 88.3642 241.346 88.2702 240.83 88.288H238.1V96.5205H240.83Z" fill="#2D2D2B"/>
<path d="M258.358 96.8212C257.338 97.8591 255.992 98.5096 254.548 98.6616C253.104 98.8135 251.652 98.4575 250.441 97.6544C249.229 96.8512 248.333 95.6507 247.905 94.258C247.477 92.8652 247.545 91.3666 248.095 90.0181C248.646 88.6696 249.646 87.5549 250.925 86.8643C252.203 86.1738 253.681 85.9503 255.106 86.232C256.53 86.5137 257.813 87.2831 258.735 88.4089C259.657 89.5346 260.162 90.9468 260.162 92.4043C260.177 93.2251 260.025 94.0405 259.715 94.8001C259.405 95.5597 258.943 96.2475 258.358 96.8212V96.8212ZM250.942 95.4847C251.75 96.2726 252.831 96.7133 253.958 96.7133C255.084 96.7133 256.166 96.2726 256.973 95.4847C257.757 94.6522 258.194 93.55 258.194 92.4043C258.194 91.2585 257.757 90.1563 256.973 89.3238C256.166 88.536 255.084 88.0952 253.958 88.0952C252.831 88.0952 251.75 88.536 250.942 89.3238C250.156 90.1551 249.717 91.2578 249.717 92.4043C249.717 93.5507 250.156 94.6534 250.942 95.4847V95.4847Z" fill="#2D2D2B"/>
<path d="M269.305 98.4015L268.469 95.9826H263.374L262.538 98.4015H260.401L264.728 86.3937H267.088L271.415 98.4015H269.305ZM264.023 94.1316H267.817L265.92 88.7124L264.023 94.1316Z" fill="#2D2D2B"/>
<path d="M279.526 98.4015L276.996 94.0281H274.666V98.4015H272.716V86.4004H277.502C278.008 86.3968 278.509 86.4942 278.977 86.6869C279.445 86.8795 279.871 87.1637 280.228 87.5227C280.586 87.8818 280.869 88.3086 281.061 88.7784C281.253 89.2482 281.35 89.7516 281.346 90.2593C281.348 91.0123 281.115 91.7469 280.681 92.3609C280.257 92.9826 279.66 93.4641 278.963 93.7441L281.679 98.4216L279.526 98.4015ZM274.673 88.2446V92.2539H277.492C277.743 92.2579 277.991 92.2077 278.221 92.1068C278.451 92.0059 278.656 91.8567 278.823 91.6693C279.177 91.2802 279.373 90.7726 279.373 90.2459C279.373 89.7193 279.177 89.2117 278.823 88.8226C278.656 88.6359 278.45 88.4871 278.221 88.3863C277.991 88.2855 277.743 88.2349 277.492 88.238L274.673 88.2446Z" fill="#2D2D2B"/>
<path d="M289.421 96.5205H294.294V98.4015H287.457V86.4003H289.421V96.5205Z" fill="#2D2D2B"/>
<path d="M303.88 98.4015L303.045 95.9826H297.949L297.113 98.4015H294.977L299.303 86.3937H301.673L306 98.4015H303.88ZM298.601 94.1316H302.392L300.498 88.7124L298.601 94.1316Z" fill="#2D2D2B"/>
<path d="M36.9387 109.911H41.2856V136.466H37.884L25.4158 118.448V136.466H21.0889V109.911H24.4905L36.9587 127.93L36.9387 109.911Z" fill="#2BB018"/>
<path d="M50.9211 132.293H62.6371V136.466H46.5742V109.911H62.4474V114.085H50.9211V120.991H61.5021V125.13H50.9211V132.293Z" fill="#2BB018"/>
<path d="M72.1961 136.466L64.7139 109.911H69.2871L74.8422 130.663L80.85 109.911H84.844L90.8152 130.663L96.3703 109.911H100.97L93.4879 136.466H88.462L82.8703 117.088L77.2386 136.466H72.1961Z" fill="#2BB018"/>
<path d="M121.55 109.911V114.085H114.104V136.47H109.777V114.085H102.278V109.911H121.55Z" fill="#2BB018"/>
<path d="M145.378 132.958C143.121 135.257 140.139 136.697 136.942 137.033C133.744 137.369 130.53 136.581 127.847 134.802C125.165 133.023 123.181 130.364 122.235 127.28C121.289 124.196 121.438 120.877 122.659 117.892C123.88 114.906 126.095 112.439 128.927 110.911C131.759 109.383 135.032 108.89 138.186 109.515C141.34 110.141 144.179 111.846 146.22 114.34C148.26 116.834 149.374 119.962 149.372 123.189C149.407 125.005 149.07 126.809 148.383 128.489C147.696 130.169 146.673 131.69 145.378 132.958ZM128.976 129.998C130.764 131.738 133.156 132.711 135.646 132.711C138.136 132.711 140.528 131.738 142.316 129.998C144.116 128.192 145.017 125.922 145.019 123.189C145.021 120.456 144.12 118.186 142.316 116.38C140.528 114.642 138.136 113.67 135.646 113.67C133.156 113.67 130.764 114.642 128.976 116.38C127.17 118.188 126.267 120.458 126.267 123.189C126.267 125.92 127.17 128.189 128.976 129.998Z" fill="#2BB018"/>
<path d="M169.202 109.911H173.549V136.466H170.148L157.676 118.448V136.466H153.329V109.911H156.731L169.202 127.93V109.911Z" fill="#2BB018"/>
<path d="M203.968 109.911H208.315V136.466H203.968V124.973H192.631V136.466H188.284V109.911H192.631V120.787H203.968V109.911Z" fill="#2BB018"/>
<path d="M235.73 132.958C233.475 135.254 230.495 136.692 227.3 137.028C224.105 137.363 220.893 136.574 218.213 134.796C215.533 133.018 213.551 130.362 212.606 127.28C211.661 124.198 211.811 120.883 213.03 117.899C214.25 114.916 216.464 112.451 219.293 110.924C222.122 109.397 225.392 108.904 228.544 109.529C231.695 110.153 234.533 111.857 236.572 114.348C238.611 116.84 239.726 119.964 239.724 123.189C239.759 125.005 239.423 126.809 238.736 128.489C238.049 130.169 237.026 131.69 235.73 132.958V132.958ZM219.328 129.998C221.116 131.738 223.508 132.711 225.998 132.711C228.488 132.711 230.88 131.738 232.668 129.998C234.47 128.192 235.371 125.922 235.371 123.189C235.371 120.456 234.47 118.186 232.668 116.38C230.88 114.642 228.488 113.67 225.998 113.67C223.509 113.67 221.117 114.642 219.328 116.38C217.528 118.188 216.629 120.458 216.629 123.189C216.629 125.92 217.528 128.189 219.328 129.998Z" fill="#2BB018"/>
<path d="M260.425 134.438C258.561 136.118 256.155 136.959 253.209 136.961C250.262 136.963 247.855 136.122 245.989 134.438C244.125 132.754 243.193 130.497 243.193 127.666V109.911H247.54V127.402C247.54 129.019 248.013 130.309 248.958 131.271C249.903 132.233 251.32 132.713 253.209 132.711C255.099 132.711 256.516 132.231 257.459 131.271C258.402 130.311 258.875 129.021 258.877 127.402V109.911H263.224V127.666C263.224 130.499 262.291 132.757 260.425 134.438Z" fill="#2BB018"/>
<path d="M277.016 136.961C274.469 136.961 272.309 136.378 270.536 135.214C268.791 134.091 267.477 132.406 266.812 130.436L270.553 128.234C271.611 131.221 273.803 132.713 277.13 132.711C278.767 132.711 279.995 132.388 280.814 131.742C281.205 131.452 281.52 131.071 281.734 130.633C281.948 130.194 282.054 129.711 282.042 129.223C282.062 128.727 281.949 128.235 281.715 127.797C281.481 127.36 281.134 126.994 280.711 126.737C279.823 126.167 278.262 125.541 276.028 124.86C274.99 124.557 273.968 124.203 272.966 123.797C272.096 123.42 271.266 122.955 270.489 122.411C269.655 121.858 268.983 121.092 268.542 120.192C268.096 119.217 267.876 118.154 267.9 117.081C267.9 114.729 268.732 112.865 270.396 111.489C272.09 110.099 274.224 109.368 276.411 109.427C278.374 109.384 280.307 109.924 281.966 110.981C283.565 112.034 284.834 113.52 285.627 115.267L281.966 117.392C280.856 114.913 279.005 113.675 276.411 113.677C275.149 113.677 274.144 113.971 273.388 114.566C273.021 114.847 272.727 115.213 272.529 115.632C272.332 116.051 272.237 116.511 272.253 116.975C272.237 117.43 272.334 117.882 272.535 118.29C272.736 118.698 273.035 119.05 273.405 119.313C274.173 119.881 275.565 120.482 277.582 121.114C278.59 121.442 279.326 121.688 279.792 121.853C280.258 122.017 280.914 122.277 281.759 122.631C282.441 122.894 283.083 123.252 283.667 123.693C284.156 124.107 284.616 124.554 285.045 125.03C285.528 125.547 285.885 126.171 286.086 126.851C286.295 127.604 286.396 128.384 286.386 129.166C286.386 131.567 285.524 133.471 283.8 134.876C282.076 136.282 279.814 136.977 277.016 136.961Z" fill="#2BB018"/>
<path d="M294.284 132.293H306V136.466H289.94V109.911H305.81V114.085H294.284V120.991H304.865V125.13H294.284V132.293Z" fill="#2BB018"/>
<path d="M117.519 63.6843L117.419 44.4932L63.4693 10.7483L9.10647 45.0177L9.14641 151.875L117.569 151.835V132.938H127.321V160.957L0.0598705 161.003L0.0166016 39.9794L63.4493 0L127.265 39.9126V63.681L117.519 63.6843Z" fill="url(#paint0_linear_301_853)"/>
</g>
<defs>
<linearGradient id="paint0_linear_301_853" x1="127.128" y1="80.4933" x2="-0.129845" y2="80.4933" gradientUnits="userSpaceOnUse">
<stop stop-color="#2BB018" stop-opacity="0"/>
<stop offset="0.13" stop-color="#2BB018" stop-opacity="0.29"/>
<stop offset="0.33" stop-color="#2BB018" stop-opacity="0.45"/>
<stop offset="0.45" stop-color="#2BB018" stop-opacity="0.61"/>
<stop offset="1" stop-color="#2BB018"/>
</linearGradient>
<clipPath id="clip0_301_853">
<rect width="306" height="161" fill="white"/>
</clipPath>
</defs>
</svg>
