<svg width="507" height="267" viewBox="0 0 507 267" fill="none" xmlns="http://www.w3.org/2000/svg">
<g clip-path="url(#clip0_116_2691)">
<path d="M65.8512 95.3294V127.926H60.5184V104.688L50.6471 121.078H50.0019L40.1306 104.644V127.915H34.7979V95.3294H40.5442L50.3217 111.625L60.149 95.3294H65.8512Z" fill="white"/>
<path d="M77.6687 122.801H92.0345V127.926H72.3359V95.3294H91.8029V100.449H77.6687V108.927H90.6392V114.002H77.6687V122.801Z" fill="white"/>
<path d="M117.988 95.3294V100.449H108.839V127.926H103.511V100.449H94.3516V95.3294H117.988Z" fill="white"/>
<path d="M147.204 123.615C144.439 126.434 140.786 128.201 136.869 128.614C132.952 129.028 129.013 128.062 125.726 125.881C122.439 123.701 120.008 120.441 118.847 116.66C117.686 112.878 117.868 108.809 119.362 105.147C120.856 101.485 123.569 98.4579 127.037 96.5827C130.506 94.7075 134.515 94.1004 138.379 94.8652C142.244 95.63 145.724 97.7193 148.226 100.776C150.728 103.833 152.095 107.667 152.095 111.625C152.139 113.853 151.727 116.067 150.886 118.129C150.044 120.191 148.791 122.058 147.204 123.615ZM127.092 119.969C129.284 122.106 132.219 123.3 135.273 123.3C138.327 123.3 141.261 122.106 143.454 119.969C145.582 117.712 146.768 114.72 146.768 111.611C146.768 108.502 145.582 105.511 143.454 103.253C141.261 101.117 138.327 99.9218 135.273 99.9218C132.219 99.9218 129.284 101.117 127.092 103.253C124.964 105.511 123.778 108.502 123.778 111.611C123.778 114.72 124.964 117.712 127.092 119.969Z" fill="white"/>
<path d="M169.704 95.3294C171.78 95.2757 173.844 95.6664 175.758 96.4755C177.672 97.2847 179.392 98.4938 180.806 100.022C183.656 103.201 185.233 107.327 185.233 111.606C185.233 115.884 183.656 120.01 180.806 123.189C179.396 124.724 177.677 125.941 175.763 126.756C173.848 127.571 171.783 127.966 169.704 127.915H156.96V95.3294H169.704ZM169.704 122.801C171.111 122.852 172.511 122.596 173.809 122.049C175.107 121.503 176.271 120.68 177.221 119.637C179.151 117.524 180.116 114.853 180.116 111.625C180.116 108.396 179.151 105.72 177.221 103.596C176.271 102.562 175.11 101.746 173.818 101.203C172.526 100.66 171.132 100.403 169.732 100.449H162.293V122.801H169.704Z" fill="white"/>
<path d="M210.028 127.926L207.756 121.36H193.969L191.697 127.926H185.879L197.653 95.3294H204.05L215.774 127.926H210.028ZM200.851 92.9081C198.535 92.9081 196.736 92.3411 195.452 91.2071C194.169 90.0731 193.528 88.4681 193.528 86.3921H198.072C198.072 88.2206 198.991 89.1348 200.829 89.1348C202.649 89.1348 203.587 88.2206 203.587 86.3921H208.103C208.103 88.4718 207.462 90.0768 206.179 91.2071C204.895 92.3374 203.12 92.9044 200.851 92.9081ZM195.706 116.329H205.997L200.851 101.618L195.706 116.329Z" fill="white"/>
<path d="M243.579 95.3294C245.655 95.2757 247.719 95.6664 249.633 96.4755C251.547 97.2847 253.267 98.4938 254.681 100.022C257.527 103.203 259.103 107.328 259.103 111.606C259.103 115.883 257.527 120.009 254.681 123.189C253.271 124.724 251.552 125.941 249.638 126.756C247.723 127.571 245.658 127.966 243.579 127.915H230.835V95.3294H243.579ZM243.579 122.801C244.98 122.848 246.375 122.59 247.667 122.044C248.959 121.498 250.117 120.676 251.063 119.637C252.993 117.524 253.958 114.853 253.958 111.625C253.958 108.396 252.993 105.72 251.063 103.596C250.114 102.562 248.954 101.746 247.663 101.203C246.371 100.659 244.979 100.402 243.579 100.449H236.162V122.801H243.579Z" fill="white"/>
<path d="M269.316 122.801H283.655V127.926H263.973V95.3294H283.434V100.449H269.316V108.927H282.276V114.002H269.316V122.801Z" fill="white"/>
<path d="M321.253 127.926L318.981 121.36H305.161L302.889 127.926H297.104L308.878 95.3294H315.275L327 127.926H321.253ZM306.915 116.329H317.206L312.06 101.618L306.915 116.329Z" fill="white"/>
<path d="M344.609 128.53C339.726 128.53 335.682 126.908 332.476 123.665C329.383 120.428 327.656 116.115 327.656 111.628C327.656 107.141 329.383 102.827 332.476 99.5903C335.686 96.3471 339.73 94.7255 344.609 94.7255C347.455 94.7021 350.258 95.4239 352.743 96.8199C355.159 98.1471 357.171 100.11 358.561 102.499L353.923 105.203C353.059 103.585 351.749 102.25 350.151 101.358C348.46 100.402 346.548 99.9125 344.609 99.9394C341.153 99.9394 338.349 101.048 336.199 103.264C334.127 105.559 332.979 108.546 332.979 111.644C332.979 114.743 334.127 117.73 336.199 120.025C338.346 122.241 341.149 123.349 344.609 123.349C346.556 123.372 348.474 122.881 350.173 121.925C351.773 121.046 353.078 119.71 353.923 118.086L358.561 120.74C357.194 123.136 355.199 125.11 352.792 126.447C350.292 127.847 347.471 128.565 344.609 128.53Z" fill="white"/>
<path d="M382.196 95.3294H387.523V127.926H382.196V113.814H368.294V127.926H362.961V95.3294H368.294V108.694H382.196V95.3294Z" fill="white"/>
<path d="M394.015 95.3294H399.342V127.926H394.015V95.3294Z" fill="white"/>
<path d="M426.915 95.3294V100.449H417.788V127.926H412.456V100.449H403.279V95.3294H426.915Z" fill="white"/>
<path d="M449.674 127.926L447.402 121.36H433.615L431.349 127.926H425.525L437.299 95.3294H443.696L455.421 127.926H449.674ZM435.336 116.329H445.621L440.481 101.618L435.336 116.329Z" fill="white"/>
<path d="M477.386 127.926L470.526 116.052H464.223V127.926H458.896V95.3294H471.872C473.243 95.3213 474.603 95.5868 475.872 96.1105C477.141 96.6342 478.294 97.4057 479.263 98.3802C480.233 99.3548 481.001 100.513 481.522 101.788C482.044 103.063 482.308 104.429 482.3 105.807C482.316 107.847 481.697 109.84 480.53 111.509C479.386 113.198 477.765 114.504 475.875 115.26L483.243 127.926H477.386ZM464.223 100.36V111.254H471.872C472.551 111.264 473.226 111.128 473.849 110.855C474.472 110.581 475.029 110.177 475.484 109.669C476.446 108.609 476.979 107.225 476.979 105.79C476.979 104.356 476.446 102.972 475.484 101.912C475.028 101.405 474.47 101.003 473.847 100.73C473.225 100.458 472.551 100.322 471.872 100.333L464.223 100.36Z" fill="white"/>
<path d="M492.662 122.801H507V127.926H487.302V95.3294H506.769V100.449H492.662V108.927H505.638V114.002H492.662V122.801Z" fill="white"/>
<path d="M49.434 163.188L48.0498 159.176H39.6123L38.2501 163.188H34.6821L41.8512 143.274H45.7612L52.9303 163.188H49.434ZM40.6876 156.106H46.9744L43.831 147.119L40.6876 156.106Z" fill="white"/>
<path d="M58.98 163.188L52.0977 143.274H55.6657L60.9322 159.237L66.2318 143.274H69.7668L62.8899 163.188H58.98Z" fill="white"/>
<path d="M83.6743 163.188L82.2846 159.176H73.8471L72.4408 163.188H68.9004L76.0695 143.274H79.9739L87.143 163.188H83.6743ZM74.9224 156.118H81.2092L78.0658 147.119L74.9224 156.118Z" fill="white"/>
<path d="M100.776 143.285V146.416H95.2007V163.188H91.9415V146.416H86.333V143.285H100.776Z" fill="white"/>
<path d="M114.684 163.188L113.294 159.176H104.857L103.467 163.188H99.9268L107.096 143.274H111.044L118.214 163.188H114.684ZM105.932 156.106H112.219L109.076 147.119L105.932 156.106Z" fill="white"/>
<path d="M125.697 163.57C122.619 163.57 120.496 162.356 119.327 159.93L122.129 158.267C122.776 159.671 123.974 160.373 125.724 160.373C126.672 160.438 127.609 160.137 128.344 159.531C128.66 159.227 128.906 158.857 129.066 158.447C129.225 158.038 129.293 157.598 129.265 157.159V143.285H132.551V157.17C132.551 159.213 131.91 160.792 130.627 161.908C129.244 163.055 127.488 163.647 125.697 163.57Z" fill="white"/>
<path d="M152.867 160.567C151.179 162.288 148.947 163.367 146.555 163.619C144.162 163.871 141.757 163.281 139.75 161.949C137.742 160.617 136.257 158.626 135.549 156.316C134.84 154.006 134.951 151.521 135.864 149.285C136.777 147.048 138.434 145.2 140.552 144.055C142.671 142.909 145.119 142.539 147.479 143.006C149.839 143.473 151.965 144.749 153.493 146.616C155.021 148.483 155.856 150.825 155.856 153.242C155.882 154.603 155.63 155.955 155.116 157.215C154.602 158.475 153.837 159.615 152.867 160.567ZM140.581 158.35C141.919 159.657 143.711 160.388 145.577 160.388C147.443 160.388 149.235 159.657 150.573 158.35C151.876 156.972 152.603 155.143 152.603 153.242C152.603 151.341 151.876 149.512 150.573 148.133C149.235 146.827 147.443 146.096 145.577 146.096C143.711 146.096 141.919 146.827 140.581 148.133C139.281 149.514 138.557 151.342 138.557 153.242C138.557 155.142 139.281 156.97 140.581 158.35Z" fill="white"/>
<path d="M171.005 163.188L169.621 159.176H161.178L159.794 163.188H156.265L163.434 143.274H167.344L174.513 163.188H171.005ZM162.259 156.106H168.546L165.403 147.119L162.259 156.106Z" fill="white"/>
<path d="M182.735 163.57C181.025 163.623 179.337 163.168 177.882 162.262C176.574 161.42 175.59 160.156 175.092 158.677L177.893 157.015C178.687 159.254 180.331 160.373 182.823 160.373C183.797 160.444 184.767 160.189 185.581 159.647C185.874 159.43 186.111 159.145 186.271 158.816C186.432 158.487 186.511 158.124 186.502 157.758C186.517 157.386 186.434 157.018 186.261 156.689C186.087 156.361 185.83 156.085 185.515 155.89C184.404 155.281 183.225 154.808 182.002 154.483C181.223 154.259 180.458 153.992 179.708 153.685C179.056 153.402 178.433 153.055 177.849 152.649C177.226 152.234 176.724 151.66 176.393 150.987C176.059 150.256 175.894 149.458 175.913 148.654C175.881 147.857 176.033 147.064 176.358 146.336C176.682 145.608 177.17 144.966 177.783 144.46C179.049 143.417 180.646 142.867 182.283 142.908C183.755 142.875 185.205 143.282 186.447 144.077C187.652 144.862 188.609 145.977 189.204 147.291L186.447 148.881C186.129 148.039 185.557 147.319 184.809 146.822C184.062 146.324 183.178 146.076 182.283 146.111C181.474 146.069 180.674 146.305 180.016 146.781C179.742 146.992 179.521 147.267 179.373 147.581C179.226 147.895 179.155 148.24 179.167 148.588C179.155 148.929 179.228 149.267 179.38 149.573C179.531 149.879 179.755 150.142 180.033 150.339C181.003 150.942 182.057 151.398 183.16 151.69C183.915 151.934 184.467 152.123 184.814 152.245C185.162 152.366 185.652 152.56 186.287 152.799C186.797 152.996 187.278 153.265 187.715 153.596C188.081 153.905 188.425 154.238 188.746 154.594C189.108 154.982 189.376 155.448 189.529 155.957C189.686 156.521 189.762 157.105 189.755 157.691C189.788 158.508 189.629 159.321 189.292 160.065C188.955 160.809 188.449 161.463 187.814 161.974C186.359 163.085 184.562 163.65 182.735 163.57Z" fill="white"/>
<path d="M205.219 163.188L203.829 159.176H195.419L194.002 163.188H190.456L197.625 143.274H201.535L208.704 163.188H205.219ZM199.61 141.806C198.417 141.882 197.238 141.511 196.302 140.764C195.9 140.392 195.586 139.935 195.381 139.427C195.177 138.918 195.088 138.369 195.121 137.822H197.879C197.879 138.93 198.43 139.484 199.577 139.484C199.801 139.513 200.029 139.49 200.243 139.417C200.457 139.343 200.651 139.222 200.811 139.061C200.971 138.901 201.092 138.706 201.165 138.491C201.238 138.276 201.261 138.047 201.232 137.822H203.989C204.022 138.369 203.933 138.917 203.73 139.425C203.527 139.934 203.214 140.391 202.815 140.764C201.907 141.49 200.769 141.86 199.61 141.806ZM196.467 156.118H202.754L199.61 147.119L196.467 156.118Z" fill="white"/>
<path d="M225.716 143.285C226.985 143.253 228.246 143.493 229.415 143.988C230.584 144.482 231.636 145.221 232.5 146.155C234.243 148.097 235.208 150.619 235.208 153.234C235.208 155.848 234.243 158.37 232.5 160.312C231.639 161.251 230.589 161.995 229.419 162.492C228.249 162.99 226.987 163.231 225.716 163.199H217.93V143.285H225.716ZM225.716 160.068C226.573 160.097 227.426 159.939 228.216 159.605C229.006 159.272 229.715 158.77 230.294 158.134C231.437 156.76 232.064 155.025 232.064 153.234C232.064 151.442 231.437 149.707 230.294 148.333C229.713 147.702 229.003 147.204 228.213 146.873C227.423 146.542 226.572 146.386 225.716 146.416H221.189V160.068H225.716Z" fill="white"/>
<path d="M238.18 143.285H241.433V163.188H238.18V143.285Z" fill="white"/>
<path d="M251.714 163.57C250.003 163.623 248.315 163.168 246.861 162.262C245.553 161.42 244.568 160.156 244.07 158.677L246.872 157.015C247.666 159.254 249.309 160.373 251.802 160.373C252.776 160.444 253.745 160.189 254.559 159.647C254.853 159.43 255.09 159.145 255.25 158.816C255.41 158.487 255.489 158.124 255.48 157.758C255.497 157.386 255.413 157.016 255.238 156.687C255.064 156.359 254.804 156.084 254.488 155.89C253.38 155.279 252.202 154.807 250.98 154.483C250.202 154.259 249.436 153.993 248.686 153.685C248.034 153.402 247.412 153.055 246.828 152.649C246.205 152.234 245.702 151.66 245.372 150.987C245.037 150.256 244.873 149.458 244.892 148.654C244.86 147.857 245.012 147.064 245.336 146.336C245.661 145.608 246.148 144.966 246.761 144.46C248.028 143.417 249.625 142.867 251.261 142.908C252.734 142.875 254.183 143.282 255.425 144.077C256.631 144.862 257.587 145.977 258.182 147.291L255.425 148.881C255.108 148.039 254.535 147.319 253.788 146.822C253.041 146.324 252.157 146.076 251.261 146.111C250.452 146.069 249.653 146.305 248.995 146.781C248.72 146.992 248.5 147.267 248.352 147.581C248.204 147.895 248.133 148.24 248.146 148.588C248.134 148.929 248.207 149.267 248.358 149.573C248.509 149.879 248.734 150.142 249.011 150.339C249.981 150.942 251.035 151.398 252.138 151.69C252.894 151.934 253.445 152.123 253.793 152.245C254.14 152.366 254.631 152.56 255.265 152.799C255.776 152.996 256.257 153.265 256.693 153.596C257.059 153.905 257.404 154.238 257.725 154.594C258.087 154.982 258.355 155.448 258.508 155.957C258.665 156.521 258.741 157.105 258.734 157.691C258.766 158.508 258.608 159.321 258.27 160.065C257.933 160.809 257.427 161.463 256.793 161.974C255.337 163.085 253.54 163.65 251.714 163.57Z" fill="white"/>
<path d="M268.704 143.285C269.572 143.262 270.435 143.417 271.241 143.74C272.046 144.063 272.778 144.547 273.392 145.163C274.606 146.407 275.286 148.079 275.286 149.82C275.286 151.562 274.606 153.234 273.392 154.477C272.781 155.098 272.05 155.587 271.244 155.913C270.437 156.239 269.573 156.395 268.704 156.372H264.657V163.188H261.397V143.285H268.704ZM268.704 153.297C269.148 153.311 269.589 153.231 270 153.062C270.41 152.893 270.781 152.639 271.087 152.317C271.691 151.628 272.024 150.741 272.024 149.823C272.024 148.905 271.691 148.019 271.087 147.33C270.782 147.005 270.412 146.75 270.001 146.58C269.59 146.41 269.148 146.329 268.704 146.344H264.657V153.286L268.704 153.297Z" fill="white"/>
<path d="M294.519 160.567C292.83 162.288 290.599 163.367 288.206 163.619C285.814 163.871 283.408 163.281 281.401 161.949C279.394 160.617 277.909 158.626 277.2 156.316C276.491 154.006 276.603 151.521 277.515 149.285C278.428 147.048 280.085 145.2 282.203 144.055C284.322 142.909 286.77 142.539 289.131 143.006C291.491 143.473 293.616 144.749 295.144 146.616C296.672 148.483 297.508 150.825 297.508 153.242C297.533 154.603 297.282 155.955 296.768 157.215C296.253 158.475 295.488 159.615 294.519 160.567ZM282.226 158.35C283.565 159.659 285.358 160.391 287.225 160.391C289.093 160.391 290.886 159.659 292.225 158.35C293.524 156.97 294.248 155.142 294.248 153.242C294.248 151.342 293.524 149.514 292.225 148.133C290.886 146.825 289.093 146.093 287.225 146.093C285.358 146.093 283.565 146.825 282.226 148.133C280.927 149.514 280.203 151.342 280.203 153.242C280.203 155.142 280.927 156.97 282.226 158.35Z" fill="white"/>
<path d="M312.369 143.285H315.639V163.188H313.092L303.717 149.674V163.188H300.463V143.285H303.011L312.353 156.799L312.369 143.285Z" fill="white"/>
<path d="M319.594 143.285H322.847V163.188H319.594V143.285Z" fill="white"/>
<path d="M338.482 152.871C339.317 153.301 340.022 153.95 340.522 154.749C341.021 155.585 341.275 156.545 341.256 157.519C341.275 158.283 341.131 159.042 340.833 159.744C340.535 160.447 340.091 161.077 339.529 161.592C338.389 162.667 336.874 163.248 335.311 163.21H326.812V143.285H334.687C336.214 143.249 337.693 143.816 338.807 144.864C339.347 145.364 339.774 145.974 340.06 146.654C340.345 147.333 340.482 148.066 340.461 148.804C340.493 149.593 340.329 150.379 339.984 151.089C339.638 151.799 339.122 152.411 338.482 152.871ZM334.687 146.355H330.072V151.591H334.687C335.025 151.598 335.359 151.535 335.671 151.405C335.982 151.276 336.263 151.082 336.496 150.837C336.971 150.335 337.236 149.668 337.236 148.975C337.236 148.283 336.971 147.616 336.496 147.114C336.264 146.868 335.983 146.674 335.671 146.543C335.36 146.412 335.025 146.348 334.687 146.355ZM335.311 160.129C335.668 160.136 336.022 160.067 336.351 159.927C336.68 159.786 336.976 159.578 337.219 159.315C337.721 158.781 338.001 158.074 338.001 157.339C338.001 156.605 337.721 155.898 337.219 155.364C336.976 155.101 336.68 154.892 336.351 154.752C336.022 154.612 335.668 154.543 335.311 154.549H330.072V160.129H335.311Z" fill="white"/>
<path d="M344.085 143.285H347.344V163.188H344.085V143.285Z" fill="white"/>
<path d="M354.562 160.068H362.636V163.188H351.309V143.285H354.562V160.068Z" fill="white"/>
<path d="M378.507 163.188L377.123 159.176H368.686L367.307 163.188H363.767L370.936 143.274H374.846L382.015 163.188H378.507ZM372.904 141.795C371.711 141.871 370.532 141.5 369.596 140.753C369.194 140.381 368.88 139.924 368.675 139.416C368.471 138.907 368.382 138.358 368.415 137.811H371.173C371.173 138.919 371.724 139.473 372.871 139.473C373.095 139.502 373.323 139.479 373.537 139.406C373.751 139.332 373.945 139.211 374.105 139.05C374.265 138.89 374.386 138.694 374.459 138.48C374.532 138.265 374.555 138.036 374.526 137.811H377.283C377.316 138.358 377.227 138.905 377.024 139.414C376.821 139.923 376.508 140.38 376.109 140.753C375.206 141.48 374.071 141.854 372.915 141.806L372.904 141.795ZM369.761 156.106H376.048L372.915 147.119L369.761 156.106Z" fill="white"/>
<path d="M399.022 143.285C400.291 143.253 401.551 143.493 402.721 143.988C403.89 144.482 404.941 145.221 405.805 146.155C407.545 148.098 408.508 150.62 408.508 153.234C408.508 155.847 407.545 158.369 405.805 160.312C404.944 161.249 403.893 161.99 402.723 162.486C401.553 162.982 400.291 163.221 399.022 163.188H391.235V143.285H399.022ZM399.022 160.068C399.879 160.097 400.732 159.939 401.522 159.605C402.312 159.272 403.021 158.77 403.599 158.134C404.743 156.76 405.37 155.025 405.37 153.234C405.37 151.442 404.743 149.707 403.599 148.333C403.018 147.702 402.309 147.204 401.519 146.873C400.729 146.542 399.877 146.386 399.022 146.416H394.5V160.068H399.022Z" fill="white"/>
<path d="M428.063 160.567C426.374 162.288 424.143 163.367 421.75 163.619C419.358 163.871 416.952 163.281 414.945 161.949C412.938 160.617 411.453 158.626 410.744 156.316C410.035 154.006 410.147 151.521 411.059 149.285C411.972 147.048 413.629 145.2 415.747 144.055C417.866 142.909 420.314 142.539 422.675 143.006C425.035 143.473 427.16 144.749 428.688 146.616C430.216 148.483 431.051 150.825 431.052 153.242C431.077 154.603 430.825 155.955 430.311 157.215C429.797 158.475 429.032 159.615 428.063 160.567ZM415.776 158.35C417.114 159.657 418.906 160.388 420.772 160.388C422.638 160.388 424.43 159.657 425.769 158.35C427.068 156.97 427.792 155.142 427.792 153.242C427.792 151.342 427.068 149.514 425.769 148.133C424.43 146.827 422.638 146.096 420.772 146.096C418.906 146.096 417.114 146.827 415.776 148.133C414.473 149.512 413.746 151.341 413.746 153.242C413.746 155.143 414.473 156.972 415.776 158.35Z" fill="white"/>
<path d="M446.2 163.188L444.816 159.176H436.373L434.989 163.188H431.448L438.617 143.274H442.527L449.696 163.188H446.2ZM437.448 156.106H443.735L440.592 147.119L437.448 156.106Z" fill="white"/>
<path d="M463.136 163.188L458.944 155.935H455.084V163.188H451.853V143.285H459.783C460.621 143.279 461.452 143.441 462.227 143.76C463.003 144.08 463.707 144.551 464.3 145.146C464.892 145.742 465.361 146.45 465.679 147.229C465.997 148.008 466.158 148.843 466.152 149.685C466.154 150.933 465.769 152.152 465.049 153.17C464.348 154.201 463.358 154.999 462.204 155.464L466.704 163.221L463.136 163.188ZM455.095 146.344V152.993H459.766C460.181 152.999 460.593 152.916 460.974 152.749C461.355 152.581 461.695 152.334 461.972 152.023C462.558 151.378 462.883 150.536 462.883 149.663C462.883 148.789 462.558 147.947 461.972 147.302C461.694 146.992 461.353 146.746 460.973 146.579C460.593 146.411 460.181 146.327 459.766 146.332L455.095 146.344Z" fill="white"/>
<path d="M479.531 160.068H487.605V163.188H476.277V143.285H479.531V160.068Z" fill="white"/>
<path d="M503.487 163.188L502.103 159.176H493.66L492.276 163.188H488.735L495.904 143.274H499.831L507 163.188H503.487ZM494.741 156.106H501.022L497.884 147.119L494.741 156.106Z" fill="white"/>
<path d="M61.2024 182.276H68.4046V226.314H62.7686L42.1105 196.432V226.314H34.9414V182.276H40.5774L61.2355 212.157L61.2024 182.276Z" fill="#2BB018"/>
<path d="M84.3692 219.393H103.781V226.314H77.167V182.276H103.467V189.196H84.3692V200.649H101.9V207.514H84.3692V219.393Z" fill="#2BB018"/>
<path d="M119.62 226.314L107.223 182.276H114.8L124.004 216.69L133.958 182.276H140.576L150.469 216.69L159.673 182.276H167.294L154.897 226.314H146.57L137.305 194.177L127.974 226.314H119.62Z" fill="#2BB018"/>
<path d="M201.391 182.276V189.196H189.055V226.319H181.886V189.196H169.461V182.276H201.391Z" fill="#2BB018"/>
<path d="M240.872 220.496C237.132 224.308 232.192 226.696 226.894 227.254C221.596 227.811 216.27 226.503 211.826 223.553C207.381 220.603 204.094 216.194 202.526 211.079C200.958 205.964 201.207 200.461 203.229 195.51C205.252 190.558 208.923 186.466 213.615 183.933C218.307 181.399 223.729 180.581 228.954 181.618C234.18 182.655 238.885 185.484 242.266 189.62C245.647 193.756 247.493 198.943 247.489 204.295C247.546 207.306 246.989 210.297 245.85 213.084C244.712 215.87 243.018 218.393 240.872 220.496ZM213.695 215.587C216.657 218.472 220.621 220.086 224.747 220.086C228.872 220.086 232.836 218.472 235.798 215.587C238.78 212.591 240.273 208.827 240.276 204.295C240.28 199.762 238.787 195.998 235.798 193.003C232.835 190.12 228.872 188.508 224.747 188.508C220.622 188.508 216.659 190.12 213.695 193.003C210.703 196.002 209.206 199.766 209.206 204.295C209.206 208.823 210.703 212.587 213.695 215.587Z" fill="#2BB018"/>
<path d="M280.346 182.276H287.548V226.314H281.912L261.248 196.432V226.314H254.046V182.276H259.682L280.346 212.157V182.276Z" fill="#2BB018"/>
<path d="M337.946 182.276H345.148V226.314H337.946V207.254H319.163V226.314H311.961V182.276H319.163V200.311H337.946V182.276Z" fill="#2BB018"/>
<path d="M390.573 220.496C386.836 224.303 381.898 226.689 376.605 227.245C371.311 227.8 365.99 226.493 361.55 223.544C357.109 220.596 353.826 216.19 352.259 211.079C350.693 205.968 350.942 200.47 352.962 195.523C354.983 190.576 358.651 186.487 363.339 183.955C368.027 181.423 373.444 180.605 378.666 181.641C383.887 182.676 388.589 185.501 391.968 189.633C395.346 193.765 397.193 198.947 397.191 204.295C397.248 207.306 396.691 210.298 395.553 213.084C394.414 215.871 392.72 218.393 390.573 220.496ZM363.397 215.587C366.359 218.472 370.322 220.086 374.448 220.086C378.574 220.086 382.537 218.472 385.5 215.587C388.485 212.591 389.977 208.827 389.977 204.295C389.977 199.762 388.485 195.998 385.5 193.003C382.536 190.12 378.573 188.508 374.448 188.508C370.323 188.508 366.36 190.12 363.397 193.003C360.415 196.002 358.924 199.766 358.924 204.295C358.924 208.823 360.415 212.588 363.397 215.587Z" fill="#2BB018"/>
<path d="M431.487 222.951C428.399 225.736 424.414 227.13 419.531 227.134C414.649 227.138 410.662 225.743 407.57 222.951C404.482 220.158 402.938 216.414 402.938 211.719V182.276H410.14V211.282C410.14 213.963 410.923 216.102 412.489 217.698C414.055 219.294 416.403 220.09 419.531 220.086C422.664 220.086 425.011 219.29 426.574 217.698C428.136 216.106 428.919 213.967 428.923 211.282V182.276H436.125V211.719C436.125 216.418 434.579 220.162 431.487 222.951Z" fill="#2BB018"/>
<path d="M458.978 227.134C454.758 227.134 451.179 226.168 448.241 224.236C445.349 222.375 443.173 219.581 442.07 216.313L448.269 212.661C450.023 217.615 453.655 220.09 459.166 220.086C461.879 220.086 463.914 219.55 465.271 218.479C465.918 217.997 466.441 217.367 466.795 216.64C467.149 215.913 467.324 215.111 467.306 214.301C467.339 213.479 467.152 212.662 466.764 211.937C466.376 211.212 465.801 210.605 465.1 210.179C463.629 209.233 461.043 208.195 457.341 207.065C455.621 206.564 453.928 205.976 452.267 205.303C450.826 204.677 449.451 203.907 448.164 203.004C446.782 202.087 445.669 200.817 444.938 199.325C444.198 197.708 443.835 195.945 443.874 194.166C443.874 190.265 445.252 187.174 448.01 184.891C450.816 182.587 454.352 181.374 457.975 181.472C461.228 181.401 464.431 182.297 467.179 184.049C469.828 185.795 471.931 188.26 473.245 191.158L467.179 194.681C465.341 190.57 462.273 188.516 457.975 188.52C455.885 188.52 454.219 189.008 452.967 189.994C452.359 190.461 451.871 191.067 451.544 191.762C451.217 192.457 451.06 193.221 451.087 193.989C451.06 194.744 451.221 195.493 451.554 196.17C451.887 196.847 452.382 197.43 452.995 197.867C454.267 198.809 456.574 199.805 459.916 200.854C461.585 201.397 462.806 201.805 463.578 202.078C464.35 202.352 465.436 202.782 466.837 203.369C467.967 203.806 469.03 204.399 469.997 205.131C470.807 205.817 471.57 206.558 472.28 207.348C473.081 208.206 473.672 209.24 474.006 210.367C474.352 211.617 474.519 212.91 474.502 214.207C474.502 218.189 473.074 221.346 470.217 223.676C467.361 226.007 463.614 227.16 458.978 227.134Z" fill="#2BB018"/>
<path d="M487.588 219.393H507V226.314H480.392V182.276H506.686V189.196H487.588V200.649H505.12V207.514H487.588V219.393Z" fill="#2BB018"/>
<path d="M194.713 105.613L194.548 73.7868L105.16 17.8247L15.0885 74.6567L15.1547 251.868L194.796 251.802V220.463H210.954V266.928L0.0995227 267.006L0.027832 66.3012L105.127 0L210.861 66.1904V105.608L194.713 105.613Z" fill="url(#paint0_linear_116_2691)"/>
</g>
<defs>
<linearGradient id="paint0_linear_116_2691" x1="210.634" y1="133.489" x2="-0.214811" y2="133.489" gradientUnits="userSpaceOnUse">
<stop stop-color="#2BB018" stop-opacity="0"/>
<stop offset="0.13" stop-color="#2BB018" stop-opacity="0.29"/>
<stop offset="0.33" stop-color="#2BB018" stop-opacity="0.45"/>
<stop offset="0.45" stop-color="#2BB018" stop-opacity="0.61"/>
<stop offset="1" stop-color="#2BB018"/>
</linearGradient>
<clipPath id="clip0_116_2691">
<rect width="507" height="267" fill="white"/>
</clipPath>
</defs>
</svg>
