<svg width="46" height="55" viewBox="0 0 46 55" fill="none" xmlns="http://www.w3.org/2000/svg">
<path d="M45.1034 54.4818H0V14.6197L0.0437907 14.5905L22.2488 0.500061L22.2999 0.529265L45.1034 14.5394V54.4818ZM0.178809 54.292H44.9173V14.6453L22.2525 0.722734L0.178809 14.7219V54.292Z" fill="#2E2D2C"/>
<path d="M42.352 51.7294H2.75146V16.1346L2.79525 16.1054L22.2744 3.74524L22.3218 3.77444L42.352 16.0799V51.7294ZM2.94122 51.5396H42.1622V16.1857L22.2744 3.96791L2.94122 16.2551V51.5396Z" fill="#2E2D2C"/>
<path d="M39.5896 48.9734H5.50659V17.6459L5.55038 17.6203L22.2963 6.99042L22.3474 7.02328L39.6005 17.6094L39.5896 48.9734ZM5.68175 48.7872H39.3998V17.7152L22.289 7.20214L5.6927 17.7517L5.68175 48.7872Z" fill="#2E2D2C"/>
<path d="M37.0351 46.4108H8.06824V19.0585L22.3181 10.0129L37.0351 19.0549V46.4108ZM8.63385 45.845H36.4695V19.3724L22.3218 10.6809L8.63385 19.3688V45.845Z" fill="#2FB04A"/>
<path d="M12.4946 21.8474V40.9097H22.5517H32.6087V21.8474L22.3875 15.5688L12.4946 21.8474Z" fill="#2E2D2C"/>
</svg>
