<svg width="39" height="33" viewBox="0 0 39 33" fill="none" xmlns="http://www.w3.org/2000/svg">
<g clip-path="url(#clip0_101_1842)">
<path d="M38.1933 0.053973L32.899 2.22244C32.8313 2.24984 32.7697 2.29028 32.7178 2.34141C32.6663 2.39273 32.6252 2.4535 32.597 2.52034L31.355 5.47224H0.55517C0.463793 5.47178 0.373722 5.49379 0.293001 5.53631C0.212281 5.57884 0.143424 5.64055 0.0925803 5.71594C0.041737 5.79132 0.0104903 5.87804 0.00163047 5.96834C-0.00722934 6.05864 0.00657358 6.14972 0.041807 6.23343L6.95808 22.7146C7.00111 22.8148 7.07251 22.9005 7.16362 22.9612C7.25475 23.0229 7.36215 23.0565 7.47242 23.0579H24.578L27.9183 26.3542H9.75284C8.98021 26.3469 8.22838 26.6026 7.62243 27.0786C7.17151 27.4328 6.82032 27.8967 6.60285 28.4252C6.38539 28.9537 6.30901 29.529 6.38111 30.0954C6.45322 30.6618 6.67136 31.2001 7.01443 31.6583C7.3575 32.1164 7.81387 32.4789 8.33939 32.7106C9.04423 33.0244 9.83603 33.0891 10.5831 32.8939C11.3301 32.6988 11.9873 32.2556 12.4453 31.638C12.9006 31.0223 13.1275 30.2692 13.0873 29.5064C13.0472 28.7437 12.7426 28.0181 12.2252 27.4529H25.6418C25.3174 27.8065 25.0746 28.2261 24.9304 28.6825C24.7861 29.1389 24.7439 29.621 24.8065 30.0952C24.8692 30.5695 25.0354 31.0244 25.2934 31.4283C25.5513 31.8323 25.895 32.1755 26.3003 32.434C26.8451 32.7812 27.4795 32.9646 28.127 32.9621C28.7744 32.9595 29.4073 32.7711 29.9493 32.4195C30.3537 32.1585 30.6956 31.8129 30.9512 31.4069C31.2068 31.0008 31.3699 30.5442 31.429 30.069C31.4881 29.5938 31.4419 29.1115 31.2935 28.6559C31.145 28.2003 30.8981 27.7824 30.5699 27.4316L30.5777 27.4229L25.4655 22.3751L33.538 3.14709L38.62 1.06954C38.6918 1.04497 38.7581 1.00651 38.8148 0.956374C38.8711 0.905804 38.9165 0.844404 38.9481 0.775903C38.9798 0.707401 38.9971 0.633227 38.9989 0.557886C39.0001 0.463016 38.9767 0.369441 38.9309 0.286182C38.8851 0.202922 38.8184 0.132788 38.7374 0.0825378C38.6563 0.032288 38.5636 0.00361819 38.4681 -0.000707386C38.3727 -0.00503296 38.2777 0.0151315 38.1924 0.0578419L38.1933 0.053973ZM24.4378 21.9524H21.1589L22.0356 17.5574H26.2837L24.4378 21.9524ZM3.69477 12.0647H9.13622L10.0129 16.4587H5.54073L3.69477 12.0647ZM10.2711 12.0647H15.5917V16.4587H11.1575L10.2711 12.0647ZM16.7003 10.966V6.57099H23.1227L22.246 10.966H16.7003ZM22.0141 12.0647L21.1277 16.4587H16.6983V12.0647H22.0141ZM15.5917 10.9621H10.0499L9.17324 6.56712H15.5937L15.5917 10.9621ZM15.5917 17.5536V21.9485H12.2651L11.3787 17.5536H15.5917ZM16.7052 17.5536H20.9124L20.025 21.9485H16.6983L16.7052 17.5536ZM22.2723 16.4548L23.1587 12.0608H28.5982L26.7532 16.4548H22.2723ZM23.3779 10.9621L24.2546 6.56712H30.8981L29.0522 10.9621H23.3779ZM8.02864 6.57099L8.90535 10.966H3.23401L1.38902 6.57099H8.02864ZM6.00247 17.5584H10.2438L11.1293 21.9534H7.84648L6.00247 17.5584ZM11.3202 28.0903C11.7122 28.4773 11.9453 28.9953 11.9739 29.5435C12.0026 30.0917 11.8249 30.6309 11.4753 31.0562C11.1257 31.4814 10.6293 31.7624 10.0827 31.8444C9.53604 31.9264 8.97822 31.8035 8.51773 31.4998C8.05725 31.196 7.72705 30.733 7.59135 30.2009C7.45566 29.6687 7.52418 29.1055 7.78358 28.6207C8.04298 28.136 8.47472 27.7644 8.99481 27.5782C9.5149 27.392 10.0861 27.4046 10.5974 27.6135C10.8676 27.7236 11.1132 27.8857 11.3202 28.0903ZM29.6892 31.1979C29.4569 31.4273 29.1767 31.6033 28.8684 31.7135C28.5601 31.8237 28.2312 31.8655 27.9049 31.8358C27.5786 31.8061 27.2629 31.7057 26.9799 31.5417C26.6969 31.3776 26.4536 31.154 26.2672 30.8865C26.0827 30.6184 25.9606 30.313 25.9094 29.9923C25.8583 29.6717 25.8795 29.3437 25.9714 29.0322C26.0634 28.7207 26.2239 28.4333 26.4413 28.1908C26.6587 27.9483 26.9276 27.7567 27.2286 27.6299C27.6321 27.4588 28.0774 27.4091 28.5091 27.487C28.9408 27.5649 29.34 27.7669 29.6571 28.068L29.7146 28.1241C30.1205 28.5363 30.3458 29.0912 30.341 29.6677C30.3363 30.2441 30.102 30.7953 29.6892 31.2008V31.1979Z" fill="#2BB018"/>
</g>
<defs>
<clipPath id="clip0_101_1842">
<rect width="39" height="33" fill="white"/>
</clipPath>
</defs>
</svg>
