<svg width="33" height="36" viewBox="0 0 33 36" fill="none" xmlns="http://www.w3.org/2000/svg">
<g clip-path="url(#clip0_96_794)">
<path d="M11.736 35.5208C11.2391 34.8818 11.239 33.8457 11.7361 33.2066L23.5634 18.0004L11.736 2.7935C11.2391 2.15455 11.239 1.11841 11.7361 0.479352C12.2331 -0.159703 13.039 -0.159703 13.536 0.479352L26.2633 16.8434C26.5019 17.1503 26.636 17.5665 26.636 18.0004C26.636 18.4344 26.5019 18.8507 26.2632 19.1575L13.5359 35.5207C13.039 36.1598 12.2331 36.1598 11.736 35.5208Z" fill="#C4C4C4"/>
</g>
<g clip-path="url(#clip1_96_794)">
<path d="M6.19526 31.6272C5.81189 31.1303 5.81182 30.3244 6.19532 29.8273L15.3192 18.0003L6.19526 6.17267C5.81189 5.67571 5.81182 4.86982 6.19532 4.37278C6.57875 3.87574 7.20038 3.87574 7.58381 4.37278L17.402 17.1004C17.5861 17.3391 17.6895 17.6628 17.6895 18.0003C17.6895 18.3378 17.586 18.6616 17.4019 18.9002L7.58374 31.6271C7.20038 32.1243 6.57869 32.1243 6.19526 31.6272Z" fill="#C4C4C4"/>
</g>
<defs>
<clipPath id="clip0_96_794">
<rect width="36" height="28" rx="14" transform="matrix(0 1 1 0 4.99976 0)" fill="white"/>
</clipPath>
<clipPath id="clip1_96_794">
<rect width="28" height="21.6" rx="10.8" transform="matrix(0 1 1 0 0.998535 3.99994)" fill="white"/>
</clipPath>
</defs>
</svg>
