<svg width="40" height="40" viewBox="0 0 40 40" fill="none" xmlns="http://www.w3.org/2000/svg">
<path d="M35.6903 20.997V17.7842H31.1203V16.0532H27.6305V17.7842H11.0678V16.0532H7.57804V17.7842H4.30981V20.997H35.6903Z" stroke="#2BB018" stroke-miterlimit="10"/>
<path d="M20 38.5015C30.4934 38.5015 39 30.1127 39 19.7646C39 9.4165 30.4934 1.02771 20 1.02771C9.50659 1.02771 1 9.4165 1 19.7646C1 30.1127 9.50659 38.5015 20 38.5015Z" stroke="#2BB018" stroke-miterlimit="10"/>
<path d="M5.7915 7.82728C6.29005 7.21795 6.77474 6.59474 7.25943 5.97156L36.9227 28.2121C36.4241 28.8214 35.9394 29.4446 35.4547 30.0539L5.7915 7.82728Z" stroke="#2BB018" stroke-miterlimit="10"/>
</svg>
