<svg id="Layer_1" data-name="Layer 1" xmlns="http://www.w3.org/2000/svg" viewBox="0 0 751.3 203.55"><defs><style>.cls-1{fill:#2eb04a;}</style></defs><polygon class="cls-1" points="750.56 0.01 750.56 0 375.65 0 0.74 0 0.74 0.01 0 0.01 0 42.81 9.12 42.81 9.12 37.98 9.12 4.08 52.37 4.08 52.37 42.81 61.48 42.81 61.48 37.98 61.48 4.08 104.73 4.08 104.73 42.81 113.85 42.81 113.85 37.98 113.85 4.08 157.1 4.08 157.1 42.81 166.22 42.81 166.22 37.98 166.22 4.08 209.47 4.08 209.47 42.81 218.59 42.81 218.59 4.08 261.83 4.08 261.83 42.81 270.95 42.81 270.95 4.08 314.2 4.08 314.2 42.81 323.32 42.81 323.32 37.98 323.32 4.08 366.57 4.08 366.57 42.81 375.68 42.81 375.68 37.98 375.68 4.08 418.93 4.08 418.93 42.81 428.05 42.81 428.05 37.98 428.05 4.08 480.35 4.08 480.35 42.81 489.47 42.81 489.47 4.08 532.72 4.08 532.72 42.81 541.84 42.81 541.84 4.08 585.09 4.08 585.09 37.98 585.09 42.81 594.21 42.81 594.21 4.08 637.45 4.08 637.45 37.98 637.45 42.81 646.57 42.81 646.57 4.08 689.82 4.08 689.82 37.98 689.82 42.81 698.94 42.81 698.94 4.08 742.19 4.08 742.19 37.98 742.19 42.81 751.3 42.81 751.3 0.01 750.56 0.01"/><polygon class="cls-1" points="0.11 72.52 7.04 72.52 744.26 72.52 751.2 72.52 751.2 49.8 0.11 49.8 0.11 72.52"/><path class="cls-1" d="M603.2,603.63V615c19.4-26.83,62.8-74.73,136.2-95.55H717.29C660.23,541,623.23,578.16,603.2,603.63Z" transform="translate(-564.03 -437.94)"/><path class="cls-1" d="M1162.07,519.46H1139.9c73.33,20.84,116.83,68.82,136.27,95.62V603.63C1256.14,578.17,1219.14,541,1162.07,519.46Z" transform="translate(-564.03 -437.94)"/><rect class="cls-1" x="8.83" y="81.52" width="23.35" height="122.03"/><rect class="cls-1" x="719.13" y="81.52" width="23.35" height="122.03"/></svg>