<svg width="33" height="36" viewBox="0 0 33 36" fill="none" xmlns="http://www.w3.org/2000/svg">
<g clip-path="url(#clip0_94_784)">
<path d="M21.2636 35.5208C21.7606 34.8818 21.7607 33.8457 21.2635 33.2066L9.43624 18.0004L21.2636 2.7935C21.7606 2.15455 21.7607 1.11841 21.2635 0.479352C20.7665 -0.159703 19.9607 -0.159703 19.4636 0.479352L6.73636 16.8434C6.49768 17.1503 6.36362 17.5665 6.36362 18.0004C6.36362 18.4344 6.49777 18.8507 6.73645 19.1575L19.4637 35.5207C19.9607 36.1598 20.7666 36.1598 21.2636 35.5208Z" fill="#C4C4C4"/>
</g>
<g clip-path="url(#clip1_94_784)">
<path d="M26.8047 31.6272C27.1881 31.1303 27.1882 30.3244 26.8047 29.8273L17.6808 18.0003L26.8047 6.17267C27.1881 5.67571 27.1882 4.86982 26.8047 4.37278C26.4212 3.87574 25.7996 3.87574 25.4162 4.37278L15.598 17.1004C15.4139 17.3391 15.3105 17.6628 15.3105 18.0003C15.3105 18.3378 15.414 18.6616 15.5981 18.9002L25.4163 31.6271C25.7996 32.1243 26.4213 32.1243 26.8047 31.6272Z" fill="#C4C4C4"/>
</g>
<defs>
<clipPath id="clip0_94_784">
<rect x="28" width="36" height="28" rx="14" transform="rotate(90 28 0)" fill="white"/>
</clipPath>
<clipPath id="clip1_94_784">
<rect x="32.0013" y="3.99994" width="28" height="21.6" rx="10.8" transform="rotate(90 32.0013 3.99994)" fill="white"/>
</clipPath>
</defs>
</svg>
