<svg width="381" height="319" viewBox="0 0 381 319" fill="none" xmlns="http://www.w3.org/2000/svg">
<path d="M147.82 125.91L148 88.0001L255 21.3101L362.81 89.0001V300H147.81V262.72H128.49V318.06H380.84V79.0001L255 0.0600586L128.49 79.0001V126L147.82 125.91Z" fill="url(#paint0_linear_806_19)"/>
<path d="M273.39 209.34C270.57 206.247 269.16 202.15 269.16 197.05C269.16 191.95 270.57 187.857 273.39 184.77C276.247 181.864 280.141 180.212 284.216 180.176C288.291 180.141 292.213 181.725 295.12 184.58L295.31 184.77C298.09 187.77 299.51 191.92 299.51 197.05C299.51 202.18 298.11 206.31 295.31 209.34C293.934 210.864 292.242 212.07 290.353 212.875C288.464 213.68 286.422 214.064 284.37 214C282.313 214.055 280.268 213.668 278.373 212.864C276.479 212.06 274.779 210.858 273.39 209.34ZM289.04 204.34C290.325 202.149 290.924 199.624 290.76 197.09C290.76 193.883 290.187 191.463 289.04 189.83C288.624 189.222 288.092 188.702 287.475 188.299C286.857 187.897 286.167 187.62 285.442 187.484C284.718 187.349 283.974 187.357 283.253 187.509C282.532 187.661 281.848 187.954 281.24 188.37C280.67 188.765 280.175 189.26 279.78 189.83C278.632 192.062 278.033 194.535 278.033 197.045C278.033 199.555 278.632 202.028 279.78 204.26C280.294 205.015 280.984 205.633 281.791 206.06C282.598 206.487 283.497 206.71 284.41 206.71C285.323 206.71 286.222 206.487 287.029 206.06C287.836 205.633 288.526 205.015 289.04 204.26V204.34ZM320.84 180.96H331.26L289.46 242.18H279L320.84 180.96ZM318.08 240.83C315.747 239.429 313.877 237.374 312.7 234.92C311.435 232.118 310.78 229.079 310.78 226.005C310.78 222.931 311.435 219.892 312.7 217.09C313.877 214.639 315.747 212.587 318.08 211.19C320.453 209.793 323.167 209.08 325.92 209.13C327.979 209.059 330.028 209.435 331.927 210.232C333.826 211.03 335.53 212.23 336.92 213.75C339.753 216.843 341.167 220.94 341.16 226.04C341.16 231.16 339.74 235.3 336.92 238.33C335.527 239.847 333.823 241.046 331.925 241.845C330.027 242.644 327.979 243.024 325.92 242.96C323.155 242.962 320.443 242.204 318.08 240.77V240.83ZM330.58 233.21C331.71 230.973 332.299 228.501 332.299 225.995C332.299 223.489 331.71 221.017 330.58 218.78C330.068 218.025 329.378 217.407 328.572 216.98C327.766 216.553 326.867 216.33 325.955 216.33C325.043 216.33 324.144 216.553 323.338 216.98C322.532 217.407 321.842 218.025 321.33 218.78C320.163 220.407 319.58 222.827 319.58 226.04C319.58 229.25 320.16 231.66 321.33 233.29C321.838 234.057 322.534 234.681 323.351 235.103C324.169 235.525 325.081 235.73 326 235.7C326.931 235.71 327.848 235.476 328.66 235.022C329.472 234.568 330.152 233.908 330.63 233.11L330.58 233.21Z" fill="white"/>
<path d="M213.55 261.41C208.039 257.859 203.679 252.783 201 246.8C194.988 232.181 194.988 215.779 201 201.16C203.665 195.18 208.012 190.104 213.51 186.55C218.999 183.243 225.287 181.495 231.695 181.495C238.104 181.495 244.391 183.243 249.88 186.55C255.373 190.105 259.713 195.181 262.37 201.16C268.401 215.776 268.401 232.184 262.37 246.8C259.71 252.777 255.371 257.853 249.88 261.41C244.389 264.713 238.103 266.458 231.695 266.458C225.287 266.458 219.001 264.713 213.51 261.41H213.55ZM243.55 243.92C246.397 239.647 247.823 232.98 247.83 223.92C247.837 214.86 246.41 208.193 243.55 203.92C242.292 201.946 240.557 200.321 238.505 199.195C236.453 198.069 234.151 197.479 231.81 197.479C229.469 197.479 227.167 198.069 225.115 199.195C223.063 200.321 221.328 201.946 220.07 203.92C217.223 208.193 215.797 214.86 215.79 223.92C215.783 232.98 217.21 239.647 220.07 243.92C221.329 245.892 223.065 247.515 225.117 248.639C227.169 249.763 229.47 250.352 231.81 250.352C234.15 250.352 236.451 249.763 238.503 248.639C240.555 247.515 242.291 245.892 243.55 243.92Z" fill="white"/>
<path d="M16.25 154H9.99999V169.85H0.899994V130.46H9.99999V146.37H16.53L26.87 130.46H36.49L23.61 149.46L36.88 169.81H26.49L16.25 154Z" fill="white"/>
<path d="M75.8 158.75C75.8 165.61 70.46 169.82 60.5 169.82H41.1V130.46H59.43C68.54 130.46 73.94 134.11 73.94 140.64C73.9756 142.473 73.4649 144.276 72.4731 145.818C71.4812 147.36 70.0529 148.572 68.37 149.3C73.15 150.7 75.8 154 75.8 158.75ZM50.16 146.75H58.65C62.58 146.75 64.65 145.12 64.65 141.97C64.65 138.82 62.57 137.19 58.65 137.19H50.16V146.75ZM66.58 158C66.58 154.69 64.38 153.11 60.16 153.11H50.16V163.06H60.16C64.38 163.07 66.58 161.44 66.58 158Z" fill="white"/>
<path d="M109.64 161.39H91.37L87.88 169.82H78.55L96.09 130.46H105.09L122.69 169.82H113.13L109.64 161.39ZM106.78 154.47L100.53 139.4L94.29 154.47H106.78Z" fill="white"/>
<path d="M162.05 144.74C162.05 153.52 155.47 158.97 144.95 158.97H137V169.82H127.89V130.46H144.89C155.47 130.46 162.05 135.91 162.05 144.74ZM152.83 144.74C152.83 140.41 150.02 137.88 144.45 137.88H137V151.55H144.42C150 151.55 152.83 149 152.83 144.74Z" fill="white"/>
<path d="M197.08 137.88H184.48V169.82H175.48V137.88H162.94V130.46H197.08V137.88Z" fill="white"/>
<path d="M202.81 130.46H211.86V156.1L230.64 130.46H239.19V169.82H230.19V144.24L211.41 169.82H202.81V130.46Z" fill="white"/>
<path d="M283.1 144.74C283.1 153.52 276.52 158.97 266.01 158.97H258.08V169.82H249V130.46H266C276.52 130.46 283.1 135.91 283.1 144.74ZM273.88 144.74C273.88 140.41 271.07 137.88 265.5 137.88H258.08V151.55H265.5C271.07 151.55 273.88 149 273.88 144.74Z" fill="white"/>
<path d="M323.08 156.1C323.08 165.16 317.01 169.82 306.89 169.82H289.12V130.46H298.17V143.39H308.17C317.68 143.39 323.08 147.61 323.08 156.1ZM313.92 156.27C313.92 151.94 311.1 150.14 306.38 150.14H298.17V163.07H306.38C311.05 163.07 313.92 160.71 313.92 156.27ZM328.09 130.46H337.14V169.82H328.09V130.46Z" fill="white"/>
<path d="M16 193.57C16 196.57 13.69 198.36 9.39 198.36H1V181.36H8.9C12.84 181.36 15.18 182.94 15.18 185.76C15.1957 186.554 14.975 187.334 14.5458 188.002C14.1166 188.67 13.4985 189.195 12.77 189.51C13.703 189.692 14.5406 190.201 15.1325 190.945C15.7244 191.689 16.0319 192.62 16 193.57ZM4.91 188.39H8.58C10.29 188.39 11.19 187.69 11.19 186.32C11.19 184.95 10.29 184.26 8.58 184.26H4.89L4.91 188.39ZM12.01 193.25C12.01 191.82 11.01 191.14 9.24 191.14H4.89V195.44H9.22C11 195.44 12 194.74 12 193.25H12.01Z" fill="white"/>
<path d="M40.73 187.52C40.73 191.31 37.89 193.67 33.34 193.67H29.91V198.36H26V181.36H33.36C37.89 181.34 40.73 183.7 40.73 187.52ZM36.73 187.52C36.73 185.64 35.51 184.52 33.1 184.52H29.91V190.43H33.12C35.53 190.46 36.75 189.36 36.75 187.52H36.73Z" fill="white"/>
<path d="M54 194.71H46.1L44.59 198.36H40.59L48.17 181.36H52L59.61 198.36H55.52L54 194.71ZM52.76 191.71L50.06 185.2L47.36 191.71H52.76Z" fill="white"/>
<path d="M60.51 189.85C60.51 184.72 64.44 181.05 69.75 181.05C71.067 180.994 72.3797 181.234 73.5913 181.754C74.8029 182.273 75.8824 183.058 76.75 184.05L74.22 186.39C73.7019 185.757 73.0483 185.249 72.3075 184.903C71.5667 184.557 70.7576 184.382 69.94 184.39C68.4946 184.39 67.1083 184.964 66.0863 185.986C65.0642 187.008 64.49 188.395 64.49 189.84C64.49 191.285 65.0642 192.672 66.0863 193.694C67.1083 194.716 68.4946 195.29 69.94 195.29C70.7581 195.301 71.5681 195.127 72.3094 194.781C73.0506 194.434 73.7038 193.925 74.22 193.29L76.75 195.62C75.8847 196.615 74.8057 197.402 73.5935 197.922C72.3813 198.441 71.0674 198.68 69.75 198.62C64.44 198.65 60.51 195 60.51 189.85Z" fill="white"/>
<path d="M77.79 189.85C77.79 184.72 81.73 181.05 87.03 181.05C88.3469 180.995 89.6594 181.235 90.8709 181.755C92.0824 182.274 93.1619 183.058 94.03 184.05L91.5 186.39C90.9819 185.757 90.3283 185.249 89.5875 184.903C88.8467 184.557 88.0376 184.382 87.22 184.39C85.7746 184.39 84.3883 184.964 83.3663 185.986C82.3442 187.008 81.77 188.395 81.77 189.84C81.77 191.285 82.3442 192.672 83.3663 193.694C84.3883 194.716 85.7746 195.29 87.22 195.29C88.0381 195.301 88.8481 195.127 89.5894 194.781C90.3306 194.435 90.9838 193.925 91.5 193.29L94.03 195.62C93.1647 196.615 92.0857 197.402 90.8735 197.922C89.6613 198.441 88.3474 198.68 87.03 198.62C81.73 198.65 77.79 195 77.79 189.85Z" fill="white"/>
<path d="M111.38 187.52C111.38 191.31 108.53 193.67 103.98 193.67H100.56V198.36H96.62V181.36H104C108.53 181.34 111.38 183.7 111.38 187.52ZM107.38 187.52C107.38 185.64 106.16 184.52 103.76 184.52H100.55V190.43H103.76C106.17 190.46 107.39 189.36 107.39 187.52H107.38Z" fill="white"/>
<path d="M113 189.85C113 184.79 116.94 181.05 122.31 181.05C127.68 181.05 131.63 184.77 131.63 189.85C131.63 194.93 127.63 198.65 122.31 198.65C116.99 198.65 113 194.91 113 189.85ZM127.64 189.85C127.616 188.801 127.284 187.783 126.684 186.922C126.084 186.062 125.244 185.397 124.268 185.012C123.292 184.627 122.224 184.538 121.199 184.757C120.173 184.976 119.234 185.493 118.501 186.243C117.767 186.993 117.271 187.943 117.075 188.973C116.879 190.004 116.992 191.069 117.398 192.036C117.805 193.003 118.488 193.829 119.362 194.409C120.235 194.99 121.261 195.3 122.31 195.3C123.028 195.323 123.743 195.197 124.409 194.93C125.076 194.663 125.68 194.261 126.184 193.749C126.687 193.237 127.079 192.626 127.335 191.955C127.591 191.284 127.705 190.567 127.67 189.85H127.64Z" fill="white"/>
<path d="M148.31 181.34V198.34H144.42V192.21C143.108 192.719 141.717 192.993 140.31 193.02C135.74 193.02 133.24 190.75 133.24 186.64V181.32H137.13V186.21C137.13 188.54 138.42 189.73 140.78 189.73C142.032 189.736 143.272 189.481 144.42 188.98V181.32L148.31 181.34Z" fill="white"/>
<path d="M159.14 191.5H156.41V198.36H152.5V181.36H156.41V188.24H159.23L163.71 181.36H167.86L162.3 189.58L168.03 198.38H163.56L159.14 191.5Z" fill="white"/>
<path d="M185.54 181.34L178.3 194.81C176.89 197.44 174.87 198.75 172.58 198.75C171.628 198.736 170.688 198.539 169.81 198.17L170.76 195.17C171.309 195.355 171.881 195.459 172.46 195.48C172.952 195.478 173.435 195.34 173.854 195.083C174.274 194.826 174.615 194.458 174.84 194.02L174.99 193.83L168.28 181.33H172.49L177.01 190.47L181.68 181.33L185.54 181.34Z" fill="white"/>
<path d="M1 219.79C1 211.71 7.21 205.92 15.56 205.92C20.19 205.92 24.06 207.61 26.56 210.67L22.56 214.35C21.7421 213.357 20.7123 212.559 19.546 212.016C18.3797 211.473 17.1066 211.197 15.82 211.21C13.5444 211.21 11.3621 212.114 9.75303 213.723C8.14396 215.332 7.24 217.514 7.24 219.79C7.24 222.066 8.14396 224.248 9.75303 225.857C11.3621 227.466 13.5444 228.37 15.82 228.37C17.1108 228.384 18.3882 228.106 19.5557 227.555C20.7232 227.004 21.7504 226.196 22.56 225.19L26.56 228.87C24.03 231.97 20.16 233.66 15.49 233.66C7.16 233.66 1 227.87 1 219.79Z" fill="white"/>
<path d="M53.86 216.11C53.86 222.11 49.37 225.8 42.21 225.8H36.81V233.2H30.6V206.38H42.21C49.37 206.38 53.86 210.1 53.86 216.11ZM47.57 216.11C47.57 213.11 45.66 211.44 41.87 211.44H36.81V220.75H41.87C45.66 220.75 47.57 219 47.57 216.11Z" fill="white"/>
<path d="M56.46 219.79C56.46 211.79 62.67 205.92 71.13 205.92C79.59 205.92 85.8 211.78 85.8 219.79C85.8 227.8 79.56 233.66 71.13 233.66C62.7 233.66 56.46 227.76 56.46 219.79ZM79.52 219.79C79.4826 218.139 78.9589 216.536 78.0146 215.182C77.0703 213.827 75.7472 212.781 74.2112 212.175C72.6753 211.569 70.9946 211.43 69.3798 211.775C67.765 212.12 66.2879 212.934 65.1335 214.114C63.979 215.295 63.1986 216.79 62.89 218.412C62.5814 220.034 62.7583 221.711 63.3985 223.233C64.0387 224.755 65.1138 226.054 66.4891 226.968C67.8644 227.882 69.4788 228.37 71.13 228.37C72.2563 228.4 73.3766 228.198 74.4209 227.775C75.4651 227.352 76.4108 226.717 77.1985 225.912C77.9862 225.106 78.599 224.147 78.9985 223.093C79.3979 222.04 79.5755 220.915 79.52 219.79Z" fill="white"/>
<path d="M101 222.39H96.71V233.2H90.55V206.38H96.71V217.22H101.16L108.21 206.38H114.76L105.98 219.38L115 233.2H108L101 222.39Z" fill="white"/>
<path d="M115.91 219.79C115.91 211.79 122.12 205.92 130.59 205.92C139.06 205.92 145.26 211.78 145.26 219.79C145.26 227.8 139.01 233.66 130.59 233.66C122.17 233.66 115.91 227.76 115.91 219.79ZM138.98 219.79C138.943 218.139 138.419 216.536 137.475 215.182C136.53 213.827 135.207 212.781 133.671 212.175C132.135 211.569 130.455 211.43 128.84 211.775C127.225 212.12 125.748 212.934 124.593 214.114C123.439 215.295 122.659 216.79 122.35 218.412C122.041 220.034 122.218 221.711 122.858 223.233C123.499 224.755 124.574 226.054 125.949 226.968C127.324 227.882 128.939 228.37 130.59 228.37C131.718 228.403 132.84 228.202 133.887 227.781C134.934 227.359 135.882 226.725 136.672 225.919C137.462 225.114 138.076 224.153 138.477 223.098C138.878 222.043 139.056 220.917 139 219.79H138.98Z" fill="white"/>
<path d="M174.45 233.2V217.2L166.56 230.41H163.8L155.91 217.5V233.2H150.09V206.38H155.22L165.22 223.05L175.1 206.38H180.23V233.2H174.45Z" fill="white"/>
<path d="M27.38 240.25V267.06H21.18V256.06H9.00001V267.06H2.79001V240.25H9.00001V250.82H21.18V240.25H27.38Z" fill="white"/>
<path d="M52.25 261.32H39.8L37.42 267.06H31.06L43.06 240.25H49.19L61.19 267.06H54.62L52.25 261.32ZM50.25 256.61L46 246.34L41.75 256.61H50.25Z" fill="white"/>
<path d="M94 258.64C94 263.38 90.52 267.52 82.86 267.52C79.2427 267.584 75.686 266.586 72.63 264.65L75 259.9C77.2215 261.488 79.8891 262.332 82.62 262.31C85.73 262.31 87.62 261.01 87.62 258.83C87.62 256.65 86.24 255.34 81.38 255.34H74.58L76 240.25H92.36V245.25H81.13L80.71 250.34H82.89C90.82 250.32 94 253.89 94 258.64Z" fill="white"/>
<path d="M133.07 240.25V267.06H127V245.3H117.8L117.61 250.9C117.27 261.43 115.77 267.48 109.49 267.48C108.454 267.458 107.424 267.317 106.42 267.06L106.81 261.82C107.171 261.924 107.545 261.974 107.92 261.97C111.06 261.97 111.86 257.97 112.13 251.13L112.52 240.25H133.07Z" fill="white"/>
<path d="M160.54 262.08V267.08H139.78V240.25H160V245.25H146V251.07H158.4V255.9H146V262.1L160.54 262.08Z" fill="white"/>
<path d="M186.05 245.3H177.47V267.06H171.34V245.3H162.8V240.25H186.05V245.3Z" fill="white"/>
<path d="M276.75 256.31H272.32V263.86H270.2V254.56H276.76L276.75 256.31Z" fill="white"/>
<path d="M276.49 259.21C276.434 258.193 276.684 257.182 277.209 256.309C277.734 255.436 278.508 254.74 279.433 254.312C280.357 253.883 281.388 253.742 282.394 253.907C283.399 254.071 284.332 254.533 285.072 255.234C285.812 255.934 286.324 256.841 286.543 257.836C286.762 258.83 286.678 259.868 286.301 260.815C285.923 261.761 285.271 262.572 284.428 263.144C283.584 263.715 282.589 264.02 281.57 264.02C280.916 264.057 280.261 263.96 279.646 263.734C279.031 263.509 278.469 263.161 277.993 262.71C277.517 262.26 277.139 261.717 276.88 261.115C276.622 260.513 276.489 259.865 276.49 259.21ZM284.49 259.21C284.472 258.639 284.287 258.085 283.956 257.619C283.626 257.152 283.166 256.793 282.633 256.586C282.1 256.38 281.518 256.335 280.959 256.457C280.401 256.58 279.891 256.864 279.493 257.274C279.095 257.684 278.826 258.203 278.721 258.765C278.616 259.326 278.679 259.907 278.901 260.433C279.124 260.96 279.497 261.409 279.973 261.725C280.449 262.041 281.008 262.21 281.58 262.21C281.972 262.219 282.361 262.147 282.724 261.998C283.086 261.849 283.414 261.626 283.686 261.345C283.959 261.063 284.17 260.728 284.307 260.36C284.443 259.993 284.502 259.601 284.48 259.21H284.49Z" fill="white"/>
<path d="M297.65 262.1V265.78H295.65V263.86H289.1V265.78H287.1V262.1H287.47C288.68 262.1 288.98 260.1 289.08 257.47L289.19 254.56H296.33V262.1H297.65ZM290.07 262.1H294.23V256.31H291V257.67C290.92 259.65 290.71 261.35 290.07 262.1Z" fill="white"/>
<path d="M298.46 259.21C298.404 258.193 298.654 257.182 299.179 256.309C299.704 255.436 300.478 254.74 301.403 254.312C302.327 253.883 303.358 253.742 304.364 253.907C305.369 254.071 306.302 254.533 307.042 255.234C307.782 255.934 308.294 256.841 308.513 257.836C308.732 258.83 308.648 259.868 308.271 260.815C307.893 261.761 307.241 262.572 306.398 263.144C305.554 263.715 304.559 264.02 303.54 264.02C302.886 264.057 302.231 263.96 301.616 263.734C301.001 263.509 300.439 263.161 299.963 262.71C299.487 262.26 299.109 261.717 298.85 261.115C298.592 260.513 298.459 259.865 298.46 259.21ZM306.46 259.21C306.442 258.639 306.257 258.085 305.926 257.619C305.596 257.152 305.136 256.793 304.603 256.586C304.07 256.38 303.488 256.335 302.929 256.457C302.371 256.58 301.861 256.864 301.463 257.274C301.065 257.684 300.796 258.203 300.691 258.765C300.586 259.326 300.649 259.907 300.871 260.433C301.094 260.96 301.467 261.409 301.943 261.725C302.419 262.041 302.978 262.21 303.55 262.21C303.942 262.22 304.332 262.149 304.696 262.001C305.059 261.852 305.387 261.63 305.66 261.348C305.933 261.066 306.144 260.73 306.28 260.362C306.416 259.994 306.474 259.602 306.45 259.21H306.46Z" fill="white"/>
<path d="M318.5 261.24C318.5 262.86 317.23 263.86 314.88 263.86H310.3V254.56H314.63C316.78 254.56 318.06 255.42 318.06 256.96C318.069 257.394 317.949 257.822 317.713 258.187C317.478 258.552 317.139 258.839 316.74 259.01C317.25 259.114 317.706 259.395 318.028 259.803C318.35 260.211 318.518 260.72 318.5 261.24ZM312.44 258.41H314.44C315.37 258.41 315.87 258.03 315.87 257.28C315.87 256.53 315.37 256.15 314.44 256.15H312.44V258.41ZM316.32 261.07C316.32 260.28 315.8 259.91 314.8 259.91H312.44V262.26H314.8C315.8 262.26 316.32 261.88 316.32 261.07Z" fill="white"/>
<path d="M328.23 260.62C328.23 262.76 326.79 263.86 324.4 263.86H320.2V254.56H322.34V257.61H324.71C327 257.61 328.23 258.61 328.23 260.62ZM326.06 260.62C326.06 259.62 325.4 259.17 324.28 259.17H322.34V262.22H324.28C325.38 262.26 326.06 261.7 326.06 260.66V260.62ZM329.41 254.52H331.55V263.82H329.41V254.52Z" fill="white"/>
<path d="M335.54 254.56L337.47 257.37L339.39 254.56H341.92L338.82 259.01L342.17 263.86H339.63L337.47 260.78L335.33 263.86H332.84L336.16 259.1L333.06 254.56H335.54Z" fill="white"/>
<defs>
<linearGradient id="paint0_linear_806_19" x1="128.49" y1="159.06" x2="380.84" y2="159.06" gradientUnits="userSpaceOnUse">
<stop stop-color="#2BB018" stop-opacity="0"/>
<stop offset="0.13" stop-color="#2BB018" stop-opacity="0.29"/>
<stop offset="0.33" stop-color="#2BB018" stop-opacity="0.45"/>
<stop offset="0.45" stop-color="#2BB018" stop-opacity="0.61"/>
<stop offset="1" stop-color="#2BB018"/>
</linearGradient>
</defs>
</svg>
