<svg width="293" height="381" viewBox="0 0 293 381" fill="none" xmlns="http://www.w3.org/2000/svg">
<path d="M6 144.927V94.9611L145.884 8L286.692 96.5459V372.91L6 374V144.927Z" stroke="url(#paint0_linear_1246_57)" stroke-width="12" stroke-miterlimit="10"/>
<path d="M44.4662 146.008H34.7877L32.9381 150.48H27.9849L37.2833 129.615H42.0593L51.3831 150.48H46.3158L44.4662 146.008ZM42.946 142.347L39.6396 134.366L36.3332 142.347H42.946Z" fill="white"/>
<path d="M71.6523 137.191C71.6523 141.84 68.1685 144.728 62.5945 144.728H58.3887V150.48H53.5621V129.615H62.5945C68.1685 129.615 71.6523 132.567 71.6523 137.191ZM66.7624 137.191C66.7624 134.898 65.2675 133.555 62.3285 133.555H58.3887V140.801H62.3285C65.2675 140.801 66.7624 139.458 66.7624 137.191Z" fill="white"/>
<path d="M87.7789 146.008H78.0877L76.2381 150.48H71.2975L80.596 129.615H85.3593L94.6958 150.48H89.6285L87.7789 146.008ZM86.2587 142.347L82.9523 134.366L79.6459 142.347H86.2587Z" fill="white"/>
<path d="M110.214 150.48L106.186 144.678H101.752V150.48H96.9128V129.615H105.945C111.519 129.615 115.016 132.516 115.016 137.216C115.072 138.624 114.689 140.014 113.919 141.195C113.15 142.375 112.032 143.287 110.721 143.803L115.396 150.505L110.214 150.48ZM105.679 133.555H101.752V140.826H105.679C108.631 140.826 110.126 139.458 110.126 137.191C110.126 134.923 108.58 133.555 105.629 133.555H105.679Z" fill="white"/>
<path d="M122.794 133.555H116.118V129.615H134.284V133.555H127.608V150.48H122.781L122.794 133.555Z" fill="white"/>
<path d="M149.587 146.008H139.909L138.084 150.48H133.131L142.43 129.615H147.206L156.529 150.48H151.462L149.587 146.008ZM148.067 142.347L144.761 134.366L141.454 142.347H148.067Z" fill="white"/>
<path d="M177.673 150.48V137.963L171.541 148.275H169.362L163.256 138.229V150.48H158.721V129.615H162.712L170.528 142.587L178.217 129.615H182.183V150.48H177.673Z" fill="white"/>
<path d="M203.301 146.616V150.416H187.149V129.615H202.908V133.491H191.95V138.027H201.628V141.827H191.95V146.666L203.301 146.616Z" fill="white"/>
<path d="M226.281 129.615V150.48H222.315L211.915 137.811V150.48H207.152V129.615H211.142L221.517 142.283V129.615H226.281Z" fill="white"/>
<path d="M235.554 133.555H228.878V129.615H247.031V133.555H240.355V150.48H235.529L235.554 133.555Z" fill="white"/>
<path d="M265.806 146.616V150.416H249.654V129.615H265.413V133.491H254.442V138.027H264.133V141.827H254.442V146.666L265.806 146.616Z" fill="white"/>
<path d="M38.0814 166.201H35.003L32.672 164.149L30.3284 166.201H27.2627L30.8098 162.324H34.5216L38.0814 166.201ZM30.4804 167.734H34.8383V186.559H30.4931L30.4804 167.734Z" fill="white"/>
<path d="M56.5896 167.734V186.559H53.0045L43.6174 175.157V186.559H39.2722V167.734H42.8826L52.2444 179.135V167.734H56.5896Z" fill="white"/>
<path d="M80.6593 186.559L77.0235 181.314H73.0203V186.559H68.6625V167.734H76.8082C81.8755 167.734 84.9918 170.343 84.9918 174.562C85.043 175.832 84.6972 177.087 84.0025 178.152C83.3078 179.216 82.2987 180.038 81.1153 180.503L85.3339 186.559H80.6593ZM76.5675 171.281H73.0203V177.843H76.5675C79.2278 177.843 80.5706 176.576 80.5706 174.562C80.5706 172.548 79.2278 171.281 76.5675 171.281Z" fill="white"/>
<path d="M100.827 182.53H92.0861L90.4139 186.559H85.9547L94.341 167.734H98.6482L107.073 186.559H102.499L100.827 182.53ZM99.459 179.224L96.4693 172.003L93.4796 179.224H99.459Z" fill="white"/>
<path d="M111.988 171.281H105.958V167.734H122.426V171.281H116.396V186.559H111.988V171.281Z" fill="white"/>
<path d="M139.351 183.062V186.559H124.707V167.734H138.946V171.23H129.039V175.322H137.793V178.704H129.039V183.062H139.351Z" fill="white"/>
<path d="M166.702 174.562C166.702 178.755 163.56 181.365 158.531 181.365H154.73V186.559H150.373V167.734H158.531C163.56 167.734 166.702 170.343 166.702 174.562ZM162.293 174.562C162.293 172.484 160.951 171.281 158.278 171.281H154.73V177.818H158.278C160.951 177.818 162.293 176.601 162.293 174.562Z" fill="#2BB018"/>
<path d="M184.374 183.062V186.559H169.755V167.734H183.994V171.23H174.087V175.322H182.829V178.704H174.087V183.062H184.374Z" fill="#2BB018"/>
<path d="M208.507 180.706C208.507 184.038 206.049 186.951 200.678 186.951C198.135 186.991 195.636 186.291 193.483 184.937L195.205 181.593C196.767 182.711 198.643 183.305 200.564 183.29C202.743 183.29 204.086 182.378 204.086 180.845C204.086 179.312 203.123 178.388 199.703 178.388H194.889L195.852 167.797H207.342V171.293H199.487L199.196 174.866H200.729C206.29 174.803 208.507 177.311 208.507 180.706Z" fill="#2BB018"/>
<path d="M231.474 182.53H222.721L221.061 186.559H216.627L225.026 167.734H229.296L237.72 186.559H233.096L231.474 182.53ZM230.094 179.224L227.117 172.003L224.127 179.224H230.094Z" fill="#2BB018"/>
<path d="M256.95 167.734V186.559H253.365L243.978 175.157V186.559H239.671V167.734H243.231L252.593 179.135V167.734H256.95Z" fill="#2BB018"/>
<path d="M261.41 167.734H265.767V186.559H261.41V167.734Z" fill="#2BB018"/>
<path d="M27.2627 264.62C27.2627 223.411 50.0655 200.012 80.786 200.012C111.506 200.012 134.297 223.385 134.297 264.62C134.297 305.855 111.646 329.228 80.786 329.228C49.9262 329.228 27.2627 305.83 27.2627 264.62ZM105.223 264.62C105.223 236.256 95.2278 224.487 80.786 224.487C66.3442 224.487 56.5136 236.256 56.5136 264.62C56.5136 292.984 66.5089 304.766 80.786 304.766C95.0631 304.766 105.223 292.984 105.223 264.62Z" fill="white"/>
<path d="M144.723 228.44C144.723 211.097 155.313 200.076 170.3 200.076C185.286 200.076 195.712 210.958 195.712 228.44C195.712 245.922 185.286 256.804 170.3 256.804C155.313 256.804 144.723 245.783 144.723 228.44ZM181.03 228.44C181.03 217.418 176.76 212.136 170.3 212.136C163.839 212.136 159.62 217.571 159.62 228.44C159.62 239.309 164.029 244.757 170.35 244.757C176.672 244.757 181.03 239.461 181.03 228.44ZM231.576 201.254H249.058L178.813 304.12H161.331L231.576 201.254ZM214.677 276.985C214.677 259.642 225.254 248.62 240.102 248.62C254.949 248.62 265.666 259.642 265.666 276.985C265.666 294.327 255.088 305.349 240.102 305.349C225.115 305.349 214.677 294.277 214.677 276.985ZM250.832 276.985C250.832 266.115 246.562 260.681 240.102 260.681C233.641 260.681 229.372 265.963 229.372 276.985C229.372 288.006 233.78 293.301 240.102 293.301C246.423 293.301 250.832 287.816 250.832 276.985Z" fill="white"/>
<path d="M144.819 329V313.656H151.79C153.456 313.656 154.924 313.977 156.196 314.62C157.467 315.249 158.461 316.133 159.177 317.273C159.893 318.413 160.251 319.764 160.251 321.328C160.251 322.877 159.893 324.229 159.177 325.383C158.461 326.523 157.467 327.414 156.196 328.057C154.924 328.686 153.456 329 151.79 329H144.819ZM148.37 326.085H151.615C152.637 326.085 153.522 325.895 154.267 325.515C155.027 325.12 155.611 324.565 156.02 323.849C156.444 323.133 156.656 322.292 156.656 321.328C156.656 320.349 156.444 319.509 156.02 318.807C155.611 318.091 155.027 317.543 154.267 317.163C153.522 316.769 152.637 316.571 151.615 316.571H148.37V326.085ZM170.382 329.263C169.169 329.263 168.044 329.066 167.006 328.671C165.983 328.277 165.092 327.721 164.332 327.005C163.587 326.289 163.002 325.449 162.578 324.484C162.169 323.52 161.965 322.468 161.965 321.328C161.965 320.188 162.169 319.136 162.578 318.172C163.002 317.207 163.594 316.367 164.354 315.651C165.114 314.935 166.005 314.379 167.028 313.985C168.051 313.59 169.162 313.393 170.36 313.393C171.573 313.393 172.683 313.59 173.692 313.985C174.715 314.379 175.599 314.935 176.344 315.651C177.104 316.367 177.696 317.207 178.12 318.172C178.543 319.121 178.755 320.174 178.755 321.328C178.755 322.468 178.543 323.527 178.12 324.506C177.696 325.471 177.104 326.311 176.344 327.027C175.599 327.729 174.715 328.277 173.692 328.671C172.683 329.066 171.58 329.263 170.382 329.263ZM170.36 326.238C171.047 326.238 171.675 326.121 172.245 325.887C172.83 325.654 173.341 325.317 173.779 324.879C174.218 324.441 174.554 323.922 174.788 323.323C175.036 322.724 175.16 322.059 175.16 321.328C175.16 320.597 175.036 319.932 174.788 319.333C174.554 318.734 174.218 318.215 173.779 317.777C173.356 317.339 172.852 317.002 172.267 316.769C171.682 316.535 171.047 316.418 170.36 316.418C169.673 316.418 169.037 316.535 168.453 316.769C167.883 317.002 167.379 317.339 166.94 317.777C166.502 318.215 166.159 318.734 165.91 319.333C165.676 319.932 165.559 320.597 165.559 321.328C165.559 322.044 165.676 322.709 165.91 323.323C166.159 323.922 166.495 324.441 166.918 324.879C167.357 325.317 167.868 325.654 168.453 325.887C169.037 326.121 169.673 326.238 170.36 326.238ZM181.424 329V313.656H188.921C190.85 313.656 192.296 314.021 193.261 314.752C194.24 315.483 194.729 316.447 194.729 317.645C194.729 318.449 194.532 319.151 194.138 319.75C193.743 320.334 193.202 320.787 192.516 321.109C191.829 321.43 191.04 321.591 190.148 321.591L190.565 320.692C191.529 320.692 192.384 320.853 193.129 321.175C193.875 321.481 194.452 321.942 194.861 322.556C195.285 323.169 195.497 323.922 195.497 324.813C195.497 326.128 194.978 327.159 193.94 327.904C192.903 328.635 191.376 329 189.359 329H181.424ZM184.953 326.326H189.096C190.017 326.326 190.711 326.18 191.178 325.887C191.661 325.58 191.902 325.098 191.902 324.441C191.902 323.798 191.661 323.323 191.178 323.016C190.711 322.694 190.017 322.534 189.096 322.534H184.69V319.947H188.482C189.344 319.947 190.002 319.801 190.455 319.509C190.923 319.202 191.157 318.741 191.157 318.128C191.157 317.529 190.923 317.083 190.455 316.791C190.002 316.484 189.344 316.33 188.482 316.33H184.953V326.326ZM196.169 329L203.008 313.656H206.515L213.376 329H209.649L204.038 315.453H205.441L199.807 329H196.169ZM199.588 325.712L200.531 323.016H208.422L209.386 325.712H199.588ZM200.355 312.407L203.249 309.25H206.274L209.167 312.407H206.668L203.643 309.776H205.879L202.854 312.407H200.355ZM214.968 329V313.656H217.905L226.958 324.704H225.533V313.656H229.04V329H226.125L217.05 317.952H218.475V329H214.968ZM232.671 329V313.656H239.641C241.307 313.656 242.776 313.977 244.047 314.62C245.318 315.249 246.312 316.133 247.028 317.273C247.744 318.413 248.102 319.764 248.102 321.328C248.102 322.877 247.744 324.229 247.028 325.383C246.312 326.523 245.318 327.414 244.047 328.057C242.776 328.686 241.307 329 239.641 329H232.671ZM236.222 326.085H239.466C240.489 326.085 241.373 325.895 242.118 325.515C242.878 325.12 243.463 324.565 243.872 323.849C244.296 323.133 244.507 322.292 244.507 321.328C244.507 320.349 244.296 319.509 243.872 318.807C243.463 318.091 242.878 317.543 242.118 317.163C241.373 316.769 240.489 316.571 239.466 316.571H236.222V326.085ZM248.55 329L255.389 313.656H258.896L265.757 329H262.03L256.419 315.453H257.822L252.188 329H248.55ZM251.969 325.712L252.912 323.016H260.803L261.767 325.712H251.969ZM257.142 312.582C256.002 312.582 255.053 312.282 254.293 311.683C253.547 311.084 253.153 310.273 253.109 309.25H255.257C255.286 309.732 255.476 310.112 255.827 310.39C256.192 310.668 256.631 310.806 257.142 310.806C257.654 310.806 258.092 310.668 258.457 310.39C258.823 310.112 259.013 309.732 259.027 309.25H261.176C261.132 310.273 260.73 311.084 259.97 311.683C259.225 312.282 258.282 312.582 257.142 312.582Z" fill="white"/>
<defs>
<linearGradient id="paint0_linear_1246_57" x1="-1.58592" y1="190.341" x2="294.278" y2="190.341" gradientUnits="userSpaceOnUse">
<stop stop-color="#2BB018" stop-opacity="0"/>
<stop offset="0.12" stop-color="#2BB018" stop-opacity="0.45"/>
<stop offset="0.43" stop-color="#2BB018" stop-opacity="0.61"/>
<stop offset="1" stop-color="#2BB018"/>
</linearGradient>
</defs>
</svg>
