<svg width="108" height="55" viewBox="0 0 108 55" fill="none" xmlns="http://www.w3.org/2000/svg">
<path d="M95.3996 21.6613H92.9546V14.6014H95.3996L97.0417 17.2699C97.2924 17.6697 97.5144 18.0869 97.7058 18.5183H97.7824C97.6446 17.9713 97.5699 17.4104 97.5598 16.8464V14.6014H100.012V21.6613H97.5598L95.7864 18.876C95.6061 18.5795 95.444 18.2723 95.301 17.9561H95.228C95.3183 18.3851 95.3708 18.8212 95.385 19.2593L95.3996 21.6613ZM87.9407 16.7186C87.7704 16.7111 87.6003 16.7397 87.4418 16.8027C87.2833 16.8656 87.14 16.9614 87.0211 17.0837C86.7512 17.3689 86.6055 17.7497 86.6161 18.1423C86.6111 18.3335 86.6451 18.5236 86.716 18.7012C86.7869 18.8789 86.8932 19.0402 87.0284 19.1753C87.2774 19.4037 87.6029 19.5303 87.9407 19.5303C88.2785 19.5303 88.604 19.4037 88.853 19.1753C88.9875 19.0372 89.0925 18.873 89.1615 18.6929C89.2305 18.5127 89.2621 18.3204 89.2544 18.1277C89.2652 17.933 89.2351 17.7381 89.1659 17.5558C89.0968 17.3735 88.9902 17.2076 88.853 17.0691C88.7324 16.9521 88.5895 16.8608 88.4327 16.8005C88.2759 16.7403 88.1085 16.7125 87.9407 16.7186ZM91.8562 18.1277C91.8723 18.598 91.7934 19.0667 91.6241 19.5058C91.4548 19.9449 91.1986 20.3453 90.871 20.683C90.0698 21.4135 89.0248 21.8184 87.9407 21.8184C86.8566 21.8184 85.8116 21.4135 85.0104 20.683C84.3761 19.9832 84.0247 19.0723 84.0247 18.1277C84.0247 17.183 84.3761 16.2722 85.0104 15.5724C85.8146 14.848 86.8585 14.4471 87.9407 14.4471C89.0229 14.4471 90.0668 14.848 90.871 15.5724C91.1984 15.9102 91.4545 16.3106 91.6238 16.7497C91.7931 17.1887 91.8721 17.6574 91.8562 18.1277ZM82.1167 21.6613H79.5988V16.8355L78.161 16.8975V14.6014H83.5581V16.8975L82.1167 16.8355V21.6613ZM69.4615 21.6613L66.9837 14.6014H69.6403L70.4139 17.9488C70.4815 18.2326 70.5206 18.5224 70.5306 18.814H70.6073C70.6285 18.4146 70.6896 18.0184 70.7897 17.6312L71.5597 14.6014H73.5266L74.3404 17.8174C74.418 18.1448 74.468 18.4782 74.49 18.814H74.5411C74.5555 18.4325 74.608 18.0534 74.698 17.6823L75.4278 14.6014H78.0953L75.6066 21.6613H73.3733L72.7055 18.7811C72.6367 18.4635 72.5903 18.1415 72.5669 17.8174H72.4829C72.476 18.1409 72.4419 18.4633 72.3808 18.7811L71.6509 21.6613H69.4615ZM66.5932 21.6613H61.7654V14.6014H66.5093V16.5398H64.3198V17.1932H66.3195V19.0476H64.3198V19.7229H66.5932V21.6613ZM55.7334 21.6613H53.2885V14.6014H55.7334L57.3755 17.2699C57.6263 17.6697 57.8482 18.0869 58.0396 18.5183H58.1163C57.9767 17.9717 57.902 17.4105 57.8937 16.8464V14.6014H60.3459V21.6613H57.8937L56.1348 18.876C55.9545 18.5795 55.7925 18.2723 55.6494 17.9561H55.5728C55.6657 18.3847 55.7195 18.8209 55.7334 19.2593V21.6613Z" fill="#2E2D2C"/>
<path d="M89.1303 32.554H84.3062V25.4942H89.05V27.4325H86.8606V28.086H88.853V29.9403H86.8533V30.6157H89.1157L89.1303 32.554ZM82.9742 25.9505L82.2845 27.7465C81.8703 27.4283 81.3685 27.2449 80.8468 27.2208C80.6758 27.2083 80.5054 27.2519 80.3614 27.3449C80.3199 27.3731 80.2861 27.4112 80.2631 27.4559C80.2401 27.5005 80.2288 27.5503 80.2301 27.6005C80.2278 27.6501 80.2353 27.6997 80.252 27.7465C80.2788 27.7958 80.3194 27.8364 80.3687 27.8633C80.4534 27.9162 80.5476 27.9522 80.6461 27.9691L81.4598 28.1517C81.9125 28.2328 82.332 28.4433 82.6677 28.7576C82.849 28.9402 82.9906 29.1584 83.0835 29.3983C83.1765 29.6383 83.2188 29.8949 83.2078 30.1521C83.2157 30.4573 83.1634 30.7612 83.0539 31.0462C82.9443 31.3312 82.7796 31.5918 82.5692 31.813C82.2392 32.1262 81.8482 32.3679 81.4206 32.5231C80.993 32.6782 80.538 32.7434 80.0841 32.7146C79.7508 32.7146 79.4183 32.6816 79.0915 32.6161C78.8443 32.5693 78.6004 32.5059 78.3617 32.4263L77.6866 32.1634L77.4531 32.0685L78.223 30.0754L78.5004 30.2908C78.9047 30.6182 79.4071 30.8007 79.9272 30.8091C80.1198 30.8265 80.3129 30.7818 80.4782 30.6814C80.524 30.6425 80.5603 30.5937 80.5843 30.5386C80.6083 30.4836 80.6195 30.4238 80.6169 30.3638C80.6197 30.3195 80.6138 30.2751 80.5994 30.2331C80.585 30.1911 80.5624 30.1524 80.533 30.1192C80.3849 30.0267 80.2176 29.9693 80.044 29.9513L79.4236 29.8345C78.9597 29.7651 78.5287 29.5533 78.1902 29.2285C78.0234 29.0568 77.8929 28.8532 77.8064 28.63C77.7199 28.4067 77.6791 28.1683 77.6866 27.929C77.6794 27.6164 77.7366 27.3057 77.8546 27.0162C77.9726 26.7267 78.149 26.4645 78.3727 26.2462C78.6975 25.9336 79.0832 25.6913 79.5057 25.5343C79.9282 25.3773 80.3785 25.309 80.8285 25.3336C81.5872 25.3356 82.3302 25.5493 82.9742 25.9505ZM69.8373 30.0061V25.4942H72.3917V29.5899C72.3681 29.853 72.448 30.1149 72.6143 30.32C72.6799 30.3869 72.7592 30.4389 72.8468 30.4723C72.9343 30.5057 73.028 30.5197 73.1215 30.5135C73.215 30.5212 73.3091 30.51 73.3981 30.4805C73.4872 30.451 73.5693 30.4039 73.6397 30.3419C73.794 30.1317 73.8631 29.8709 73.8331 29.6118V25.4942H76.3875V29.8235C76.4054 30.1905 76.3501 30.5573 76.2248 30.9026C76.0995 31.248 75.9067 31.5649 75.6577 31.8349C75.0848 32.4189 74.2418 32.7146 73.1361 32.7146C71.9684 32.7146 71.0926 32.4007 70.5161 31.7801C70.2891 31.5447 70.1107 31.2669 69.9911 30.9625C69.8715 30.6581 69.813 30.3331 69.8191 30.0061H69.8373ZM64.8234 27.6114C64.6525 27.604 64.482 27.6327 64.3229 27.6956C64.1639 27.7585 64.0198 27.8542 63.9002 27.9764C63.6319 28.2625 63.4876 28.643 63.4988 29.035C63.491 29.2278 63.5226 29.4201 63.5916 29.6002C63.6606 29.7803 63.7656 29.9445 63.9002 30.0827C64.151 30.3146 64.48 30.4434 64.8216 30.4434C65.1631 30.4434 65.4921 30.3146 65.743 30.0827C65.8775 29.9445 65.9825 29.7803 66.0515 29.6002C66.1205 29.4201 66.1521 29.2278 66.1444 29.035C66.1552 28.8403 66.1251 28.6455 66.0559 28.4632C65.9868 28.2808 65.8802 28.115 65.743 27.9764C65.6202 27.8544 65.4735 27.7589 65.3121 27.6961C65.1507 27.6333 64.9782 27.6045 64.8051 27.6114H64.8234ZM68.717 29.0314C68.7336 29.5015 68.6552 29.97 68.4865 30.4091C68.3179 30.8482 68.0624 31.2487 67.7354 31.5867C66.9342 32.3172 65.8892 32.7221 64.8051 32.7221C63.7211 32.7221 62.6761 32.3172 61.8749 31.5867C61.2405 30.8869 60.8891 29.9761 60.8891 29.0314C60.8891 28.0867 61.2405 27.1759 61.8749 26.4761C62.6761 25.7456 63.7211 25.3407 64.8051 25.3407C65.8892 25.3407 66.9342 25.7456 67.7354 26.4761C68.0624 26.8141 68.3179 27.2146 68.4865 27.6537C68.6552 28.0928 68.7336 28.5613 68.717 29.0314ZM55.7553 32.565H53.2885V25.4942H55.7553V27.8852H57.3208V25.4942H59.7876V32.554H57.3208V30.101H55.7553V32.565Z" fill="#2E2D2C"/>
<path d="M100.822 39.5408C100.761 39.2795 100.715 39.0151 100.683 38.7487H100.589C100.579 39.0162 100.54 39.2818 100.472 39.5408L100.107 40.8951H101.136L100.822 39.5408ZM101.596 42.567H99.6471L99.4574 43.4467H96.7461L99.191 36.3869H102.026L104.544 43.4467H101.822L101.596 42.567ZM91.4074 43.4467H88.9624V36.3869H91.4074L93.0495 39.0553C93.3002 39.4551 93.5222 39.8723 93.7136 40.3037H93.7903C93.6527 39.7567 93.578 39.1958 93.5677 38.6319V36.3869H96.0199V43.4467H93.5969L91.838 40.6615C91.6577 40.365 91.4957 40.0578 91.3526 39.7416H91.2796C91.3699 40.1706 91.4224 40.6066 91.4366 41.0448L91.4074 43.4467ZM87.5466 43.4467H84.9922V36.3869H87.5466V43.4467ZM79.6571 38.5479V41.2857H79.8505C80.243 41.3163 80.633 41.2006 80.9453 40.9608C81.085 40.8321 81.1945 40.674 81.2658 40.4979C81.3371 40.3218 81.3684 40.1321 81.3576 39.9424C81.3672 39.7474 81.3354 39.5525 81.2643 39.3707C81.1933 39.1889 81.0845 39.0242 80.9453 38.8874C80.6679 38.6476 80.3077 38.5258 79.9418 38.5479H79.6571ZM80.4599 43.4467H77.1027V36.3869H79.825C81.1849 36.3869 82.2249 36.7434 82.945 37.4564C83.2692 37.7951 83.5209 38.1964 83.6847 38.6358C83.8484 39.0752 83.9208 39.5434 83.8974 40.0117C83.921 40.4598 83.8525 40.908 83.6962 41.3287C83.54 41.7493 83.2992 42.1335 82.9888 42.4575C82.6583 42.788 82.263 43.0465 81.8278 43.2167C81.3926 43.387 80.9269 43.4653 80.4599 43.4467ZM73.2346 34.1419H74.3586C74.3349 34.5642 74.1524 34.962 73.8477 35.2553C73.4477 35.5904 72.9426 35.774 72.4209 35.774C71.8992 35.774 71.3941 35.5904 70.9941 35.2553C70.6894 34.962 70.5069 34.5642 70.4832 34.1419H71.6035C71.629 34.3144 71.7206 34.4702 71.8589 34.5763C72.0243 34.688 72.2215 34.7431 72.4209 34.7333C72.62 34.741 72.8166 34.6861 72.9828 34.5763C73.1201 34.4698 73.2104 34.314 73.2346 34.1419ZM72.6836 39.5299C72.6289 39.2889 72.5814 39.0261 72.545 38.7377H72.4537C72.4422 39.0051 72.4031 39.2705 72.337 39.5299L71.972 40.8842H73.0011L72.6836 39.5299ZM73.4572 42.556H71.5122L71.3188 43.4358H68.6112L71.0561 36.3759H73.8915L76.4094 43.4358H73.6908L73.4572 42.556ZM64.2942 38.3252V39.5335H64.5898C64.7834 39.5477 64.9755 39.4906 65.1299 39.3729C65.1905 39.3185 65.2383 39.2513 65.2699 39.1762C65.3014 39.1011 65.3159 39.0199 65.3124 38.9385C65.3219 38.7848 65.2723 38.6333 65.1737 38.5151C65.1198 38.4533 65.0529 38.4042 64.9778 38.3714C64.9028 38.3386 64.8213 38.3228 64.7394 38.3252H64.2942ZM64.2942 43.4358H61.7946V36.3869H64.9803C65.3865 36.3805 65.7916 36.4296 66.1845 36.5329C66.5477 36.643 66.8768 36.8441 67.1406 37.117C67.3643 37.3458 67.5389 37.618 67.6537 37.9168C67.7686 38.2156 67.8212 38.5347 67.8084 38.8545C67.83 39.3072 67.6917 39.753 67.4179 40.1139C67.1696 40.4104 66.8245 40.6096 66.4436 40.6761V40.7381C66.5925 40.8128 66.7186 40.9263 66.8085 41.0667L68.3959 43.4467H65.4437L64.4293 41.3843L64.3855 41.3076L64.3307 41.1616L64.2906 41.1835L64.2942 43.4358ZM56.7405 41.0156V39.34H60.7108V39.497C60.7137 40.0387 60.6537 40.579 60.532 41.1068C60.409 41.6103 60.1576 42.0731 59.8021 42.4502C59.4362 42.8327 58.9865 43.1251 58.4885 43.3044C57.9509 43.5072 57.3807 43.6099 56.8062 43.6073C56.2645 43.6348 55.7233 43.5449 55.2194 43.344C54.7156 43.143 54.2611 42.8356 53.8869 42.4429C53.2874 41.7231 52.9643 40.813 52.9756 39.8762C52.987 38.9394 53.3321 38.0373 53.9489 37.3323C54.6593 36.6023 55.647 36.2372 56.912 36.2372C57.6338 36.2281 58.3464 36.4 58.9847 36.7373C59.5505 37.0357 60.0209 37.4873 60.3422 38.0405L57.952 38.9275C57.8525 38.758 57.7092 38.6183 57.5371 38.5232C57.365 38.4282 57.1705 38.3812 56.9741 38.3873C56.6437 38.3772 56.3222 38.4949 56.0764 38.7158C55.8991 38.8874 55.761 39.0953 55.6716 39.3253C55.5822 39.5553 55.5435 39.8019 55.5582 40.0482C55.5433 40.2797 55.5773 40.5118 55.6577 40.7293C55.7382 40.9469 55.8634 41.1451 56.0253 41.3112C56.2498 41.5229 56.5489 41.6371 56.8573 41.6288C57.4083 41.6288 57.7586 41.4281 57.9046 41.0265L56.7405 41.0156Z" fill="#2FB04A"/>
<path d="M104.825 45.0456H105.949C105.923 45.4619 105.74 45.853 105.438 46.1407C105.039 46.4781 104.533 46.6631 104.01 46.6631C103.487 46.6631 102.981 46.4781 102.581 46.1407C102.28 45.8526 102.099 45.4615 102.074 45.0456H103.194C103.22 45.218 103.311 45.3738 103.45 45.48C103.615 45.5922 103.812 45.6473 104.011 45.6369C104.21 45.6452 104.405 45.5902 104.57 45.48C104.639 45.4279 104.697 45.3628 104.741 45.2882C104.785 45.2137 104.813 45.1312 104.825 45.0456ZM104.274 50.4335C104.213 50.1723 104.167 49.9078 104.136 49.6414H104.044C104.033 49.9087 103.994 50.1742 103.928 50.4335L103.563 51.7878H104.592L104.274 50.4335ZM105.048 53.4597H103.103L102.909 54.3394H100.202L102.647 47.2832H105.482L108 54.3431H105.274L105.048 53.4597ZM99.8186 51.5761L99.7456 54.2153C99.1749 54.4152 98.5731 54.5116 97.9685 54.5C97.4878 54.5154 97.0091 54.4324 96.5617 54.256C96.1142 54.0796 95.7076 53.8136 95.3667 53.4743C95.0247 53.1345 94.757 52.7274 94.5805 52.2788C94.4039 51.8301 94.3225 51.3497 94.3412 50.8679C94.3277 50.3733 94.4141 49.881 94.5954 49.4206C94.7766 48.9602 95.0488 48.5412 95.3958 48.1885C95.7442 47.8379 96.1605 47.5621 96.6192 47.3782C97.0779 47.1943 97.5694 47.1061 98.0634 47.119C98.6355 47.1194 99.2037 47.2131 99.7456 47.3964L99.8186 50.0867C99.6311 49.8748 99.4024 49.7033 99.1464 49.5828C98.8904 49.4623 98.6125 49.3953 98.3298 49.3859C98.137 49.3794 97.9452 49.4149 97.7675 49.4899C97.5898 49.5649 97.4306 49.6776 97.3007 49.8203C97.0535 50.0963 96.9228 50.4574 96.9358 50.8278C96.931 51.0153 96.9648 51.2019 97.0351 51.3758C97.1054 51.5498 97.2107 51.7074 97.3445 51.8389C97.4841 51.9727 97.6489 52.0774 97.8293 52.147C98.0097 52.2166 98.2022 52.2496 98.3954 52.2441C98.667 52.2434 98.9351 52.1832 99.181 52.0678C99.4268 51.9524 99.6445 51.7846 99.8186 51.5761ZM93.2501 54.3394H90.6957V47.2832H93.2501V54.3394ZM84.6564 54.3394H82.2115V47.2832H84.6564L86.2985 49.948C86.5525 50.3466 86.7757 50.764 86.9663 51.1964H87.0284C86.8892 50.6498 86.8145 50.0886 86.8058 49.5246V47.2832H89.258V54.3431H86.8058L85.0469 51.5578C84.8666 51.2613 84.7046 50.9541 84.5615 50.6379H84.474C84.5669 51.0666 84.6206 51.5028 84.6345 51.9411L84.6564 54.3394ZM77.7778 50.4335C77.7169 50.1723 77.6706 49.9078 77.6391 49.6414H77.5406C77.5291 49.9087 77.4899 50.1742 77.4238 50.4335L77.0589 51.7878H78.088L77.7778 50.4335ZM78.5514 53.4597H76.6064L76.413 54.3394H73.7054L76.1503 47.2796H78.982L81.5036 54.3394H78.7813L78.5514 53.4597ZM72.5084 54.3394H69.9869V49.5136L68.5491 49.5757V47.2832H73.9462V49.5793L72.5084 49.5173V54.3394ZM64.0388 49.3968C63.8684 49.3895 63.6985 49.4183 63.54 49.4812C63.3816 49.5441 63.2382 49.6397 63.1192 49.7619C62.851 50.0479 62.7067 50.4284 62.7178 50.8205C62.71 51.0132 62.7416 51.2055 62.8107 51.3856C62.8797 51.5658 62.9847 51.7299 63.1192 51.8681C63.37 52.1 63.699 52.2288 64.0406 52.2288C64.3822 52.2288 64.7112 52.1 64.962 51.8681C65.0965 51.7299 65.2015 51.5658 65.2705 51.3856C65.3395 51.2055 65.3711 51.0132 65.3634 50.8205C65.3742 50.6257 65.3441 50.4309 65.2749 50.2486C65.2058 50.0662 65.0992 49.9004 64.962 49.7619C64.8409 49.6416 64.6966 49.5472 64.5379 49.4845C64.3792 49.4217 64.2094 49.3919 64.0388 49.3968ZM67.9543 50.8059C67.97 51.2761 67.8908 51.7447 67.7215 52.1838C67.5523 52.6228 67.2963 53.0232 66.969 53.3611C66.1679 54.0917 65.1228 54.4966 64.0388 54.4966C62.9547 54.4966 61.9097 54.0917 61.1085 53.3611C60.4764 52.6602 60.1265 51.7498 60.1265 50.8059C60.1265 49.8619 60.4764 48.9515 61.1085 48.2506C61.9097 47.52 62.9547 47.1151 64.0388 47.1151C65.1228 47.1151 66.1679 47.52 66.969 48.2506C67.2988 48.5873 67.5571 48.9872 67.7283 49.4263C67.8995 49.8655 67.9801 50.3347 67.9652 50.8059H67.9543ZM55.6457 51.4702V52.6347H56.1639C56.3513 52.6465 56.5382 52.6061 56.704 52.5179C56.784 52.4675 56.8489 52.3965 56.8919 52.3124C56.9349 52.2282 56.9545 52.134 56.9485 52.0397C56.9521 51.9593 56.9364 51.8793 56.9028 51.8063C56.8691 51.7333 56.8185 51.6693 56.7551 51.6199C56.5922 51.5063 56.3946 51.4534 56.1968 51.4702H55.6457ZM55.6457 48.9734V49.9882H56.0472C56.2244 50.0015 56.3998 49.9452 56.5361 49.8312C56.6272 49.7319 56.6756 49.6008 56.6712 49.4662C56.6737 49.3975 56.6609 49.3291 56.6338 49.266C56.6066 49.2029 56.5658 49.1465 56.5142 49.1011C56.3762 49.0105 56.2116 48.9693 56.0472 48.9843L55.6457 48.9734ZM53.2738 54.3394V47.2832H56.3756C57.3657 47.2832 58.0676 47.4816 58.4811 47.8783C58.6635 48.0555 58.8061 48.2696 58.8992 48.5062C58.9923 48.7429 59.0339 48.9968 59.0212 49.2508C59.0375 49.6 58.9331 49.9442 58.7256 50.2254C58.5666 50.4255 58.354 50.5762 58.1126 50.6598V50.7219C58.3875 50.8015 58.6383 50.9483 58.8424 51.149C59.0087 51.3066 59.1406 51.497 59.2297 51.708C59.3189 51.9191 59.3635 52.1464 59.3606 52.3755C59.3688 52.6488 59.3131 52.9201 59.1978 53.168C59.0825 53.4158 58.9108 53.6332 58.6964 53.8028C58.1697 54.19 57.5244 54.381 56.8719 54.3431L53.2738 54.3394Z" fill="#2FB04A"/>
<path d="M45.1034 54.4818H0V14.6197L0.0437907 14.5905L22.2488 0.500061L22.2999 0.529265L45.1034 14.5394V54.4818ZM0.178809 54.292H44.9173V14.6453L22.2525 0.722734L0.178809 14.7219V54.292Z" fill="#2E2D2C"/>
<path d="M42.352 51.7294H2.75146V16.1346L2.79525 16.1054L22.2744 3.74524L22.3218 3.77444L42.352 16.0799V51.7294ZM2.94122 51.5396H42.1622V16.1857L22.2744 3.96791L2.94122 16.2551V51.5396Z" fill="#2E2D2C"/>
<path d="M39.5896 48.9734H5.50659V17.6459L5.55038 17.6203L22.2963 6.99042L22.3474 7.02328L39.6005 17.6094L39.5896 48.9734ZM5.68175 48.7872H39.3998V17.7152L22.289 7.20214L5.6927 17.7517L5.68175 48.7872Z" fill="#2E2D2C"/>
<path d="M37.0351 46.4108H8.06824V19.0585L22.3181 10.0129L37.0351 19.0549V46.4108ZM8.63385 45.845H36.4695V19.3724L22.3218 10.6809L8.63385 19.3688V45.845Z" fill="#2FB04A"/>
<path d="M12.4946 21.8474V40.9097H22.5517H32.6087V21.8474L22.3875 15.5688L12.4946 21.8474Z" fill="#2E2D2C"/>
</svg>
