<svg width="536" height="400" viewBox="0 0 536 400" fill="none" xmlns="http://www.w3.org/2000/svg">
<g clip-path="url(#clip0_3_51)">
<path d="M242.879 158.302L243.093 110.616L377.691 26.7296L513.32 111.874V377.283H242.867V330.39H218.564V400H536V99.2956L377.691 0L218.564 99.2956V158.415L242.879 158.302Z" fill="url(#paint0_linear_3_51)"/>
<path d="M401.277 259.585C397.503 255.484 395.679 250.075 395.679 243.321C395.679 236.566 397.541 231.157 401.277 227.069C405.059 223.227 410.211 221.043 415.603 220.996C420.994 220.949 426.184 223.042 430.033 226.818L430.284 227.069C433.957 231.044 435.844 236.528 435.844 243.321C435.844 250.113 433.983 255.572 430.284 259.585C428.463 261.601 426.224 263.197 423.724 264.261C421.224 265.325 418.522 265.833 415.806 265.748C413.084 265.823 410.377 265.312 407.87 264.248C405.363 263.185 403.115 261.594 401.277 259.585V259.585ZM421.982 252.969C423.68 250.067 424.472 246.726 424.259 243.371C424.259 239.128 423.5 235.925 421.982 233.761C420.869 232.138 419.157 231.024 417.223 230.663C415.289 230.302 413.29 230.724 411.667 231.836C410.908 232.353 410.251 233.005 409.73 233.761C408.21 236.714 407.418 239.987 407.418 243.308C407.418 246.629 408.21 249.902 409.73 252.855C410.835 254.48 412.539 255.599 414.469 255.967C416.398 256.335 418.395 255.921 420.02 254.818C420.796 254.299 421.463 253.632 421.982 252.855V252.969ZM464.06 222.025H477.897L422.548 303.044H408.711L464.06 222.025ZM460.412 301.27C457.328 299.41 454.854 296.691 453.292 293.447C451.619 289.738 450.753 285.716 450.753 281.648C450.753 277.579 451.619 273.558 453.292 269.849C454.851 266.609 457.326 263.897 460.412 262.05C463.553 260.202 467.145 259.257 470.789 259.321C473.513 259.228 476.224 259.727 478.737 260.782C481.249 261.838 483.503 263.425 485.344 265.434C489.092 269.526 490.962 274.948 490.954 281.698C490.954 288.465 489.08 293.95 485.344 297.962C483.496 299.967 481.239 301.55 478.726 302.605C476.212 303.66 473.501 304.161 470.777 304.075C467.117 304.075 463.527 303.07 460.399 301.17L460.412 301.27ZM476.953 291.208C478.448 288.247 479.227 284.977 479.227 281.66C479.227 278.344 478.448 275.074 476.953 272.113C476.409 271.308 475.71 270.618 474.898 270.084C474.086 269.549 473.177 269.18 472.222 268.998C471.267 268.816 470.286 268.824 469.334 269.021C468.382 269.219 467.479 269.603 466.676 270.151C465.905 270.677 465.239 271.342 464.714 272.113C463.162 274.26 462.391 277.463 462.399 281.723C462.407 285.983 463.179 289.178 464.714 291.308C465.387 292.322 466.307 293.147 467.388 293.706C468.468 294.265 469.674 294.539 470.89 294.503C472.121 294.515 473.333 294.206 474.408 293.606C475.482 293.006 476.381 292.136 477.016 291.082L476.953 291.208Z" fill="white"/>
<path d="M316.38 326.692C309.119 322.017 303.376 315.33 299.851 307.447C291.925 288.192 291.925 266.588 299.851 247.333C303.36 239.462 309.08 232.781 316.317 228.101C323.548 223.743 331.831 221.441 340.274 221.441C348.717 221.441 357 223.743 364.231 228.101C371.463 232.778 377.177 239.461 380.672 247.333C388.622 266.583 388.622 288.197 380.672 307.447C377.173 315.32 371.461 322.006 364.231 326.692C356.998 331.044 348.715 333.343 340.274 333.343C331.832 333.343 323.55 331.044 316.317 326.692H316.38ZM355.891 303.66C359.64 298.025 361.518 289.22 361.526 277.245C361.535 265.27 359.656 256.491 355.891 250.906C353.275 246.807 349.138 243.914 344.391 242.862C339.643 241.81 334.672 242.685 330.569 245.296C328.318 246.741 326.404 248.655 324.959 250.906C321.21 256.541 319.332 265.321 319.323 277.245C319.315 289.17 321.193 297.975 324.959 303.66C326.618 306.257 328.905 308.395 331.608 309.875C334.31 311.356 337.343 312.132 340.425 312.132C343.507 312.132 346.539 311.356 349.242 309.875C351.945 308.395 354.232 306.257 355.891 303.66Z" fill="white"/>
<path d="M395.679 321.371H401.163C405.113 321.371 407.83 323.748 407.83 327.409C407.83 331.069 405.113 333.459 401.163 333.459H395.679V321.371ZM401.025 331.157C401.557 331.226 402.098 331.181 402.611 331.025C403.125 330.868 403.599 330.604 404.002 330.25C404.405 329.896 404.728 329.46 404.949 328.971C405.171 328.482 405.285 327.952 405.285 327.415C405.285 326.879 405.171 326.348 404.949 325.859C404.728 325.37 404.405 324.934 404.002 324.58C403.599 324.226 403.125 323.962 402.611 323.805C402.098 323.649 401.557 323.604 401.025 323.673H398.509V331.157H401.025Z" fill="white"/>
<path d="M409.139 327.409C409.073 326.088 409.405 324.778 410.091 323.648C410.778 322.518 411.787 321.619 412.988 321.068C414.19 320.517 415.53 320.338 416.834 320.555C418.138 320.772 419.348 321.375 420.306 322.286C421.264 323.197 421.928 324.374 422.211 325.666C422.494 326.957 422.383 328.304 421.893 329.532C421.404 330.76 420.557 331.814 419.463 332.556C418.369 333.299 417.078 333.696 415.755 333.698C414.902 333.743 414.049 333.613 413.248 333.317C412.447 333.02 411.714 332.564 411.095 331.976C410.476 331.387 409.983 330.679 409.647 329.894C409.31 329.108 409.138 328.263 409.139 327.409V327.409ZM419.529 327.409C419.509 326.667 419.271 325.948 418.845 325.34C418.418 324.733 417.822 324.265 417.131 323.995C416.44 323.725 415.685 323.664 414.959 323.821C414.234 323.978 413.571 324.345 413.053 324.876C412.536 325.408 412.186 326.08 412.048 326.809C411.911 327.539 411.991 328.292 412.279 328.976C412.568 329.659 413.051 330.243 413.67 330.653C414.288 331.064 415.013 331.283 415.755 331.283C416.266 331.301 416.775 331.213 417.25 331.024C417.725 330.835 418.155 330.549 418.513 330.184C418.872 329.82 419.151 329.385 419.332 328.907C419.513 328.43 419.593 327.919 419.567 327.409H419.529Z" fill="white"/>
<path d="M435.555 330.151C435.555 332.239 433.895 333.459 430.725 333.459H424.435V321.371H430.335C433.366 321.371 434.913 322.629 434.913 324.516C434.927 325.066 434.782 325.608 434.497 326.078C434.211 326.549 433.797 326.927 433.303 327.17C433.962 327.336 434.545 327.722 434.954 328.264C435.364 328.806 435.576 329.472 435.555 330.151V330.151ZM427.253 323.484V326.327H430.033C431.391 326.327 432.133 325.836 432.133 324.893C432.133 323.95 431.391 323.484 430.033 323.484H427.253ZM432.737 329.862C432.737 328.843 431.97 328.365 430.511 328.365H427.253V331.346H430.523C432.008 331.346 432.775 330.893 432.775 329.862H432.737Z" fill="white"/>
<path d="M445.681 330.868H440.071L439.002 333.459H436.134L441.518 321.371H444.285L449.681 333.459H446.751L445.681 330.868ZM441.404 320.39H439.429L441.706 317.874H444.096L446.373 320.39H444.36L442.864 319.132L441.404 320.39ZM444.801 328.742L442.889 324.113L440.964 328.742H444.801Z" fill="white"/>
<path d="M462.034 321.371V333.459H459.732L453.707 326.113V333.459H450.952V321.371H453.267L459.267 328.704V321.371H462.034Z" fill="white"/>
<path d="M464.902 321.371H470.387C474.349 321.371 477.054 323.748 477.054 327.409C477.054 331.069 474.349 333.459 470.387 333.459H464.902V321.371ZM470.248 331.157C470.781 331.226 471.321 331.181 471.835 331.025C472.348 330.868 472.822 330.604 473.225 330.25C473.628 329.896 473.951 329.46 474.173 328.971C474.394 328.482 474.508 327.952 474.508 327.415C474.508 326.879 474.394 326.348 474.173 325.859C473.951 325.37 473.628 324.934 473.225 324.58C472.822 324.226 472.348 323.962 471.835 323.805C471.321 323.649 470.781 323.604 470.248 323.673H467.733V331.157H470.248Z" fill="white"/>
<path d="M486.954 330.868H481.343L480.274 333.459H477.406L482.79 321.371H485.557L490.954 333.459H488.023L486.954 330.868ZM480.991 317.899H482.689C482.753 318.246 482.937 318.56 483.208 318.785C483.479 319.011 483.821 319.134 484.174 319.134C484.526 319.134 484.868 319.011 485.139 318.785C485.41 318.56 485.594 318.246 485.658 317.899H487.344C487.203 318.639 486.809 319.307 486.229 319.787C485.65 320.267 484.92 320.53 484.167 320.53C483.414 320.53 482.685 320.267 482.105 319.787C481.525 319.307 481.131 318.639 480.991 317.899V317.899ZM486.023 328.742L484.111 324.113L482.186 328.742H486.023Z" fill="white"/>
<path d="M44.5555 306.113C44.5555 315.673 37.3854 321.61 25.9257 321.61H17.2838V333.447H7.34625V290.491H25.9257C37.3854 290.491 44.5555 296.491 44.5555 306.113ZM34.4922 306.113C34.4922 301.396 31.4229 298.629 25.3597 298.629H17.2838V313.522H25.3723C31.4354 313.522 34.5048 310.767 34.5048 306.113H34.4922Z" fill="white"/>
<path d="M84.8216 325.472V333.447H51.5999V290.491H84.0291V298.465H61.4746V307.774H81.3875V315.497H61.4746V325.421L84.8216 325.472Z" fill="white"/>
<path d="M139.793 319.962C139.793 327.509 134.22 334.176 121.955 334.176C116.018 334.176 109.766 332.528 105.602 329.585L109.515 322.038C113.071 324.583 117.343 325.936 121.716 325.899C126.748 325.899 129.742 323.811 129.742 320.314C129.742 316.818 127.541 314.742 119.754 314.742H108.785L111.011 290.491H137.189V298.465H119.263L118.584 306.616H122.081C134.774 306.667 139.793 312.365 139.793 319.962Z" fill="white"/>
<path d="M192.135 324.252H172.222L168.448 333.447H158.284L177.367 290.491H187.166L206.349 333.396H195.934L192.135 324.252ZM189.003 316.704L182.21 300.277L175.404 316.704H189.003Z" fill="white"/>
<path d="M250.175 290.491V333.396H242.024L220.639 307.346V333.396H210.84V290.491H219.054L240.439 316.541V290.491H250.175Z" fill="white"/>
<path d="M260.352 290.491H270.277V333.396H260.352V290.491Z" fill="white"/>
<path d="M26.0767 223.358H18.6801L13.0321 218.428L7.39657 223.358H0L8.56644 214.025H17.5103L26.0767 223.358ZM7.78653 227.057H18.2902V272.478H7.78653V227.057Z" fill="white"/>
<path d="M70.758 227.057V272.478H62.0784L39.4358 244.906V272.478H29.058V227.057H37.7502L60.3299 254.629V227.057H70.758Z" fill="white"/>
<path d="M128.773 272.478L119.968 259.824H110.307V272.478H99.7908V227.057H119.452C131.578 227.057 139.176 233.346 139.176 243.535C139.301 246.599 138.468 249.627 136.793 252.197C135.118 254.766 132.684 256.751 129.83 257.874L140.019 272.478H128.773ZM118.911 235.623H110.357V251.497H118.911C125.339 251.497 128.585 248.503 128.585 243.572C128.585 238.642 125.339 235.623 118.911 235.623Z" fill="white"/>
<path d="M177.43 262.742H156.297L152.271 272.478H141.503L161.743 227.057H172.121L192.437 272.478H181.455L177.43 262.742ZM174.121 254.767L166.926 237.371L159.718 254.767H174.121Z" fill="white"/>
<path d="M204.362 235.623H189.82V227.057H229.394V235.623H214.865V272.478H204.362V235.623Z" fill="white"/>
<path d="M270.201 264.075V272.516H234.98V227.057H269.296V235.497H245.395V245.358H266.49V253.535H245.483V264.075H270.201Z" fill="white"/>
<path d="M36.1526 189.459H16.2398L12.466 198.654H2.26425L21.3846 155.761H31.1964L50.3797 198.667H39.9516L36.1526 189.459ZM33.033 181.912L26.2276 165.497L19.4223 181.925L33.033 181.912Z" fill="white"/>
<path d="M92.0546 171.321C92.0546 180.88 84.8845 186.83 73.4248 186.83H64.7829V198.667H54.8453V155.774H73.4248C84.8845 155.761 92.0546 161.698 92.0546 171.321ZM81.9913 171.321C81.9913 166.604 78.9219 163.849 72.8588 163.849H64.7829V178.742H72.8713C78.9345 178.742 82.0039 176.025 82.0039 171.321H81.9913Z" fill="white"/>
<path d="M125.213 189.459H105.288L101.514 198.654H91.3376L110.458 155.761H120.27L139.428 198.667H129.012L125.213 189.459ZM122.081 181.912L115.276 165.484L108.496 181.925L122.081 181.912Z" fill="white"/>
<path d="M171.241 198.667L162.964 186.717H153.781V198.667H143.856V155.774H162.423C173.882 155.774 181.053 161.711 181.053 171.333C181.174 174.226 180.391 177.085 178.813 179.513C177.235 181.941 174.94 183.817 172.247 184.88L181.87 198.717L171.241 198.667ZM161.92 163.862H153.781V178.818H161.869C167.932 178.818 171.002 176 171.002 171.27C171.002 166.541 167.983 163.849 161.92 163.849V163.862Z" fill="white"/>
<path d="M197.217 163.849H183.493V155.761H220.878V163.849H207.154V198.667H197.217V163.849Z" fill="white"/>
<path d="M252.326 189.459H232.401L228.627 198.654H218.451L237.571 155.761H247.383L266.541 198.667H256.125L252.326 189.459ZM249.194 181.912L242.389 165.484L235.546 181.925L249.194 181.912Z" fill="white"/>
<path d="M310.052 198.667L309.989 172.931L297.41 194.138H292.932L280.328 173.509V198.667H271.019V155.774H279.221L295.284 182.428L311.096 155.774H319.248L319.374 198.667H310.052Z" fill="white"/>
<path d="M362.759 190.692V198.667H329.537V155.774H361.967V163.736H339.412V173.057H359.325V180.78H339.412V190.704L362.759 190.692Z" fill="white"/>
<path d="M410.019 155.761V198.667H401.868L380.483 172.629V198.667H370.684V155.774H378.886L400.27 181.811V155.774L410.019 155.761Z" fill="white"/>
<path d="M429.077 163.849H415.353V155.761H452.726V163.849H439.002V198.667H429.077V163.849Z" fill="white"/>
<path d="M491.281 190.692V198.667H458.059V155.774H490.488V163.736H467.934V173.057H487.847V180.78H467.934V190.704L491.281 190.692Z" fill="white"/>
</g>
<defs>
<linearGradient id="paint0_linear_3_51" x1="218.564" y1="200" x2="536" y2="200" gradientUnits="userSpaceOnUse">
<stop stop-color="#2BB018" stop-opacity="0"/>
<stop offset="0.13" stop-color="#2BB018" stop-opacity="0.29"/>
<stop offset="0.33" stop-color="#2BB018" stop-opacity="0.45"/>
<stop offset="0.45" stop-color="#2BB018" stop-opacity="0.61"/>
<stop offset="1" stop-color="#2BB018"/>
</linearGradient>
<clipPath id="clip0_3_51">
<rect width="536" height="400" fill="white"/>
</clipPath>
</defs>
</svg>
