<svg width="293" height="381" viewBox="0 0 293 381" fill="none" xmlns="http://www.w3.org/2000/svg">
<path d="M6 144.927V94.9611L145.884 8L286.692 96.5459V372.91L6 374V144.927Z" stroke="url(#paint0_linear_13_386)" stroke-width="12" stroke-miterlimit="10"/>
<path d="M44.4662 146.008H34.7877L32.9381 150.48H27.9849L37.2833 129.615H42.0593L51.3831 150.48H46.3158L44.4662 146.008ZM42.946 142.347L39.6396 134.366L36.3332 142.347H42.946Z" fill="white"/>
<path d="M71.6523 137.191C71.6523 141.84 68.1685 144.728 62.5945 144.728H58.3887V150.48H53.5621V129.615H62.5945C68.1685 129.615 71.6523 132.567 71.6523 137.191ZM66.7624 137.191C66.7624 134.898 65.2675 133.555 62.3285 133.555H58.3887V140.801H62.3285C65.2675 140.801 66.7624 139.458 66.7624 137.191Z" fill="white"/>
<path d="M87.7789 146.008H78.0877L76.2381 150.48H71.2975L80.596 129.615H85.3593L94.6958 150.48H89.6285L87.7789 146.008ZM86.2587 142.347L82.9523 134.366L79.6459 142.347H86.2587Z" fill="white"/>
<path d="M110.214 150.48L106.186 144.678H101.752V150.48H96.9128V129.615H105.945C111.519 129.615 115.016 132.516 115.016 137.216C115.072 138.624 114.689 140.014 113.919 141.195C113.15 142.375 112.032 143.287 110.721 143.803L115.396 150.505L110.214 150.48ZM105.679 133.555H101.752V140.826H105.679C108.631 140.826 110.126 139.458 110.126 137.191C110.126 134.923 108.58 133.555 105.629 133.555H105.679Z" fill="white"/>
<path d="M122.794 133.555H116.118V129.615H134.284V133.555H127.608V150.48H122.781L122.794 133.555Z" fill="white"/>
<path d="M149.587 146.008H139.909L138.084 150.48H133.131L142.43 129.615H147.206L156.529 150.48H151.462L149.587 146.008ZM148.067 142.347L144.761 134.366L141.454 142.347H148.067Z" fill="white"/>
<path d="M177.673 150.48V137.963L171.541 148.275H169.362L163.256 138.229V150.48H158.721V129.615H162.712L170.528 142.587L178.217 129.615H182.183V150.48H177.673Z" fill="white"/>
<path d="M203.301 146.616V150.416H187.149V129.615H202.908V133.491H191.95V138.027H201.628V141.827H191.95V146.666L203.301 146.616Z" fill="white"/>
<path d="M226.281 129.615V150.48H222.315L211.915 137.811V150.48H207.152V129.615H211.142L221.517 142.283V129.615H226.281Z" fill="white"/>
<path d="M235.554 133.555H228.878V129.615H247.031V133.555H240.355V150.48H235.529L235.554 133.555Z" fill="white"/>
<path d="M265.806 146.616V150.416H249.654V129.615H265.413V133.491H254.442V138.027H264.133V141.827H254.442V146.666L265.806 146.616Z" fill="white"/>
<path d="M38.0814 166.201H35.003L32.6721 164.149L30.3285 166.201H27.2628L30.8099 162.324H34.5217L38.0814 166.201ZM30.4805 167.734H34.8384V186.559H30.4932L30.4805 167.734Z" fill="white"/>
<path d="M56.5897 167.734V186.559H53.0046L43.6174 175.157V186.559H39.2722V167.734H42.8827L52.2445 179.135V167.734H56.5897Z" fill="white"/>
<path d="M80.6594 186.559L77.0236 181.314H73.0204V186.559H68.6625V167.734H76.8082C81.8755 167.734 84.9919 170.343 84.9919 174.562C85.0431 175.832 84.6973 177.087 84.0026 178.152C83.3079 179.217 82.2987 180.038 81.1154 180.503L85.3339 186.559H80.6594ZM76.5675 171.281H73.0204V177.843H76.5675C79.2278 177.843 80.5707 176.576 80.5707 174.562C80.5707 172.548 79.2278 171.281 76.5675 171.281Z" fill="white"/>
<path d="M100.827 182.53H92.0861L90.4139 186.559H85.9547L94.3411 167.734H98.6483L107.073 186.559H102.499L100.827 182.53ZM99.459 179.224L96.4693 172.003L93.4796 179.224H99.459Z" fill="white"/>
<path d="M111.988 171.281H105.958V167.734H122.427V171.281H116.396V186.559H111.988V171.281Z" fill="white"/>
<path d="M139.351 183.062V186.559H124.707V167.734H138.946V171.23H129.039V175.322H137.793V178.704H129.039V183.062H139.351Z" fill="white"/>
<path d="M166.702 174.562C166.702 178.755 163.56 181.365 158.531 181.365H154.73V186.559H150.373V167.734H158.531C163.56 167.734 166.702 170.343 166.702 174.562ZM162.293 174.562C162.293 172.484 160.951 171.281 158.278 171.281H154.73V177.818H158.278C160.951 177.818 162.293 176.601 162.293 174.562Z" fill="#2BB018"/>
<path d="M184.374 183.062V186.559H169.755V167.734H183.994V171.23H174.088V175.322H182.829V178.704H174.088V183.062H184.374Z" fill="#2BB018"/>
<path d="M208.507 180.706C208.507 184.038 206.049 186.951 200.678 186.951C198.135 186.991 195.636 186.291 193.483 184.937L195.205 181.593C196.767 182.711 198.643 183.305 200.564 183.29C202.743 183.29 204.086 182.378 204.086 180.845C204.086 179.312 203.123 178.388 199.703 178.388H194.889L195.852 167.797H207.342V171.294H199.487L199.196 174.866H200.729C206.29 174.803 208.507 177.311 208.507 180.706Z" fill="#2BB018"/>
<path d="M231.475 182.53H222.721L221.061 186.559H216.627L225.026 167.734H229.296L237.72 186.559H233.096L231.475 182.53ZM230.094 179.224L227.117 172.003L224.127 179.224H230.094Z" fill="#2BB018"/>
<path d="M256.95 167.734V186.559H253.365L243.978 175.157V186.559H239.671V167.734H243.231L252.593 179.135V167.734H256.95Z" fill="#2BB018"/>
<path d="M261.41 167.734H265.768V186.559H261.41V167.734Z" fill="#2BB018"/>
<path d="M27.2628 264.62C27.2628 223.411 50.0656 200.012 80.786 200.012C111.507 200.012 134.297 223.385 134.297 264.62C134.297 305.855 111.646 329.228 80.786 329.228C49.9262 329.228 27.2628 305.83 27.2628 264.62ZM105.223 264.62C105.223 236.256 95.2278 224.487 80.786 224.487C66.3443 224.487 56.5137 236.256 56.5137 264.62C56.5137 292.985 66.5089 304.766 80.786 304.766C95.0631 304.766 105.223 292.985 105.223 264.62Z" fill="white"/>
<path d="M144.723 228.44C144.723 211.097 155.313 200.076 170.3 200.076C185.286 200.076 195.712 210.958 195.712 228.44C195.712 245.922 185.286 256.804 170.3 256.804C155.313 256.804 144.723 245.783 144.723 228.44ZM181.03 228.44C181.03 217.419 176.761 212.136 170.3 212.136C163.839 212.136 159.62 217.571 159.62 228.44C159.62 239.309 164.029 244.757 170.35 244.757C176.672 244.757 181.03 239.461 181.03 228.44ZM231.576 201.254H249.058L178.813 304.12H161.331L231.576 201.254ZM214.677 276.985C214.677 259.642 225.255 248.62 240.102 248.62C254.949 248.62 265.666 259.642 265.666 276.985C265.666 294.327 255.088 305.349 240.102 305.349C225.115 305.349 214.677 294.277 214.677 276.985ZM250.832 276.985C250.832 266.115 246.562 260.681 240.102 260.681C233.641 260.681 229.372 265.963 229.372 276.985C229.372 288.006 233.78 293.301 240.102 293.301C246.423 293.301 250.832 287.816 250.832 276.985Z" fill="white"/>
<path d="M155.959 320.943C155.959 323.832 153.806 325.631 150.335 325.631H147.725V329.203H144.723V316.256H150.335C153.806 316.256 155.959 318.042 155.959 320.943ZM152.932 320.943C152.932 319.524 152.007 318.688 150.17 318.688H147.725V323.186H150.17C152.019 323.186 152.932 322.349 152.932 320.943Z" fill="white"/>
<path d="M166.36 329.203L163.826 325.593H161.077V329.203H158.1V316.256H163.712C167.171 316.256 169.337 318.055 169.337 320.956C169.374 321.83 169.138 322.694 168.661 323.427C168.184 324.161 167.491 324.727 166.677 325.048L169.578 329.216L166.36 329.203ZM163.548 318.688H161.103V323.211H163.548C165.372 323.211 166.297 322.349 166.297 320.943C166.297 319.537 165.372 318.688 163.548 318.688Z" fill="white"/>
<path d="M171.706 316.256H174.708V329.216H171.706V316.256Z" fill="white"/>
<path d="M189.581 329.203V321.425L185.78 327.835H184.425L180.624 321.602V329.203H177.812V316.256H180.346L185.185 324.313L189.961 316.256H192.494V329.216L189.581 329.203Z" fill="white"/>
<path d="M203.959 326.391H197.942L196.789 329.165H193.825L199.538 316.256H202.502L208.304 329.216H205.15L203.959 326.391ZM203.009 324.11L200.957 319.157L198.905 324.11H203.009Z" fill="white"/>
<path d="M223.152 329.203L220.618 325.593H217.894V329.203H214.892V316.256H220.504C223.962 316.256 226.129 318.055 226.129 320.956C226.166 321.83 225.929 322.694 225.453 323.427C224.976 324.161 224.282 324.727 223.468 325.048L226.369 329.216L223.152 329.203ZM220.339 318.688H217.894V323.211H220.339C222.176 323.211 223.101 322.349 223.101 320.943C223.101 319.537 222.176 318.688 220.339 318.688Z" fill="white"/>
<path d="M237.036 326.391H231.031L229.878 329.165H226.762L232.577 316.256H235.541L241.33 329.216H238.163L237.036 326.391ZM236.098 324.11L234.046 319.157L231.994 324.11H236.098Z" fill="white"/>
<path d="M244.726 318.688H240.583V316.256H251.871V318.701H247.728V329.216H244.726V318.688Z" fill="white"/>
<path d="M261.372 326.391H255.354L254.214 329.165H251.136L256.912 316.256H259.877L265.666 329.216H262.524L261.372 326.391ZM255.037 312.456H256.849C256.916 312.83 257.113 313.169 257.404 313.414C257.696 313.658 258.065 313.792 258.445 313.792C258.826 313.792 259.194 313.658 259.486 313.414C259.778 313.169 259.974 312.83 260.041 312.456H261.853C261.7 313.247 261.276 313.96 260.654 314.473C260.032 314.986 259.251 315.267 258.445 315.267C257.639 315.267 256.858 314.986 256.236 314.473C255.615 313.96 255.191 313.247 255.037 312.456ZM260.485 324.085L258.433 319.195L256.368 324.148L260.485 324.085Z" fill="white"/>
<defs>
<linearGradient id="paint0_linear_13_386" x1="-1.58592" y1="190.341" x2="294.278" y2="190.341" gradientUnits="userSpaceOnUse">
<stop stop-color="#2BB018" stop-opacity="0"/>
<stop offset="0.12" stop-color="#2BB018" stop-opacity="0.45"/>
<stop offset="0.43" stop-color="#2BB018" stop-opacity="0.61"/>
<stop offset="1" stop-color="#2BB018"/>
</linearGradient>
</defs>
</svg>
