<svg xmlns="http://www.w3.org/2000/svg" xmlns:xlink="http://www.w3.org/1999/xlink" viewBox="0 0 426.1 318"><defs><style>.cls-1{fill:url(#linear-gradient);}.cls-2{fill:#fff;}</style><linearGradient id="linear-gradient" x1="212.5" y1="148.15" x2="464.85" y2="148.15" gradientTransform="translate(0 32.91)" gradientUnits="userSpaceOnUse"><stop offset="0" stop-color="#2bb018" stop-opacity="0"/><stop offset="0.13" stop-color="#2bb018" stop-opacity="0.29"/><stop offset="0.33" stop-color="#2bb018" stop-opacity="0.45"/><stop offset="0.45" stop-color="#2bb018" stop-opacity="0.61"/><stop offset="1" stop-color="#2bb018"/></linearGradient></defs><g id="Layer_1" data-name="Layer 1"><path class="cls-1" d="M231.83,147.91,232,110,339,43.31,446.82,111V322h-215V284.72H212.5v55.34H464.85V101L339,22.06,212.5,101v47Z" transform="translate(-38.75 -22.06)"/><path class="cls-2" d="M357.75,228.43c-3-3.26-4.45-7.56-4.45-12.93s1.48-9.67,4.45-12.92a16.18,16.18,0,0,1,22.86-.2l.2.2c2.92,3.16,4.42,7.52,4.42,12.92s-1.48,9.74-4.42,12.93a14.89,14.89,0,0,1-11.51,4.9A15.09,15.09,0,0,1,357.75,228.43Zm16.46-5.26a13.42,13.42,0,0,0,1.81-7.63q0-5.06-1.81-7.64a5.9,5.9,0,0,0-8.2-1.53h0a5.9,5.9,0,0,0-1.54,1.53,16.59,16.59,0,0,0,0,15.18,5.89,5.89,0,0,0,8.18,1.56,5.65,5.65,0,0,0,1.56-1.56Zm33.45-24.6h11l-44,64.41h-11Zm-2.9,63a14.72,14.72,0,0,1-5.66-6.22,22.81,22.81,0,0,1,0-18.76,14.61,14.61,0,0,1,5.66-6.2,15.73,15.73,0,0,1,8.25-2.17,15,15,0,0,1,11.57,4.86q4.47,4.88,4.46,12.93c0,5.38-1.49,9.74-4.46,12.93A15.1,15.1,0,0,1,413,263.8a15.9,15.9,0,0,1-8.25-2.31Zm13.15-8a16.84,16.84,0,0,0,0-15.18,5.87,5.87,0,0,0-8.17-1.56,5.93,5.93,0,0,0-1.56,1.56q-1.85,2.56-1.84,7.64t1.84,7.62a5.69,5.69,0,0,0,4.91,2.54,5.62,5.62,0,0,0,4.87-2.72Z" transform="translate(-38.75 -22.06)"/><path class="cls-2" d="M290.26,281.78a35.37,35.37,0,0,1-13.14-15.3,62.78,62.78,0,0,1,0-47.79,35.35,35.35,0,0,1,13.09-15.29,36.9,36.9,0,0,1,38.09,0,35.24,35.24,0,0,1,13.07,15.29,62.6,62.6,0,0,1,0,47.79,35.33,35.33,0,0,1-13.07,15.3,36.94,36.94,0,0,1-38.09,0Zm31.41-18.31q4.47-6.72,4.48-21t-4.48-20.94a14.59,14.59,0,0,0-20.13-4.46,14.82,14.82,0,0,0-4.46,4.46q-4.47,6.72-4.48,20.94t4.48,21a14.59,14.59,0,0,0,24.59,0Z" transform="translate(-38.75 -22.06)"/><path class="cls-2" d="M353.3,277.55h4.36c3.14,0,5.3,1.89,5.3,4.8s-2.16,4.81-5.3,4.81H353.3Zm4.25,7.78a3,3,0,1,0,0-5.95h-2v5.95Z" transform="translate(-38.75 -22.06)"/><path class="cls-2" d="M364,282.35a5.26,5.26,0,1,1,5.26,5A5,5,0,0,1,364,282.35Zm8.26,0a3,3,0,1,0-3,3.08A2.93,2.93,0,0,0,372.29,282.35Z" transform="translate(-38.75 -22.06)"/><path class="cls-2" d="M385,284.53c0,1.66-1.32,2.63-3.84,2.63h-5v-9.61h4.69c2.41,0,3.64,1,3.64,2.5a2.29,2.29,0,0,1-1.28,2.11A2.37,2.37,0,0,1,385,284.53Zm-6.6-5.3v2.26h2.21c1.08,0,1.67-.39,1.67-1.14s-.59-1.12-1.67-1.12Zm4.36,5.07c0-.81-.61-1.19-1.77-1.19h-2.59v2.37H381C382.18,285.48,382.79,285.12,382.79,284.3Z" transform="translate(-38.75 -22.06)"/><path class="cls-2" d="M393.05,285.1h-4.46l-.85,2.06h-2.28l4.28-9.61h2.2l4.29,9.61H393.9Zm-3.4-8.33h-1.57l1.81-2h1.9l1.81,2H392l-1.19-1Zm2.7,6.64-1.52-3.68-1.53,3.68Z" transform="translate(-38.75 -22.06)"/><path class="cls-2" d="M406.05,277.55v9.61h-1.83l-4.79-5.84v5.84h-2.19v-9.61h1.84l4.77,5.83v-5.83Z" transform="translate(-38.75 -22.06)"/><path class="cls-2" d="M408.33,277.55h4.36c3.15,0,5.3,1.89,5.3,4.8s-2.15,4.81-5.3,4.81h-4.36Zm4.25,7.78a3,3,0,1,0,0-5.95h-2v5.95Z" transform="translate(-38.75 -22.06)"/><path class="cls-2" d="M425.86,285.1H421.4l-.85,2.06h-2.28l4.28-9.61h2.2l4.29,9.61h-2.33Zm-4.74-10.31h1.35a1.2,1.2,0,0,0,2.36,0h1.34a2.57,2.57,0,0,1-5.05,0Zm4,8.62-1.52-3.68-1.53,3.68Z" transform="translate(-38.75 -22.06)"/><path class="cls-2" d="M74.17,265.42c0,7.6-5.7,12.32-14.81,12.32H52.49v9.41h-7.9V253H59.36C68.47,253,74.17,257.77,74.17,265.42Zm-8,0c0-3.75-2.44-5.95-7.26-5.95H52.49v11.84h6.43C63.74,271.31,66.18,269.12,66.18,265.42Z" transform="translate(-38.75 -22.06)"/><path class="cls-2" d="M106.18,280.81v6.34H79.77V253h25.78v6.34H87.62v7.4h15.83v6.14H87.62v7.89Z" transform="translate(-38.75 -22.06)"/><path class="cls-2" d="M149.88,276.43c0,6-4.43,11.3-14.18,11.3-4.72,0-9.69-1.31-13-3.65l3.11-6a16.43,16.43,0,0,0,9.7,3.07c4,0,6.38-1.66,6.38-4.44s-1.75-4.43-7.94-4.43h-8.72L127,253h20.81v6.34H133.56l-.54,6.48h2.78C145.89,265.86,149.88,270.39,149.88,276.43Z" transform="translate(-38.75 -22.06)"/><path class="cls-2" d="M191.49,279.84H175.66l-3,7.31h-8.08L179.75,253h7.79l15.25,34.11h-8.28Zm-2.49-6-5.4-13.06-5.41,13.06Z" transform="translate(-38.75 -22.06)"/><path class="cls-2" d="M237.63,253v34.11h-6.48l-17-20.71v20.71h-7.79V253h6.53l17,20.71V253Z" transform="translate(-38.75 -22.06)"/><path class="cls-2" d="M245.72,253h7.89v34.11h-7.89Z" transform="translate(-38.75 -22.06)"/><path class="cls-2" d="M59.48,199.63H53.6l-4.49-3.92-4.48,3.92H38.75l6.81-7.42h7.11Zm-14.54,2.94h8.35v36.11H44.94Z" transform="translate(-38.75 -22.06)"/><path class="cls-2" d="M95,202.57v36.11H88.1l-18-21.92v21.92H61.85V202.57h6.91l17.95,21.92V202.57Z" transform="translate(-38.75 -22.06)"/><path class="cls-2" d="M141.12,238.68l-7-10.06h-7.68v10.06h-8.36V202.57h15.63c9.64,0,15.68,5,15.68,13.1a11.74,11.74,0,0,1-7.43,11.4l8.1,11.61Zm-7.84-29.3h-6.8V222h6.8c5.11,0,7.69-2.38,7.69-6.3S138.39,209.38,133.28,209.38Z" transform="translate(-38.75 -22.06)"/><path class="cls-2" d="M179.8,230.94H163l-3.2,7.74h-8.56l16.09-36.11h8.25l16.15,36.11H183Zm-2.63-6.34-5.72-13.83-5.73,13.83Z" transform="translate(-38.75 -22.06)"/><path class="cls-2" d="M201.21,209.38H189.65v-6.81h31.46v6.81H209.56v29.3h-8.35Z" transform="translate(-38.75 -22.06)"/><path class="cls-2" d="M253.55,232v6.71h-28V202.57h27.28v6.71h-19v7.84h16.77v6.5H233.9V232Z" transform="translate(-38.75 -22.06)"/><path class="cls-2" d="M67.49,172.68H51.66l-3,7.31H40.55l15.2-34.1h7.8L78.8,180H70.51Zm-2.48-6L59.6,153.63l-5.41,13.06Z" transform="translate(-38.75 -22.06)"/><path class="cls-2" d="M111.93,158.26c0,7.6-5.7,12.33-14.81,12.33H90.25V180h-7.9v-34.1H97.12C106.23,145.89,111.93,150.61,111.93,158.26Zm-8,0c0-3.75-2.44-5.94-7.26-5.94H90.25v11.84h6.43C101.5,164.16,103.94,162,103.94,158.26Z" transform="translate(-38.75 -22.06)"/><path class="cls-2" d="M138.29,172.68H122.45l-3,7.31h-8.09l15.2-34.1h7.8L149.59,180h-8.28Zm-2.49-6-5.41-13.06L125,166.69Z" transform="translate(-38.75 -22.06)"/><path class="cls-2" d="M174.88,180l-6.58-9.5H161V180h-7.89v-34.1h14.76c9.11,0,14.81,4.72,14.81,12.37a11.08,11.08,0,0,1-7,10.77l7.65,11Zm-7.41-27.67H161v11.89h6.43c4.82,0,7.26-2.24,7.26-6S172.29,152.32,167.47,152.32Z" transform="translate(-38.75 -22.06)"/><path class="cls-2" d="M195.53,152.32H184.62v-6.43h29.72v6.43H203.43V180h-7.9Z" transform="translate(-38.75 -22.06)"/><path class="cls-2" d="M239.34,172.68H223.5l-3,7.31h-8.09l15.2-34.1h7.8L250.64,180h-8.28Zm-2.49-6-5.41-13.06L226,166.69Z" transform="translate(-38.75 -22.06)"/><path class="cls-2" d="M285.23,180l-.05-20.46-10,16.86h-3.56L261.6,160v20h-7.4v-34.1h6.52l12.77,21.19,12.57-21.19h6.48l.1,34.1Z" transform="translate(-38.75 -22.06)"/><path class="cls-2" d="M327.13,173.66V180H300.72v-34.1H326.5v6.33H308.57v7.41H324.4v6.14H308.57v7.89Z" transform="translate(-38.75 -22.06)"/><path class="cls-2" d="M364.7,145.89V180h-6.48l-17-20.7V180h-7.79v-34.1h6.52l17,20.7v-20.7Z" transform="translate(-38.75 -22.06)"/><path class="cls-2" d="M379.85,152.32H368.94v-6.43h29.71v6.43H387.74V180h-7.89Z" transform="translate(-38.75 -22.06)"/><path class="cls-2" d="M429.3,173.66V180H402.89v-34.1h25.78v6.33H410.74v7.41h15.83v6.14H410.74v7.89Z" transform="translate(-38.75 -22.06)"/></g></svg>