<svg width="293" height="381" viewBox="0 0 293 381" fill="none" xmlns="http://www.w3.org/2000/svg">
<path d="M145 313H151.77C156.646 313 160 316.147 160 320.992C160 325.837 156.646 329 151.77 329H145V313ZM151.599 325.953C152.256 326.045 152.924 325.985 153.558 325.778C154.191 325.571 154.776 325.221 155.274 324.752C155.772 324.284 156.17 323.707 156.444 323.059C156.717 322.412 156.858 321.71 156.858 321C156.858 320.29 156.717 319.588 156.444 318.941C156.17 318.293 155.772 317.716 155.274 317.248C154.776 316.779 154.191 316.429 153.558 316.222C152.924 316.015 152.256 315.955 151.599 316.047H148.494V325.953H151.599Z" fill="white"/>
<path d="M162.01 320.914C161.926 319.219 162.353 317.537 163.234 316.086C164.116 314.635 165.412 313.481 166.956 312.774C168.5 312.066 170.22 311.837 171.896 312.115C173.572 312.394 175.125 313.168 176.356 314.338C177.587 315.507 178.44 317.019 178.803 318.677C179.167 320.335 179.025 322.064 178.395 323.641C177.766 325.218 176.679 326.57 175.273 327.523C173.868 328.476 172.209 328.987 170.51 328.989C169.415 329.046 168.318 328.879 167.289 328.499C166.26 328.119 165.319 327.533 164.524 326.778C163.728 326.022 163.095 325.113 162.663 324.105C162.231 323.097 162.009 322.011 162.01 320.914ZM175.358 320.914C175.333 319.962 175.027 319.038 174.479 318.259C173.931 317.479 173.166 316.879 172.278 316.532C171.39 316.185 170.42 316.107 169.488 316.308C168.556 316.509 167.704 316.981 167.039 317.663C166.374 318.346 165.925 319.209 165.748 320.145C165.572 321.081 165.675 322.048 166.045 322.926C166.416 323.804 167.037 324.553 167.831 325.08C168.625 325.607 169.557 325.888 170.51 325.888C171.167 325.912 171.82 325.798 172.43 325.556C173.04 325.313 173.593 324.946 174.054 324.478C174.514 324.01 174.872 323.452 175.105 322.838C175.338 322.225 175.441 321.57 175.407 320.914H175.358Z" fill="white"/>
<path d="M194.998 324.621C194.998 327.385 192.908 329 188.918 329H181V313H188.427C192.243 313 194.191 314.665 194.191 317.162C194.207 317.89 194.025 318.608 193.666 319.23C193.307 319.853 192.785 320.354 192.164 320.675C192.993 320.895 193.726 321.406 194.242 322.124C194.757 322.841 195.024 323.722 194.998 324.621ZM184.547 315.797V319.56H188.047C189.757 319.56 190.691 318.911 190.691 317.662C190.691 316.413 189.757 315.797 188.047 315.797H184.547ZM191.451 324.238C191.451 322.89 190.485 322.257 188.648 322.257H184.547V326.203H188.664C190.533 326.203 191.499 325.604 191.499 324.238H191.451Z" fill="white"/>
<path d="M208.685 325.675H201.231L199.811 329H196L203.153 313.487H206.83L214 329H210.106L208.685 325.675ZM203.003 312.228H200.379L203.404 309H206.579L209.604 312.228H206.93L204.941 310.614L203.003 312.228ZM207.515 322.947L204.975 317.006L202.418 322.947H207.515Z" fill="white"/>
<path d="M230 313V329H227.092L219.48 319.277V329H216V313H218.924L226.504 322.707V313H230Z" fill="white"/>
<path d="M233 313H240.222C245.439 313 249 316.147 249 320.992C249 325.837 245.439 329 240.222 329H233V313ZM240.039 325.953C240.74 326.045 241.452 325.985 242.128 325.778C242.804 325.571 243.428 325.221 243.959 324.752C244.49 324.284 244.915 323.707 245.206 323.059C245.498 322.412 245.648 321.71 245.648 321C245.648 320.29 245.498 319.588 245.206 318.941C244.915 318.293 244.49 317.716 243.959 317.248C243.428 316.779 242.804 316.429 242.128 316.222C241.452 316.015 240.74 315.955 240.039 316.047H236.727V325.953H240.039Z" fill="white"/>
<path d="M260.98 325.669H253.941L252.599 329H249L255.756 313.462H259.228L266 329H262.322L260.98 325.669ZM253.499 309H255.63C255.71 309.446 255.94 309.849 256.281 310.139C256.621 310.429 257.049 310.587 257.492 310.587C257.935 310.587 258.363 310.429 258.704 310.139C259.044 309.849 259.274 309.446 259.355 309H261.47C261.294 309.951 260.799 310.809 260.072 311.426C259.344 312.043 258.429 312.381 257.484 312.381C256.539 312.381 255.624 312.043 254.897 311.426C254.169 310.809 253.675 309.951 253.499 309ZM259.812 322.937L257.413 316.987L254.998 322.937H259.812Z" fill="white"/>
<path d="M6 144.927V94.9611L145.884 8L286.692 96.5459V372.91L6 374V144.927Z" stroke="url(#paint0_linear_806_111)" stroke-width="12" stroke-miterlimit="10"/>
<path d="M44.4662 146.008H34.7877L32.9381 150.48H27.9849L37.2833 129.615H42.0593L51.3831 150.48H46.3158L44.4662 146.008ZM42.946 142.347L39.6396 134.366L36.3332 142.347H42.946Z" fill="white"/>
<path d="M71.6522 137.191C71.6522 141.84 68.1685 144.728 62.5945 144.728H58.3886V150.48H53.562V129.615H62.5945C68.1685 129.615 71.6522 132.567 71.6522 137.191ZM66.7623 137.191C66.7623 134.898 65.2675 133.555 62.3284 133.555H58.3886V140.801H62.3284C65.2675 140.801 66.7623 139.458 66.7623 137.191Z" fill="white"/>
<path d="M87.7788 146.008H78.0877L76.2381 150.48H71.2975L80.596 129.615H85.3592L94.6957 150.48H89.6284L87.7788 146.008ZM86.2587 142.347L82.9523 134.366L79.6458 142.347H86.2587Z" fill="white"/>
<path d="M110.214 150.48L106.186 144.678H101.752V150.48H96.9127V129.615H105.945C111.519 129.615 115.016 132.516 115.016 137.216C115.072 138.624 114.688 140.014 113.919 141.195C113.15 142.375 112.032 143.287 110.721 143.803L115.396 150.505L110.214 150.48ZM105.679 133.555H101.752V140.826H105.679C108.631 140.826 110.126 139.458 110.126 137.191C110.126 134.923 108.58 133.555 105.628 133.555H105.679Z" fill="white"/>
<path d="M122.794 133.555H116.118V129.615H134.284V133.555H127.608V150.48H122.781L122.794 133.555Z" fill="white"/>
<path d="M149.587 146.008H139.909L138.085 150.48H133.131L142.43 129.615H147.206L156.529 150.48H151.462L149.587 146.008ZM148.067 142.347L144.761 134.366L141.454 142.347H148.067Z" fill="white"/>
<path d="M177.673 150.48V137.963L171.541 148.275H169.362L163.256 138.229V150.48H158.721V129.615H162.711L170.528 142.587L178.217 129.615H182.183V150.48H177.673Z" fill="white"/>
<path d="M203.301 146.616V150.416H187.149V129.615H202.908V133.491H191.95V138.027H201.628V141.827H191.95V146.666L203.301 146.616Z" fill="white"/>
<path d="M226.281 129.615V150.48H222.315L211.915 137.811V150.48H207.152V129.615H211.142L221.517 142.283V129.615H226.281Z" fill="white"/>
<path d="M235.554 133.555H228.878V129.615H247.031V133.555H240.355V150.48H235.529L235.554 133.555Z" fill="white"/>
<path d="M265.806 146.616V150.416H249.654V129.615H265.413V133.491H254.442V138.027H264.133V141.827H254.442V146.666L265.806 146.616Z" fill="white"/>
<path d="M38.0814 166.201H35.003L32.672 164.149L30.3284 166.201H27.2627L30.8098 162.324H34.5216L38.0814 166.201ZM30.4804 167.734H34.8383V186.559H30.4931L30.4804 167.734Z" fill="white"/>
<path d="M56.5897 167.734V186.559H53.0046L43.6174 175.157V186.559H39.2722V167.734H42.8827L52.2445 179.135V167.734H56.5897Z" fill="white"/>
<path d="M80.6593 186.559L77.0235 181.314H73.0203V186.559H68.6625V167.734H76.8082C81.8755 167.734 84.9918 170.343 84.9918 174.562C85.043 175.832 84.6972 177.087 84.0025 178.152C83.3078 179.216 82.2987 180.038 81.1153 180.503L85.3339 186.559H80.6593ZM76.5675 171.281H73.0203V177.843H76.5675C79.2278 177.843 80.5706 176.576 80.5706 174.562C80.5706 172.548 79.2278 171.281 76.5675 171.281Z" fill="white"/>
<path d="M100.827 182.53H92.086L90.4138 186.559H85.9546L94.341 167.734H98.6481L107.073 186.559H102.499L100.827 182.53ZM99.4589 179.224L96.4692 172.003L93.4795 179.224H99.4589Z" fill="white"/>
<path d="M111.988 171.281H105.958V167.734H122.426V171.281H116.396V186.559H111.988V171.281Z" fill="white"/>
<path d="M139.351 183.062V186.559H124.707V167.734H138.946V171.23H129.039V175.322H137.793V178.704H129.039V183.062H139.351Z" fill="white"/>
<path d="M166.702 174.562C166.702 178.755 163.56 181.365 158.531 181.365H154.73V186.559H150.373V167.734H158.531C163.56 167.734 166.702 170.343 166.702 174.562ZM162.293 174.562C162.293 172.484 160.951 171.281 158.278 171.281H154.73V177.818H158.278C160.951 177.818 162.293 176.601 162.293 174.562Z" fill="#2BB018"/>
<path d="M184.374 183.062V186.559H169.755V167.734H183.994V171.23H174.087V175.322H182.829V178.704H174.087V183.062H184.374Z" fill="#2BB018"/>
<path d="M208.507 180.706C208.507 184.038 206.049 186.951 200.678 186.951C198.135 186.991 195.636 186.291 193.483 184.937L195.205 181.593C196.767 182.711 198.643 183.305 200.564 183.29C202.743 183.29 204.086 182.378 204.086 180.845C204.086 179.312 203.123 178.388 199.703 178.388H194.889L195.852 167.797H207.342V171.293H199.487L199.196 174.866H200.729C206.29 174.803 208.507 177.311 208.507 180.706Z" fill="#2BB018"/>
<path d="M231.474 182.53H222.721L221.061 186.559H216.627L225.026 167.734H229.296L237.72 186.559H233.096L231.474 182.53ZM230.094 179.224L227.117 172.003L224.127 179.224H230.094Z" fill="#2BB018"/>
<path d="M256.95 167.734V186.559H253.365L243.978 175.157V186.559H239.671V167.734H243.231L252.593 179.135V167.734H256.95Z" fill="#2BB018"/>
<path d="M261.41 167.734H265.767V186.559H261.41V167.734Z" fill="#2BB018"/>
<path d="M27.2627 264.62C27.2627 223.411 50.0655 200.012 80.786 200.012C111.506 200.012 134.297 223.385 134.297 264.62C134.297 305.855 111.646 329.228 80.786 329.228C49.9262 329.228 27.2627 305.83 27.2627 264.62ZM105.223 264.62C105.223 236.256 95.2278 224.487 80.786 224.487C66.3442 224.487 56.5136 236.256 56.5136 264.62C56.5136 292.984 66.5089 304.766 80.786 304.766C95.0631 304.766 105.223 292.984 105.223 264.62Z" fill="white"/>
<path d="M144.723 228.44C144.723 211.097 155.313 200.076 170.3 200.076C185.286 200.076 195.712 210.958 195.712 228.44C195.712 245.922 185.286 256.804 170.3 256.804C155.313 256.804 144.723 245.783 144.723 228.44ZM181.03 228.44C181.03 217.418 176.76 212.136 170.3 212.136C163.839 212.136 159.62 217.571 159.62 228.44C159.62 239.309 164.029 244.757 170.35 244.757C176.672 244.757 181.03 239.461 181.03 228.44ZM231.576 201.254H249.058L178.813 304.12H161.331L231.576 201.254ZM214.677 276.985C214.677 259.642 225.254 248.62 240.102 248.62C254.949 248.62 265.666 259.642 265.666 276.985C265.666 294.327 255.088 305.349 240.102 305.349C225.115 305.349 214.677 294.277 214.677 276.985ZM250.832 276.985C250.832 266.115 246.562 260.681 240.102 260.681C233.641 260.681 229.372 265.963 229.372 276.985C229.372 288.006 233.78 293.301 240.102 293.301C246.423 293.301 250.832 287.816 250.832 276.985Z" fill="white"/>
<defs>
<linearGradient id="paint0_linear_806_111" x1="-1.58592" y1="190.341" x2="294.278" y2="190.341" gradientUnits="userSpaceOnUse">
<stop stop-color="#2BB018" stop-opacity="0"/>
<stop offset="0.12" stop-color="#2BB018" stop-opacity="0.45"/>
<stop offset="0.43" stop-color="#2BB018" stop-opacity="0.61"/>
<stop offset="1" stop-color="#2BB018"/>
</linearGradient>
</defs>
</svg>
