<svg width="235" height="303" viewBox="0 0 235 303" fill="none" xmlns="http://www.w3.org/2000/svg">
<path d="M6.26999 115.69V76.2799L116.91 7.68994L228.28 77.5299V295.51L6.26999 296.37V115.69Z" stroke="url(#paint0_linear_806_20)" stroke-width="12" stroke-miterlimit="10"/>
<path d="M36.24 219.24C36.24 189.84 50.39 169.69 75.03 169.69C99.67 169.69 113.82 189.84 113.82 219.24C113.82 248.64 99.66 268.78 75 268.78C50.34 268.78 36.24 248.64 36.24 219.24ZM92.04 219.24C92.04 200.86 86.46 190.93 75.04 190.93C63.62 190.93 58.04 200.86 58.04 219.24C58.04 237.62 63.62 247.55 75.04 247.55C86.46 247.55 92 237.61 92 219.24H92.04Z" fill="white"/>
<path d="M118.45 189.78C118.45 177.28 126.07 169.34 136.87 169.34C147.67 169.34 155.19 177.18 155.19 189.78C155.19 202.38 147.67 210.21 136.87 210.21C126.07 210.21 118.45 202.27 118.45 189.78ZM144.6 189.78C144.6 181.84 141.53 178.02 136.87 178.02C132.21 178.02 129.14 181.94 129.14 189.78C129.14 197.62 132.32 201.53 136.87 201.53C141.42 201.53 144.6 197.72 144.6 189.78ZM181 170.19H193.6L143 244.31H130.4L181 170.19ZM168.82 224.72C168.82 212.23 176.45 204.28 187.14 204.28C197.83 204.28 205.57 212.23 205.57 224.72C205.57 237.21 197.94 245.16 187.14 245.16C176.34 245.16 168.85 237.22 168.85 224.72H168.82ZM194.82 224.72C194.82 216.89 191.75 212.97 187.09 212.97C182.43 212.97 179.36 216.78 179.36 224.72C179.36 232.66 182.54 236.48 187.09 236.48C191.64 236.48 194.9 232.56 194.9 224.72H194.82Z" fill="white"/>
<path d="M41 98.35H37.84V106.35H33.3V86.56H37.84V94.56H41.11L46.3 86.56H51.12L44.67 96.09L51.32 106.3H46.13L41 98.35Z" fill="white"/>
<path d="M70.88 100.75C70.88 104.19 68.21 106.3 63.21 106.3H53.49V86.56H62.68C67.25 86.56 69.95 88.4 69.95 91.67C69.968 92.5886 69.7124 93.4918 69.2155 94.2646C68.7187 95.0375 68.0032 95.645 67.16 96.01C68.2399 96.2336 69.2058 96.8322 69.8867 97.6998C70.5676 98.5674 70.9194 99.6479 70.88 100.75ZM58.03 94.75H62.28C64.28 94.75 65.28 93.93 65.28 92.35C65.28 90.77 64.28 89.96 62.28 89.96H58L58.03 94.75ZM66.26 100.39C66.26 98.73 65.16 97.94 63.05 97.94H58.05V102.94H63.05C65.16 102.92 66.26 102.1 66.26 100.38V100.39Z" fill="white"/>
<path d="M87.86 102.07H78.7L77 106.3H72.32L81.12 86.56H85.63L94.45 106.3H89.66L87.86 102.07ZM86.42 98.6L83.29 91.05L80.16 98.6H86.42Z" fill="white"/>
<path d="M114.14 93.73C114.14 98.12 110.84 100.86 105.57 100.86H101.57V106.3H97V86.56H105.54C110.84 86.56 114.14 89.3 114.14 93.73ZM109.52 93.73C109.52 91.55 108.11 90.28 105.32 90.28H101.6V97.14H105.32C108.11 97.14 109.52 95.87 109.52 93.73Z" fill="white"/>
<path d="M131.71 90.28H125.4V106.28H120.88V90.28H114.6V86.56H131.71V90.28Z" fill="white"/>
<path d="M134.59 86.56H139.13V99.42L148.55 86.56H152.83V106.3H148.32V93.47L138.9 106.3H134.59V86.56Z" fill="white"/>
<path d="M174.86 93.73C174.86 98.12 171.56 100.86 166.29 100.86H162.29V106.3H157.72V86.56H166.27C171.56 86.56 174.86 89.3 174.86 93.73ZM170.23 93.73C170.23 91.55 168.82 90.28 166.03 90.28H162.31V97.14H166C168.82 97.14 170.23 95.87 170.23 93.73Z" fill="white"/>
<path d="M194.91 99.42C194.91 103.96 191.86 106.3 186.79 106.3H177.88V86.56H182.42V93.05H187.42C192.2 93.05 194.91 95.16 194.91 99.42ZM190.31 99.51C190.31 97.33 188.9 96.43 186.54 96.43H182.42V102.92H186.54C188.88 102.92 190.31 101.73 190.31 99.51ZM197.42 86.56H202V106.3H197.46L197.42 86.56Z" fill="white"/>
<path d="M47.31 126.69C47.31 129.46 45.16 131.17 41.14 131.17H33.31V115.27H40.71C44.39 115.27 46.57 116.75 46.57 119.38C46.5851 120.121 46.3791 120.85 45.9784 121.473C45.5776 122.096 45.0003 122.586 44.32 122.88C45.1874 123.061 45.9631 123.542 46.5101 124.24C47.0572 124.937 47.3405 125.804 47.31 126.69ZM37 121.86H40.43C42.02 121.86 42.86 121.2 42.86 119.93C42.86 118.66 42 118 40.39 118H37V121.86ZM43.63 126.4C43.63 125.06 42.75 124.4 41.04 124.4H37.04V128.4H41.04C42.71 128.44 43.59 127.78 43.59 126.4H43.63Z" fill="white"/>
<path d="M70.43 121C70.43 124.54 67.77 126.74 63.53 126.74H60.33V131.13H56.65V115.23H63.53C67.77 115.27 70.43 117.47 70.43 121ZM66.71 121C66.71 119.25 65.57 118.23 63.32 118.23H60.32V123.75H63.32C65.57 123.79 66.71 122.76 66.71 121Z" fill="white"/>
<path d="M82.83 127.76H75.45L74 131.17H70.23L77.32 115.27H81L88.1 131.17H84.25L82.83 127.76ZM81.67 125L79.15 118.91L76.63 125H81.67Z" fill="white"/>
<path d="M88.89 123.22C88.89 118.43 92.57 115 97.52 115C98.751 114.948 99.9779 115.174 101.11 115.66C102.242 116.147 103.25 116.881 104.06 117.81L101.7 120C101.213 119.412 100.602 118.941 99.9097 118.619C99.2178 118.297 98.463 118.134 97.7 118.14C96.3904 118.198 95.1537 118.759 94.2475 119.706C93.3413 120.654 92.8356 121.914 92.8356 123.225C92.8356 124.536 93.3413 125.796 94.2475 126.744C95.1537 127.691 96.3904 128.252 97.7 128.31C98.4654 128.319 99.2229 128.154 99.9157 127.829C100.608 127.503 101.218 127.025 101.7 126.43L104.06 128.61C103.254 129.55 102.244 130.294 101.108 130.787C99.971 131.279 98.7373 131.505 97.5 131.45C92.57 131.44 88.89 128 88.89 123.22Z" fill="white"/>
<path d="M105 123.22C105 118.43 108.67 115 113.62 115C114.851 114.948 116.078 115.174 117.21 115.66C118.342 116.147 119.35 116.881 120.16 117.81L117.84 120C117.353 119.412 116.742 118.941 116.05 118.619C115.358 118.297 114.603 118.134 113.84 118.14C112.53 118.198 111.294 118.759 110.387 119.706C109.481 120.654 108.976 121.914 108.976 123.225C108.976 124.536 109.481 125.796 110.387 126.744C111.294 127.691 112.53 128.252 113.84 128.31C114.605 128.319 115.363 128.154 116.056 127.829C116.748 127.503 117.358 127.025 117.84 126.43L120.2 128.61C119.394 129.55 118.384 130.294 117.248 130.787C116.111 131.279 114.877 131.505 113.64 131.45C108.71 131.44 105 128 105 123.22Z" fill="white"/>
<path d="M136.39 121C136.39 124.54 133.74 126.74 129.49 126.74H126.29V131.13H122.61V115.23H129.49C133.74 115.27 136.39 117.47 136.39 121ZM132.67 121C132.67 119.25 131.53 118.23 129.29 118.23H126.29V123.75H129.29C131.53 123.79 132.67 122.76 132.67 121Z" fill="white"/>
<path d="M137.94 123.22C137.94 118.5 141.62 115 146.63 115C151.64 115 155.33 118.47 155.33 123.22C155.33 127.97 151.63 131.44 146.63 131.44C141.63 131.44 137.94 127.94 137.94 123.22ZM151.61 123.22C151.594 122.235 151.288 121.276 150.729 120.464C150.17 119.653 149.384 119.024 148.469 118.658C147.554 118.292 146.551 118.204 145.586 118.406C144.622 118.608 143.738 119.09 143.047 119.793C142.356 120.495 141.888 121.386 141.701 122.354C141.514 123.321 141.618 124.322 141.999 125.231C142.379 126.14 143.02 126.917 143.841 127.463C144.661 128.009 145.625 128.3 146.61 128.3C147.279 128.32 147.945 128.202 148.566 127.952C149.187 127.703 149.749 127.328 150.219 126.851C150.688 126.374 151.054 125.806 151.293 125.181C151.533 124.556 151.641 123.888 151.61 123.22Z" fill="white"/>
<path d="M170.88 115.27V131.17H167.25V125.44C166.023 125.911 164.724 126.165 163.41 126.19C159.14 126.19 156.81 124.08 156.81 120.24V115.24H160.44V119.81C160.44 121.99 161.64 123.1 163.84 123.1C165.014 123.105 166.176 122.863 167.25 122.39V115.24L170.88 115.27Z" fill="white"/>
<path d="M181 124.76H178.46V131.17H174.8V115.27H178.46V121.7H181.09L185.27 115.27H189.15L183.95 122.95L189.31 131.17H185.13L181 124.76Z" fill="white"/>
<path d="M205.65 115.27L198.88 127.85C197.56 130.3 195.68 131.53 193.54 131.53C192.667 131.522 191.804 131.341 191 131L191.88 128.21C192.393 128.386 192.928 128.487 193.47 128.51C193.931 128.507 194.383 128.377 194.776 128.136C195.169 127.894 195.489 127.55 195.7 127.14L195.83 126.96L189.57 115.29H193.5L197.72 123.83L202.08 115.29L205.65 115.27Z" fill="white"/>
<path d="M31.61 147.38C31.6907 146.062 32.157 144.796 32.951 143.74C33.745 142.685 34.8317 141.886 36.076 141.442C37.3204 140.999 38.6675 140.931 39.9501 141.247C41.2326 141.563 42.394 142.249 43.29 143.22L41.47 144.9C41.0976 144.444 40.6274 144.078 40.0942 143.829C39.561 143.579 38.9785 143.453 38.39 143.46C37.3503 143.46 36.3533 143.873 35.6181 144.608C34.883 145.343 34.47 146.34 34.47 147.38C34.47 148.42 34.883 149.417 35.6181 150.152C36.3533 150.887 37.3503 151.3 38.39 151.3C38.9796 151.307 39.5631 151.18 40.0965 150.929C40.63 150.678 41.0996 150.309 41.47 149.85L43.29 151.52C42.3973 152.494 41.2374 153.184 39.9552 153.504C38.6729 153.824 37.3249 153.759 36.0793 153.317C34.8337 152.876 33.7457 152.077 32.9509 151.021C32.1561 149.966 31.6898 148.699 31.61 147.38Z" fill="white"/>
<path d="M55.76 145.7C55.76 148.43 53.71 150.12 50.44 150.12H48V153.5H45.17V141.26H50.47C53.71 141.26 55.76 143 55.76 145.7ZM52.89 145.7C52.89 144.35 52.01 143.57 50.28 143.57H48V147.82H50.31C52 147.82 52.89 147 52.89 145.7Z" fill="white"/>
<path d="M56.94 147.38C56.94 143.74 59.78 141.05 63.64 141.05C67.5 141.05 70.34 143.73 70.34 147.38C70.34 151.03 67.49 153.71 63.64 153.71C59.79 153.71 56.94 151 56.94 147.38ZM67.47 147.38C67.4523 146.627 67.2127 145.895 66.7812 145.277C66.3498 144.659 65.7456 144.182 65.0444 143.906C64.3432 143.63 63.5761 143.567 62.8392 143.725C62.1022 143.883 61.4282 144.254 60.9016 144.793C60.3749 145.332 60.019 146.015 59.8783 146.755C59.7377 147.496 59.8186 148.261 60.111 148.956C60.4033 149.65 60.8941 150.243 61.5218 150.66C62.1496 151.077 62.8864 151.3 63.64 151.3C64.1546 151.314 64.6666 151.222 65.1438 151.029C65.621 150.836 66.0531 150.546 66.4129 150.178C66.7726 149.81 67.0523 149.371 67.2342 148.89C67.4161 148.408 67.4964 147.894 67.47 147.38Z" fill="white"/>
<path d="M77.26 148.57H75.26V153.5H72.45V141.26H75.26V146.26H77.26L80.48 141.26H83.48L79.48 147.17L83.6 153.5H80.39L77.26 148.57Z" fill="white"/>
<path d="M84.08 147.38C84.08 143.74 86.91 141.05 90.78 141.05C94.65 141.05 97.48 143.73 97.48 147.38C97.48 151.03 94.63 153.71 90.78 153.71C86.93 153.71 84.08 151 84.08 147.38ZM94.61 147.38C94.5923 146.627 94.3527 145.895 93.9212 145.277C93.4898 144.659 92.8856 144.182 92.1844 143.906C91.4832 143.63 90.7161 143.567 89.9792 143.725C89.2423 143.883 88.5683 144.254 88.0416 144.793C87.5149 145.332 87.159 146.015 87.0184 146.755C86.8777 147.496 86.9586 148.261 87.251 148.956C87.5433 149.65 88.0341 150.243 88.6618 150.66C89.2896 151.077 90.0264 151.3 90.78 151.3C91.2942 151.313 91.8055 151.22 92.2821 151.026C92.7586 150.833 93.1901 150.543 93.5495 150.175C93.909 149.807 94.1887 149.369 94.3711 148.888C94.5536 148.407 94.6349 147.894 94.61 147.38Z" fill="white"/>
<path d="M110.8 153.5V146.17L107.2 152.17H105.94L102.34 146.27V153.46H99.68V141.26H102L106.59 148.87L111.1 141.26H113.44V153.5H110.8Z" fill="white"/>
<path d="M132.67 141.26V153.5H129.84V148.5H124.28V153.5H121.45V141.26H124.28V146.09H129.84V141.26H132.67Z" fill="#2BB018"/>
<path d="M144 150.88H138.32L137.23 153.5H134.33L139.79 141.26H142.59L148.06 153.5H145.06L144 150.88ZM143.11 148.73L141.19 144L139.25 148.69L143.11 148.73Z" fill="#2BB018"/>
<path d="M163.06 149.65C163.06 151.82 161.47 153.71 157.97 153.71C156.322 153.738 154.702 153.282 153.31 152.4L154.42 150.23C155.435 150.955 156.653 151.34 157.9 151.33C159.32 151.33 160.2 150.74 160.2 149.74C160.2 148.74 159.57 148.15 157.34 148.15H154.21L154.84 141.26H162.31V143.53H157.21L157.01 145.86H158.01C161.63 145.86 163.06 147.48 163.06 149.65Z" fill="#2BB018"/>
<path d="M180.92 141.26V153.5H178.12V143.57H173.92L173.83 146.12C173.68 150.93 172.99 153.69 170.13 153.69C169.658 153.679 169.188 153.616 168.73 153.5L168.9 151.1C169.065 151.153 169.237 151.176 169.41 151.17C170.84 151.17 171.21 149.36 171.33 146.23L171.51 141.23L180.92 141.26Z" fill="#2BB018"/>
<path d="M193.45 151.23V153.5H184V141.26H193.25V143.53H186.82V146.19H192.5V148.39H186.82V151.23H193.45Z" fill="#2BB018"/>
<path d="M205.1 143.57H201.18V153.5H198.38V143.57H194.48V141.26H205.1V143.57Z" fill="#2BB018"/>
<path d="M126.36 257.34H121V266.46H118.42V255.22H126.34L126.36 257.34Z" fill="white"/>
<path d="M126 260.84C125.932 259.611 126.234 258.391 126.867 257.336C127.5 256.281 128.435 255.44 129.551 254.922C130.667 254.404 131.913 254.232 133.128 254.43C134.342 254.627 135.47 255.184 136.364 256.029C137.258 256.874 137.879 257.968 138.145 259.17C138.411 260.371 138.311 261.624 137.857 262.768C137.403 263.912 136.617 264.893 135.599 265.585C134.582 266.277 133.38 266.648 132.15 266.65C131.359 266.696 130.567 266.58 129.822 266.309C129.077 266.038 128.396 265.618 127.82 265.073C127.244 264.529 126.785 263.873 126.472 263.145C126.159 262.417 125.999 261.632 126 260.84ZM135.66 260.84C135.646 260.146 135.428 259.473 135.032 258.903C134.637 258.333 134.082 257.893 133.437 257.637C132.792 257.382 132.086 257.323 131.408 257.467C130.729 257.612 130.109 257.953 129.624 258.449C129.139 258.945 128.811 259.573 128.682 260.255C128.553 260.936 128.628 261.641 128.898 262.28C129.168 262.919 129.621 263.464 130.199 263.846C130.778 264.229 131.456 264.432 132.15 264.43C132.624 264.447 133.097 264.366 133.538 264.191C133.979 264.016 134.379 263.751 134.713 263.414C135.046 263.077 135.306 262.674 135.476 262.231C135.646 261.787 135.722 261.314 135.7 260.84H135.66Z" fill="white"/>
<path d="M151.61 264.34V268.78H149.2V266.46H141.27V268.78H138.86V264.34H139.31C140.77 264.34 141.14 261.88 141.25 258.74L141.38 255.22H150V264.34H151.61ZM142.44 264.34H147.44V257.34H143.58V258.98C143.47 261.37 143.21 263.42 142.44 264.34Z" fill="white"/>
<path d="M152.57 260.84C152.502 259.611 152.804 258.391 153.437 257.336C154.07 256.281 155.005 255.44 156.121 254.922C157.237 254.404 158.483 254.232 159.698 254.43C160.912 254.627 162.04 255.184 162.934 256.029C163.828 256.874 164.449 257.968 164.715 259.17C164.981 260.371 164.881 261.624 164.427 262.768C163.973 263.912 163.187 264.893 162.169 265.585C161.152 266.277 159.95 266.648 158.72 266.65C157.929 266.696 157.137 266.58 156.392 266.309C155.647 266.038 154.966 265.618 154.39 265.073C153.814 264.529 153.355 263.873 153.042 263.145C152.729 262.417 152.569 261.632 152.57 260.84ZM162.23 260.84C162.216 260.146 161.998 259.473 161.602 258.903C161.207 258.333 160.652 257.893 160.007 257.637C159.362 257.382 158.656 257.323 157.978 257.467C157.299 257.612 156.679 257.953 156.194 258.449C155.709 258.945 155.381 259.573 155.252 260.255C155.123 260.936 155.198 261.641 155.468 262.28C155.738 262.919 156.191 263.464 156.769 263.846C157.348 264.229 158.026 264.432 158.72 264.43C159.191 264.441 159.659 264.356 160.096 264.178C160.532 264.001 160.927 263.736 161.256 263.399C161.586 263.062 161.842 262.661 162.01 262.221C162.177 261.781 162.252 261.31 162.23 260.84Z" fill="white"/>
<path d="M176.77 263.29C176.77 265.29 175.25 266.46 172.41 266.46H166.87V255.22H172.1C174.7 255.22 176.24 256.22 176.24 258.13C176.252 258.652 176.108 259.166 175.826 259.606C175.545 260.045 175.139 260.392 174.66 260.6C175.273 260.727 175.821 261.067 176.207 261.559C176.593 262.052 176.792 262.665 176.77 263.29ZM169.46 259.88H171.88C173 259.88 173.6 259.41 173.6 258.51C173.6 257.61 173 257.15 171.88 257.15H169.46V259.88ZM174.14 263.08C174.14 262.14 173.52 261.69 172.31 261.69H169.46V264.53H172.31C173.52 264.53 174.14 264.06 174.14 263.08Z" fill="white"/>
<path d="M188.52 262.54C188.52 265.12 186.79 266.46 183.9 266.46H178.83V255.22H181.42V258.91H184.27C187 258.91 188.52 260.12 188.52 262.54ZM185.91 262.54C185.91 261.3 185.11 260.79 183.76 260.79H181.42V264.48H183.76C185.09 264.53 185.91 263.85 185.91 262.59V262.54ZM189.91 255.17H192.5V266.41H190L189.91 255.17Z" fill="white"/>
<path d="M197.35 255.22L199.68 258.62L202.01 255.22H205.06L201.32 260.6L205.32 266.46H202.3L199.68 262.73L197.1 266.46H194.1L198.1 260.71L194.34 255.22H197.35Z" fill="white"/>
<defs>
<linearGradient id="paint0_linear_806_20" x1="0.269989" y1="151.51" x2="234.28" y2="151.51" gradientUnits="userSpaceOnUse">
<stop stop-color="#2BB018" stop-opacity="0"/>
<stop offset="0.12" stop-color="#2BB018" stop-opacity="0.45"/>
<stop offset="0.43" stop-color="#2BB018" stop-opacity="0.61"/>
<stop offset="1" stop-color="#2BB018"/>
</linearGradient>
</defs>
</svg>
