<svg width="19" height="20" viewBox="0 0 19 20" fill="none" xmlns="http://www.w3.org/2000/svg">
<path d="M0 4.14802C0.103716 6.88854 1.95296 9.54193 3.51492 11.6777C4.93772 13.6326 6.60759 15.3951 8.48289 16.9212C9.67119 17.8919 10.952 18.7435 12.3069 19.4636C13.1366 19.8993 13.6842 20.1596 14.6457 19.891C16.1174 19.4761 19.5047 17.7345 18.9364 15.8341C18.6481 14.8684 17.473 13.9203 16.7304 13.3125C15.8322 12.5739 14.2578 11.2742 13.2092 12.4878C12.5797 13.0895 11.9283 14.494 10.941 14.5801C9.88409 14.6838 8.93613 13.4567 8.28583 12.7866C7.20742 11.6858 6.22899 10.4913 5.36209 9.21726C4.54793 7.88953 5.56226 7.33976 6.55378 6.60951C7.00495 6.27861 7.57849 5.96535 7.79837 5.42389C8.19975 4.42186 7.24349 3.15533 6.68758 2.37529C6.1604 1.64354 5.5553 0.971236 4.88293 0.370202C4.00653 -0.420214 3.0399 0.207348 2.30767 0.836983C1.26382 1.72134 0.46845 2.86252 0 4.14802Z" fill="#2BB018"/>
</svg>
