<?xml version="1.0" encoding="utf-8"?>
<!-- Generator: Adobe Illustrator 26.0.1, SVG Export Plug-In . SVG Version: 6.00 Build 0)  -->
<svg version="1.1" id="Layer_1" xmlns="http://www.w3.org/2000/svg" xmlns:xlink="http://www.w3.org/1999/xlink" x="0px" y="0px"
	 viewBox="0 0 469 469" style="enable-background:new 0 0 469 469;" xml:space="preserve">
<style type="text/css">
	.st0{fill:#2BB018;}
</style>
<path class="st0" d="M400.3,68.7C356,24.4,297.1,0,234.5,0S113,24.4,68.7,68.7S0,171.9,0,234.5S24.4,356,68.7,400.3
	S171.9,469,234.5,469s121.5-24.4,165.8-68.7S469,297.1,469,234.5S444.6,113,400.3,68.7z M387.1,184.4V176h18.2v5.4L387.1,184.4z
	 M111.6,258.5c0-1.9,0.8-3.7,2.2-5c0.8-0.8,1.9-1.3,3.1-1.3l45.3,9.1l0.1,0.1l-0.5,1c-1,1.6-2.7,2.6-4.6,2.6h-39.9
	c-3.2-0.2-5.7-3-5.6-6.3L111.6,258.5L111.6,258.5z M117.6,199.3l10.5-49.5c3-10.7,12.8-18,23.9-18c0.1,0,0.2,0,0.4,0h164
	c1.8,0,3.7,0.2,5.5,0.6L255,199.3L117.6,199.3L117.6,199.3z M81.9,176v8.4l-18.2-3V176H81.9z M271.4,305.6v4.3h-73.7v-4.3H271.4z
	 M360.2,258.6c0.2,3.2-2.2,6-5.4,6.3h-39.9c-1.9,0-3.6-1-4.6-2.5l-0.7-1.2l45.1-9c1.2,0,2.4,0.5,3.3,1.3c1.4,1.3,2.2,3.1,2.1,5
	L360.2,258.6L360.2,258.6z M372.6,237.9c-5.3-4.9-12.5-7.4-19.7-6.7h-1l-47.1,9.5c-6.3,1.4-11.6,5.7-14.1,11.6
	c-2.8,6.2-2.3,13.3,1.1,19.1l1,1.7c4.8,7.8,13.4,12.7,22.5,12.7h40.1c12-0.4,22-8.7,25-19.7l1.6,17.7v49.4c0,2.2-1.8,4.1-4.1,4.1
	h-36c-2.2,0-4-1.8-4-4.1V331h9.6c5.8,0,10.5-4.7,10.5-10.5s-4.7-10.5-10.5-10.5h-55.2v-14.9c0-5.8-4.7-10.5-10.5-10.5h-82.6
	l64.4-64.3h85.6h0.1c14.8,0,27.5,11.3,29.3,25.9C377.1,243.1,375.1,240.3,372.6,237.9z M176.6,307.3v2.7H174L176.6,307.3z
	 M87.1,333.3v-48.7l3.3-37.3c1.3-15.1,14.2-26.9,29.4-26.9h0.1h114L178,276.1c0.7-0.9,1.4-1.9,2-2.9l1-1.7l0.1-0.1
	c3.3-5.9,3.5-13.1,0.6-19.1c-2.6-5.9-7.9-10.2-14.2-11.6l-46.8-9.4h-1.3c-7.2-0.7-14.4,1.8-19.7,6.8c-5.7,5.3-8.9,12.8-8.8,20.5
	c-0.1,7.2,2.5,14,7.5,19.2s11.7,8.1,18.8,8.3h0.2h40c6.1,0,12-2.2,16.7-6l-30,29.9l-22.8,0.2c-5.8,0-10.5,4.7-10.5,10.5
	s4.7,10.5,10.5,10.5h2l-6.4,6.4H91.1C88.9,337.4,87.1,335.5,87.1,333.3z M284.6,199.3l54.2-54.3c0.7,1.4,1.3,2.9,1.7,4.4l10.8,49.9
	L284.6,199.3L284.6,199.3z M338.1,116.1c-6.7-3.5-14.1-5.3-21.6-5.3H152.7c-20.9-0.2-39.2,13.7-44.8,33.8l-5,23.9v-3
	c0-5.8-4.7-10.5-10.5-10.5H53.2c-5.8,0-10.5,4.7-10.5,10.5v24.8c-0.1,5.2,3.6,9.6,8.7,10.5l39.3,6.5h1.7h0.1
	c-13.2,8.4-21.8,22.3-23.2,38.1l-3.3,38v49.7c0,13.8,11.2,25.1,25.1,25.1h4.8l-19.5,19.6C-1.8,291.4,3.9,157.4,89.5,78
	c39.5-36.7,91-56.9,145-57c0,0,0,0,0.1,0c53.2,0,103.9,19.7,143.2,55.4L338.1,116.1z M125.6,358.2h1.4c13.8,0,25-11.2,25-25.1v-1.6
	l0.9-0.9h164v2.3c0,13.8,11.1,25,25,25.1h35.9c13.8,0,25.1-11.2,25.1-25.1v-50l-3.2-37.5c-1.4-15.7-10-29.7-23.2-38.1c0,0,0,0,0.1,0
	h1.5l39.5-6.5c5.1-0.9,8.8-5.3,8.7-10.5v-24.8c0-5.8-4.7-10.5-10.5-10.5h-39.2c-5.8,0-10.5,4.7-10.5,10.5v3.2l-5.1-24.2v-0.2
	c-1.5-5.3-3.8-10.2-7.1-14.6L392.6,91c78.2,86.4,72.6,220.3-13.1,299.8c-39.5,36.7-91,56.9-145,57c0,0,0,0-0.1,0
	c-53.2,0-103.9-19.7-143.2-55.4L125.6,358.2z"/>
</svg>
