<?xml version="1.0" encoding="utf-8"?>
<!-- Generator: Adobe Illustrator 26.0.1, SVG Export Plug-In . SVG Version: 6.00 Build 0)  -->
<svg version="1.1" id="Layer_1" xmlns="http://www.w3.org/2000/svg" xmlns:xlink="http://www.w3.org/1999/xlink" x="0px" y="0px"
	 viewBox="0 0 469 444.3" style="enable-background:new 0 0 469 444.3;" xml:space="preserve">
<style type="text/css">
	.st0{fill:#2BB018;}
</style>
<path class="st0" d="M468.6,104.4C467.2,98,462.3,93,456,91.3l-249-65c-2.7-0.7-5.6-0.3-8,1.1s-4.2,3.7-4.9,6.4
	c-1.5,5.6,1.9,11.4,7.5,12.9L443.7,110l-7.4,6.2c-5.3,4.5-11.8,7.4-18.7,8.6c-0.3,0-0.6,0.1-0.9,0.1h-0.1c-0.4,0.1-0.7,0.1-1.1,0.1
	s-0.8,0.1-1.2,0.1c-0.3,0-0.5,0-0.8,0.1c-0.5,0-0.9,0.1-1.4,0.1h-0.3c-3.1,0.1-6.3-0.2-9.3-0.9l-0.4-0.1c-0.3-0.1-0.6-0.1-1-0.2
	l-60-15.6c-16.9-4.4-34.7-1.2-49,8.7l-0.2,0.1c-1.4,1-2.8,2.1-4.1,3.2l-0.5,0.4c-0.6,0.5-1.2,1.1-1.8,1.6l-0.2,0.2
	c-0.5,0.5-1,0.9-1.6,1.4c-0.2,0.1-0.4,0.3-0.6,0.4c-0.4,0.3-0.8,0.6-1.2,0.9l-0.2,0.1c-0.1,0.1-0.3,0.2-0.4,0.3
	c-0.5,0.3-1,0.7-1.4,1c-0.3,0.2-0.7,0.4-1,0.6s-0.7,0.4-1,0.6s-0.7,0.4-1.1,0.6c-0.2,0.1-0.4,0.2-0.7,0.4c-0.4,0.2-0.8,0.4-1.2,0.6
	l-0.1,0.1c-1.6,0.7-3.3,1.3-5,1.8c-6.6,1.9-13.7,2-20.4,0.3L82.3,88c-1.1-0.3-1.9-0.9-2.5-1.9c-0.6-0.9-0.7-2-0.4-3.1L94,27.5
	c0.6-2.2,2-4,3.9-5.2c2-1.1,4.3-1.5,6.5-0.9l103.3,27c2.7,0.7,5.6,0.3,8-1.1c2.4-1.4,4.2-3.7,4.9-6.4s0.3-5.6-1.1-8
	c-1.4-2.4-3.7-4.2-6.4-4.9L109.7,1C102-1,94,0.1,87.2,4.1S75.5,14.5,73.5,22.2L59,77.7c-1.7,6.5-0.8,13.3,2.6,19.1
	c2.7,4.6,6.7,8.2,11.6,10.3l-7.1,27.2c-1.9,7.2-0.8,14.7,2.9,21.1c3.8,6.4,9.8,11,17,12.8l60.2,15.7c-0.4,12.1,6.9,23.1,18.2,27.5
	l-37,72.7c-24.8,9.3-52.1,19.5-72.3,26.9v-25.2c0-15-12.2-27.2-27.2-27.2H10.6c-5.8,0-10.6,4.7-10.6,10.6v164.6
	c0,5.8,4.7,10.6,10.6,10.6H28c15,0,27.2-12.2,27.2-27.2v-51.9c7.9-2.8,53.5-19.9,76-28.3c2.6-1,4.7-2.9,5.9-5.5s1.3-5.4,0.3-8.1
	c-2-5.4-8.1-8.2-13.6-6.2c-16.8,6.3-60.7,22.7-68.6,25.6v-9.4c21.1-7.6,52.6-19.4,83.6-31.1c2.5-0.9,4.5-2.7,5.7-5.1l40.9-80.3
	l10.2,2.7L150,305.9c-0.1,0.1-0.1,0.3-0.2,0.4c-0.5,1-1.3,1.8-2.4,2.2l-26.7,10c-2.6,1-4.7,2.9-5.9,5.5c-1.2,2.6-1.3,5.4-0.3,8.1
	c2,5.4,8.1,8.2,13.6,6.2c8.1-3,16.9-6.3,26.7-10c6-2.3,11-6.7,13.8-12.5l47.9-90.6l7.8,2c2.4,0.6,4.8,0.9,7.2,0.9
	c10.7,0,20.4-6,25.3-15.3l107.4,28c1.7,0.4,3.4,0.7,5.1,0.7c6.9,0,13.2-3.5,16.8-9.2c23.1-5,42.8-24.7,49.3-49.7
	c3.5-13.5,3.1-27.8-1.2-40.6c5.7-2.3,11-5.5,15.7-9.5l12.9-10.8C467.8,117.4,470,110.8,468.6,104.4L468.6,104.4z M228.5,210.6
	l-56.6-14.8c-5.3-1.4-8.8-6.3-8.5-11.6l62.3,16.2l16,4.2c-1.9,3.8-5.8,6.3-10.2,6.3C230.5,210.9,229.5,210.8,228.5,210.6z
	 M387.3,142.3l-20.2,77.4l-275.7-72c-1.7-0.5-3.2-1.6-4.1-3.1s-1.2-3.3-0.7-5.1l7-26.8L244.2,152c5,1.3,10.1,2,15.1,2
	c14,0,27.6-5,38.4-14.2c0.7-0.6,1.4-1.2,2.1-1.9c0.5-0.4,1-0.9,1.6-1.4l0.6-0.5c0.4-0.3,0.8-0.6,1.2-0.9l0.1-0.1
	c0.2-0.1,0.3-0.2,0.5-0.4c0.5-0.3,0.9-0.6,1.4-1c0.3-0.2,0.7-0.4,1-0.6c0.3-0.2,0.6-0.4,1-0.6c0.4-0.2,0.7-0.4,1.1-0.6
	c0.2-0.1,0.4-0.2,0.7-0.3c2-1,4-1.8,6.1-2.4l0.3-0.1c6.6-1.9,13.7-2,20.3-0.2L387.3,142.3z M414.9,177.1
	c-3.3,12.6-11.1,23.3-21.1,29.5l15.7-60.2c1.3,0,2.6,0,3.9,0C417.1,155.8,417.6,166.6,414.9,177.1z M34,285.8v131.4c0,3.3-2.7,6-6,6
	h-6.9V279.8H28C31.3,279.8,34,282.5,34,285.8z"/>
</svg>
