<?xml version="1.0" encoding="utf-8"?>
<!-- Generator: Adobe Illustrator 26.0.1, SVG Export Plug-In . SVG Version: 6.00 Build 0)  -->
<svg version="1.1" id="Layer_1" xmlns="http://www.w3.org/2000/svg" xmlns:xlink="http://www.w3.org/1999/xlink" x="0px" y="0px"
	 viewBox="0 0 469 457.6" style="enable-background:new 0 0 469 457.6;" xml:space="preserve">
<style type="text/css">
	.st0{fill:#2BB018;}
</style>
<g>
	<path class="st0" d="M416.3,52.7c-33-33-74-52.7-109.6-52.7c-46.9,0-82,51.8-103.2,95.2c-16.2,33.1-18.8,71.5-7.3,105.9l-74,73.9
		c-2.1,2.1-3.2,4.8-3.2,7.7c0,2.9,1.1,5.7,3.2,7.7c2.1,2.1,4.8,3.2,7.7,3.2s5.7-1.1,7.7-3.2L209,219l40.7,40.7l-8.6,8.7l-2.7-2.6
		c-4.3-4.2-11.2-4.2-15.4,0.1l-11.1,11.2l-18.5,2.6c-4.8,0.7-8.6,4.5-9.3,9.3l-2.9,21.1l-9.7,9.7l-21.1,2.9
		c-4.8,0.7-8.6,4.5-9.3,9.3l-2.9,21.1l-9.7,9.7l-21.1,2.9c-4.8,0.7-8.6,4.5-9.3,9.3l-2.9,21.1l-9.7,9.7l-21.1,2.9
		c-4.8,0.7-8.5,4.3-9.3,9.1l-2.5,16l-30.4,1.7l4.1-33.2c0-0.2,0-0.4,0.1-0.6l114.3-114.3c4.3-4.3,4.3-11.2,0-15.5s-11.2-4.3-15.5,0
		L10.4,386.8c-3.6,3.6-5.7,8.4-5.9,13.5L0.1,436C0,436.4,0,436.8,0,437.3c0,5.8,2.4,11.4,6.8,15.3c3.7,3.3,8.5,5.1,13.5,5.1
		c0.7,0,1.4,0,2.1-0.1l36.2-2.1c0.2,0,0.5,0,0.7-0.1c7.8-1,13.9-7.3,14.4-15.2l1.7-10.9l13.6-1.9c4-0.3,7.8-1.9,10.6-4.8l12.3-12.3
		c2.8-2.8,4.5-6.6,4.8-10.6l1.9-13.4l13.4-1.9c4-0.3,7.8-1.9,10.6-4.8l12.3-12.3c2.8-2.8,4.5-6.6,4.8-10.6l1.9-13.4l13.4-1.9
		c4-0.3,7.8-1.9,10.6-4.8l12.3-12.3c2.8-2.8,4.5-6.6,4.8-10.6l1.9-13.4l13.9-1.9c2.3-0.3,4.6-1.4,6.2-3.1l6.7-6.7
		c8,4.2,17.9,2.8,24.4-3.8l11.7-11.9c14.1,4.8,28.9,7.2,44.1,7.2l0,0c21.4,0,42-7.1,62.1-14.4c10.5-3.8,45.6-27.1,53.5-32.9
		c4.9-3.6,5.7-9.3,2.6-14.5s-10.2-7.6-14.8-3.7c-7.3,6.2-39.3,28.1-50.8,31.4c-31,9-62.6,16-92.3,5.2l-54-54
		c-10.8-29.7-9-63.3,5.2-92.3c11.6-23.9,23.9-43,36.6-57c15.7-17.3,31.5-26,46.9-26c29.9,0,65.1,17.3,94.2,46.3
		c29,29,46.3,64.2,46.3,94.2c0,17.4-11.1,35.2-33,52.9c-2.3,1.8-3.7,4.4-4,7.3c-0.3,2.9,0.5,5.8,2.4,8c3.8,4.7,10.7,5.4,15.4,1.6
		c27.3-22,41.1-45.5,41.1-69.9C469,126.8,449.3,85.8,416.3,52.7z"/>
	<path class="st0" d="M319.9,84.6c-17.1,17.1-17.1,44.9,0,62c8.3,8.3,19.3,12.8,31,12.8s22.7-4.6,31-12.8s12.8-19.3,12.8-31
		s-4.5-22.7-12.8-31C364.8,67.5,337,67.5,319.9,84.6z M366.9,99.6c8.8,8.8,8.8,23.2,0,32c-4.3,4.3-10,6.6-16,6.6s-11.7-2.4-16-6.6
		c-8.8-8.8-8.8-23.2,0-32c4.3-4.3,9.9-6.6,16-6.6S362.6,95.3,366.9,99.6z"/>
</g>
</svg>
