<?xml version="1.0" encoding="utf-8"?>
<!-- Generator: Adobe Illustrator 26.0.1, SVG Export Plug-In . SVG Version: 6.00 Build 0)  -->
<svg version="1.1" id="Layer_1" xmlns="http://www.w3.org/2000/svg" xmlns:xlink="http://www.w3.org/1999/xlink" x="0px" y="0px"
	 viewBox="0 0 469 431.2" style="enable-background:new 0 0 469 431.2;" xml:space="preserve">
<style type="text/css">
	.st0{fill:#2BB018;}
</style>
<g>
	<path class="st0" d="M377,148.3c-3.3,4.9-2,11.6,3,14.9l32.7,21.9c4,2.7,6.7,6.8,7.7,11.5c0.9,4.7,0,9.6-2.7,13.6l-16,23.9
		c-1.6,2.4-2.2,5.2-1.6,8s2.2,5.2,4.6,6.8c1.8,1.2,3.9,1.8,5.9,1.8c3.5,0,6.9-1.7,8.9-4.8l16-23.9c12.1-18.1,7.2-42.7-10.9-54.8
		l-32.7-21.9C386.9,142.1,380.2,143.4,377,148.3z"/>
	<path class="st0" d="M468.8,373.9c-0.6-2.8-2.2-5.2-4.6-6.8L366,301.4l54.6-10.8c2.8-0.6,5.2-2.2,6.8-4.6c1.6-2.4,2.2-5.2,1.6-8.1
		c-0.6-2.8-2.2-5.2-4.6-6.8c-2.4-1.6-5.2-2.2-8-1.6l-80.4,16l0,0c-0.2,0-0.4,0.1-0.6,0.2l-0.2,0.1c-0.3,0.1-0.5,0.2-0.8,0.3
		l-0.2,0.1c-1.9,0.8-3.5,2.1-4.6,3.8c-1.6,2.4-2.2,5.4-1.5,8.3l15.8,79.7c0.6,2.8,2.2,5.2,4.6,6.8c2.4,1.6,5.2,2.2,8,1.6
		c5.8-1.1,9.6-6.8,8.4-12.6l-10.8-54.6l98.3,65.7c1.8,1.2,3.9,1.8,5.9,1.8c3.5,0,6.9-1.7,8.9-4.8
		C468.8,379.6,469.3,376.7,468.8,373.9z"/>
	<path class="st0" d="M320.4,374.9c-4.9-3.3-11.6-2-14.9,2.9l-16,23.9c-5.5,8.3-16.8,10.5-25.1,5l-208-139.1
		c-4-2.7-6.7-6.8-7.7-11.5c-0.9-4.7,0-9.6,2.7-13.6l16-23.9c3.3-4.9,2-11.6-3-14.9c-2.4-1.6-5.2-2.2-8-1.6c-2.8,0.6-5.2,2.2-6.8,4.6
		l-16,23.9c-12.1,18.1-7.2,42.7,10.9,54.8l208.1,139.1c6.6,4.4,14.1,6.7,21.9,6.7c2.6,0,5.2-0.3,7.8-0.8c10.4-2.1,19.3-8,25.2-16.8
		l16-23.9c1.6-2.4,2.2-5.2,1.6-8C324.4,378.9,322.8,376.5,320.4,374.9z"/>
	<path class="st0" d="M148.6,77.8c1.8,1.2,3.8,1.8,5.9,1.8c0.7,0,1.4-0.1,2.1-0.2c2.8-0.6,5.2-2.2,6.8-4.6l16-23.9
		c5.5-8.3,16.8-10.5,25.1-5l32.2,21.5c2.4,1.6,5.2,2.2,8,1.6s5.2-2.2,6.8-4.6s2.2-5.2,1.6-8c-0.6-2.8-2.2-5.2-4.6-6.8l-32.2-21.5
		C198.4,16,173.8,20.9,161.7,39l-16,23.9c-1.6,2.4-2.2,5.2-1.6,8C144.6,73.8,146.2,76.2,148.6,77.8z"/>
	<path class="st0" d="M48.5,162.2c-5.8,1.1-9.6,6.8-8.4,12.6c0.6,2.8,2.2,5.2,4.6,6.8c1.8,1.2,3.8,1.8,5.9,1.8
		c0.7,0,1.4-0.1,2.1-0.2l79.9-15.9h0.1l0,0h0.2c0.3-0.1,0.5-0.1,0.8-0.2l0.2-0.1c0.3-0.1,0.5-0.2,0.9-0.3l0.1-0.1
		c1.9-0.8,3.5-2.2,4.6-3.9c1.6-2.4,2.2-5.4,1.5-8.3l-15.8-79.7c-1.2-5.8-6.8-9.6-12.6-8.4c-2.8,0.6-5.2,2.2-6.8,4.6
		c-1.6,2.4-2.2,5.2-1.6,8l10.8,54.6L16.7,67.8c-2.4-1.6-5.2-2.2-8-1.6s-5.2,2.2-6.8,4.6s-2.2,5.2-1.6,8s2.2,5.2,4.6,6.8l98.3,65.7
		L48.5,162.2z"/>
	<path class="st0" d="M287.7,132.2v0.7l0.2,0.4c0,0.1,0.1,0.2,0.1,0.3l0.1,0.2c0.1,0.3,0.2,0.5,0.3,0.7l0.1,0.2
		c0.8,1.9,2.1,3.5,3.8,4.6c1.8,1.2,3.8,1.8,6,1.8c0.8,0,1.6-0.1,2.3-0.3l79.7-15.8c5.8-1.2,9.6-6.8,8.4-12.6
		c-1.1-5.8-6.8-9.6-12.6-8.4l-54.6,10.8l65.7-98.2c1.6-2.4,2.2-5.2,1.6-8s-2.2-5.2-4.6-6.8s-5.2-2.2-8-1.6s-5.2,2.2-6.8,4.6
		L303.7,103l-10.8-54.6c-0.6-2.8-2.2-5.2-4.6-6.8s-5.2-2.2-8.1-1.6c-2.8,0.6-5.2,2.2-6.8,4.6c-1.6,2.4-2.2,5.2-1.6,8L287.7,132.2z"
		/>
</g>
</svg>
