<?xml version="1.0" encoding="utf-8"?>
<!-- Generator: Adobe Illustrator 26.0.1, SVG Export Plug-In . SVG Version: 6.00 Build 0)  -->
<svg version="1.1" id="Layer_1" xmlns="http://www.w3.org/2000/svg" xmlns:xlink="http://www.w3.org/1999/xlink" x="0px" y="0px"
	 viewBox="0 0 289.9 457.6" style="enable-background:new 0 0 289.9 457.6;" xml:space="preserve">
<style type="text/css">
	.st0{fill:#2BB018;}
</style>
<g>
	<path class="st0" d="M255.3,0H34.6C15.5,0,0,15.5,0,34.6V423c0,19.1,15.5,34.6,34.6,34.6h220.6c19.1,0,34.6-15.5,34.6-34.6V34.6
		C289.9,15.5,274.4,0,255.3,0z M268.7,34.6V423c0,7.4-6,13.4-13.4,13.4H34.6c-7.4,0-13.4-6-13.4-13.4V34.6c0-7.4,6-13.4,13.4-13.4
		h220.6C262.7,21.2,268.7,27.2,268.7,34.6z"/>
	<path class="st0" d="M241.9,249.2V202c0-2.8-1.1-5.5-3.1-7.5s-4.7-3.1-7.5-3.1H58.7c-5.9,0-10.6,4.8-10.6,10.6v47.2
		c0,5.9,4.8,10.6,10.6,10.6h172.6C237.1,259.8,241.9,255,241.9,249.2z M220.7,212.5v26h-17.6l7.2-26H220.7z M188.3,212.5l-7.2,26
		h-41.5l7.2-26H188.3z M124.7,212.5l-7.2,26h-10.8l7.2-26H124.7z M91.8,212.5l-7.2,26H69.3v-26H91.8z"/>
	<path class="st0" d="M145,176.7c39.1,0,70.9-31.8,70.9-70.9C215.8,66.7,184,35,145,35s-70.9,31.8-70.9,70.9
		C74.1,144.9,105.9,176.7,145,176.7z M95.3,105.8c0-27.4,22.3-49.6,49.6-49.6s49.6,22.3,49.6,49.6c0,27.4-22.3,49.6-49.6,49.6
		S95.3,133.2,95.3,105.8z"/>
	<path class="st0" d="M145,148.2c23.4,0,42.4-19,42.4-42.4s-19-42.4-42.4-42.4s-42.4,19-42.4,42.4S121.6,148.2,145,148.2z
		 M123.8,105.8c0-11.7,9.5-21.1,21.1-21.1c11.7,0,21.1,9.5,21.1,21.1c0,11.7-9.5,21.1-21.1,21.1C133.3,127,123.8,117.5,123.8,105.8z
		"/>
	<path class="st0" d="M145.7,282.8l-0.1-0.1l-0.1-0.1c-4.1-2.7-9.8-2.1-13.2,1.4c-2.9,2.9-3.9,7.3-2.5,11.2c1.5,4.1,5.6,7,10,7
		c0.1,0,0.2,0,0.3,0c4.5-0.1,8.5-3.1,9.8-7.4C151.2,290.3,149.5,285.4,145.7,282.8z"/>
	<path class="st0" d="M149.5,316.9C149.5,316.9,149.5,316.8,149.5,316.9l-0.1-0.1l0,0c-1.7-4-5.7-6.6-10.1-6.5
		c-4.4,0.1-8.4,3-9.8,7.3c-1.4,4.2,0,9,3.5,11.7c1.9,1.5,4.2,2.2,6.5,2.2c2,0,4.1-0.6,5.9-1.8C149.7,327,151.3,321.6,149.5,316.9z"
		/>
	<path class="st0" d="M149.5,346.1L149.5,346.1c-1.6-3.9-5.4-6.4-9.5-6.5c-4.6-0.1-8.7,2.7-10.2,7s-0.1,9.2,3.5,11.9
		c1.9,1.5,4.2,2.2,6.5,2.2c2.2,0,4.4-0.7,6.2-2C149.8,356,151.3,350.7,149.5,346.1C149.5,346.2,149.5,346.1,149.5,346.1L149.5,346.1
		z"/>
	<path class="st0" d="M145.7,370.7l-0.1-0.1c-0.1,0-0.1-0.1-0.2-0.1c-4-2.6-9.4-2.1-12.9,1.1c-3,2.8-4.2,7.1-2.9,11
		c1.4,4.4,5.5,7.4,10.1,7.4c0.1,0,0.2,0,0.3,0c4.5-0.1,8.5-3.1,9.8-7.4C151.2,378.3,149.5,373.3,145.7,370.7z"/>
	<path class="st0" d="M99.5,299.5c2,1.7,4.5,2.6,6.9,2.6c1.8,0,3.5-0.4,5.1-1.4c4.6-2.6,6.6-8.5,4.6-13.3c-1.7-4-5.7-6.6-10.1-6.4
		c-4.5,0.1-8.2,2.8-9.7,6.9C94.8,292.1,96.1,296.6,99.5,299.5z"/>
	<path class="st0" d="M116.1,316.8L116.1,316.8c0-0.1-0.1-0.1-0.1-0.2l0,0l0,0c-0.5-1.2-1.3-2.3-2.3-3.3c-4.2-4.1-10.9-4.1-15,0
		c-3.7,3.7-4.1,9.9-0.8,14.1c2,2.6,5.2,4,8.4,4c1.6,0,3.2-0.3,4.6-1.1C115.9,327.9,118.2,321.9,116.1,316.8
		C116.1,316.9,116.1,316.9,116.1,316.8L116.1,316.8L116.1,316.8z"/>
	<path class="st0" d="M116.1,346.2L116.1,346.2L116.1,346.2v-0.1V346l0,0l0,0c-0.5-1.2-1.3-2.3-2.3-3.3c-4.2-4.1-10.9-4.1-15,0
		c-3.6,3.6-4.1,9.5-1.1,13.7c2,2.8,5.3,4.3,8.7,4.3c1.7,0,3.4-0.4,5-1.2C116.1,356.9,118.1,351.1,116.1,346.2L116.1,346.2z"/>
	<path class="st0" d="M116.1,375.5L116.1,375.5c0-0.1,0-0.1,0-0.1l0,0l0,0l0,0c-1.7-4-5.4-6.4-9.8-6.4l0,0c-4.4,0-8.1,2.5-9.7,6.4
		c-1.7,4.2-0.6,9.2,2.9,12.1c2,1.7,4.4,2.6,6.9,2.6c1.8,0,3.6-0.5,5.2-1.4C116.1,386.1,118.1,380.4,116.1,375.5L116.1,375.5z"/>
	<path class="st0" d="M75,281.2c-3.5-0.7-7.1,0.3-9.6,2.8c-2.7,2.8-3.7,6.6-2.6,10.4c1,3.7,3.9,6.5,7.5,7.4c0.8,0.2,1.7,0.3,2.5,0.3
		c3,0,5.9-1.3,8-3.8c2.7-3.1,3.3-7.3,1.8-10.9C81.3,284.2,78.5,281.9,75,281.2z"/>
	<path class="st0" d="M82.7,316.8c-1.4-3.2-4.2-5.6-7.7-6.3c-3.5-0.7-7.1,0.3-9.6,2.8c-2.7,2.8-3.6,6.6-2.6,10.4
		c1,3.7,3.9,6.5,7.5,7.4c0.8,0.2,1.7,0.3,2.6,0.3c3,0,5.9-1.3,8-3.8C83.5,324.6,84.2,320.4,82.7,316.8L82.7,316.8z"/>
	<path class="st0" d="M82.7,346.2L82.7,346.2v-0.1V346l0,0l0,0c-1.4-3.1-4.2-5.4-7.6-6.1c-3.5-0.7-7.1,0.3-9.7,2.8
		c-2.7,2.8-3.7,6.9-2.5,10.6c1.2,3.8,4.1,6.5,8,7.3c0.7,0.1,1.4,0.2,2.1,0.2c3.1,0,6.1-1.4,8.2-3.9
		C83.5,353.8,84.2,349.7,82.7,346.2L82.7,346.2z"/>
	<path class="st0" d="M82.7,375.5L82.7,375.5v-0.1v-0.1l0,0l0,0c-1.7-3.9-5.4-6.3-9.7-6.3h-0.1c-4.4,0.1-8.2,2.7-9.8,6.7
		c-1.6,4.2-0.4,8.9,3,11.9c2,1.7,4.4,2.6,6.9,2.6c1.8,0,3.6-0.5,5.2-1.4C82.7,386.1,84.7,380.3,82.7,375.5L82.7,375.5z"/>
	<path class="st0" d="M211.7,329.8c-16.6,0-30.2,13.5-30.2,30.2c0,16.6,13.5,30.2,30.2,30.2s30.2-13.5,30.2-30.2
		S228.4,329.8,211.7,329.8z M220.7,359.9c0,4.9-4,8.9-8.9,8.9s-8.9-4-8.9-8.9s4-8.9,8.9-8.9S220.7,355,220.7,359.9z"/>
</g>
</svg>
