<?xml version="1.0" encoding="utf-8"?>
<!-- Generator: Adobe Illustrator 26.0.1, SVG Export Plug-In . SVG Version: 6.00 Build 0)  -->
<svg version="1.1" id="Layer_1" xmlns="http://www.w3.org/2000/svg" xmlns:xlink="http://www.w3.org/1999/xlink" x="0px" y="0px"
	 viewBox="0 0 458 456" style="enable-background:new 0 0 458 456;" xml:space="preserve">
<style type="text/css">
	.st0{fill:#2BB018;}
</style>
<g>
	<path class="st0" d="M426.2,0H31.8C14.3,0,0,14.3,0,31.8v61.7v9.1v321.6C0,441.7,14.3,456,31.8,456h369.7h9.1h15.5
		c17.5,0,31.8-14.3,31.8-31.8V31.8C458,14.3,443.7,0,426.2,0z M181.7,434.7H73.6V104.3c0-1.4,1.2-2.6,2.6-2.6h105.5V434.7z
		 M311,434.7H203v-333h105.5c1.4,0,2.6,1.2,2.6,2.6v330.4H311z M436.7,424.2c0,5.8-4.7,10.5-10.5,10.5h-15.5h-9.1h-69.2V104.3
		c0-13.2-10.7-23.9-23.9-23.9H76.2c-13.2,0-23.9,10.7-23.9,23.9v330.5H31.8c-5.8,0-10.5-4.7-10.5-10.5V102.7v-9.1V31.8
		c0-5.8,4.7-10.5,10.5-10.5h394.4c5.8,0,10.5,4.7,10.5,10.5L436.7,424.2L436.7,424.2z"/>
	<path class="st0" d="M273.4,29H111.2c-8.3,0-15,5.4-15,12.1V60c0,6.7,6.7,12.1,15,12.1h162.2c8.3,0,15-5.4,15-12.1V41.1
		C288.5,34.4,281.7,29,273.4,29z M267.2,55H117.4v-8.9h149.8V55z"/>
	<path class="st0" d="M398.1,177.5c-2.5-4.3-7-6.9-12-6.9c-4.9,0-9.5,2.6-12,6.9l-20.4,35.4c-2.5,4.3-2.5,9.6,0,13.8
		c2.5,4.3,7,6.9,12,6.9h40.8c4.9,0,9.5-2.6,12-6.9c2.5-4.3,2.5-9.6,0-13.8L398.1,177.5z M378.6,212.3l7.5-13l7.5,13H378.6z"/>
	<path class="st0" d="M406.5,257.6h-40.8c-4.9,0-9.5,2.6-12,6.9s-2.5,9.6,0,13.8l20.4,35.4c2.5,4.3,7,6.9,12,6.9
		c4.9,0,9.5-2.6,12-6.9l20.4-35.4c2.5-4.3,2.5-9.6,0-13.8C416,260.2,411.4,257.6,406.5,257.6z M386.1,291.8l-7.5-13h15L386.1,291.8z
		"/>
</g>
</svg>
