<?xml version="1.0" encoding="utf-8"?>
<!-- Generator: Adobe Illustrator 26.0.1, SVG Export Plug-In . SVG Version: 6.00 Build 0)  -->
<svg version="1.1" id="Layer_1" xmlns="http://www.w3.org/2000/svg" xmlns:xlink="http://www.w3.org/1999/xlink" x="0px" y="0px"
	 viewBox="0 0 458 458" style="enable-background:new 0 0 458 458;" xml:space="preserve">
<style type="text/css">
	.st0{fill:#2BB018;}
</style>
<g>
	<path class="st0" d="M444.9,435.2h-99.4c5.9-5.1,10.9-11,15-17.7c7.9-1.8,14.1-5.2,14.3-5.3c12-6.2,22.1-15.6,29.1-27.2
		c0.5-0.1,1.1-0.2,1.6-0.3c30.9-9.1,52.5-37.9,52.5-70.1c0-32.3-21.5-61.1-52.3-70.2c-2.2-0.7-4.4-1.2-6.5-1.6
		c-2.8-0.5-5.7,0.1-8.1,1.7c-2.4,1.6-4,4.1-4.6,7c-0.5,2.9,0.1,5.7,1.7,8.1s4.1,4,6.9,4.5c1.4,0.3,2.7,0.6,4.2,1.1
		c21.7,6.4,36.9,26.7,36.9,49.4c0,17-8.5,32.8-22.6,42.3c0.5-3.4,0.8-6.6,0.8-9.7c0-27.6-15.2-52.5-39.8-65.2
		c-6-3-12.3-5.2-18.7-6.6c-2.8-0.6-5.7-0.1-8.1,1.4c-2.5,1.6-4.2,4.1-4.8,6.9c-0.6,2.8-0.1,5.7,1.5,8.2c1.6,2.4,4,4.1,6.8,4.7
		c4.6,1,9.1,2.6,13.4,4.7c17.2,8.8,27.9,26.4,27.9,45.8c0,17.2-8.3,32.7-22.5,42.4c0.4-3.2,0.6-6.5,0.6-9.7
		c0-34.7-24.6-64.9-58.6-71.8c-5.9-1.1-11.6,2.7-12.8,8.5c-1.2,5.9,2.6,11.6,8.5,12.8c23.9,4.8,41.2,26.1,41.2,50.5
		c0,28.4-23.1,51.5-51.5,51.5S246,408.2,246,379.8c0-16.5,7.9-31.9,21.2-41.6l20.4,46c1.7,3.9,5.6,6.4,9.9,6.4c1.5,0,3-0.3,4.4-0.9
		c2.6-1.2,4.7-3.3,5.7-6s1-5.7-0.2-8.3l-49-110.2v-22.6c0-7.8,6.3-14.1,14.1-14.1h25c7.8,0,14.1,6.3,14.1,14.1c0,3.8-1.5,7.3-4.1,10
		c-2.6,2.6-6.3,4.1-10,4.1H285c-6,0-10.8,4.9-10.8,10.8c0,6,4.9,10.8,10.8,10.8h12.5c9.4,0,18.6-3.8,25.3-10.5
		c5.9-5.9,9.5-13.7,10.3-22.1h8c9.4,0,18.6-3.8,25.3-10.5c5.8-5.8,9.5-13.8,10.2-22.2h8c9.4,0,18.6-3.8,25.3-10.5
		c6.6-6.7,10.5-15.9,10.5-25.4c0-19.7-16-35.8-35.8-35.8h-25c-18.4,0-33.9,14.4-35.5,32.6h-8c-18.4,0-33.9,14.4-35.5,32.6h-7.9
		c-19.7,0-35.8,16.1-35.8,35.8v14.1H134v-15.7h26.6c6,0,10.8-4.9,10.8-10.8s-4.9-10.8-10.8-10.8H98.2c-6,0-10.8,4.9-10.8,10.8
		s4.9,10.8,10.8,10.8h14.1V265l-19.6,44c-4.4-1.2-9.1-2-13.9-2.4V171.3h23.4c18.6,0,33.7-15.1,33.7-33.7V34.8
		c0-18.6-15.1-33.7-33.7-33.7H33.7C15.1,1.1,0,16.3,0,34.8v102.8c0,18.6,15.1,33.7,33.7,33.7h23.4c0.1,104.8,0.2,130.6,0.2,137
		C24,315.7,0,345.4,0,379.8c0,21.3,9.4,41.5,25.5,55.4H10.8C4.9,435.2,0,440,0,446s4.9,10.8,10.8,10.8h434c6,0,10.8-4.9,10.8-10.8
		C455.7,440,450.8,435.2,444.9,435.2z M21.7,34.8c0-6.6,5.4-12,12-12h68.5c6.6,0,12,5.4,12,12v102.8c0,6.6-5.4,12-12,12H33.7
		c-6.6,0-12-5.4-12-12V34.8z M123.4,368.9H89.9l13.6-30.7C113.7,345.6,120.8,356.6,123.4,368.9z M145.6,368.9
		c-3.1-21-15.1-39.3-33.1-50.8l11.7-26.3l42.9,77.2h-21.5V368.9z M145.6,390.6h39.9c3.8,0,7.4-2.1,9.4-5.4c0.3-0.6,0.4-1.1,0.5-1.4
		l0,0l51.4-92.1l11.8,26.4c-21.3,13.5-34,36.4-34,61.6c0,21.3,9.4,41.5,25.5,55.4H120.9C134.2,423.7,143,407.9,145.6,390.6z
		 M185.3,357.2l-43.8-78.8h87.9L185.3,357.2z M73.2,328.2c3.3,0,6.7,0.4,10.5,1.3l-20.4,45.9c-1.5,3.4-1.2,7.2,0.8,10.3
		c2,3.1,5.4,4.9,9.1,4.9h50.2c-5.1,23.7-25.8,40.7-50.2,40.7c-28.4,0-51.5-23.1-51.5-51.5C21.7,351.3,44.8,328.2,73.2,328.2z
		 M346,174.6c1.2-6.5,6.9-11.4,13.8-11.4h25c7.8,0,14.1,6.3,14.1,14.1c0,3.8-1.5,7.4-4.1,10.1c-2.6,2.6-6.2,4.1-10,4.1
		c-7.5,0.1-11.1,0.2-12.9,0.3C366.3,182.3,356.8,176,346,174.6z M355.4,209.9c0,3.8-1.5,7.4-4.1,10.1c-2.6,2.6-6.2,4.1-10,4.1
		c-7.5,0.1-11.1,0.2-12.9,0.3c-5.6-9.4-15.1-15.7-25.9-17.1c1.2-6.5,6.9-11.4,13.8-11.4h25C349.1,195.8,355.4,202.1,355.4,209.9z"/>
	<path class="st0" d="M54.4,133.2c6,0,10.8-4.9,10.8-10.8v-21c8.3-1.1,15.9-5.5,20.9-12.3c6-8,7.7-18.2,4.7-28.1
		C87,48.2,74.3,39.3,60,39.3c-9.1,0-16.6,7.4-16.6,16.6v66.4C43.6,128.3,48.4,133.2,54.4,133.2z M65.3,79V62.1
		c2.4,1.1,4.2,3,4.9,5.1c1,3.2,0.5,6.4-1.4,8.9l0,0C67.8,77.4,66.6,78.3,65.3,79z"/>
</g>
</svg>
