<?xml version="1.0" encoding="utf-8"?>
<!-- Generator: Adobe Illustrator 26.0.1, SVG Export Plug-In . SVG Version: 6.00 Build 0)  -->
<svg version="1.1" id="Layer_1" xmlns="http://www.w3.org/2000/svg" xmlns:xlink="http://www.w3.org/1999/xlink" x="0px" y="0px"
	 viewBox="0 0 458 458" style="enable-background:new 0 0 458 458;" xml:space="preserve">
<style type="text/css">
	.st0{fill:#2BB018;}
</style>
<g>
	<path class="st0" d="M332.9,206.8L332.9,206.8c-3.8,0-7.6,0.3-11.3,1l-20.9-62.3c21.7-1,28.2-16.2,28.7-24.1
		c0.3-5.8-4.1-10.7-9.9-11.1c-2.8-0.2-5.5,0.8-7.6,2.7c-2.1,1.9-3.3,4.4-3.5,7.2c-0.1,0.3-0.8,4.1-9.1,4.4
		c-6.2,0.2-12.2,0.2-12.9,0.2h-0.1c-2.8,0-5.4,1-7.4,3c-2,2-3.1,4.6-3.1,7.4c0,1.2,0.2,2.3,0.5,3.4l5.4,16.2l-87,0.5l-2.5-8.1h11.3
		c5.8,0,10.5-4.7,10.5-10.5s-4.7-10.5-10.5-10.5h-47.3c-5.8,0-10.5,4.7-10.5,10.5s4.7,10.5,10.5,10.5h14.1l5.3,17.3l-26.4,46.8
		c-34.1-12.8-72.6,4-86.3,38c-14,34.5,2.8,74,37.3,87.9c8.3,3.3,16.8,4.9,25.2,4.9c26.7,0,52.1-16,62.7-42.2
		c1.9-4.8,3.3-9.7,4.1-14.8h27.9l0,0c2.9,0,5.8-1.2,7.7-3.4l70.4-77.3l3.5,10.4c-32.2,16.9-45.3,56.6-29.2,89.4
		c7.9,16.2,21.7,28.2,38.7,34s35.3,4.6,51.5-3.3c33.3-16.4,47.1-56.9,30.7-90.2c-11.3-22.9-35-37.7-60.5-37.7
		C333,206.8,332.9,206.8,332.9,206.8z M336.2,284.3c5.5-1.8,8.4-7.8,6.6-13.3l-14.4-43c1.5-0.2,3-0.2,4.5-0.3
		c25.7,0,46.6,20.9,46.6,46.6c0,25.5-20.5,46.2-45.9,46.6H333c-25.7,0-46.5-20.9-46.5-46.6c0-16.2,8.4-31.2,22.1-39.6l14.4,43
		C324.8,283.1,330.7,286.1,336.2,284.3z M116.4,269.2c-2.8,5-1,11.5,4,14.3c1.6,0.9,3.3,1.4,5.1,1.4l0,0h45.3
		c-4.9,21-23.6,36-45.3,36.1l0,0c-0.1,0-0.1,0-0.2,0c-12.4,0-24-4.8-32.8-13.5c-8.8-8.8-13.7-20.4-13.8-32.9
		c0-12.4,4.7-24.1,13.5-33s20.4-13.7,32.9-13.8c0.1,0,0.1,0,0.2,0c4.5,0,9,0.6,13.3,1.9L116.4,269.2z M170.9,263.8h-27.4L157,240
		C163.9,246.3,168.8,254.7,170.9,263.8z M184,192l22,71.8h-13.8c-2.6-16.7-11.6-31.9-24.8-42.4L184,192z M290.6,181.4l-65.8,72.2
		L201,176.1l87.6-0.5L290.6,181.4z"/>
	<path class="st0" d="M390.9,67.1C347.6,23.9,290.1,0.1,229,0l0,0C167.8,0,110.3,23.8,67.1,67.1S0,167.8,0,229
		s23.8,118.7,67.1,161.9S167.8,458,229,458s118.7-23.8,161.9-67.1S458,290.2,458,229C457.9,167.9,434.1,110.4,390.9,67.1z M437,229
		c-0.1,114.6-93.4,207.9-208,208c-114.7,0-208-93.3-208-208S114.3,21,229,21S437,114.3,437,229z"/>
</g>
</svg>
