<?xml version="1.0" encoding="utf-8"?>
<!-- Generator: Adobe Illustrator 26.0.1, SVG Export Plug-In . SVG Version: 6.00 Build 0)  -->
<svg version="1.1" id="Layer_1" xmlns="http://www.w3.org/2000/svg" xmlns:xlink="http://www.w3.org/1999/xlink" x="0px" y="0px"
	 viewBox="0 0 458 359.2" style="enable-background:new 0 0 458 359.2;" xml:space="preserve">
<style type="text/css">
	.st0{fill:#2BB018;}
</style>
<path class="st0" d="M447.4,338.2h-3.5v-24.7c0-8.5-6.1-15.6-14.1-17.2v-39.1c0-9.7-7.9-17.6-17.6-17.6H310v-34.4l18.1-18.1
	c4.1-4.1,4.1-10.8,0-14.9c-2-2-4.6-3.1-7.5-3.1s-5.5,1.1-7.5,3.1l-3.1,3.1v-16.8c0-5.8-4.7-10.6-10.5-10.6s-10.6,4.7-10.6,10.6v52
	c-32-5.1-56.4-33.4-56.4-66.1c0-36.9,30-67,67-67c36.9,0,67,30,67,67c0,13.7-4.1,27-11.9,38.2c-7.6,11-18.3,19.4-30.7,24.2
	c-5.4,2.1-8.1,8.2-6,13.7c2.1,5.4,8.2,8.1,13.7,6c16.3-6.4,30.3-17.4,40.3-31.8c10.3-14.8,15.7-32.2,15.7-50.2
	c0-48.6-39.5-88.1-88.1-88.1s-88.1,39.5-88.1,88.1c0,22.3,8.4,43.6,23.6,59.9c14.3,15.4,33.3,25,53.9,27.5v7.7h-74
	c-9.7,0-17.6,7.9-17.6,17.6v39.1c-8,1.6-14.1,8.7-14.1,17.2v24.7h-8.3c-4.8-20.3-23.4-35.2-44.5-35.2c-2.8,0-5.7,0.3-8.5,0.8
	c-0.4,0.1-1.4-0.1-2.5-1c-2.1-1.7-4.3-3.3-6.6-4.8v-37.9c47.7-5.3,84.6-46.1,84.6-94.5c0-16.4-4.3-32.6-12.3-46.8
	c-3.7-6.6-4.9-14.2-3.3-22c1.3-6.5,1.8-13.1,1.5-19.8c-1-20.3-9.8-39.5-24.8-54S124,0.3,103.7,0C81.5-0.4,60.9,7.9,45.3,23.2
	C29.7,38.6,21.1,59.1,21.1,80.9c0,5.9,0.7,11.8,2,17.6c1.5,6.6,0.6,13-2.6,18.3c-9.6,16.1-14.3,34.5-13.4,53.4
	c1.8,37.8,27.2,71.9,63.2,84.9c5.5,2,11.5-0.9,13.5-6.3c2-5.5-0.9-11.5-6.3-13.5c-28.1-10.2-47.9-36.7-49.3-66.1
	c-0.7-14.6,2.9-29,10.4-41.5c5.9-9.9,7.7-21.9,5.1-33.7c-1-4.2-1.4-8.6-1.4-13c0-16.2,6.3-31.3,17.9-42.7
	C71.7,27,87,20.8,103.2,21.1c30.9,0.5,57.4,26,58.9,56.9c0.2,4.9-0.1,9.8-1.1,14.6c-2.5,12.7-0.5,25.7,5.7,36.6
	c6.3,11,9.6,23.6,9.6,36.3c0,36.7-27.5,68.1-63.5,73.3v-59.2c0-5.8-4.7-10.6-10.6-10.6c-5.8,0-10.6,4.7-10.6,10.6v110.2
	c-3.5-0.6-7-1-10.6-1c-29.2,0-53.9,21-58.9,49.3H10.6c-5.8,0-10.6,4.7-10.6,10.5s4.7,10.6,10.6,10.6h436.9c5.8,0,10.6-4.7,10.6-10.6
	C458,342.9,453.3,338.2,447.4,338.2z M43.7,338.2c4.7-16.4,20-28.2,37.3-28.2c3.6,0,7.1,0.5,10.6,1.5v26.7H43.7z M112.7,338.2v-15
	c4.3,1.7,8.8,2.2,13.2,1.4c1.5-0.3,3-0.4,4.4-0.4c9.7,0,18.3,5.6,22.3,14.1h-39.9V338.2z M218.4,267.7v-7.1h190.3v7.1H218.4z
	 M408.7,288.8v7.1H310v-7.1H408.7z M310,338.2V317h112.8v21.2H310z M218.4,295.9v-7.1h70.5v7.1H218.4z M204.3,338.2V317h84.6v21.2
	H204.3z"/>
</svg>
