<?xml version="1.0" encoding="utf-8"?>
<!-- Generator: Adobe Illustrator 26.0.1, SVG Export Plug-In . SVG Version: 6.00 Build 0)  -->
<svg version="1.1" id="Layer_1" xmlns="http://www.w3.org/2000/svg" xmlns:xlink="http://www.w3.org/1999/xlink" x="0px" y="0px"
	 viewBox="0 0 458 458" style="enable-background:new 0 0 458 458;" xml:space="preserve">
<style type="text/css">
	.st0{fill:#2BB018;}
</style>
<g>
	<path class="st0" d="M457.5,387.6c-1.8-8.6-9-17.2-21.1-17.2c-38.7,0-46.3-22-59-58.6c-0.4-1.1-0.8-2.2-1.1-3.4
		c-5.2-15.4-13.1-38.6-31.4-58.2c-21.2-22.7-51.7-35.3-90.8-37.5c0-45.5,0-49.5,0-53.3c0-3.5,0-6.8,0-40.7h29.2
		c5.8,0,10.5-4.8,10.5-10.6c0-3.3-1.6-6.4-4.2-8.4l-96.4-71.9c-16.9-12.5-39.6-12.5-56.6,0L40.3,99.9c-2.3,1.7-3.7,4.2-4.1,6.9
		c-0.4,2.8,0.3,5.6,2,7.8c2,2.6,5.1,4.2,8.4,4.2h29.2c0,107,0,170.7,0,193.6v6H53.5c-5.8,0-10.5,4.7-10.5,10.5v22.8H32
		c-5.8,0-10.5,4.7-10.5,10.5V385h-11C4.7,385,0,389.7,0,395.5v33.3c0,5.8,4.7,10.5,10.5,10.5h119.2c5.8,0,10.5-4.7,10.5-10.5V379
		c0-16.8,12.8-24.5,24.7-24.5s24.7,7.7,24.7,24.5v49.8c0,5.8,4.7,10.5,10.5,10.5H276c5.8,0,10.5-4.7,10.5-10.5v-55.6
		c0-11.8,9-17.2,17.3-17.2s17.3,5.4,17.3,17.2V428c0,0.3,0,0.6,0,0.9c0,5.8,4.7,10.5,10.5,10.5h104.8c5.8,0,10.5-4.7,10.5-10.5v-18
		C456.5,405.7,459.2,395.7,457.5,387.6z M75.8,418.4H21v-12.3h11c5.8,0,10.5-4.7,10.5-10.5v-22.8h11c5.8,0,10.5-4.7,10.5-10.5v-22.8
		h11.8V418.4z M149.3,44.8c9.4-6.9,22-6.9,31.4,0l71,52.9H78.3L149.3,44.8z M233.1,169.8V283H96.9V169.8H233.1z M96.9,148.7v-29.9
		H108v29.9H96.9z M200.9,148.7H129v-29.9h71.9V148.7z M233.1,418.4h-22.4v-39.3c0-14-5-25.7-14.4-34c-8.3-7.3-19.4-11.3-31.4-11.3
		c-11.9,0-23.1,4-31.4,11.3c-9.4,8.3-14.4,20.1-14.4,34v39.3H96.9V304h136.2V418.4z M233.1,148.7H222v-29.9h11.1V148.7z
		 M425.9,418.4h-83.7v-45.1c0-25-19.3-38.1-38.4-38.1s-38.4,13.1-38.4,38.1v45.1h-11.3c0-73.6,0-125.6,0-150.5v-11.8
		c60.1,4.4,71.8,38.4,81.2,65.9c0.5,1.4,0.9,2.7,1.4,4c5.9,17,13.2,38.2,26.8,55.2c15.4,19.2,35.8,29.7,62.4,31.9V418.4z
		 M436.5,395.8c-56.8,0-70.7-40.2-83.1-76.3c-10.1-29.1-23.5-77.7-102.5-81.5v-7.5c84.7,3.9,99.5,57.5,109.8,87.2
		c12.5,36.3,24.4,70.6,75.8,70.6C441.5,388.3,441.5,395.8,436.5,395.8z"/>
	<path class="st0" d="M165,276L165,276c27.4,0,49.7-22.3,49.7-49.7s-22.3-49.7-49.7-49.7s-49.7,22.3-49.7,49.7
		C115.4,253.7,137.6,276,165,276z M165,197.7c15.8,0,28.6,12.8,28.6,28.6s-12.8,28.6-28.6,28.6s-28.6-12.8-28.6-28.6
		C136.4,210.6,149.2,197.8,165,197.7z"/>
</g>
</svg>
