<?xml version="1.0" encoding="utf-8"?>
<!-- Generator: Adobe Illustrator 26.0.1, SVG Export Plug-In . SVG Version: 6.00 Build 0)  -->
<svg version="1.1" id="Layer_1" xmlns="http://www.w3.org/2000/svg" xmlns:xlink="http://www.w3.org/1999/xlink" x="0px" y="0px"
	 viewBox="0 0 458 385.4" style="enable-background:new 0 0 458 385.4;" xml:space="preserve">
<style type="text/css">
	.st0{fill:#2BB018;}
</style>
<path class="st0" d="M447.4,364.2H445V10.6C445,4.8,440.3,0,434.4,0h-32.7c-5.8,0-10.6,4.8-10.6,10.6v16.6H256.4V10.6
	c0-5.8-4.8-10.6-10.6-10.6h-32.7c-5.8,0-10.6,4.8-10.6,10.6v16.6H67.7V10.6C67.7,4.8,63,0,57.1,0H24.4c-5.8,0-10.6,4.8-10.6,10.6
	v353.6h-3.3c-5.8,0-10.6,4.8-10.6,10.6c0,5.8,4.8,10.6,10.6,10.6h436.8c5.8,0,10.6-4.8,10.6-10.6C458,368.9,453.2,364.2,447.4,364.2
	z M423.9,21.2v343h-11.5v-343L423.9,21.2L423.9,21.2z M391.2,48.4v11.5H256.4V48.4H391.2z M323.8,138.2c-2.7-1.2-5.6-2.1-8.5-2.7
	V81.1h16.9v54.4C329.4,136.1,326.5,137,323.8,138.2z M323.8,202.8c-5.4-5.2-8.5-12.3-8.5-19.8c0-7.6,3.1-14.7,8.5-19.8
	c5.4,5.2,8.5,12.3,8.5,19.8C332.2,190.6,329.2,197.6,323.8,202.8z M344.9,210.4c5.5-8.1,8.5-17.6,8.5-27.4c0-9.9-3-19.4-8.5-27.4
	c14.2,1.1,25.4,13,25.4,27.4C370.4,197.5,359.1,209.4,344.9,210.4z M294.1,183c0,9.9,3,19.4,8.5,27.4c-14.2-1.1-25.4-13-25.4-27.4
	c0-14.5,11.2-26.4,25.4-27.4C297.1,163.6,294.1,173.1,294.1,183z M294.1,135.5c-20.1,4.5-35.3,21.5-37.8,41.8V81.1h37.8V135.5z
	 M304.7,231.7c6.6,0,13-1.3,19.1-3.9c6,2.6,12.4,3.9,19.1,3.9c24.9,0,45.4-18.7,48.3-42.8v175.3H256.4V188.8
	C259.3,212.9,279.8,231.7,304.7,231.7z M353.4,135.5V81.1h37.8v96.1C388.7,156.9,373.5,139.9,353.4,135.5z M235.2,21.2v343h-11.5
	v-343L235.2,21.2L235.2,21.2z M202.5,48.4v11.5H67.7V48.4H202.5z M202.5,81.1v26H67.7v-26H202.5z M202.5,128.3v11.5H67.7v-11.5
	H202.5z M202.5,160.9v26H67.7v-26H202.5z M202.5,208.1v11.5H67.7v-11.5H202.5z M202.5,240.8v26H67.7v-26L202.5,240.8L202.5,240.8z
	 M202.5,288v11.5H67.7V288H202.5z M202.5,320.6v43.5H67.7v-43.5H202.5z M46.5,21.2v343H35v-343L46.5,21.2L46.5,21.2z"/>
</svg>
