<?xml version="1.0" encoding="utf-8"?>
<!-- Generator: Adobe Illustrator 26.0.1, SVG Export Plug-In . SVG Version: 6.00 Build 0)  -->
<svg version="1.1" id="Layer_1" xmlns="http://www.w3.org/2000/svg" xmlns:xlink="http://www.w3.org/1999/xlink" x="0px" y="0px"
	 viewBox="0 0 458 458" style="enable-background:new 0 0 458 458;" xml:space="preserve">
<style type="text/css">
	.st0{fill:#2BB018;}
</style>
<g>
	<path class="st0" d="M418.3,118.9C418.3,118.9,418.4,118.9,418.3,118.9c2.9,0,3.1-0.2,14.5-6.8c2.8-1.6,6.4-3.7,11-6.4
		c5-2.9,6.7-9.3,3.8-14.3c-2.9-5-9.3-6.7-14.3-3.8L413,99.3c-4.2,2.4-6.1,7.1-4.9,11.8C409.4,115.8,413.4,118.9,418.3,118.9"/>
	<path class="st0" d="M413,145.5c4.5,2.6,8.1,4.7,10.9,6.3c11.4,6.6,11.7,6.8,14.6,6.8c0,0,0,0,0.1,0c4.8,0,8.9-3.1,10.1-7.8
		s-0.7-9.4-4.9-11.8l-20.3-11.7c-2.4-1.4-5.3-1.8-8-1.1c-2.7,0.7-5,2.5-6.4,4.9C406.3,136.2,408,142.6,413,145.5z"/>
	<path class="st0" d="M294.4,105.7c-0.7-2.7-2.5-5-4.9-6.4l-20.3-11.7c-2.4-1.4-5.3-1.8-8-1c-2.7,0.7-5,2.5-6.4,4.9
		c-2.9,5-1.2,11.4,3.8,14.3l20.3,11.7c1.6,0.9,3.4,1.4,5.2,1.4c0.9,0,1.8-0.1,2.7-0.4c2.7-0.7,5-2.5,6.4-4.9
		C294.7,111.2,295.1,108.4,294.4,105.7z"/>
	<path class="st0" d="M279,127.4l-20.3,11.7c-5,2.9-6.7,9.3-3.8,14.3c1.9,3.4,5.5,5.2,9.1,5.2c1.8,0,3.6-0.5,5.2-1.4l20.3-11.7
		c2.4-1.4,4.2-3.7,4.9-6.4c0.7-2.7,0.4-5.5-1-8C290.4,126.2,284,124.5,279,127.4z"/>
	<path class="st0" d="M458,436.2c0-8.2-4.7-15.7-11.9-19.4c-0.6-7.9-4.5-15.2-10.8-20.2c-6.1-4.8-13.7-6.9-21.2-6
		c-6.7-12.8-20-20.9-34.6-20.9c-6.2,0-12.2,1.4-17.7,4.2V168.5h10.9c4.6,0,8.6-2.9,10-7.3L406.9,85h5.3c5.1,0,9.4-3.1,11-8
		c1.6-4.8,0-9.8-4-12.8l-35.7-30.7V12.1C383.5,5.4,378,0,371.3,0h-40.2C324.5,0,319,5.4,319,12.1v21.4l-35.7,30.7c-4,3-5.6,8-4,12.8
		c1.6,4.9,5.9,8,11,8h5.3l24.8,76.2c1.4,4.3,5.4,7.2,10,7.2h10.3v221.8c-14,0.3-25.5,10.5-27.7,24h-24.6v-12.3H308
		c11.3,0,20.4-9.2,20.4-20.4v-22.1c0-11.3-9.2-20.4-20.4-20.4h-19.5v-34.9H308c11.3,0,20.4-9.2,20.4-20.4V214
		c0-11.3-9.2-20.4-20.4-20.4H20.4C9.2,193.6,0,202.7,0,214v69.9c0,11.3,9.2,20.4,20.4,20.4h19.5v34.9H20.4
		C9.2,339.2,0,348.4,0,359.6v22.1c0,11.3,9.2,20.4,20.4,20.4h19.5v41.5c0,8,6.5,14.4,14.4,14.4h20.5c8,0,14.4-6.5,14.4-14.4v-41.5
		h67.1h13.6h69.2v12.3h-12.9c-12,0-21.8,9.8-21.8,21.8s9.8,21.8,21.8,21.8h210C448.2,458,458,448.3,458,436.2z M267.5,437.1h-7.4
		v-34.9h7.4v22.6c0,0.1,0,0.1,0,0.2V437.1z M379.4,390.6c8.8,0,16.3,6.3,17.8,14.9c0.6,3.5,2.9,6.4,6.1,7.8s6.9,1.1,9.9-0.8
		c3.4-2.2,6.8-1.2,8.9,0.4s3.9,4.7,2.6,8.6c-1.1,3.2-0.5,6.7,1.4,9.5c3.2,4.5,7.9,4.4,9.7,4.4h0.3c0.5,0,0.8,0.4,0.8,0.8
		c0,0.5-0.4,0.8-0.8,0.8h-74.4v-32C363.5,396.6,370.9,390.6,379.4,390.6z M365,147.6h-3.3V85.1h23.1L365,147.6z M362.5,20.9v6.9H340
		v-6.9H362.5z M338.1,147.6l-20.3-62.5h23v62.5H338.1z M315.7,64.1l17.7-15.3h35.7l17.7,15.3H315.7z M324.1,435.4
		c3.4,0,6.5-1.6,8.5-4.4c2-2.7,2.5-6.3,1.4-9.5c-0.9-2.8-0.3-5.7,1.8-7.8c1.4-1.4,3.1-2.2,4.9-2.4V437h-52.3v-1.6L324.1,435.4
		L324.1,435.4z M21,214.6h286.4v8.9h-41.7h-3.6H21V214.6z M21,244.4h241.1h3.6h41.7v9.1H92.6l0,0H21V244.4z M21,283.3v-8.9h85.3l0,0
		h201.1v8.9C289.9,283.3,37.9,283.3,21,283.3z M267.5,304.3v34.9h-7.4v-34.9H267.5z M239.1,304.3v34.9H89.2v-34.9H239.1z
		 M68.2,304.3v34.9h-7.4v-34.9H68.2z M60.9,437.1v-34.9h7.4v34.9H60.9z M169.9,381.2h-13.6H21v-21h286.4v21H169.9z M226.2,435.4
		h12.9v1.6h-12.9c-0.5,0-0.8-0.4-0.8-0.8C225.4,435.8,225.8,435.4,226.2,435.4z"/>
</g>
</svg>
