<?xml version="1.0" encoding="utf-8"?>
<!-- Generator: Adobe Illustrator 26.0.1, SVG Export Plug-In . SVG Version: 6.00 Build 0)  -->
<svg version="1.1" id="Layer_1" xmlns="http://www.w3.org/2000/svg" xmlns:xlink="http://www.w3.org/1999/xlink" x="0px" y="0px"
	 viewBox="0 0 458 458" style="enable-background:new 0 0 458 458;" xml:space="preserve">
<style type="text/css">
	.st0{fill:#2BB018;}
</style>
<g>
	<path class="st0" d="M163.5,72.7c-42.1,0-76.3,34.2-76.3,76.3v10.8h21.6V149c0-30.1,24.5-54.6,54.6-54.6S218,118.9,218,149v83.5
		h21.6V149c0-30.1,24.5-54.6,54.6-54.6s54.6,24.5,54.6,54.6v10.8h21.6V149c0-42.1-34.2-76.3-76.3-76.3c-20.9,0-40.3,8.3-54.6,23.2
		V47.2c0-14.1,11.5-25.6,25.6-25.6s25.6,11.5,25.6,25.6v3.5h21.6v-3.5c0-26-21.2-47.2-47.2-47.2c-14.2,0-27.4,6.3-36.4,17.2
		C220.1,6.3,206.8,0,192.6,0c-26,0-47.2,21.2-47.2,47.2v3.5H167v-3.5c0-14.1,11.5-25.6,25.6-25.6s25.6,11.5,25.6,25.6v48.7
		C203.9,81.1,184.4,72.7,163.5,72.7z"/>
	<rect x="87.3" y="167.3" class="st0" width="21.6" height="21.6"/>
	<rect x="87.3" y="196.4" class="st0" width="21.6" height="21.6"/>
	<rect x="349.1" y="167.3" class="st0" width="21.6" height="21.6"/>
	<rect x="349.1" y="196.4" class="st0" width="21.6" height="21.6"/>
	<path class="st0" d="M283.4,334.4h47.4c25.8,0,48.2-18.6,53.3-43.6h30.2V280c0-22-17.9-39.9-39.9-39.9H83.5
		c-22,0-39.9,17.9-39.9,39.9v10.8h30.2c5.1,25.1,27.5,43.6,53.3,43.6h47.4v58.4H0v21.6h14.5V458h428.9v-43.6H458v-21.6H283.4V334.4z
		 M254.4,392.7v-58.4h7.5v58.4H254.4z M232.7,392.7h-7.5v-58.4h7.5V392.7z M68.8,269.1c3.4-4.6,8.8-7.5,14.7-7.5h290.9
		c5.9,0,11.3,2.9,14.7,7.5H68.8z M127.2,312.7c-14,0-26.4-9-31-22h265.6c-4.5,13-16.9,22-31,22H127.2z M196.2,334.4h7.5v58.4h-7.5
		V334.4z M421.8,436.4H36.2v-22h385.7v22H421.8z"/>
	<rect x="320" y="138.2" class="st0" width="21.6" height="21.6"/>
	<rect x="320" y="167.3" class="st0" width="21.6" height="36.2"/>
	<rect x="116.4" y="167.3" class="st0" width="21.6" height="21.6"/>
	<rect x="116.4" y="138.2" class="st0" width="21.6" height="21.6"/>
	<rect x="392.7" y="298.2" class="st0" width="21.6" height="21.6"/>
	<rect x="392.7" y="327.3" class="st0" width="21.6" height="21.6"/>
	<rect x="43.6" y="298.2" class="st0" width="21.6" height="21.6"/>
	<rect x="43.6" y="327.3" class="st0" width="21.6" height="21.6"/>
</g>
</svg>
