<svg width="37" height="37" viewBox="0 0 37 37" fill="none" xmlns="http://www.w3.org/2000/svg">
<mask id="path-1-inside-1_101_1436" fill="white">
<path d="M23.5434 27.8531H13.4055V19.1677H23.5434V27.8531ZM14.0644 27.1942H22.8845V19.7068H14.0644V27.1942Z"/>
</mask>
<path d="M23.5434 27.8531H13.4055V19.1677H23.5434V27.8531ZM14.0644 27.1942H22.8845V19.7068H14.0644V27.1942Z" fill="#2D2D2B"/>
<path d="M23.5434 27.8531V30.8531H26.5434V27.8531H23.5434ZM13.4055 27.8531H10.4055V30.8531H13.4055V27.8531ZM13.4055 19.1677V16.1677H10.4055V19.1677H13.4055ZM23.5434 19.1677H26.5434V16.1677H23.5434V19.1677ZM14.0644 27.1942H11.0644V30.1942H14.0644V27.1942ZM22.8845 27.1942V30.1942H25.8845V27.1942H22.8845ZM22.8845 19.7068H25.8845V16.7068H22.8845V19.7068ZM14.0644 19.7068V16.7068H11.0644V19.7068H14.0644ZM23.5434 24.8531H13.4055V30.8531H23.5434V24.8531ZM16.4055 27.8531V19.1677H10.4055V27.8531H16.4055ZM13.4055 22.1677H23.5434V16.1677H13.4055V22.1677ZM20.5434 19.1677V27.8531H26.5434V19.1677H20.5434ZM14.0644 30.1942H22.8845V24.1942H14.0644V30.1942ZM25.8845 27.1942V19.7068H19.8845V27.1942H25.8845ZM22.8845 16.7068H14.0644V22.7068H22.8845V16.7068ZM11.0644 19.7068V27.1942H17.0644V19.7068H11.0644Z" fill="#2BB018" mask="url(#path-1-inside-1_101_1436)"/>
<mask id="path-3-inside-2_101_1436" fill="white">
<path d="M18.572 36.5384H8.43408V27.853H18.572V36.5384ZM9.09297 35.8945H17.9281V28.4071H9.09297V35.8945Z"/>
</mask>
<path d="M18.572 36.5384H8.43408V27.853H18.572V36.5384ZM9.09297 35.8945H17.9281V28.4071H9.09297V35.8945Z" fill="#2D2D2B"/>
<path d="M18.572 36.5384V39.5384H21.572V36.5384H18.572ZM8.43408 36.5384H5.43408V39.5384H8.43408V36.5384ZM8.43408 27.853V24.853H5.43408V27.853H8.43408ZM18.572 27.853H21.572V24.853H18.572V27.853ZM9.09297 35.8945H6.09297V38.8945H9.09297V35.8945ZM17.9281 35.8945V38.8945H20.9281V35.8945H17.9281ZM17.9281 28.4071H20.9281V25.4071H17.9281V28.4071ZM9.09297 28.4071V25.4071H6.09297V28.4071H9.09297ZM18.572 33.5384H8.43408V39.5384H18.572V33.5384ZM11.4341 36.5384V27.853H5.43408V36.5384H11.4341ZM8.43408 30.853H18.572V24.853H8.43408V30.853ZM15.572 27.853V36.5384H21.572V27.853H15.572ZM9.09297 38.8945H17.9281V32.8945H9.09297V38.8945ZM20.9281 35.8945V28.4071H14.9281V35.8945H20.9281ZM17.9281 25.4071H9.09297V31.4071H17.9281V25.4071ZM6.09297 28.4071V35.8945H12.093V28.4071H6.09297Z" fill="#2BB018" mask="url(#path-3-inside-2_101_1436)"/>
<mask id="path-5-inside-3_101_1436" fill="white">
<path d="M28.5601 36.5384H18.4072V27.853H28.5601V36.5384ZM19.0661 35.8945H27.9012V28.4071H19.0661V35.8945Z"/>
</mask>
<path d="M28.5601 36.5384H18.4072V27.853H28.5601V36.5384ZM19.0661 35.8945H27.9012V28.4071H19.0661V35.8945Z" fill="#2D2D2B"/>
<path d="M28.5601 36.5384V39.5384H31.5601V36.5384H28.5601ZM18.4072 36.5384H15.4072V39.5384H18.4072V36.5384ZM18.4072 27.853V24.853H15.4072V27.853H18.4072ZM28.5601 27.853H31.5601V24.853H28.5601V27.853ZM19.0661 35.8945H16.0661V38.8945H19.0661V35.8945ZM27.9012 35.8945V38.8945H30.9012V35.8945H27.9012ZM27.9012 28.4071H30.9012V25.4071H27.9012V28.4071ZM19.0661 28.4071V25.4071H16.0661V28.4071H19.0661ZM28.5601 33.5384H18.4072V39.5384H28.5601V33.5384ZM21.4072 36.5384V27.853H15.4072V36.5384H21.4072ZM18.4072 30.853H28.5601V24.853H18.4072V30.853ZM25.5601 27.853V36.5384H31.5601V27.853H25.5601ZM19.0661 38.8945H27.9012V32.8945H19.0661V38.8945ZM30.9012 35.8945V28.4071H24.9012V35.8945H30.9012ZM27.9012 25.4071H19.0661V31.4071H27.9012V25.4071ZM16.0661 28.4071V35.8945H22.0661V28.4071H16.0661Z" fill="#2BB018" mask="url(#path-5-inside-3_101_1436)"/>
<path d="M16.0154 32.3605L16.0213 32.3605L16.0154 32.3605ZM16.0154 32.3605H16.0133H16.0154Z" fill="#2D2D2B" stroke="#2BB018" stroke-width="3"/>
<mask id="path-8-inside-4_101_1436" fill="white">
<path d="M7.77498 7.24777C7.05761 7.24776 6.35636 7.03486 5.7601 6.63599C5.16383 6.23713 4.69938 5.67028 4.42554 5.00722C4.1517 4.34417 4.08081 3.61473 4.22186 2.91136C4.36291 2.20799 4.70952 1.56232 5.21783 1.05611C5.72614 0.549899 6.37325 0.205947 7.0772 0.0678146C7.78115 -0.0703183 8.51028 0.00359802 9.17219 0.280179C9.8341 0.55676 10.399 1.02359 10.7954 1.6215C11.1918 2.21941 11.4019 2.92148 11.3989 3.63885C11.3989 4.11404 11.305 4.58457 11.1227 5.0234C10.9404 5.46223 10.6733 5.86073 10.3366 6.19605C9.99986 6.53136 9.60021 6.79688 9.16063 6.97737C8.72104 7.15785 8.25017 7.24974 7.77498 7.24777ZM7.77498 0.673879C7.18263 0.673879 6.60359 0.849538 6.11107 1.17863C5.61855 1.50772 5.2347 1.97543 5.00802 2.52269C4.78134 3.06995 4.722 3.67213 4.83757 4.25309C4.95313 4.83406 5.23838 5.36773 5.65723 5.78658C6.07608 6.20543 6.60975 6.49068 7.19071 6.60624C7.77168 6.7218 8.37386 6.66246 8.92112 6.43578C9.46837 6.2091 9.93609 5.82526 10.2652 5.33274C10.5943 4.84022 10.7699 4.26117 10.7699 3.66883C10.7699 2.87452 10.4544 2.11274 9.89273 1.55108C9.33107 0.989415 8.56929 0.673879 7.77498 0.673879Z"/>
</mask>
<path d="M7.77498 7.24777C7.05761 7.24776 6.35636 7.03486 5.7601 6.63599C5.16383 6.23713 4.69938 5.67028 4.42554 5.00722C4.1517 4.34417 4.08081 3.61473 4.22186 2.91136C4.36291 2.20799 4.70952 1.56232 5.21783 1.05611C5.72614 0.549899 6.37325 0.205947 7.0772 0.0678146C7.78115 -0.0703183 8.51028 0.00359802 9.17219 0.280179C9.8341 0.55676 10.399 1.02359 10.7954 1.6215C11.1918 2.21941 11.4019 2.92148 11.3989 3.63885C11.3989 4.11404 11.305 4.58457 11.1227 5.0234C10.9404 5.46223 10.6733 5.86073 10.3366 6.19605C9.99986 6.53136 9.60021 6.79688 9.16063 6.97737C8.72104 7.15785 8.25017 7.24974 7.77498 7.24777ZM7.77498 0.673879C7.18263 0.673879 6.60359 0.849538 6.11107 1.17863C5.61855 1.50772 5.2347 1.97543 5.00802 2.52269C4.78134 3.06995 4.722 3.67213 4.83757 4.25309C4.95313 4.83406 5.23838 5.36773 5.65723 5.78658C6.07608 6.20543 6.60975 6.49068 7.19071 6.60624C7.77168 6.7218 8.37386 6.66246 8.92112 6.43578C9.46837 6.2091 9.93609 5.82526 10.2652 5.33274C10.5943 4.84022 10.7699 4.26117 10.7699 3.66883C10.7699 2.87452 10.4544 2.11274 9.89273 1.55108C9.33107 0.989415 8.56929 0.673879 7.77498 0.673879Z" fill="#2D2D2B"/>
<path d="M11.3989 3.63885L8.39889 3.62645V3.63888L11.3989 3.63885ZM7.77501 4.24777C7.65145 4.24777 7.53073 4.2111 7.42812 4.14246L4.09208 9.12953C5.182 9.85861 6.46376 10.2478 7.77495 10.2478L7.77501 4.24777ZM7.42812 4.14246C7.32548 4.0738 7.24552 3.97623 7.19837 3.86205L1.65271 6.15239C2.15323 7.36432 3.00218 8.40046 4.09208 9.12953L7.42812 4.14246ZM7.19837 3.86205C7.15122 3.7479 7.13902 3.62229 7.1633 3.50121L1.28042 2.32152C1.0226 3.60717 1.15218 4.94044 1.65271 6.15239L7.19837 3.86205ZM7.1633 3.50121C7.18759 3.38009 7.24726 3.26894 7.33475 3.18182L3.10091 -1.0696C2.17178 -0.144311 1.53822 1.0359 1.28042 2.32152L7.1633 3.50121ZM7.33475 3.18182C7.42226 3.09467 7.53366 3.03546 7.65486 3.01167L6.49954 -2.87604C5.21283 -2.62356 4.03001 -1.99487 3.10091 -1.0696L7.33475 3.18182ZM7.65486 3.01167C7.77602 2.9879 7.90157 3.00062 8.01555 3.04824L10.3288 -2.48789C9.11899 -2.99342 7.78627 -3.12853 6.49954 -2.87604L7.65486 3.01167ZM8.01555 3.04824C8.12948 3.09585 8.22675 3.17622 8.29501 3.27918L13.2959 -0.0361787C12.5713 -1.12904 11.5387 -1.98233 10.3288 -2.48789L8.01555 3.04824ZM8.29501 3.27918C8.3633 3.38218 8.39942 3.50303 8.39891 3.62645L14.3989 3.65125C14.4043 2.33993 14.0203 1.05664 13.2959 -0.0361787L8.29501 3.27918ZM8.39889 3.63888C8.39889 3.71896 8.38307 3.79837 8.35227 3.87249L13.8932 6.17431C14.227 5.37077 14.3989 4.50912 14.3989 3.63882L8.39889 3.63888ZM8.35227 3.87249C8.32151 3.94655 8.27644 4.01377 8.21964 4.07034L12.4535 8.32175C13.0701 7.70769 13.5593 6.97792 13.8932 6.17431L8.35227 3.87249ZM8.21964 4.07034C8.16287 4.12687 8.09542 4.1717 8.0212 4.20217L10.3001 9.75256C11.105 9.42207 11.8368 8.93585 12.4535 8.32175L8.21964 4.07034ZM8.0212 4.20217C7.94702 4.23263 7.86758 4.24813 7.78743 4.2478L7.76253 10.2477C8.63275 10.2514 9.49507 10.0831 10.3001 9.75256L8.0212 4.20217ZM7.77498 -2.32612C6.58927 -2.32612 5.4302 -1.9745 4.44436 -1.31578L7.77778 3.67304C7.77697 3.67358 7.776 3.67388 7.77498 3.67388V-2.32612ZM4.44436 -1.31578C3.4585 -0.657049 2.69013 0.279203 2.23639 1.37464L7.77966 3.67074C7.77928 3.67166 7.77861 3.67248 7.77778 3.67304L4.44436 -1.31578ZM2.23639 1.37464C1.78268 2.46998 1.66387 3.67536 1.89521 4.83836L7.77992 3.66782C7.78014 3.6689 7.78001 3.66991 7.77966 3.67074L2.23639 1.37464ZM1.89521 4.83836C2.12652 6.00126 2.69749 7.06949 3.53591 7.9079L7.77855 3.66526C7.77926 3.66597 7.77973 3.66685 7.77992 3.66782L1.89521 4.83836ZM3.53591 7.9079C4.37432 8.74631 5.44254 9.31728 6.60544 9.5486L7.77599 3.66389C7.77696 3.66408 7.77784 3.66455 7.77855 3.66526L3.53591 7.9079ZM6.60544 9.5486C7.76845 9.77993 8.97383 9.66113 10.0692 9.20742L7.77307 3.66415C7.7739 3.6638 7.77491 3.66367 7.77599 3.66389L6.60544 9.5486ZM10.0692 9.20742C11.1646 8.75368 12.1009 7.98531 12.7596 6.99945L7.77077 3.66603C7.77133 3.6652 7.77214 3.66453 7.77307 3.66415L10.0692 9.20742ZM12.7596 6.99945C13.4183 6.01361 13.7699 4.85454 13.7699 3.66883H7.76993C7.76993 3.66781 7.77023 3.66684 7.77077 3.66603L12.7596 6.99945ZM13.7699 3.66883C13.7699 2.07888 13.1383 0.554033 12.0141 -0.570244L7.77141 3.6724C7.77046 3.67144 7.76993 3.67016 7.76993 3.66883H13.7699ZM12.0141 -0.570244C10.8898 -1.69452 9.36493 -2.32612 7.77498 -2.32612V3.67388C7.77365 3.67388 7.77236 3.67335 7.77141 3.6724L12.0141 -0.570244Z" fill="#2BB018" mask="url(#path-8-inside-4_101_1436)"/>
<mask id="path-10-inside-5_101_1436" fill="white">
<path d="M29.3837 7.57725C28.6657 7.58021 27.963 7.36984 27.3648 6.97278C26.7665 6.57573 26.2998 6.00991 26.0236 5.34712C25.7475 4.68434 25.6744 3.95443 25.8138 3.25007C25.9531 2.54572 26.2986 1.89864 26.8063 1.39093C27.314 0.883225 27.9611 0.537788 28.6655 0.398438C29.3698 0.259087 30.0997 0.332105 30.7625 0.608243C31.4252 0.884381 31.9911 1.35119 32.3881 1.94943C32.7852 2.54766 32.9956 3.25033 32.9926 3.96833C32.9887 4.92426 32.6072 5.83993 31.9313 6.51588C31.2553 7.19183 30.3396 7.57331 29.3837 7.57725ZM29.3837 1.00336C28.7914 1.00336 28.2123 1.17902 27.7198 1.50811C27.2273 1.8372 26.8434 2.30491 26.6168 2.85217C26.3901 3.39943 26.3307 4.00161 26.4463 4.58257C26.5619 5.16354 26.8471 5.69721 27.266 6.11606C27.6848 6.53491 28.2185 6.82016 28.7994 6.93572C29.3804 7.05128 29.9826 6.99194 30.5298 6.76526C31.0771 6.53858 31.5448 6.15474 31.8739 5.66222C32.203 5.1697 32.3787 4.59065 32.3787 3.99831C32.3787 3.204 32.0631 2.44222 31.5015 1.88056C30.9398 1.3189 30.178 1.00336 29.3837 1.00336Z"/>
</mask>
<path d="M29.3837 7.57725C28.6657 7.58021 27.963 7.36984 27.3648 6.97278C26.7665 6.57573 26.2998 6.00991 26.0236 5.34712C25.7475 4.68434 25.6744 3.95443 25.8138 3.25007C25.9531 2.54572 26.2986 1.89864 26.8063 1.39093C27.314 0.883225 27.9611 0.537788 28.6655 0.398438C29.3698 0.259087 30.0997 0.332105 30.7625 0.608243C31.4252 0.884381 31.9911 1.35119 32.3881 1.94943C32.7852 2.54766 32.9956 3.25033 32.9926 3.96833C32.9887 4.92426 32.6072 5.83993 31.9313 6.51588C31.2553 7.19183 30.3396 7.57331 29.3837 7.57725ZM29.3837 1.00336C28.7914 1.00336 28.2123 1.17902 27.7198 1.50811C27.2273 1.8372 26.8434 2.30491 26.6168 2.85217C26.3901 3.39943 26.3307 4.00161 26.4463 4.58257C26.5619 5.16354 26.8471 5.69721 27.266 6.11606C27.6848 6.53491 28.2185 6.82016 28.7994 6.93572C29.3804 7.05128 29.9826 6.99194 30.5298 6.76526C31.0771 6.53858 31.5448 6.15474 31.8739 5.66222C32.203 5.1697 32.3787 4.59065 32.3787 3.99831C32.3787 3.204 32.0631 2.44222 31.5015 1.88056C30.9398 1.3189 30.178 1.00336 29.3837 1.00336Z" fill="#2D2D2B"/>
<path d="M29.3837 7.57725L29.3713 4.57727L29.3837 7.57725ZM32.9926 3.96833L29.9927 3.95596L32.9926 3.96833ZM29.3713 4.57727C29.2476 4.57779 29.1267 4.54154 29.0237 4.47323L25.7058 9.47234C26.7993 10.1981 28.0838 10.5826 29.3961 10.5772L29.3713 4.57727ZM29.0237 4.47323C28.9208 4.40492 28.8405 4.30754 28.7929 4.19336L23.2544 6.50089C23.7591 7.71228 24.6122 8.74654 25.7058 9.47234L29.0237 4.47323ZM28.7929 4.19336C28.7453 4.07916 28.7328 3.95347 28.7567 3.83231L22.8708 2.66784C22.6161 3.95539 22.7497 5.28951 23.2544 6.50089L28.7929 4.19336ZM28.7567 3.83231C28.7807 3.71116 28.8401 3.59974 28.9276 3.51226L24.685 -0.730385C23.7571 0.197546 23.1255 1.38027 22.8708 2.66784L28.7567 3.83231ZM28.9276 3.51226C29.015 3.42485 29.1264 3.36539 29.2477 3.3414L28.0832 -2.54452C26.7958 -2.28981 25.613 -1.6584 24.685 -0.730385L28.9276 3.51226ZM29.2477 3.3414C29.369 3.3174 29.4946 3.32998 29.6087 3.37751L31.9162 -2.16102C30.7047 -2.66577 29.3707 -2.79923 28.0832 -2.54452L29.2477 3.3414ZM29.6087 3.37751C29.7228 3.42504 29.8202 3.5054 29.8886 3.60841L34.8877 0.290438C34.1619 -0.803019 33.1277 -1.65628 31.9162 -2.16102L29.6087 3.37751ZM29.8886 3.60841C29.957 3.71147 29.9932 3.83243 29.9927 3.95596L35.9926 3.9807C35.998 2.66822 35.6134 1.38385 34.8877 0.290438L29.8886 3.60841ZM29.9927 3.95596C29.992 4.12058 29.9263 4.27823 29.8099 4.39456L34.0526 8.6372C35.2881 7.40164 35.9854 5.72794 35.9926 3.9807L29.9927 3.95596ZM29.8099 4.39456C29.6936 4.5109 29.536 4.5766 29.3713 4.57727L29.3961 10.5772C31.1433 10.57 32.817 9.87277 34.0526 8.6372L29.8099 4.39456ZM29.3837 -1.99664C28.198 -1.99664 27.0389 -1.64502 26.0531 -0.986301L29.3865 4.00252C29.3857 4.00306 29.3847 4.00336 29.3837 4.00336V-1.99664ZM26.0531 -0.986301C25.0672 -0.327568 24.2989 0.608685 23.8451 1.70412L29.3884 4.00022C29.388 4.00114 29.3873 4.00196 29.3865 4.00252L26.0531 -0.986301ZM23.8451 1.70412C23.3914 2.79946 23.2726 4.00484 23.5039 5.16785L29.3886 3.9973C29.3889 3.99838 29.3887 3.99939 29.3884 4.00022L23.8451 1.70412ZM23.5039 5.16785C23.7353 6.33074 24.3062 7.39897 25.1446 8.23738L29.3873 3.99474C29.388 3.99545 29.3885 3.99633 29.3886 3.9973L23.5039 5.16785ZM25.1446 8.23738C25.9831 9.07579 27.0513 9.64676 28.2142 9.87808L29.3847 3.99337C29.3857 3.99356 29.3866 3.99403 29.3873 3.99474L25.1446 8.23738ZM28.2142 9.87808C29.3772 10.1094 30.5826 9.99061 31.6779 9.5369L29.3818 3.99363C29.3826 3.99328 29.3836 3.99315 29.3847 3.99337L28.2142 9.87808ZM31.6779 9.5369C32.7733 9.08316 33.7096 8.31479 34.3683 7.32893L29.3795 3.99551C29.3801 3.99468 29.3809 3.99401 29.3818 3.99363L31.6779 9.5369ZM34.3683 7.32893C35.027 6.34309 35.3787 5.18402 35.3787 3.99831H29.3787C29.3787 3.99729 29.379 3.99632 29.3795 3.99551L34.3683 7.32893ZM35.3787 3.99831C35.3787 2.40836 34.7471 0.883513 33.6228 -0.240763L29.3801 4.00188C29.3792 4.00093 29.3787 3.99964 29.3787 3.99831H35.3787ZM33.6228 -0.240763C32.4985 -1.36504 30.9737 -1.99664 29.3837 -1.99664V4.00336C29.3824 4.00336 29.3811 4.00283 29.3801 4.00188L33.6228 -0.240763Z" fill="#2BB018" mask="url(#path-10-inside-5_101_1436)"/>
<mask id="path-12-inside-6_101_1436" fill="white">
<path d="M35.5834 19.4522L23.0195 19.2875L27.512 6.46912L27.8414 6.61887C28.1635 6.78385 28.5143 6.88549 28.8747 6.91834C29.381 6.97342 29.8932 6.91196 30.3721 6.73865L30.6717 6.63382L35.5834 19.4522ZM23.948 18.6436L34.625 18.7784L30.3122 7.45745C29.8252 7.592 29.317 7.63264 28.8148 7.57723C28.5029 7.54483 28.1961 7.47444 27.9013 7.36761L23.948 18.6436Z"/>
</mask>
<path d="M35.5834 19.4522L23.0195 19.2875L27.512 6.46912L27.8414 6.61887C28.1635 6.78385 28.5143 6.88549 28.8747 6.91834C29.381 6.97342 29.8932 6.91196 30.3721 6.73865L30.6717 6.63382L35.5834 19.4522ZM23.948 18.6436L34.625 18.7784L30.3122 7.45745C29.8252 7.592 29.317 7.63264 28.8148 7.57723C28.5029 7.54483 28.1961 7.47444 27.9013 7.36761L23.948 18.6436Z" fill="#2D2D2B"/>
<path d="M35.5834 19.4522L35.544 22.452L39.9677 22.51L38.3848 18.3788L35.5834 19.4522ZM23.0195 19.2875L20.1884 18.2953L18.8085 22.2325L22.9802 22.2872L23.0195 19.2875ZM27.512 6.46912L28.7534 3.73804L25.7661 2.3801L24.6808 5.47689L27.512 6.46912ZM27.8414 6.61887L29.209 3.94872L29.1466 3.91679L29.0829 3.8878L27.8414 6.61887ZM28.8747 6.91834L29.1991 3.93594L29.1731 3.9331L29.147 3.93073L28.8747 6.91834ZM30.3721 6.73865L29.381 3.90709L29.3661 3.91231L29.3513 3.91768L30.3721 6.73865ZM30.6717 6.63382L33.473 5.56039L32.4305 2.83972L29.6806 3.80225L30.6717 6.63382ZM23.948 18.6436L21.1169 17.651L19.7357 21.5907L23.9101 21.6434L23.948 18.6436ZM34.625 18.7784L34.5871 21.7781L38.9993 21.8338L37.4284 17.7104L34.625 18.7784ZM30.3122 7.45745L33.1157 6.38947L32.1441 3.83901L29.5134 4.56577L30.3122 7.45745ZM28.8148 7.57723L29.1437 4.59532L29.1343 4.59428L29.1248 4.5933L28.8148 7.57723ZM27.9013 7.36761L28.9234 4.5471L26.0733 3.51424L25.0703 6.37505L27.9013 7.36761ZM35.6227 16.4525L23.0589 16.2878L22.9802 22.2872L35.544 22.452L35.6227 16.4525ZM25.8507 20.2797L30.3431 7.46135L24.6808 5.47689L20.1884 18.2953L25.8507 20.2797ZM26.2705 9.20019L26.5999 9.34995L29.0829 3.8878L28.7534 3.73804L26.2705 9.20019ZM26.4738 9.28902C27.1375 9.62894 27.8601 9.83829 28.6023 9.90595L29.147 3.93073C29.1685 3.93268 29.1895 3.93875 29.209 3.94872L26.4738 9.28902ZM28.5502 9.90074C29.5114 10.0053 30.4838 9.88864 31.393 9.55962L29.3513 3.91768C29.3026 3.93528 29.2506 3.94154 29.1991 3.93594L28.5502 9.90074ZM31.3632 9.57021L31.6627 9.46538L29.6806 3.80225L29.381 3.90709L31.3632 9.57021ZM27.8703 7.70724L32.782 20.5257L38.3848 18.3788L33.473 5.56039L27.8703 7.70724ZM23.9101 21.6434L34.5871 21.7781L34.6628 15.7786L23.9858 15.6438L23.9101 21.6434ZM37.4284 17.7104L33.1157 6.38947L27.5088 8.52544L31.8215 19.8463L37.4284 17.7104ZM29.5134 4.56577C29.3932 4.59896 29.2678 4.60901 29.1437 4.59532L28.4858 10.5591C29.3662 10.6563 30.2571 10.585 31.1111 10.3491L29.5134 4.56577ZM29.1248 4.5933C29.0559 4.58614 28.9883 4.57061 28.9234 4.5471L26.8792 10.1881C27.4039 10.3783 27.9498 10.5035 28.5047 10.5612L29.1248 4.5933ZM25.0703 6.37505L21.1169 17.651L26.779 19.6362L30.7324 8.36017L25.0703 6.37505Z" fill="#2BB018" mask="url(#path-12-inside-6_101_1436)"/>
<mask id="path-14-inside-7_101_1436" fill="white">
<path d="M2.20459 19.6169L2.93834 12.1295H12.4174L13.0313 19.4671L2.20459 19.6169ZM3.53736 12.8483L2.92339 18.943H12.3125L11.8184 12.9531L3.53736 12.8483Z"/>
</mask>
<path d="M2.20459 19.6169L2.93834 12.1295H12.4174L13.0313 19.4671L2.20459 19.6169ZM3.53736 12.8483L2.92339 18.943H12.3125L11.8184 12.9531L3.53736 12.8483Z" fill="#2D2D2B"/>
<path d="M2.20459 19.6169L-0.781108 19.3243L-1.10829 22.663L2.24608 22.6166L2.20459 19.6169ZM2.93834 12.1295V9.12952H0.217961L-0.0473597 11.8369L2.93834 12.1295ZM12.4174 12.1295L15.4069 11.8794L15.1768 9.12952H12.4174V12.1295ZM13.0313 19.4671L13.0728 22.4668L16.2891 22.4224L16.0209 19.217L13.0313 19.4671ZM3.53736 12.8483L3.57532 9.84856L0.827874 9.81379L0.552472 12.5476L3.53736 12.8483ZM2.92339 18.943L-0.0614984 18.6423L-0.394006 21.943H2.92339V18.943ZM12.3125 18.943V21.943H15.5702L15.3024 18.6964L12.3125 18.943ZM11.8184 12.9531L14.8082 12.7065L14.584 9.98786L11.8564 9.95335L11.8184 12.9531ZM5.19029 19.9095L5.92404 12.4221L-0.0473597 11.8369L-0.781108 19.3243L5.19029 19.9095ZM2.93834 15.1295H12.4174V9.12952H2.93834V15.1295ZM9.42783 12.3797L10.0418 19.7173L16.0209 19.217L15.4069 11.8794L9.42783 12.3797ZM12.9899 16.4674L2.1631 16.6172L2.24608 22.6166L13.0728 22.4668L12.9899 16.4674ZM0.552472 12.5476L-0.0614984 18.6423L5.90829 19.2437L6.52226 13.149L0.552472 12.5476ZM2.92339 21.943H12.3125V15.943H2.92339V21.943ZM15.3024 18.6964L14.8082 12.7065L8.82855 13.1998L9.3227 19.1897L15.3024 18.6964ZM11.8564 9.95335L3.57532 9.84856L3.49941 15.8481L11.7804 15.9529L11.8564 9.95335Z" fill="#2BB018" mask="url(#path-14-inside-7_101_1436)"/>
<mask id="path-16-inside-8_101_1436" fill="white">
<path d="M12.2226 12.8783H3.23779L5.84338 5.96002L6.17283 6.16964C6.64513 6.46235 7.18956 6.61792 7.74521 6.61891C8.21235 6.61648 8.67295 6.50897 9.09292 6.30441L9.42237 6.13971L12.2226 12.8783ZM4.21114 12.2195H11.1894L9.06295 7.02322C8.63819 7.18953 8.18636 7.27586 7.73022 7.27781C7.18582 7.27714 6.64852 7.15429 6.15789 6.91838L4.21114 12.2195Z"/>
</mask>
<path d="M12.2226 12.8783H3.23779L5.84338 5.96002L6.17283 6.16964C6.64513 6.46235 7.18956 6.61792 7.74521 6.61891C8.21235 6.61648 8.67295 6.50897 9.09292 6.30441L9.42237 6.13971L12.2226 12.8783ZM4.21114 12.2195H11.1894L9.06295 7.02322C8.63819 7.18953 8.18636 7.27586 7.73022 7.27781C7.18582 7.27714 6.64852 7.15429 6.15789 6.91838L4.21114 12.2195Z" fill="#2D2D2B"/>
<path d="M12.2226 12.8783V15.8783H16.718L14.993 11.7271L12.2226 12.8783ZM3.23779 12.8783L0.430305 11.821L-1.09778 15.8783H3.23779V12.8783ZM5.84338 5.96002L7.45387 3.42895L4.33769 1.44616L3.0359 4.90266L5.84338 5.96002ZM6.17283 6.16964L4.56234 8.70072L4.57735 8.71027L4.59247 8.71964L6.17283 6.16964ZM7.74521 6.61891L7.73985 9.61891L7.75034 9.61893L7.76082 9.61887L7.74521 6.61891ZM9.09292 6.30441L10.4066 9.00149L10.4206 8.9947L10.4344 8.98777L9.09292 6.30441ZM9.42237 6.13971L12.1927 4.98849L10.9582 2.01787L8.08088 3.45636L9.42237 6.13971ZM4.21114 12.2195L1.39503 11.1853L-0.0864627 15.2195H4.21114V12.2195ZM11.1894 12.2195V15.2195H15.6585L13.9659 11.0832L11.1894 12.2195ZM9.06295 7.02322L11.8395 5.887L10.7204 3.15246L7.96915 4.22972L9.06295 7.02322ZM7.73022 7.27781L7.72651 10.2778L7.73478 10.2778L7.74304 10.2778L7.73022 7.27781ZM6.15789 6.91838L7.45789 4.21468L4.4806 2.78314L3.34178 5.88421L6.15789 6.91838ZM12.2226 9.87835H3.23779V15.8783H12.2226V9.87835ZM6.04528 13.9357L8.65087 7.01738L3.0359 4.90266L0.430305 11.821L6.04528 13.9357ZM4.23289 8.49109L4.56234 8.70072L7.78332 3.63857L7.45387 3.42895L4.23289 8.49109ZM4.59247 8.71964C5.5378 9.3055 6.62756 9.61692 7.73985 9.61891L7.75056 3.61892C7.75157 3.61892 7.75245 3.61919 7.75319 3.61965L4.59247 8.71964ZM7.76082 9.61887C8.67804 9.6141 9.58227 9.40301 10.4066 9.00149L7.77923 3.60734C7.76362 3.61494 7.74665 3.61887 7.72959 3.61896L7.76082 9.61887ZM10.4344 8.98777L10.7639 8.82307L8.08088 3.45636L7.75143 3.62106L10.4344 8.98777ZM6.65205 7.29093L9.45232 14.0296L14.993 11.7271L12.1927 4.98849L6.65205 7.29093ZM4.21114 15.2195H11.1894V9.21946H4.21114V15.2195ZM13.9659 11.0832L11.8395 5.887L6.28644 8.15944L8.41287 13.3557L13.9659 11.0832ZM7.96915 4.22972C7.88881 4.26118 7.80346 4.27747 7.71739 4.27783L7.74304 10.2778C8.56927 10.2742 9.38758 10.1179 10.1567 9.81671L7.96915 4.22972ZM7.73392 4.27781C7.63847 4.27769 7.54414 4.25615 7.45789 4.21468L4.85789 9.62208C5.7529 10.0524 6.73316 10.2766 7.72651 10.2778L7.73392 4.27781ZM3.34178 5.88421L1.39503 11.1853L7.02725 13.2536L8.974 7.95256L3.34178 5.88421Z" fill="#2BB018" mask="url(#path-16-inside-8_101_1436)"/>
<mask id="path-18-inside-9_101_1436" fill="white">
<path d="M5.76838 25.517H5.45392C4.90271 25.5415 4.36404 25.3478 3.95476 24.9777C3.54548 24.6077 3.29856 24.0912 3.26758 23.5403V19.0479H7.76V23.8848C7.70707 24.3631 7.46903 24.8017 7.09681 25.1068C6.7246 25.4118 6.24779 25.5591 5.76838 25.517ZM3.92647 19.6319V23.5403C3.97061 23.9056 4.14767 24.2418 4.42386 24.4849C4.70005 24.7279 5.05605 24.8608 5.42395 24.8581H5.7384C6.04512 24.8791 6.34799 24.7798 6.58279 24.5814C6.81759 24.3829 6.9659 24.1009 6.99632 23.7949V19.617L3.92647 19.6319Z"/>
</mask>
<path d="M5.76838 25.517H5.45392C4.90271 25.5415 4.36404 25.3478 3.95476 24.9777C3.54548 24.6077 3.29856 24.0912 3.26758 23.5403V19.0479H7.76V23.8848C7.70707 24.3631 7.46903 24.8017 7.09681 25.1068C6.7246 25.4118 6.24779 25.5591 5.76838 25.517ZM3.92647 19.6319V23.5403C3.97061 23.9056 4.14767 24.2418 4.42386 24.4849C4.70005 24.7279 5.05605 24.8608 5.42395 24.8581H5.7384C6.04512 24.8791 6.34799 24.7798 6.58279 24.5814C6.81759 24.3829 6.9659 24.1009 6.99632 23.7949V19.617L3.92647 19.6319Z" fill="#2D2D2B"/>
<path d="M5.45392 25.517V22.517H5.38724L5.32062 22.52L5.45392 25.517ZM3.26758 23.5403H0.267578V23.6246L0.272312 23.7088L3.26758 23.5403ZM3.26758 19.0479V16.0479H0.267578V19.0479H3.26758ZM7.76 19.0479H10.76V16.0479H7.76V19.0479ZM7.76 23.8848L10.7418 24.2148L10.76 24.0503V23.8848H7.76ZM3.92647 19.6319L3.91182 16.632L0.926471 16.6466V19.6319H3.92647ZM3.92647 23.5403H0.926471V23.721L0.948139 23.9003L3.92647 23.5403ZM5.42395 24.8581V21.8581H5.41311L5.40228 21.8582L5.42395 24.8581ZM5.7384 24.8581L5.94299 21.8651L5.84082 21.8581H5.7384V24.8581ZM6.99632 23.7949L9.9816 24.0917L9.99632 23.9437V23.7949H6.99632ZM6.99632 19.617H9.99632V16.6023L6.98167 16.617L6.99632 19.617ZM5.76838 22.517H5.45392V28.517H5.76838V22.517ZM5.32062 22.52C5.5582 22.5094 5.79032 22.5929 5.9667 22.7524L1.94282 27.203C2.93776 28.1026 4.24723 28.5737 5.58723 28.5141L5.32062 22.52ZM5.9667 22.7524C6.14306 22.9118 6.24949 23.1344 6.26284 23.3719L0.272312 23.7088C0.347636 25.048 0.9479 26.3035 1.94282 27.203L5.9667 22.7524ZM6.26758 23.5403V19.0479H0.267578V23.5403H6.26758ZM3.26758 22.0479H7.76V16.0479H3.26758V22.0479ZM4.76 19.0479V23.8848H10.76V19.0479H4.76ZM4.77821 23.5548C4.81149 23.2541 4.96113 22.9783 5.1952 22.7865L8.99843 27.4271C9.97693 26.6252 10.6026 25.4721 10.7418 24.2148L4.77821 23.5548ZM5.1952 22.7865C5.42927 22.5946 5.7291 22.5021 6.03049 22.5285L5.50627 28.5055C6.76647 28.6161 8.01992 28.229 8.99843 27.4271L5.1952 22.7865ZM0.926471 19.6319V23.5403H6.92647V19.6319H0.926471ZM0.948139 23.9003C1.08071 24.9973 1.6125 26.0071 2.44198 26.737L6.40575 22.2327C6.68284 22.4766 6.86051 22.8139 6.9048 23.1804L0.948139 23.9003ZM2.44198 26.737C3.27143 27.4669 4.34061 27.866 5.44561 27.858L5.40228 21.8582C5.77149 21.8555 6.12868 21.9889 6.40575 22.2327L2.44198 26.737ZM5.42395 27.8581H5.7384V21.8581H5.42395V27.8581ZM5.53381 27.8511C6.61827 27.9253 7.68912 27.5743 8.51939 26.8726L4.64618 22.2902C5.00687 21.9853 5.47197 21.8329 5.94299 21.8651L5.53381 27.8511ZM8.51939 26.8726C9.34956 26.1709 9.87404 25.1735 9.9816 24.0917L4.01104 23.4981C4.05776 23.0282 4.28561 22.5949 4.64618 22.2902L8.51939 26.8726ZM9.99632 23.7949V19.617H3.99632V23.7949H9.99632ZM6.98167 16.617L3.91182 16.632L3.94112 22.6319L7.01097 22.6169L6.98167 16.617Z" fill="#2BB018" mask="url(#path-18-inside-9_101_1436)"/>
<mask id="path-20-inside-10_101_1436" fill="white">
<path d="M10.7403 25.6967H10.4408C9.88706 25.7253 9.34454 25.5333 8.93198 25.1629C8.51943 24.7924 8.27045 24.2736 8.2395 23.72V19.2276H12.7319V24.0645C12.6827 24.5444 12.4457 24.9853 12.0726 25.2911C11.6995 25.5969 11.2205 25.7427 10.7403 25.6967ZM8.89839 19.8266V23.72C8.93911 24.088 9.11467 24.4278 9.39122 24.674C9.66776 24.9201 10.0257 25.055 10.3959 25.0528H10.6954C11.0045 25.0736 11.3094 24.9723 11.5446 24.7707C11.7798 24.569 11.9265 24.2832 11.9533 23.9746V19.7966L8.89839 19.8266Z"/>
</mask>
<path d="M10.7403 25.6967H10.4408C9.88706 25.7253 9.34454 25.5333 8.93198 25.1629C8.51943 24.7924 8.27045 24.2736 8.2395 23.72V19.2276H12.7319V24.0645C12.6827 24.5444 12.4457 24.9853 12.0726 25.2911C11.6995 25.5969 11.2205 25.7427 10.7403 25.6967ZM8.89839 19.8266V23.72C8.93911 24.088 9.11467 24.4278 9.39122 24.674C9.66776 24.9201 10.0257 25.055 10.3959 25.0528H10.6954C11.0045 25.0736 11.3094 24.9723 11.5446 24.7707C11.7798 24.569 11.9265 24.2832 11.9533 23.9746V19.7966L8.89839 19.8266Z" fill="#2D2D2B"/>
<path d="M10.4408 25.6967V22.6967H10.3634L10.2861 22.7007L10.4408 25.6967ZM8.2395 23.72H5.2395V23.8038L5.24418 23.8875L8.2395 23.72ZM8.2395 19.2276V16.2276H5.2395V19.2276H8.2395ZM12.7319 19.2276H15.7319V16.2276H12.7319V19.2276ZM12.7319 24.0645L15.7163 24.3705L15.7319 24.2179V24.0645H12.7319ZM8.89839 19.8266L8.86896 16.8268L5.89839 16.8559V19.8266H8.89839ZM8.89839 23.72H5.89839V23.8855L5.91659 24.05L8.89839 23.72ZM10.3959 25.0528V22.0528H10.3868L10.3777 22.0529L10.3959 25.0528ZM10.6954 25.0528L10.8965 22.0595L10.796 22.0528H10.6954V25.0528ZM11.9533 23.9746L14.942 24.2337L14.9533 24.1044V23.9746H11.9533ZM11.9533 19.7966H14.9533V16.7671L11.9238 16.7968L11.9533 19.7966ZM10.7403 22.6967H10.4408V28.6967H10.7403V22.6967ZM10.2861 22.7007C10.5248 22.6884 10.7586 22.7711 10.9364 22.9307L6.92761 27.395C7.9305 28.2956 9.24934 28.7622 10.5955 28.6927L10.2861 22.7007ZM10.9364 22.9307C11.1142 23.0904 11.2215 23.314 11.2348 23.5526L5.24418 23.8875C5.31941 25.2332 5.92466 26.4944 6.92761 27.395L10.9364 22.9307ZM11.2395 23.72V19.2276H5.2395V23.72H11.2395ZM8.2395 22.2276H12.7319V16.2276H8.2395V22.2276ZM9.73193 19.2276V24.0645H15.7319V19.2276H9.73193ZM9.74757 23.7585C9.77917 23.4503 9.93136 23.1672 10.171 22.9708L13.9742 27.6114C14.96 26.8035 15.5863 25.6384 15.7163 24.3705L9.74757 23.7585ZM10.171 22.9708C10.4105 22.7745 10.7181 22.6808 11.0264 22.7104L10.4542 28.683C11.723 28.8046 12.9884 28.4194 13.9742 27.6114L10.171 22.9708ZM5.89839 19.8266V23.72H11.8984V19.8266H5.89839ZM5.91659 24.05C6.03887 25.155 6.56612 26.1757 7.39673 26.9149L11.3857 22.433C11.6632 22.68 11.8394 23.021 11.8802 23.3901L5.91659 24.05ZM7.39673 26.9149C8.22726 27.6541 9.30219 28.0595 10.4141 28.0527L10.3777 22.0529C10.7492 22.0506 11.1083 22.186 11.3857 22.433L7.39673 26.9149ZM10.3959 28.0528H10.6954V22.0528H10.3959V28.0528ZM10.4943 28.0461C11.5872 28.1195 12.6653 27.7612 13.4969 27.0484L9.59219 22.4929C9.95341 22.1833 10.4217 22.0277 10.8965 22.0595L10.4943 28.0461ZM13.4969 27.0484C14.3286 26.3356 14.8475 25.3249 14.942 24.2337L8.96446 23.7155C9.00555 23.2415 9.23092 22.8025 9.59219 22.4929L13.4969 27.0484ZM14.9533 23.9746V19.7966H8.95326V23.9746H14.9533ZM11.9238 16.7968L8.86896 16.8268L8.92783 22.8265L11.9827 22.7965L11.9238 16.7968Z" fill="#2BB018" mask="url(#path-20-inside-10_101_1436)"/>
<mask id="path-22-inside-11_101_1436" fill="white">
<path d="M26.9727 25.6967H26.6582C26.107 25.7212 25.5684 25.5274 25.1591 25.1574C24.7498 24.7874 24.5029 24.2709 24.4719 23.72V19.2276H28.8895V24.0645C28.8403 24.5304 28.6139 24.9597 28.2572 25.2635C27.9004 25.5673 27.4406 25.7223 26.9727 25.6967ZM25.1308 19.8266V23.72C25.1715 24.088 25.3471 24.4278 25.6236 24.674C25.9002 24.9201 26.2581 25.055 26.6283 25.0528H26.9427C27.2518 25.0736 27.5567 24.9723 27.7919 24.7707C28.0271 24.569 28.1739 24.2832 28.2006 23.9746V19.7966L25.1308 19.8266Z"/>
</mask>
<path d="M26.9727 25.6967H26.6582C26.107 25.7212 25.5684 25.5274 25.1591 25.1574C24.7498 24.7874 24.5029 24.2709 24.4719 23.72V19.2276H28.8895V24.0645C28.8403 24.5304 28.6139 24.9597 28.2572 25.2635C27.9004 25.5673 27.4406 25.7223 26.9727 25.6967ZM25.1308 19.8266V23.72C25.1715 24.088 25.3471 24.4278 25.6236 24.674C25.9002 24.9201 26.2581 25.055 26.6283 25.0528H26.9427C27.2518 25.0736 27.5567 24.9723 27.7919 24.7707C28.0271 24.569 28.1739 24.2832 28.2006 23.9746V19.7966L25.1308 19.8266Z" fill="#2D2D2B"/>
<path d="M26.9727 25.6967L27.1369 22.7012L27.0549 22.6967H26.9727V25.6967ZM26.6582 25.6967V22.6967H26.5915L26.5249 22.6997L26.6582 25.6967ZM24.4719 23.72H21.4719V23.8043L21.4767 23.8885L24.4719 23.72ZM24.4719 19.2276V16.2276H21.4719V19.2276H24.4719ZM28.8895 19.2276H31.8895V16.2276H28.8895V19.2276ZM28.8895 24.0645L31.8729 24.3796L31.8895 24.2225V24.0645H28.8895ZM25.1308 19.8266L25.1015 16.8268L22.1308 16.8558V19.8266H25.1308ZM25.1308 23.72H22.1308V23.8855L22.149 24.05L25.1308 23.72ZM26.6283 25.0528V22.0528H26.6192L26.6101 22.0529L26.6283 25.0528ZM26.9427 25.0528L27.1438 22.0595L27.0434 22.0528H26.9427V25.0528ZM28.2006 23.9746L31.1894 24.2337L31.2006 24.1044V23.9746H28.2006ZM28.2006 19.7966H31.2006V16.7672L28.1713 16.7968L28.2006 19.7966ZM26.9727 22.6967H26.6582V28.6967H26.9727V22.6967ZM26.5249 22.6997C26.7626 22.6891 26.9947 22.7726 27.171 22.9321L23.1472 27.3827C24.1421 28.2822 25.4515 28.7533 26.7915 28.6937L26.5249 22.6997ZM27.171 22.9321C27.3474 23.0915 27.4538 23.3141 27.4672 23.5516L21.4767 23.8885C21.552 25.2277 22.1522 26.4832 23.1472 27.3827L27.171 22.9321ZM27.4719 23.72V19.2276H21.4719V23.72H27.4719ZM24.4719 22.2276H28.8895V16.2276H24.4719V22.2276ZM25.8895 19.2276V24.0645H31.8895V19.2276H25.8895ZM25.9061 23.7493C25.9377 23.4501 26.083 23.1745 26.3121 22.9794L30.2022 27.5475C31.1448 26.7449 31.7428 25.6107 31.8729 24.3796L25.9061 23.7493ZM26.3121 22.9794C26.5413 22.7843 26.8366 22.6847 27.1369 22.7012L26.8086 28.6922C28.0446 28.7599 29.2595 28.3502 30.2022 27.5475L26.3121 22.9794ZM22.1308 19.8266V23.72H28.1308V19.8266H22.1308ZM22.149 24.05C22.2713 25.155 22.7985 26.1757 23.6292 26.9149L27.6181 22.433C27.8956 22.68 28.0718 23.021 28.1126 23.3901L22.149 24.05ZM23.6292 26.9149C24.4597 27.6541 25.5346 28.0595 26.6465 28.0527L26.6101 22.0529C26.9816 22.0506 27.3407 22.186 27.6181 22.433L23.6292 26.9149ZM26.6283 28.0528H26.9427V22.0528H26.6283V28.0528ZM26.7417 28.0461C27.8346 28.1195 28.9127 27.7612 29.7443 27.0484L25.8396 22.4929C26.2008 22.1833 26.6691 22.0277 27.1438 22.0595L26.7417 28.0461ZM29.7443 27.0484C30.576 26.3356 31.0948 25.3249 31.1894 24.2337L25.2118 23.7155C25.2529 23.2415 25.4783 22.8025 25.8396 22.4929L29.7443 27.0484ZM31.2006 23.9746V19.7966H25.2006V23.9746H31.2006ZM28.1713 16.7968L25.1015 16.8268L25.1601 22.8265L28.2299 22.7965L28.1713 16.7968Z" fill="#2BB018" mask="url(#path-22-inside-11_101_1436)"/>
<mask id="path-24-inside-12_101_1436" fill="white">
<path d="M32.1541 25.6967H31.8397C31.2885 25.7212 30.7498 25.5274 30.3405 25.1574C29.9312 24.7874 29.6843 24.2709 29.6533 23.72V19.2276H34.0709V24.0645C34.0217 24.5304 33.7953 24.9597 33.4385 25.2635C33.0818 25.5673 32.622 25.7223 32.1541 25.6967ZM30.3122 19.8266V23.72C30.3529 24.088 30.5285 24.4278 30.8051 24.674C31.0816 24.9201 31.4395 25.055 31.8097 25.0528H32.1541C32.4632 25.0736 32.7681 24.9723 33.0033 24.7707C33.2385 24.569 33.3852 24.2832 33.412 23.9746V19.7966L30.3122 19.8266Z"/>
</mask>
<path d="M32.1541 25.6967H31.8397C31.2885 25.7212 30.7498 25.5274 30.3405 25.1574C29.9312 24.7874 29.6843 24.2709 29.6533 23.72V19.2276H34.0709V24.0645C34.0217 24.5304 33.7953 24.9597 33.4385 25.2635C33.0818 25.5673 32.622 25.7223 32.1541 25.6967ZM30.3122 19.8266V23.72C30.3529 24.088 30.5285 24.4278 30.8051 24.674C31.0816 24.9201 31.4395 25.055 31.8097 25.0528H32.1541C32.4632 25.0736 32.7681 24.9723 33.0033 24.7707C33.2385 24.569 33.3852 24.2832 33.412 23.9746V19.7966L30.3122 19.8266Z" fill="#2D2D2B"/>
<path d="M32.1541 25.6967L32.3183 22.7012L32.2363 22.6967H32.1541V25.6967ZM31.8397 25.6967V22.6967H31.773L31.7064 22.6997L31.8397 25.6967ZM29.6533 23.72H26.6533V23.8043L26.6581 23.8885L29.6533 23.72ZM29.6533 19.2276V16.2276H26.6533V19.2276H29.6533ZM34.0709 19.2276H37.0709V16.2276H34.0709V19.2276ZM34.0709 24.0645L37.0543 24.3796L37.0709 24.2225V24.0645H34.0709ZM30.3122 19.8266L30.2832 16.8268L27.3122 16.8555V19.8266H30.3122ZM30.3122 23.72H27.3122V23.8855L27.3304 24.05L30.3122 23.72ZM31.8097 25.0528V22.0528H31.8006L31.7915 22.0529L31.8097 25.0528ZM32.1541 25.0528L32.3552 22.0595L32.2548 22.0528H32.1541V25.0528ZM33.412 23.9746L36.4008 24.2337L36.412 24.1044V23.9746H33.412ZM33.412 19.7966H36.412V16.7675L33.383 16.7968L33.412 19.7966ZM32.1541 22.6967H31.8397V28.6967H32.1541V22.6967ZM31.7064 22.6997C31.9439 22.6891 32.1761 22.7726 32.3524 22.9321L28.3286 27.3827C29.3235 28.2823 30.633 28.7533 31.973 28.6937L31.7064 22.6997ZM32.3524 22.9321C32.5288 23.0915 32.6352 23.3141 32.6486 23.5516L26.6581 23.8885C26.7334 25.2277 27.3336 26.4832 28.3286 27.3827L32.3524 22.9321ZM32.6533 23.72V19.2276H26.6533V23.72H32.6533ZM29.6533 22.2276H34.0709V16.2276H29.6533V22.2276ZM31.0709 19.2276V24.0645H37.0709V19.2276H31.0709ZM31.0875 23.7493C31.1191 23.4501 31.2644 23.1745 31.4935 22.9794L35.3836 27.5475C36.3262 26.7449 36.9242 25.6107 37.0543 24.3796L31.0875 23.7493ZM31.4935 22.9794C31.7227 22.7843 32.018 22.6847 32.3183 22.7012L31.99 28.6922C33.226 28.7599 34.4409 28.3502 35.3836 27.5475L31.4935 22.9794ZM27.3122 19.8266V23.72H33.3122V19.8266H27.3122ZM27.3304 24.05C27.4527 25.1553 27.9802 26.1759 28.8106 26.9149L32.7996 22.433C33.0769 22.6798 33.2531 23.0207 33.294 23.3901L27.3304 24.05ZM28.8106 26.9149C29.6411 27.6541 30.7159 28.0595 31.8279 28.0527L31.7915 22.0529C32.1631 22.0506 32.5222 22.1861 32.7996 22.433L28.8106 26.9149ZM31.8097 28.0528H32.1541V22.0528H31.8097V28.0528ZM31.953 28.0461C33.046 28.1195 34.1241 27.7612 34.9557 27.0484L31.0509 22.4929C31.4122 22.1833 31.8804 22.0277 32.3552 22.0595L31.953 28.0461ZM34.9557 27.0484C35.7874 26.3356 36.3062 25.3249 36.4008 24.2337L30.4232 23.7155C30.4643 23.2415 30.6897 22.8025 31.0509 22.4929L34.9557 27.0484ZM36.412 23.9746V19.7966H30.412V23.9746H36.412ZM33.383 16.7968L30.2832 16.8268L30.3412 22.8265L33.441 22.7965L33.383 16.7968Z" fill="#2BB018" mask="url(#path-24-inside-12_101_1436)"/>
<mask id="path-26-inside-13_101_1436" fill="white">
<path d="M21.8214 26.3556H15.4421L18.6318 20.6352L21.8214 26.3556ZM16.5652 25.6967H20.7132L18.6767 21.968L16.5652 25.6967Z"/>
</mask>
<path d="M21.8214 26.3556H15.4421L18.6318 20.6352L21.8214 26.3556ZM16.5652 25.6967H20.7132L18.6767 21.968L16.5652 25.6967Z" fill="#2D2D2B"/>
<path d="M21.8214 26.3556V29.3556H26.929L24.4416 24.8946L21.8214 26.3556ZM15.4421 26.3556L12.8219 24.8946L10.3345 29.3556H15.4421V26.3556ZM18.6318 20.6352L21.252 19.1742L18.6318 14.475L16.0116 19.1742L18.6318 20.6352ZM16.5652 25.6967L13.9547 24.2184L11.4188 28.6967H16.5652V25.6967ZM20.7132 25.6967V28.6967H25.7701L23.3461 24.2586L20.7132 25.6967ZM18.6767 21.968L21.3096 20.5299L18.724 15.7961L16.0662 20.4897L18.6767 21.968ZM21.8214 23.3556H15.4421V29.3556H21.8214V23.3556ZM18.0623 27.8166L21.252 22.0962L16.0116 19.1742L12.8219 24.8946L18.0623 27.8166ZM16.0116 22.0962L19.2012 27.8166L24.4416 24.8946L21.252 19.1742L16.0116 22.0962ZM16.5652 28.6967H20.7132V22.6967H16.5652V28.6967ZM23.3461 24.2586L21.3096 20.5299L16.0438 23.406L18.0804 27.1347L23.3461 24.2586ZM16.0662 20.4897L13.9547 24.2184L19.1758 27.1749L21.2872 23.4462L16.0662 20.4897Z" fill="#2BB018" mask="url(#path-26-inside-13_101_1436)"/>
<mask id="path-28-inside-14_101_1436" fill="white">
<path d="M23.1693 35.6998L20.0845 32.4653L23.1693 29.3505L26.3888 32.5102L23.1693 35.6998ZM20.9979 32.4802L23.1843 34.7714L25.4454 32.5402L23.1693 30.3089L20.9979 32.4802Z"/>
</mask>
<path d="M23.1693 35.6998L20.0845 32.4653L23.1693 29.3505L26.3888 32.5102L23.1693 35.6998ZM20.9979 32.4802L23.1843 34.7714L25.4454 32.5402L23.1693 30.3089L20.9979 32.4802Z" fill="#2D2D2B"/>
<path d="M23.1693 35.6998L20.9983 37.7703L23.1085 39.983L25.2807 37.831L23.1693 35.6998ZM20.0845 32.4653L17.9529 30.3542L15.9012 32.4258L17.9135 34.5357L20.0845 32.4653ZM23.1693 29.3505L25.2706 27.2094L23.1392 25.1176L21.0377 27.2395L23.1693 29.3505ZM26.3888 32.5102L28.5002 34.6414L30.6616 32.5001L28.4901 30.369L26.3888 32.5102ZM20.9979 32.4802L18.8766 30.3589L16.8043 32.4312L18.8275 34.5513L20.9979 32.4802ZM23.1843 34.7714L21.0139 36.8425L23.1199 39.0495L25.2914 36.9068L23.1843 34.7714ZM25.4454 32.5402L27.5526 34.6756L29.7238 32.5331L27.5455 30.3978L25.4454 32.5402ZM23.1693 30.3089L25.2693 28.1666L23.1483 26.0873L21.048 28.1876L23.1693 30.3089ZM25.3402 33.6293L22.2555 30.3948L17.9135 34.5357L20.9983 37.7703L25.3402 33.6293ZM22.216 34.5763L25.3008 31.4616L21.0377 27.2395L17.9529 30.3542L22.216 34.5763ZM21.068 31.4917L24.2875 34.6513L28.4901 30.369L25.2706 27.2094L21.068 31.4917ZM24.2774 30.379L21.0579 33.5686L25.2807 37.831L28.5002 34.6414L24.2774 30.379ZM18.8275 34.5513L21.0139 36.8425L25.3546 32.7003L23.1683 30.4091L18.8275 34.5513ZM25.2914 36.9068L27.5526 34.6756L23.3383 30.4047L21.0771 32.636L25.2914 36.9068ZM27.5455 30.3978L25.2693 28.1666L21.0692 32.4513L23.3453 34.6825L27.5455 30.3978ZM21.048 28.1876L18.8766 30.3589L23.1192 34.6016L25.2906 32.4303L21.048 28.1876Z" fill="#2BB018" mask="url(#path-28-inside-14_101_1436)"/>
<mask id="path-30-inside-15_101_1436" fill="white">
<path d="M4.67544 10.9765L1.2612 9.3443L0.123103 5.58562C-0.0182775 5.24967 -0.0385473 4.87506 0.0657509 4.52581C0.170049 4.17657 0.392441 3.87436 0.694893 3.67096C0.997346 3.46756 1.36107 3.37558 1.72386 3.4107C2.08665 3.44582 2.426 3.60589 2.68382 3.86354L3.58231 6.61888L5.82852 7.68208L4.67544 10.9765ZM1.80031 8.88004L4.31606 10.078L5.0648 8.08638L3.10311 7.15795L2.17468 4.29777C2.0429 4.19512 1.88724 4.12754 1.72226 4.10136C1.55728 4.07517 1.38836 4.09126 1.23127 4.14806C1.01543 4.26314 0.848232 4.45205 0.760243 4.68027C0.672254 4.9085 0.669344 5.16076 0.752063 5.39094L1.80031 8.88004Z"/>
</mask>
<path d="M4.67544 10.9765L1.2612 9.3443L0.123103 5.58562C-0.0182775 5.24967 -0.0385473 4.87506 0.0657509 4.52581C0.170049 4.17657 0.392441 3.87436 0.694893 3.67096C0.997346 3.46756 1.36107 3.37558 1.72386 3.4107C2.08665 3.44582 2.426 3.60589 2.68382 3.86354L3.58231 6.61888L5.82852 7.68208L4.67544 10.9765ZM1.80031 8.88004L4.31606 10.078L5.0648 8.08638L3.10311 7.15795L2.17468 4.29777C2.0429 4.19512 1.88724 4.12754 1.72226 4.10136C1.55728 4.07517 1.38836 4.09126 1.23127 4.14806C1.01543 4.26314 0.848232 4.45205 0.760243 4.68027C0.672254 4.9085 0.669344 5.16076 0.752063 5.39094L1.80031 8.88004Z" fill="#2D2D2B"/>
<path d="M4.67544 10.9765L3.3815 13.6831L6.40127 15.1268L7.50701 11.9676L4.67544 10.9765ZM1.2612 9.3443L-1.61006 10.2137L-1.22659 11.4802L-0.0327448 12.0509L1.2612 9.3443ZM0.123103 5.58562L2.99437 4.71623L2.94898 4.56632L2.88822 4.42195L0.123103 5.58562ZM3.58231 6.61888L0.730126 7.54896L1.13077 8.77759L2.29884 9.33047L3.58231 6.61888ZM5.82852 7.68208L8.66009 8.67315L9.55184 6.12534L7.11199 4.97049L5.82852 7.68208ZM1.80031 8.88004L-1.07282 9.74323L-0.69018 11.0168L0.510484 11.5886L1.80031 8.88004ZM4.31606 10.078L3.02623 12.7866L5.97492 14.1908L7.12418 11.1337L4.31606 10.078ZM5.0648 8.08638L7.87292 9.14205L8.84495 6.55642L6.34816 5.37474L5.0648 8.08638ZM3.10311 7.15795L0.249675 8.08419L0.64943 9.3157L1.81975 9.86959L3.10311 7.15795ZM2.17468 4.29777L5.02812 3.37153L4.74406 2.49645L4.01824 1.93107L2.17468 4.29777ZM1.23127 4.14806L0.21119 1.32681L0.00926186 1.39982L-0.18021 1.50085L1.23127 4.14806ZM0.752063 5.39094L3.6252 4.52775L3.60226 4.45141L3.5753 4.37639L0.752063 5.39094ZM5.96938 8.26994L2.55514 6.63769L-0.0327448 12.0509L3.3815 13.6831L5.96938 8.26994ZM4.13246 8.47491L2.99437 4.71623L-2.74816 6.45502L-1.61006 10.2137L4.13246 8.47491ZM2.88822 4.42195C3.0166 4.72701 3.035 5.06718 2.9403 5.38426L-2.8088 3.66736C-3.11209 4.68293 -3.05316 5.77234 -2.64201 6.7493L2.88822 4.42195ZM2.9403 5.38426C2.84564 5.70124 2.64379 5.97561 2.36906 6.16037L-0.979272 1.18155C-1.85891 1.77312 -2.50555 2.65189 -2.8088 3.66736L2.9403 5.38426ZM2.36906 6.16037C2.09428 6.34516 1.764 6.42861 1.43478 6.39674L2.01294 0.424662C0.958138 0.322548 -0.0995908 0.58995 -0.979272 1.18155L2.36906 6.16037ZM1.43478 6.39674C1.10546 6.36486 0.797369 6.21957 0.56322 5.98558L4.80442 1.74149C4.05463 0.992218 3.06784 0.526787 2.01294 0.424662L1.43478 6.39674ZM-0.168368 4.79361L0.730126 7.54896L6.4345 5.68881L5.536 2.93346L-0.168368 4.79361ZM2.29884 9.33047L4.54505 10.3937L7.11199 4.97049L4.86578 3.9073L2.29884 9.33047ZM2.99696 6.69101L1.84387 9.98547L7.50701 11.9676L8.66009 8.67315L2.99696 6.69101ZM0.510484 11.5886L3.02623 12.7866L5.60589 7.36948L3.09014 6.17147L0.510484 11.5886ZM7.12418 11.1337L7.87292 9.14205L2.25667 7.03071L1.50794 9.02238L7.12418 11.1337ZM6.34816 5.37474L4.38647 4.44632L1.81975 9.86959L3.78143 10.798L6.34816 5.37474ZM5.95654 6.23172L5.02812 3.37153L-0.678752 5.22401L0.249675 8.08419L5.95654 6.23172ZM4.01824 1.93107C3.4864 1.51679 2.85827 1.24412 2.19256 1.13845L1.25196 7.06426C0.916211 7.01097 0.599398 6.87345 0.331122 6.66447L4.01824 1.93107ZM2.19256 1.13845C1.52635 1.0327 0.844693 1.09776 0.21119 1.32681L2.25134 6.96931C1.93202 7.08477 1.58821 7.11764 1.25196 7.06426L2.19256 1.13845ZM-0.18021 1.50085C-1.03183 1.95493 -1.69167 2.70039 -2.03892 3.60108L3.55941 5.75947C3.38814 6.20371 3.0627 6.57136 2.64274 6.79527L-0.18021 1.50085ZM-2.03892 3.60108C-2.38611 4.5016 -2.39762 5.49708 -2.07118 6.4055L3.5753 4.37639C3.73631 4.82444 3.73062 5.31539 3.55941 5.75947L-2.03892 3.60108ZM-2.12107 6.25414L-1.07282 9.74323L4.67345 8.01685L3.6252 4.52775L-2.12107 6.25414Z" fill="#2BB018" mask="url(#path-30-inside-15_101_1436)"/>
<mask id="path-32-inside-16_101_1436" fill="white">
<path d="M26.1643 11.0964L22.7501 9.46413L21.612 5.72044C21.475 5.33521 21.4847 4.91298 21.6394 4.5345C21.7941 4.15603 22.0829 3.84787 22.4506 3.66891C22.7381 3.55418 23.0523 3.52281 23.3569 3.57843C23.6615 3.63405 23.9442 3.7744 24.1727 3.98337L25.0711 6.75371L27.3174 7.80191L26.1643 11.0964ZM23.2891 8.99992L25.8049 10.1979L26.5537 8.20626L24.592 7.27783L23.6635 4.41765C23.5317 4.315 23.3761 4.24742 23.2111 4.22123C23.0462 4.19505 22.8772 4.21109 22.7201 4.26789C22.5043 4.38297 22.3371 4.57188 22.2491 4.80011C22.1611 5.02833 22.1582 5.28059 22.2409 5.51078L23.2891 8.99992Z"/>
</mask>
<path d="M26.1643 11.0964L22.7501 9.46413L21.612 5.72044C21.475 5.33521 21.4847 4.91298 21.6394 4.5345C21.7941 4.15603 22.0829 3.84787 22.4506 3.66891C22.7381 3.55418 23.0523 3.52281 23.3569 3.57843C23.6615 3.63405 23.9442 3.7744 24.1727 3.98337L25.0711 6.75371L27.3174 7.80191L26.1643 11.0964ZM23.2891 8.99992L25.8049 10.1979L26.5537 8.20626L24.592 7.27783L23.6635 4.41765C23.5317 4.315 23.3761 4.24742 23.2111 4.22123C23.0462 4.19505 22.8772 4.21109 22.7201 4.26789C22.5043 4.38297 22.3371 4.57188 22.2491 4.80011C22.1611 5.02833 22.1582 5.28059 22.2409 5.51078L23.2891 8.99992Z" fill="#2D2D2B"/>
<path d="M26.1643 11.0964L24.8704 13.803L27.8902 15.2467L28.9959 12.0874L26.1643 11.0964ZM22.7501 9.46413L19.8798 10.3367L20.2641 11.6009L21.4561 12.1707L22.7501 9.46413ZM21.612 5.72044L24.4823 4.84786L24.4619 4.78099L24.4385 4.71514L21.612 5.72044ZM22.4506 3.66891L21.3389 0.882473L21.2366 0.923296L21.1375 0.971516L22.4506 3.66891ZM25.0711 6.75371L22.2175 7.67918L22.62 8.92045L23.8025 9.47227L25.0711 6.75371ZM27.3174 7.80191L30.1489 8.79294L31.0456 6.23112L28.586 5.08335L27.3174 7.80191ZM23.2891 8.99992L20.416 9.86307L20.7986 11.1368L21.9994 11.7085L23.2891 8.99992ZM25.8049 10.1979L24.5152 12.9065L27.4638 14.3105L28.613 11.2536L25.8049 10.1979ZM26.5537 8.20626L29.3618 9.26195L30.3338 6.67631L27.837 5.49462L26.5537 8.20626ZM24.592 7.27783L21.7386 8.20411L22.1383 9.43559L23.3086 9.98947L24.592 7.27783ZM23.6635 4.41765L26.5169 3.49137L26.2329 2.61631L25.5071 2.05095L23.6635 4.41765ZM22.7201 4.26789L21.7001 1.44664L21.4981 1.51965L21.3087 1.62068L22.7201 4.26789ZM22.2409 5.51078L25.1141 4.64763L25.0911 4.57126L25.0642 4.49622L22.2409 5.51078ZM27.4583 8.38977L24.044 6.75753L21.4561 12.1707L24.8704 13.803L27.4583 8.38977ZM25.6204 8.59155L24.4823 4.84786L18.7417 6.59303L19.8798 10.3367L25.6204 8.59155ZM24.4385 4.71514C24.5488 5.02516 24.5409 5.36497 24.4164 5.66961L18.8625 3.39939C18.4285 4.46099 18.4011 5.64526 18.7854 6.72575L24.4385 4.71514ZM24.4164 5.66961C24.2919 5.9743 24.0594 6.22231 23.7636 6.36631L21.1375 0.971516C20.1064 1.47342 19.2964 2.33775 18.8625 3.39939L24.4164 5.66961ZM23.5622 6.45535C23.3261 6.54953 23.0682 6.57532 22.818 6.52963L23.8958 0.627229C23.0363 0.470288 22.1502 0.558826 21.3389 0.882473L23.5622 6.45535ZM22.818 6.52963C22.5678 6.48394 22.3356 6.36869 22.148 6.19708L26.1974 1.76966C25.5528 1.18011 24.7551 0.784153 23.8958 0.627229L22.818 6.52963ZM21.319 4.90885L22.2175 7.67918L27.9248 5.82823L27.0264 3.05789L21.319 4.90885ZM23.8025 9.47227L26.0487 10.5205L28.586 5.08335L26.3398 4.03514L23.8025 9.47227ZM24.4858 6.81088L23.3327 10.1053L28.9959 12.0874L30.1489 8.79294L24.4858 6.81088ZM21.9994 11.7085L24.5152 12.9065L27.0947 7.48928L24.5789 6.29132L21.9994 11.7085ZM28.613 11.2536L29.3618 9.26195L23.7456 7.15057L22.9968 9.14219L28.613 11.2536ZM27.837 5.49462L25.8753 4.56619L23.3086 9.98947L25.2703 10.9179L27.837 5.49462ZM27.4454 6.35155L26.5169 3.49137L20.8101 5.34393L21.7386 8.20411L27.4454 6.35155ZM25.5071 2.05095C24.9754 1.6368 24.3474 1.36403 23.6814 1.25833L22.7408 7.18414C22.4049 7.13081 22.088 6.99319 21.8199 6.78435L25.5071 2.05095ZM23.6814 1.25833C23.0158 1.15267 22.3341 1.2174 21.7001 1.44664L23.7402 7.08914C23.4204 7.20479 23.0765 7.23742 22.7408 7.18414L23.6814 1.25833ZM21.3087 1.62068C20.457 2.07476 19.7972 2.82023 19.45 3.72091L25.0483 5.8793C24.877 6.32354 24.5516 6.69119 24.1316 6.91511L21.3087 1.62068ZM19.45 3.72091C19.1028 4.62143 19.0913 5.61691 19.4177 6.52533L25.0642 4.49622C25.2252 4.94427 25.2195 5.43523 25.0483 5.8793L19.45 3.72091ZM19.3678 6.37392L20.416 9.86307L26.1623 8.13677L25.1141 4.64763L19.3678 6.37392Z" fill="#2BB018" mask="url(#path-32-inside-16_101_1436)"/>
<mask id="path-34-inside-17_101_1436" fill="white">
<path d="M11.1894 10.8717L9.96143 7.65212L12.2076 6.58888L13.1061 3.83353C13.3331 3.61677 13.6186 3.47143 13.9274 3.41552C14.2362 3.35962 14.5547 3.39562 14.8432 3.51908C15.207 3.69776 15.4921 4.00427 15.6441 4.38001C15.796 4.75574 15.8041 5.17429 15.6668 5.55562L14.5437 9.3143L11.1894 10.8717ZM10.8 7.98157L11.5487 9.97319L14.0495 8.77523L15.1127 5.30108C15.1988 5.07115 15.1975 4.81767 15.1092 4.58862C15.0209 4.35957 14.8516 4.17082 14.6335 4.05815C14.4752 3.99399 14.3024 3.97405 14.1336 4.00043C13.9648 4.0268 13.8064 4.09851 13.6752 4.2079L12.7468 7.0531L10.8 7.98157Z"/>
</mask>
<path d="M11.1894 10.8717L9.96143 7.65212L12.2076 6.58888L13.1061 3.83353C13.3331 3.61677 13.6186 3.47143 13.9274 3.41552C14.2362 3.35962 14.5547 3.39562 14.8432 3.51908C15.207 3.69776 15.4921 4.00427 15.6441 4.38001C15.796 4.75574 15.8041 5.17429 15.6668 5.55562L14.5437 9.3143L11.1894 10.8717ZM10.8 7.98157L11.5487 9.97319L14.0495 8.77523L15.1127 5.30108C15.1988 5.07115 15.1975 4.81767 15.1092 4.58862C15.0209 4.35957 14.8516 4.17082 14.6335 4.05815C14.4752 3.99399 14.3024 3.97405 14.1336 4.00043C13.9648 4.0268 13.8064 4.09851 13.6752 4.2079L12.7468 7.0531L10.8 7.98157Z" fill="#2D2D2B"/>
<path d="M11.1894 10.8717L8.38632 11.9408L9.53334 14.9481L12.4527 13.5927L11.1894 10.8717ZM9.96143 7.65212L8.67791 4.94056L6.16933 6.12799L7.15838 8.7212L9.96143 7.65212ZM12.2076 6.58888L13.4912 9.30045L14.6592 8.74756L15.0598 7.51895L12.2076 6.58888ZM13.1061 3.83353L11.0339 1.66419L10.488 2.18568L10.2539 2.90346L13.1061 3.83353ZM14.8432 3.51908L16.1658 0.826353L16.0954 0.791791L16.0234 0.760952L14.8432 3.51908ZM15.6668 5.55562L12.8442 4.53925L12.8161 4.61728L12.7924 4.69673L15.6668 5.55562ZM14.5437 9.3143L15.807 12.0353L17.0316 11.4668L17.4181 10.1732L14.5437 9.3143ZM10.8 7.98157L9.50856 5.27377L7.02274 6.45935L7.99189 9.03726L10.8 7.98157ZM11.5487 9.97319L8.74063 11.0289L9.89256 14.093L12.8448 12.6788L11.5487 9.97319ZM14.0495 8.77523L15.3456 11.4808L16.533 10.912L16.9182 9.65313L14.0495 8.77523ZM15.1127 5.30108L12.3029 4.24997L12.2708 4.33567L12.2441 4.42318L15.1127 5.30108ZM14.6335 4.05815L16.0105 1.39284L15.888 1.32951L15.7601 1.27771L14.6335 4.05815ZM13.6752 4.2079L11.7541 1.90365L11.091 2.4565L10.8232 3.27725L13.6752 4.2079ZM12.7468 7.0531L14.0382 9.76089L15.1996 9.20698L15.5988 7.98374L12.7468 7.0531ZM13.9924 9.8026L12.7645 6.58304L7.15838 8.7212L8.38632 11.9408L13.9924 9.8026ZM11.2449 10.3637L13.4912 9.30045L10.9241 3.87732L8.67791 4.94056L11.2449 10.3637ZM15.0598 7.51895L15.9583 4.76361L10.2539 2.90346L9.35545 5.65881L15.0598 7.51895ZM15.1783 6.00287C14.9803 6.19199 14.7312 6.31878 14.4619 6.36754L13.393 0.463506C12.5061 0.624072 11.6858 1.04154 11.0339 1.66419L15.1783 6.00287ZM14.4619 6.36754C14.1925 6.4163 13.9148 6.3849 13.6631 6.2772L16.0234 0.760952C15.1946 0.406345 14.28 0.302938 13.393 0.463506L14.4619 6.36754ZM13.5206 6.2118C13.2219 6.06508 12.9877 5.81337 12.8629 5.50475L18.4253 3.25526C17.9966 2.19517 17.1921 1.33043 16.1658 0.826353L13.5206 6.2118ZM12.8629 5.50475C12.7381 5.19606 12.7315 4.8523 12.8442 4.53925L18.4894 6.57199C18.8767 5.49628 18.854 4.31542 18.4253 3.25526L12.8629 5.50475ZM12.7924 4.69673L11.6693 8.45541L17.4181 10.1732L18.5412 6.41451L12.7924 4.69673ZM13.2803 6.59328L9.92602 8.15066L12.4527 13.5927L15.807 12.0353L13.2803 6.59328ZM7.99189 9.03726L8.74063 11.0289L14.3569 8.9175L13.6081 6.92587L7.99189 9.03726ZM12.8448 12.6788L15.3456 11.4808L12.7535 6.06964L10.2527 7.2676L12.8448 12.6788ZM16.9182 9.65313L17.9814 6.17898L12.2441 4.42318L11.1809 7.89733L16.9182 9.65313ZM17.9226 6.35218C18.2658 5.43479 18.2607 4.42339 17.9083 3.50943L12.31 5.66782C12.1343 5.21196 12.1317 4.70751 12.3029 4.24997L17.9226 6.35218ZM17.9083 3.50943C17.556 2.59554 16.8808 1.84245 16.0105 1.39284L13.2565 6.72346C12.8225 6.49919 12.4857 6.12361 12.31 5.66782L17.9083 3.50943ZM15.7601 1.27771C15.0981 1.00947 14.3758 0.926182 13.6705 1.03639L14.5968 6.96446C14.229 7.02193 13.8523 6.97851 13.507 6.83859L15.7601 1.27771ZM13.6705 1.03639C12.965 1.14663 12.3026 1.44637 11.7541 1.90365L15.5962 6.51215C15.3102 6.75064 14.9647 6.90697 14.5968 6.96446L13.6705 1.03639ZM10.8232 3.27725L9.89475 6.12245L15.5988 7.98374L16.5272 5.13855L10.8232 3.27725ZM11.4553 4.3453L9.50856 5.27377L12.0915 10.6894L14.0382 9.76089L11.4553 4.3453Z" fill="#2BB018" mask="url(#path-34-inside-17_101_1436)"/>
<mask id="path-36-inside-18_101_1436" fill="white">
<path d="M32.4086 11.2011L31.1956 7.98157L33.4418 6.91833L34.3403 4.16298C34.5649 3.9475 34.8479 3.8028 35.1541 3.74689C35.4603 3.69098 35.7761 3.72633 36.0623 3.84852C36.4312 4.022 36.7218 4.32719 36.8769 4.70406C37.0321 5.08093 37.0407 5.5022 36.901 5.88507L35.7629 9.64374L32.4086 11.2011ZM32.0342 8.31102L32.7829 10.3026L35.2837 9.10467L36.3319 5.63052C36.4225 5.40268 36.4252 5.14927 36.3394 4.91958C36.2536 4.68988 36.0855 4.50027 35.8677 4.38759C35.7094 4.32344 35.5366 4.3035 35.3678 4.32987C35.199 4.35625 35.0405 4.42795 34.9093 4.53735L33.9809 7.38254L32.0342 8.31102Z"/>
</mask>
<path d="M32.4086 11.2011L31.1956 7.98157L33.4418 6.91833L34.3403 4.16298C34.5649 3.9475 34.8479 3.8028 35.1541 3.74689C35.4603 3.69098 35.7761 3.72633 36.0623 3.84852C36.4312 4.022 36.7218 4.32719 36.8769 4.70406C37.0321 5.08093 37.0407 5.5022 36.901 5.88507L35.7629 9.64374L32.4086 11.2011ZM32.0342 8.31102L32.7829 10.3026L35.2837 9.10467L36.3319 5.63052C36.4225 5.40268 36.4252 5.14927 36.3394 4.91958C36.2536 4.68988 36.0855 4.50027 35.8677 4.38759C35.7094 4.32344 35.5366 4.3035 35.3678 4.32987C35.199 4.35625 35.0405 4.42795 34.9093 4.53735L33.9809 7.38254L32.0342 8.31102Z" fill="#2D2D2B"/>
<path d="M32.4086 11.2011L29.6012 12.2588L30.7406 15.2831L33.6719 13.9222L32.4086 11.2011ZM31.1956 7.98157L29.912 5.27L27.4137 6.45261L28.3882 9.03927L31.1956 7.98157ZM33.4418 6.91833L34.7253 9.62989L35.8933 9.07701L36.294 7.8484L33.4418 6.91833ZM34.3403 4.16298L32.2633 1.99818L31.7211 2.51845L31.4881 3.23291L34.3403 4.16298ZM36.0623 3.84852L37.3393 1.13385L37.2901 1.11072L37.2401 1.08939L36.0623 3.84852ZM36.901 5.88507L34.0828 4.85662L34.054 4.93541L34.0297 5.01567L36.901 5.88507ZM35.7629 9.64374L37.0262 12.3648L38.2448 11.799L38.6341 10.5131L35.7629 9.64374ZM32.0342 8.31102L30.7427 5.60323L28.2569 6.78882L29.2261 9.36671L32.0342 8.31102ZM32.7829 10.3026L29.9748 11.3583L31.1267 14.4225L34.079 13.0082L32.7829 10.3026ZM35.2837 9.10467L36.5798 11.8103L37.7734 11.2384L38.1558 9.97127L35.2837 9.10467ZM36.3319 5.63052L33.5442 4.52223L33.4968 4.64128L33.4598 4.76393L36.3319 5.63052ZM35.8677 4.38759L37.2464 1.72316L37.123 1.65932L36.9943 1.60715L35.8677 4.38759ZM34.9093 4.53735L32.9883 2.2331L32.3251 2.78595L32.0573 3.6067L34.9093 4.53735ZM33.9809 7.38254L35.2724 10.0903L36.4337 9.53641L36.8329 8.31319L33.9809 7.38254ZM35.2159 10.1434L34.0029 6.92387L28.3882 9.03927L29.6012 12.2588L35.2159 10.1434ZM32.4791 10.6931L34.7253 9.62989L32.1583 4.20676L29.912 5.27L32.4791 10.6931ZM36.294 7.8484L37.1924 5.09305L31.4881 3.23291L30.5896 5.98826L36.294 7.8484ZM36.4172 6.32778C36.2172 6.51962 35.9654 6.64834 35.693 6.69809L34.6152 0.79569C33.7304 0.957257 32.9125 1.37537 32.2633 1.99818L36.4172 6.32778ZM35.693 6.69809C35.4204 6.74787 35.1392 6.71636 34.8846 6.60766L37.2401 1.08939C36.413 0.736296 35.5002 0.634082 34.6152 0.79569L35.693 6.69809ZM34.7854 6.5632C34.4765 6.41788 34.233 6.16223 34.1029 5.84631L39.651 3.56181C39.2105 2.49215 38.3858 1.62612 37.3393 1.13385L34.7854 6.5632ZM34.1029 5.84631C33.9729 5.53053 33.9657 5.17747 34.0828 4.85662L39.7192 6.91351C40.1157 5.82692 40.0914 4.63134 39.651 3.56181L34.1029 5.84631ZM34.0297 5.01567L32.8916 8.77435L38.6341 10.5131L39.7722 6.75446L34.0297 5.01567ZM34.4995 6.92272L31.1452 8.48011L33.6719 13.9222L37.0262 12.3648L34.4995 6.92272ZM29.2261 9.36671L29.9748 11.3583L35.591 9.24694L34.8423 7.25532L29.2261 9.36671ZM34.079 13.0082L36.5798 11.8103L33.9876 6.39909L31.4868 7.59705L34.079 13.0082ZM38.1558 9.97127L39.204 6.49712L33.4598 4.76393L32.4116 8.23808L38.1558 9.97127ZM39.1197 6.73881C39.4852 5.81938 39.496 4.79686 39.1498 3.86992L33.529 5.96924C33.3544 5.50169 33.3598 4.98597 33.5442 4.52223L39.1197 6.73881ZM39.1498 3.86992C38.8036 2.94304 38.1252 2.17789 37.2464 1.72316L34.489 7.05203C34.0458 6.82266 33.7036 6.43673 33.529 5.96924L39.1498 3.86992ZM36.9943 1.60715C36.3322 1.33889 35.6099 1.25564 34.9046 1.36584L35.8309 7.29391C35.4632 7.35136 35.0866 7.30798 34.7411 7.16803L36.9943 1.60715ZM34.9046 1.36584C34.1991 1.47608 33.5368 1.77582 32.9883 2.2331L36.8304 6.8416C36.5443 7.08009 36.1988 7.23642 35.8309 7.29391L34.9046 1.36584ZM32.0573 3.6067L31.1289 6.45189L36.8329 8.31319L37.7613 5.468L32.0573 3.6067ZM32.6894 4.67476L30.7427 5.60323L33.3257 11.0188L35.2724 10.0903L32.6894 4.67476Z" fill="#2BB018" mask="url(#path-36-inside-18_101_1436)"/>
<mask id="path-38-inside-19_101_1436" fill="white">
<path d="M8.3442 17.0113H7.46069V19.0928H8.3442V17.0113Z"/>
</mask>
<path d="M8.3442 17.0113H7.46069V19.0928H8.3442V17.0113Z" fill="#2D2D2B"/>
<path d="M7.46069 17.0113V14.0113H4.46069V17.0113H7.46069ZM8.3442 17.0113H11.3442V14.0113H8.3442V17.0113ZM8.3442 19.0928V22.0928H11.3442V19.0928H8.3442ZM7.46069 19.0928H4.46069V22.0928H7.46069V19.0928ZM7.46069 20.0113H8.3442V14.0113H7.46069V20.0113ZM5.3442 17.0113V19.0928H11.3442V17.0113H5.3442ZM8.3442 16.0928H7.46069V22.0928H8.3442V16.0928ZM10.4607 19.0928V17.0113H4.46069V19.0928H10.4607Z" fill="#2BB018" mask="url(#path-38-inside-19_101_1436)"/>
</svg>
