<svg width="38" height="39" viewBox="0 0 38 39" fill="none" xmlns="http://www.w3.org/2000/svg">
<path d="M13.016 37.9374L13.016 37.9374C13.1509 37.9388 13.2848 37.9125 13.4093 37.8601C13.5338 37.8077 13.6461 37.7304 13.7395 37.6329C13.8329 37.5353 13.9052 37.4197 13.9521 37.293C13.999 37.1664 14.0195 37.0315 14.0122 36.8967L14.0115 36.8832V36.8697V36.2265C14.0115 36.2064 14.0035 36.187 13.9891 36.1726C13.9761 36.1596 13.9589 36.1518 13.9407 36.1505C13.9198 36.1524 13.9001 36.1615 13.8852 36.1764C13.8696 36.192 13.8603 36.2127 13.8591 36.2346V36.8697C13.8591 36.9746 13.8494 37.1878 13.733 37.3884C13.5904 37.6344 13.3337 37.785 13.0108 37.785H11.4224C11.3044 37.7927 11.1859 37.7775 11.0737 37.7402C10.9523 37.6998 10.8406 37.6344 10.7459 37.548C10.6513 37.4618 10.5758 37.3566 10.5244 37.2394C10.4731 37.1226 10.4468 36.9963 10.4472 36.8687M13.016 37.9374L13.3591 36.8697C13.3591 37.0304 13.3189 37.285 13.0108 37.285H11.4028C11.345 37.2907 11.2866 37.2841 11.2315 37.2657C11.1764 37.2474 11.1257 37.2177 11.0827 37.1785C11.0398 37.1394 11.0056 37.0917 10.9822 37.0385C10.9589 36.9853 10.947 36.9278 10.9472 36.8697V34.4042C10.9472 34.2514 10.8866 34.1049 10.7785 33.9968C10.6705 33.8888 10.5239 33.8281 10.3711 33.8281C10.2183 33.8281 10.0717 33.8888 9.96364 33.9968C9.85559 34.1049 9.79492 34.2514 9.79492 34.4042V36.8697M13.016 37.9374H13.0108H11.4028V37.9373L11.3943 37.9375C11.2516 37.9399 11.1098 37.914 10.9771 37.8613C10.8444 37.8086 10.7235 37.7302 10.6213 37.6306C10.5191 37.5309 10.4376 37.412 10.3816 37.2807C10.3258 37.1499 10.2964 37.0094 10.2949 36.8674M13.016 37.9374L9.79492 36.8697M10.4472 36.8687C10.4472 36.8682 10.4472 36.8678 10.4472 36.8673L10.9472 36.8697H10.4472V36.8687ZM10.4472 36.8687V34.4042C10.4472 34.3839 10.4392 34.3646 10.425 34.3504C10.4107 34.3361 10.3913 34.3281 10.3711 34.3281C10.3509 34.3281 10.3315 34.3361 10.3172 34.3504C10.303 34.3646 10.2949 34.3839 10.2949 34.4042V36.8674M10.2949 36.8674C10.2949 36.8668 10.2949 36.8661 10.2949 36.8655L9.79492 36.8697M10.2949 36.8674V36.8697H9.79492" fill="#2BB018" stroke="#2BB018"/>
<path d="M25.5387 37.9374H25.5387C25.3995 37.9374 25.2617 37.9099 25.1331 37.8563C25.0046 37.8027 24.888 37.7243 24.79 37.6254C24.6919 37.5265 24.6145 37.4092 24.562 37.2803C24.5096 37.1514 24.4832 37.0133 24.4844 36.874L24.4844 36.874V36.8697V36.2265C24.4844 36.2063 24.4925 36.1869 24.5067 36.1727C24.5197 36.1597 24.5369 36.1519 24.5552 36.1506C24.5761 36.1524 24.5957 36.1615 24.6106 36.1765C24.6262 36.1921 24.6355 36.2128 24.6367 36.2346V36.8558C24.6313 36.9733 24.6493 37.0906 24.6896 37.2012C24.7322 37.3181 24.7989 37.425 24.8858 37.5147C24.9724 37.6042 25.077 37.6746 25.1927 37.7212C25.305 37.7663 25.4252 37.788 25.546 37.7851H27.16C27.4839 37.7851 27.7333 37.6286 27.8735 37.3949C27.991 37.199 28.0083 36.9897 28.0083 36.8697V34.4847C28.0083 34.4646 28.0163 34.4452 28.0307 34.4308C28.0437 34.4178 28.0609 34.41 28.0791 34.4087C28.1 34.4105 28.1197 34.4196 28.1346 34.4346C28.1502 34.4502 28.1595 34.4709 28.1607 34.4928V36.8697V36.8832L28.1615 36.8968C28.1688 37.0315 28.1483 37.1664 28.1014 37.2931C28.0545 37.4197 27.9821 37.5354 27.8887 37.6329C27.7954 37.7305 27.683 37.8078 27.5586 37.8602C27.4341 37.9126 27.3002 37.9389 27.1653 37.9375L27.16 38.4374V37.9374H25.5387Z" fill="#2BB018" stroke="#2BB018"/>
<path d="M9.51411 26.3153C9.30283 26.3287 9.10423 26.4214 8.95822 26.5751C8.80971 26.7314 8.72703 26.9389 8.7273 27.1546L8.7273 27.1553L8.7273 27.5706C8.7273 27.7934 8.81577 28.0071 8.97324 28.1646C9.13072 28.322 9.34441 28.4105 9.56721 28.4105H10.3443H11.3219L11.3257 28.4027C11.3365 28.3789 11.3378 28.3519 11.3294 28.3271C11.3209 28.302 11.303 28.2811 11.2794 28.2688L11.2853 28.2448L9.50092 28.2448C9.5008 28.2448 9.50068 28.2448 9.50055 28.2448H9.50015V27.7448C9.43844 27.7449 9.37908 27.7214 9.33422 27.679C9.28935 27.6366 9.2624 27.5786 9.25898 27.517L9.51411 26.3153ZM9.51411 26.3153H10.9071V26.3153L10.9091 26.3153C11.0216 26.3149 11.132 26.3462 11.2276 26.4056C11.3232 26.465 11.4 26.5501 11.4494 26.6512L11.7788 27.3252H11.5718M9.51411 26.3153L11.5718 27.3252M11.5718 27.3252L11.5807 27.2726C11.5049 27.2462 11.437 27.2012 11.3832 27.1417C11.3403 27.0942 11.3075 27.0387 11.2865 26.9786L11.5718 27.3252ZM9.90235 29.4333L10.2811 29.7537L10.2811 29.7538L9.90235 29.4333ZM11.454 35.345C11.2323 35.2245 11.0259 35.0801 10.838 34.9149C10.9915 35.0363 11.1565 35.1437 11.3312 35.2354L11.3559 35.2484L11.3819 35.2586L11.8908 35.4572C12.2927 35.6966 12.7477 35.8334 13.2155 35.855L13.227 35.8555H13.2386H25.2978H25.3105L25.3231 35.8549C25.8042 35.8305 26.2715 35.6861 26.6825 35.4348C26.6831 35.4344 26.6838 35.4339 26.6845 35.4335L27.012 35.237C27.505 34.9517 27.9124 34.5391 28.1914 34.0424C28.4702 33.5462 28.6106 32.9843 28.5982 32.4155V31.3549C28.6102 30.807 28.4292 30.2722 28.0866 29.8442L28.0867 29.8441L28.0803 29.8366L27.2669 28.8604L27.2709 28.8236L27.2093 28.6948L27.062 28.3867L27.052 28.3659L27.0402 28.3461C27.037 28.3406 27.0352 28.3342 27.0352 28.3277C27.0352 28.3212 27.0369 28.3148 27.0402 28.3093L27.0404 28.3093L27.0461 28.2992C27.0523 28.2881 27.0617 28.2793 27.073 28.2738L26.9003 27.5324L27.3059 26.6549C27.3236 26.6167 27.3453 26.5806 27.3704 26.5474V26.9654C27.3483 27.0288 27.313 27.0871 27.2667 27.1362C27.2092 27.1971 27.1368 27.2419 27.0565 27.266L27.2005 28.2448H29.1008C29.1681 28.2501 29.2359 28.2433 29.3012 28.2247C29.3951 28.1978 29.479 28.1475 29.546 28.0805C29.6127 28.0137 29.6632 27.93 29.6902 27.8356C29.7091 27.7698 29.7156 27.7019 29.7103 27.6352V26.9677V26.5049C29.7117 26.5062 29.7131 26.5076 29.7145 26.509C29.8352 26.6312 29.9029 26.796 29.9029 26.9676V26.9677V27.6644C29.9029 27.8587 29.8257 28.0451 29.6883 28.1825C29.5509 28.3199 29.3645 28.3971 29.1702 28.3971H28.326H27.2729L27.9386 29.2132L28.352 29.72C28.7123 30.1733 28.9052 30.7371 28.898 31.3162L28.898 31.3162V31.3224L28.8979 32.3943L28.898 32.3986C28.9031 32.9987 28.7467 33.5891 28.4453 34.108C28.1438 34.6269 27.7082 35.0551 27.1844 35.3478L27.1713 35.3551L27.1587 35.3632L26.8293 35.574C26.3766 35.8463 25.8607 35.9959 25.3325 36.0079H13.2869C12.7793 35.9907 12.2845 35.8449 11.8488 35.584C11.8484 35.5837 11.848 35.5835 11.8475 35.5832L11.4748 35.3569L11.4645 35.3507L11.454 35.345ZM26.7783 27.3252H26.5043C26.4905 27.3252 26.477 27.3214 26.4652 27.3142C26.4537 27.3072 26.4441 27.2973 26.4376 27.2852C26.4375 27.2849 26.4373 27.2847 26.4372 27.2845L26.2509 26.9251L26.2509 26.9251L26.2482 26.92C25.8173 26.1117 25.1738 25.4364 24.3871 24.9671C23.6009 24.4979 22.7016 24.2523 21.786 24.2568H16.5896C15.6741 24.2523 14.7746 24.4979 13.9884 24.9671C13.7315 25.1203 13.4899 25.2956 13.266 25.4902C13.5536 25.2177 13.8729 24.9782 14.2183 24.7772C15.0032 24.3204 15.8949 24.0791 16.8031 24.0777H21.9338C22.845 24.0807 23.7394 24.324 24.5266 24.783C25.314 25.2421 25.9663 25.9009 26.4177 26.6927L26.7783 27.3252ZM27.857 26.3153H29.2606C29.411 26.3177 29.5553 26.3718 29.6696 26.4677H29.2103H27.8704H27.4432C27.4689 26.4443 27.4967 26.4231 27.5264 26.4045C27.6226 26.3442 27.7344 26.3132 27.8479 26.3153V26.3153H27.857Z" fill="#2BB018" stroke="#2BB018"/>
<path d="M23.4308 34.4192C23.4285 34.403 23.4288 34.3865 23.4316 34.3704L23.5192 33.8731L23.0211 33.7904C22.5195 33.7072 22.0137 33.6515 21.5061 33.6237L21.4924 33.6229H21.4787H16.8828H16.8726L16.8624 33.6233C16.3454 33.6444 15.8305 33.7006 15.3211 33.7915L14.7936 33.8856L14.9236 34.4043L14.92 34.4189L14.9171 34.4348C14.9144 34.4491 14.9077 34.4625 14.8976 34.4732C14.8959 34.475 14.8942 34.4766 14.8925 34.4782C14.8065 34.4618 14.7272 34.42 14.6649 34.3577C14.5995 34.2923 14.5567 34.2081 14.5421 34.1172C14.5448 34.0354 14.5735 33.9564 14.6244 33.8918C14.679 33.8224 14.7559 33.774 14.842 33.7546C15.5375 33.6147 16.2422 33.5243 16.9505 33.484H21.5179C22.2296 33.5254 22.9377 33.6156 23.637 33.754C23.7221 33.7749 23.798 33.8234 23.8528 33.8919C23.903 33.9546 23.9328 34.0308 23.9388 34.1105C23.9233 34.1989 23.8809 34.2806 23.8172 34.3443C23.7467 34.4148 23.6541 34.4592 23.555 34.47L23.5366 34.472L23.5184 34.4754C23.4987 34.479 23.4784 34.4747 23.4618 34.4634C23.4463 34.4529 23.4353 34.4371 23.4308 34.4192ZM25.5027 32.3255L26.48 32.0444L26.4808 32.0442L26.4805 32.0443C26.6531 31.9948 26.8109 31.904 26.9404 31.7799C26.9475 31.7735 26.9558 31.7685 26.9649 31.7651C26.9746 31.7614 26.9848 31.7598 26.995 31.7601C27.0053 31.7604 27.0154 31.7628 27.0248 31.767C27.0341 31.7713 27.0426 31.7773 27.0496 31.7849C27.0565 31.7922 27.062 31.8009 27.0657 31.8108C27.0694 31.8207 27.071 31.8309 27.0707 31.8409C27.0704 31.851 27.0681 31.8611 27.0637 31.8706C27.0601 31.8788 27.055 31.8862 27.0489 31.8926C26.8918 32.03 26.708 32.1334 26.509 32.1962L25.462 32.4878L25.2335 32.5474C25.17 32.5401 25.1081 32.522 25.0506 32.4937C24.9794 32.4587 24.9166 32.409 24.8662 32.3478L24.7145 32.1329L24.706 32.1208L24.6968 32.1093C24.6572 32.0598 24.6289 32.0022 24.6138 31.9407C24.5987 31.879 24.5971 31.815 24.6092 31.7528L24.6119 31.7386L24.6139 31.7243C24.6226 31.6595 24.6449 31.5973 24.6795 31.5416C24.714 31.4859 24.7598 31.4382 24.8139 31.4016L24.814 31.4017L24.8226 31.3956L26.3367 30.3236L26.3588 30.308L26.3791 30.29C26.3871 30.283 26.3965 30.2776 26.4069 30.2744C26.4171 30.2712 26.4279 30.2702 26.4386 30.2715C26.4493 30.2727 26.4595 30.2762 26.4687 30.2817C26.4779 30.2872 26.4859 30.2946 26.492 30.3034C26.4981 30.3121 26.5024 30.3221 26.5044 30.3327C26.5064 30.3431 26.5062 30.3539 26.5037 30.3645C26.5012 30.3752 26.4965 30.385 26.4901 30.3933C26.4836 30.4018 26.4754 30.4089 26.4659 30.414L26.4351 30.4307L26.407 30.4516L25.067 31.4431L25.5027 32.3255ZM11.5177 31.7807C11.6636 31.952 11.8595 32.0732 12.0777 32.1273L13.0313 32.4054L13.458 31.5158L11.9869 30.4861C11.9793 30.4805 11.9728 30.4734 11.9676 30.4651C11.9622 30.4565 11.9586 30.447 11.957 30.4373C11.9554 30.4275 11.9557 30.4173 11.958 30.4075C11.9602 30.3978 11.9644 30.3886 11.9702 30.3804C11.976 30.3723 11.9834 30.3653 11.9919 30.36C12.0004 30.3547 12.0099 30.3511 12.0198 30.3495C12.0298 30.3478 12.0398 30.3481 12.0495 30.3504C12.0592 30.3526 12.0684 30.3568 12.0766 30.3626L12.0766 30.3626L12.0796 30.3647L13.6607 31.4769L13.6606 31.4769L13.6681 31.482C13.7224 31.5187 13.7683 31.5665 13.8027 31.622C13.8371 31.6775 13.8594 31.7397 13.8682 31.8047L13.8682 31.8047L13.869 31.8101C13.8892 31.9488 13.8553 32.0898 13.7744 32.2039L13.6226 32.4024C13.5759 32.4483 13.5208 32.485 13.4602 32.5106C13.3933 32.5388 13.3212 32.5525 13.2485 32.5511L13.2485 32.5509H13.2382H13.2248H13.1855L13.1467 32.5571C13.1169 32.5618 13.0867 32.5627 13.0567 32.5598L12.0226 32.2755C11.7878 32.2051 11.5772 32.0709 11.4143 31.8878L11.4004 31.8722L11.3852 31.8578C11.3775 31.8505 11.3715 31.8417 11.3674 31.8321C11.3635 31.8226 11.3614 31.8122 11.3616 31.8014C11.3618 31.7906 11.3641 31.7802 11.3685 31.7709C11.3728 31.7613 11.3792 31.7527 11.387 31.7457C11.3948 31.7388 11.404 31.7335 11.4142 31.7302C11.4242 31.7269 11.4348 31.7258 11.4453 31.7268C11.4558 31.7279 11.466 31.7311 11.4751 31.7362C11.4843 31.7414 11.4923 31.7484 11.4986 31.7568L11.5078 31.769L11.5177 31.7807ZM14.3172 27.5615C17.5608 28.5262 21.0151 28.5262 24.2586 27.5615H24.3327H24.3754L24.4176 27.5543C24.436 27.5511 24.455 27.5548 24.4708 27.5647C24.4867 27.5746 24.4984 27.59 24.5036 27.6079C24.5089 27.6257 24.5074 27.645 24.4993 27.662C24.492 27.6773 24.48 27.6896 24.4652 27.6971C22.8103 28.3124 21.0457 28.5785 19.2828 28.4784L19.2818 28.496L19.2813 28.4776H19.2544L19.2542 28.4867L19.2537 28.4784C17.4985 28.5752 15.7425 28.303 14.099 27.6794L14.0815 27.6728L14.0636 27.6675C14.0469 27.6625 14.0328 27.6511 14.0244 27.6357C14.016 27.6202 14.0141 27.6021 14.0191 27.5854C14.024 27.5687 14.0355 27.5546 14.0509 27.5462C14.0663 27.5378 14.0844 27.536 14.1011 27.5409L14.1707 27.5615H14.2432H14.3172Z" fill="#2BB018" stroke="#2BB018"/>
<path d="M11.4028 19.5404V19.5402L11.39 19.5405C11.2483 19.5442 11.1072 19.5195 10.9751 19.4681C10.843 19.4167 10.7225 19.3394 10.6205 19.2408C10.5185 19.1422 10.4372 19.0244 10.3813 18.8941C10.3257 18.7644 10.2963 18.625 10.2949 18.4838V16.0206C10.2949 16.0003 10.303 15.981 10.3172 15.9668C10.3315 15.9525 10.3509 15.9445 10.3711 15.9445C10.3913 15.9445 10.4107 15.9525 10.425 15.9668C10.4392 15.981 10.4472 16.0003 10.4472 16.0206V18.4861V18.4934L10.4474 18.5007C10.4511 18.6253 10.4798 18.7478 10.5318 18.861C10.5837 18.9741 10.6578 19.0758 10.75 19.1598C10.8423 19.244 10.9505 19.3084 11.0678 19.3497C11.1794 19.3889 11.2974 19.4065 11.4156 19.4014H13.0108C13.3449 19.4014 13.5979 19.2376 13.7352 18.9961C13.8481 18.7975 13.8591 18.5887 13.8591 18.4861V17.8429C13.8591 17.8228 13.8671 17.8034 13.8814 17.789C13.8957 17.7748 13.9151 17.7667 13.9353 17.7667C13.9554 17.7667 13.9748 17.7747 13.9891 17.789C14.0035 17.8034 14.0115 17.8228 14.0115 17.8429V18.4861V18.4997L14.0122 18.5134C14.0195 18.6471 13.9992 18.781 13.9524 18.9067C13.9056 19.0323 13.8334 19.1469 13.7404 19.2432C13.6474 19.3396 13.5354 19.4157 13.4114 19.4669C13.2876 19.5181 13.1545 19.5431 13.0206 19.5405L13.0108 20.0404V19.5404H11.4028Z" fill="#2BB018" stroke="#2BB018"/>
<path d="M27.1699 19.5404L27.1699 19.5403H27.16H25.5387V19.5403L25.5343 19.5403C25.3961 19.5415 25.259 19.5152 25.1311 19.4629C25.0032 19.4105 24.8869 19.3332 24.7892 19.2355C24.6915 19.1378 24.6142 19.0216 24.5619 18.8936C24.5095 18.7657 24.4832 18.6286 24.4844 18.4904L24.4844 18.4904V18.486V17.8428C24.4844 17.8225 24.4925 17.8032 24.5067 17.789C24.521 17.7747 24.5404 17.7667 24.5606 17.7667C24.5807 17.7667 24.6001 17.7746 24.6144 17.789C24.6288 17.8033 24.6367 17.8227 24.6367 17.8428V18.4721C24.6313 18.5895 24.6493 18.7069 24.6896 18.8174C24.7322 18.9344 24.799 19.0412 24.8858 19.131C24.9724 19.2205 25.077 19.2909 25.1927 19.3374C25.305 19.3826 25.4252 19.4043 25.5461 19.4014H27.16C27.4949 19.4014 27.741 19.2315 27.8757 19.0024C27.9895 18.8089 28.0083 18.6037 28.0083 18.486V16.1009C28.0083 16.0808 28.0163 16.0615 28.0307 16.0471C28.0437 16.0341 28.0609 16.0263 28.0791 16.025C28.1 16.0268 28.1197 16.0359 28.1346 16.0509C28.1502 16.0665 28.1595 16.0872 28.1607 16.109V18.486V18.4997L28.1615 18.5134C28.1688 18.6471 28.1484 18.7809 28.1016 18.9066C28.0548 19.0322 27.9827 19.1468 27.8897 19.2432C27.7966 19.3395 27.6846 19.4157 27.5607 19.4668C27.4368 19.518 27.3038 19.543 27.1699 19.5404Z" fill="#2BB018" stroke="#2BB018"/>
<path d="M9.51411 7.9452H10.9071V7.9452L10.9091 7.94519C11.0217 7.94475 11.132 7.97602 11.2276 8.03541C11.3231 8.0948 11.4 8.17993 11.4494 8.28106L11.7984 8.99527H11.5741L11.5807 8.95606C11.5049 8.92966 11.437 8.88462 11.3832 8.82514C11.3403 8.77765 11.3075 8.72216 11.2865 8.66207V8.65111V8.15111H10.7865H9.39302C9.22493 8.15111 9.06361 8.21788 8.94468 8.33682C8.82586 8.45564 8.75898 8.61686 8.75898 8.78511V9.20048V9.21438L8.75975 9.22826C8.77029 9.41782 8.85318 9.59585 8.9909 9.72592C9.12865 9.85601 9.31099 9.92845 9.50056 9.92825H9.50015V9.42825L9.50092 9.92825L9.51411 7.9452ZM9.51411 7.9452C9.30283 7.95856 9.10423 8.05125 8.95822 8.20494C8.80971 8.36127 8.72703 8.56877 8.7273 8.78449L8.7273 8.78511L8.7273 9.20048C8.7273 9.4233 8.81576 9.6369 8.97324 9.79437C9.13075 9.95189 9.34445 10.0404 9.56721 10.0404H10.3443H11.308L11.3102 10.0359L11.3219 10.0162C11.3253 10.0106 11.327 10.0042 11.327 9.99774C11.327 9.99119 11.3252 9.98481 11.3219 9.97928L11.316 9.96926L11.3161 9.9692C11.31 9.9584 11.3006 9.94948 11.2891 9.94382L11.2927 9.92825L9.51411 7.9452ZM11.5368 16.4628L11.3605 16.9087C11.3458 16.9001 11.3311 16.8913 11.3164 16.8824L11.5368 16.4628ZM10.1617 11.5328C10.1554 11.5404 10.1491 11.548 10.1429 11.5556C10.1863 11.4935 10.2327 11.4332 10.2819 11.3749L10.7218 10.8682L10.8993 10.6639L10.1641 11.53L10.1641 11.53L10.1617 11.5328ZM13.9861 6.6332C13.5699 6.8815 13.1941 7.18773 12.8689 7.54096C13.2488 7.09008 13.7047 6.7059 14.2183 6.40703C15.0032 5.95022 15.8949 5.7089 16.8031 5.70752H21.9338C22.845 5.71054 23.7394 5.95385 24.5266 6.41286C25.314 6.872 25.9663 7.53074 26.4177 8.3226L26.7836 8.96446L26.7005 8.98946V8.99527H26.5043C26.4905 8.99521 26.477 8.99142 26.4652 8.98426C26.4537 8.97731 26.4441 8.96733 26.4376 8.95521C26.4375 8.95498 26.4373 8.95475 26.4372 8.95451L26.2509 8.59512L26.2509 8.59512L26.2491 8.5917C25.8205 7.78073 25.1772 7.10319 24.3895 6.6332C23.6025 6.1636 22.7016 5.91927 21.7851 5.92685H16.5905C15.674 5.91927 14.7731 6.1636 13.9861 6.6332ZM27.857 7.9452H29.2606C29.4314 7.94784 29.5944 8.01737 29.7145 8.13889C29.8352 8.26103 29.9029 8.4258 29.9029 8.59747V8.59751V9.29429C29.9029 9.48859 29.8257 9.67494 29.6883 9.81237C29.5508 9.9498 29.3645 10.027 29.1702 10.027H28.326H27.2548L27.9428 10.8481L28.3533 11.338C28.7128 11.7962 28.905 12.3636 28.898 12.9462L28.898 12.9462V12.9522L28.8979 14.0242L28.898 14.0285C28.9031 14.6286 28.7467 15.219 28.4453 15.7379C28.1438 16.2567 27.7082 16.685 27.1844 16.9777L27.1713 16.985L27.1587 16.993L26.831 17.2028C26.3771 17.4708 25.8613 17.6161 25.3342 17.6243H13.2869C12.7793 17.6072 12.2845 17.4613 11.8488 17.2004C11.8484 17.2002 11.848 17.1999 11.8475 17.1997L11.4868 16.9807L11.8931 17.1413C12.2945 17.3736 12.7446 17.5095 13.2078 17.5381L13.2232 17.539H13.2386H25.2978H25.3105L25.3231 17.5384C25.805 17.514 26.2731 17.369 26.6845 17.1169L26.6846 17.117L26.6928 17.1117L27.0185 16.9033C27.5086 16.6181 27.9136 16.207 28.1914 15.7125C28.4702 15.2163 28.6106 14.6544 28.5982 14.0855V13.025C28.6102 12.4771 28.4292 11.9423 28.0866 11.5143L28.0867 11.5142L28.0803 11.5066L27.2669 10.5304L27.2709 10.4936L27.2094 10.3649L27.062 10.0567L27.0536 10.0392L27.0439 10.0224C27.0384 10.0128 27.0355 10.002 27.0355 9.99103C27.0355 9.98411 27.0366 9.97726 27.0389 9.97074C27.0489 9.95921 27.0611 9.94973 27.0749 9.9429L27.0714 9.92825H27.2005H29.13C29.2834 9.92825 29.4312 9.86748 29.5403 9.75829C29.6493 9.64936 29.7103 9.50167 29.7103 9.34786V8.65111V8.15111H29.2103H27.8704H27.4755L27.384 8.53529C27.3646 8.6168 27.3242 8.69175 27.2667 8.75265C27.2092 8.81355 27.1368 8.85831 27.0565 8.88243L27.0253 8.89181L27.3059 8.28475C27.3536 8.18165 27.4302 8.09466 27.5264 8.03436C27.6226 7.97406 27.7344 7.94305 27.8479 7.94511V7.9452H27.857Z" fill="#2BB018" stroke="#2BB018"/>
<path d="M25.503 13.9418L26.4803 13.6607C26.4805 13.6606 26.4807 13.6606 26.4809 13.6605C26.6535 13.6111 26.8113 13.5203 26.9407 13.3961C26.9479 13.3898 26.9561 13.3848 26.9652 13.3814C26.9749 13.3777 26.9852 13.376 26.9953 13.3764C27.0055 13.3767 27.0156 13.3791 27.0251 13.3833C27.0346 13.3877 27.043 13.3937 27.05 13.4011C27.0568 13.4084 27.0623 13.4172 27.066 13.4271C27.0697 13.4369 27.0714 13.4472 27.0711 13.4572C27.0707 13.4673 27.0684 13.4774 27.0641 13.4869C27.0602 13.4954 27.0549 13.5031 27.0484 13.5097C26.8969 13.6449 26.716 13.7429 26.5201 13.7962L26.5201 13.7961L26.5114 13.7986L25.4528 14.1068L25.4218 14.1158L25.3922 14.1287C25.3508 14.1468 25.3072 14.1594 25.2626 14.1662C25.1891 14.1616 25.1171 14.1426 25.0509 14.11C24.9815 14.0758 24.9199 14.0276 24.8701 13.9684L24.7223 13.7467L24.7086 13.7261L24.6928 13.7069C24.6538 13.6594 24.626 13.6038 24.6114 13.5442C24.5967 13.4847 24.5956 13.4225 24.6082 13.3623L24.6117 13.3456L24.614 13.3286C24.6226 13.2666 24.6443 13.2072 24.6777 13.1544C24.7112 13.1015 24.7556 13.0564 24.8079 13.0221L24.8155 13.0171L24.823 13.0119L26.3371 11.9399L26.3592 11.9243L26.3795 11.9063C26.3874 11.8993 26.3969 11.8939 26.4072 11.8907C26.4175 11.8875 26.4283 11.8865 26.4389 11.8877C26.4495 11.889 26.4597 11.8925 26.469 11.898C26.4784 11.9036 26.4863 11.911 26.4924 11.9197C26.4985 11.9284 26.5027 11.9384 26.5047 11.949C26.5067 11.9594 26.5065 11.9703 26.504 11.9808C26.5015 11.9915 26.4969 12.0012 26.4905 12.0096C26.484 12.0181 26.4757 12.0252 26.4663 12.0303L26.4355 12.047L26.4073 12.0679L25.0674 13.0594L25.503 13.9418ZM14.8457 15.3571C15.5424 15.2307 16.2458 15.1449 16.9524 15.1002H21.5182C22.2312 15.1417 22.9404 15.2322 23.6409 15.371C23.7258 15.3903 23.8017 15.4378 23.8561 15.5058C23.906 15.5682 23.9351 15.6445 23.9397 15.7239C23.9245 15.8134 23.882 15.8962 23.8176 15.9606C23.747 16.0311 23.6545 16.0755 23.5553 16.0863L23.5446 16.0874L23.534 16.0891C23.52 16.0912 23.5056 16.09 23.4921 16.0855C23.4787 16.081 23.4665 16.0734 23.4566 16.0632C23.4466 16.0531 23.4392 16.0407 23.435 16.0272C23.4307 16.0135 23.4298 15.9992 23.4322 15.9852L23.5169 15.4959L23.0282 15.4079C22.5231 15.3169 22.0123 15.2607 21.4995 15.2396L21.4893 15.2392H21.479H16.8831H16.8729L16.8627 15.2396C16.3457 15.2607 15.8308 15.3169 15.3214 15.4077L14.7939 15.5018L14.924 16.0206L14.9212 16.0316L14.9188 16.0439C14.9155 16.0602 14.9077 16.0755 14.8961 16.0878C14.8944 16.0897 14.8926 16.0914 14.8907 16.0931C14.8066 16.0748 14.7292 16.0326 14.6679 15.9714C14.6028 15.9063 14.5593 15.823 14.5429 15.7329C14.5472 15.6491 14.577 15.5684 14.6288 15.5017C14.6835 15.4312 14.7597 15.3805 14.8457 15.3571ZM11.9784 11.9001C11.9996 11.8964 12.0213 11.9012 12.039 11.9135C12.0392 11.9136 12.0394 11.9137 12.0396 11.9138L13.6186 13.0379L13.6265 13.0435L13.6346 13.0489C13.687 13.0832 13.7314 13.1283 13.7649 13.1811C13.7983 13.234 13.82 13.2934 13.8286 13.3554L13.8285 13.3554L13.8299 13.3646C13.8406 13.4325 13.8376 13.5018 13.8212 13.5686C13.8049 13.6353 13.7754 13.6981 13.7344 13.7534L13.7344 13.7533L13.731 13.7581L13.5662 13.9862C13.5226 14.0377 13.4693 14.0802 13.4093 14.1113C13.35 14.142 13.2855 14.161 13.2191 14.1672H13.1859L13.147 14.1734C13.118 14.178 13.0885 14.179 13.0593 14.1763L12.0234 13.8785L12.0234 13.8785L12.0206 13.8777C11.7862 13.8118 11.5751 13.6811 11.4115 13.5007L11.4066 13.4952L11.4015 13.4899C11.3854 13.4732 11.3765 13.451 11.3765 13.4278C11.3765 13.4061 11.3844 13.3852 11.3986 13.3689C11.405 13.363 11.4125 13.3583 11.4205 13.355C11.4298 13.3511 11.4397 13.3491 11.4498 13.3491C11.4598 13.3491 11.4697 13.3511 11.479 13.355C11.4871 13.3583 11.4945 13.363 11.5009 13.3689C11.6451 13.5211 11.828 13.6313 12.0298 13.6876L12.9914 13.9681L13.4181 13.0785L11.9454 12.0476C11.9453 12.0475 11.9452 12.0474 11.9451 12.0474C11.9275 12.0349 11.9156 12.0159 11.9119 11.9947C11.9082 11.9732 11.9131 11.9512 11.9255 11.9336C11.938 11.9159 11.957 11.9038 11.9784 11.9001ZM19.2539 10.0813C17.504 10.1785 15.7531 9.91252 14.1111 9.30006C14.0962 9.29243 14.0841 9.28009 14.0769 9.26492C14.0689 9.24806 14.0674 9.22882 14.0726 9.21084C14.0779 9.19279 14.0896 9.17745 14.1054 9.16761C14.1212 9.15772 14.1402 9.154 14.1586 9.15717L14.2008 9.16443H14.2435H14.3176C17.5611 10.1291 21.0154 10.1291 24.259 9.16443H24.333H24.3758L24.4179 9.15717C24.4363 9.154 24.4553 9.15772 24.4712 9.16761C24.4871 9.17754 24.4988 9.19295 24.504 9.21084C24.5092 9.22862 24.5077 9.24787 24.4996 9.26492C24.4924 9.28008 24.4805 9.29231 24.4658 9.29989C22.8097 9.91236 21.0454 10.1783 19.2823 10.0813L19.2818 10.089L19.2816 10.0805H19.2548L19.2545 10.0922L19.2539 10.0813Z" fill="#2BB018" stroke="#2BB018"/>
<path d="M33.4846 19.6609H4.9846C4.96446 19.6609 4.94512 19.6529 4.9308 19.6386C4.91644 19.6242 4.90845 19.6049 4.90845 19.5848C4.90845 19.5647 4.91644 19.5453 4.9308 19.5309C4.94512 19.5166 4.96446 19.5086 4.9846 19.5086H33.4846C33.5049 19.5086 33.5243 19.5166 33.5385 19.5309C33.5528 19.5451 33.5608 19.5645 33.5608 19.5848C33.5608 19.605 33.5528 19.6244 33.5385 19.6386C33.5243 19.6529 33.5049 19.6609 33.4846 19.6609Z" fill="#2BB018" stroke="#2BB018"/>
<path d="M33.5424 3.58617V3.08617H33.0424H5.42676H4.92676V3.58617V37.8612V37.8613C4.92677 37.8813 4.91896 37.9004 4.9051 37.9146C4.89192 37.9281 4.87422 37.9362 4.85547 37.9374H2.57274C2.55259 37.9374 2.53326 37.9294 2.51893 37.9151C2.5046 37.9008 2.49658 37.8813 2.49658 37.8612V0.718732C2.49658 0.69864 2.50457 0.679249 2.51893 0.664889C2.53326 0.650566 2.55259 0.642578 2.57274 0.642578H35.9099C35.9301 0.642578 35.9495 0.65062 35.9637 0.664889C35.978 0.67912 35.986 0.698459 35.986 0.718732V37.8612C35.986 37.8815 35.9779 37.9009 35.9637 37.9151C35.9495 37.9294 35.9301 37.9374 35.9099 37.9374H33.6267C33.6049 37.9361 33.5842 37.9269 33.5685 37.9113C33.5529 37.8957 33.5437 37.875 33.5424 37.8531V3.58617ZM33.6948 37.2847L33.6944 37.785H34.1948H35.3337H35.8337V37.285V1.29493V0.794927H35.3337H3.17571H2.67571V1.29493V37.285V37.785H3.17571H4.31461H4.81461V37.285V3.01002C4.81461 2.98989 4.82263 2.97047 4.83696 2.95613C4.85123 2.94186 4.87063 2.93382 4.89085 2.93382H33.6454C33.6656 2.93382 33.685 2.94186 33.6993 2.95613C33.7134 2.9703 33.7215 2.9896 33.7215 3.00985C33.7215 3.00991 33.7215 3.00996 33.7215 3.01002L33.6948 37.2847Z" fill="#2BB018" stroke="#2BB018"/>
<path d="M37.4238 37.9374H0.584245C0.562445 37.9361 0.54174 37.9269 0.526113 37.9113C0.511145 37.8963 0.502024 37.8766 0.500193 37.8558C0.501494 37.8375 0.509316 37.8203 0.52227 37.8073C0.536539 37.7931 0.555934 37.785 0.576154 37.785H37.4238C37.4441 37.785 37.4635 37.7931 37.4777 37.8073C37.492 37.8216 37.5 37.8409 37.5 37.8612C37.5 37.8815 37.4919 37.9009 37.4777 37.9151C37.4635 37.9293 37.4441 37.9374 37.4238 37.9374Z" fill="#2BB018" stroke="#2BB018"/>
</svg>
