<svg width="47" height="26" viewBox="0 0 47 26" fill="none" xmlns="http://www.w3.org/2000/svg">
<path d="M39.8344 21.6764C38.4537 21.5564 37.1534 20.9759 36.1423 20.0281C35.6362 19.5633 35.0421 19.2046 34.3951 18.9732C33.7471 19.1946 33.1521 19.5482 32.6479 20.0116C32.184 20.5351 31.6142 20.9541 30.9764 21.2411C30.3385 21.5281 29.647 21.6765 28.9476 21.6765C28.2481 21.6765 27.5566 21.5281 26.9188 21.2411C26.2809 20.9541 25.7112 20.5351 25.2472 20.0116C24.7445 19.5423 24.1494 19.1831 23.5 18.9568C22.8548 19.1816 22.2648 19.5411 21.7693 20.0116C20.7482 20.9543 19.4446 21.5337 18.0607 21.6599C16.681 21.5362 15.3818 20.9562 14.3686 20.0116C14.2027 19.6938 13.9529 19.4275 13.6463 19.2417C13.3398 19.0558 12.9882 18.9576 12.6297 18.9576C12.2712 18.9576 11.9195 19.0558 11.6129 19.2417C11.3063 19.4275 11.0565 19.6938 10.8907 20.0116C9.86803 20.9618 8.55661 21.5421 7.16563 21.6599C5.79007 21.5389 4.4953 20.9582 3.48996 20.0116C2.98243 19.5404 2.38156 19.181 1.72629 18.9568C1.50828 18.9792 1.288 18.9556 1.07967 18.8876C0.871336 18.8195 0.679615 18.7085 0.516896 18.5617C0.354178 18.4149 0.224097 18.2356 0.135059 18.0353C0.046021 17.835 0 17.6183 0 17.3991C0 17.18 0.046021 16.9632 0.135059 16.763C0.224097 16.5627 0.354178 16.3834 0.516896 16.2366C0.679615 16.0897 0.871336 15.9787 1.07967 15.9107C1.288 15.8426 1.50828 15.819 1.72629 15.8415C3.11181 15.9616 4.4173 16.5418 5.43491 17.4898C5.93676 17.9479 6.52524 18.301 7.16563 18.5282C7.81364 18.3068 8.40859 17.9532 8.91279 17.4898C9.37675 16.9664 9.94649 16.5473 10.5844 16.2604C11.2222 15.9734 11.9137 15.825 12.6132 15.825C13.3126 15.825 14.0041 15.9734 14.642 16.2604C15.2798 16.5473 15.8496 16.9664 16.3135 17.4898C16.4857 17.8025 16.7386 18.0633 17.046 18.2449C17.3533 18.4266 17.7037 18.5224 18.0607 18.5224C18.4177 18.5224 18.7681 18.4266 19.0755 18.2449C19.3828 18.0633 19.6357 17.8025 19.8079 17.4898C20.2718 16.9664 20.8416 16.5473 21.4794 16.2604C22.1173 15.9734 22.8088 15.825 23.5082 15.825C24.2077 15.825 24.8992 15.9734 25.5371 16.2604C26.1749 16.5473 26.7447 16.9664 27.2086 17.4898C27.3784 17.803 27.6296 18.0645 27.9356 18.2468C28.2417 18.429 28.5913 18.5252 28.9476 18.5252C29.3038 18.5252 29.6534 18.429 29.9595 18.2468C30.2655 18.0645 30.5167 17.803 30.6865 17.4898C31.1504 16.9664 31.7202 16.5473 32.358 16.2604C32.9959 15.9734 33.6874 15.825 34.3868 15.825C35.0863 15.825 35.7778 15.9734 36.4157 16.2604C37.0536 16.5473 37.6232 16.9664 38.0872 17.4898C38.595 17.9483 39.1889 18.3013 39.8344 18.5282C40.4766 18.3047 41.0657 17.9512 41.5651 17.4898C42.5848 16.545 43.8891 15.9653 45.2737 15.8415C45.4917 15.819 45.712 15.8426 45.9203 15.9107C46.1287 15.9787 46.3204 16.0897 46.4831 16.2366C46.6458 16.3834 46.7759 16.5627 46.8649 16.763C46.954 16.9632 47 17.18 47 17.3991C47 17.6183 46.954 17.835 46.8649 18.0353C46.7759 18.2356 46.6458 18.4149 46.4831 18.5617C46.3204 18.7085 46.1287 18.8195 45.9203 18.8876C45.712 18.9556 45.4917 18.9792 45.2737 18.9568C44.6316 19.1802 44.0424 19.5337 43.543 19.9951C42.5251 20.9477 41.2217 21.5386 39.8344 21.6764ZM34.3951 18.0832C35.2458 18.2739 36.0273 18.696 36.6532 19.3029C37.5179 20.1473 38.6352 20.6856 39.8344 20.8358C41.0245 20.6821 42.1337 20.1506 42.9991 19.3194C43.626 18.7017 44.4144 18.2732 45.2737 18.0832C45.4661 18.0832 45.6505 18.0068 45.7865 17.8708C45.9225 17.7347 45.999 17.5503 45.999 17.3579C45.999 17.1656 45.9225 16.9811 45.7865 16.8451C45.6505 16.7091 45.4661 16.6327 45.2737 16.6327C44.0752 16.7852 42.9587 17.3232 42.0926 18.1656C41.4687 18.7753 40.6864 19.1978 39.8344 19.3853C38.9784 19.1958 38.1913 18.7737 37.5598 18.1656C37.1801 17.6883 36.6975 17.3028 36.1481 17.0379C35.5988 16.773 34.9967 16.6354 34.3868 16.6354C33.7769 16.6354 33.1749 16.773 32.6255 17.0379C32.0762 17.3028 31.5937 17.6883 31.2139 18.1656C30.9659 18.5396 30.6291 18.8463 30.2336 19.0586C29.8382 19.2708 29.3964 19.3819 28.9476 19.3819C28.4988 19.3819 28.057 19.2708 27.6615 19.0586C27.2661 18.8463 26.9293 18.5396 26.6812 18.1656C26.2998 17.6881 25.8158 17.3025 25.2651 17.0376C24.7144 16.7726 24.1111 16.635 23.5 16.635C22.8889 16.635 22.2856 16.7726 21.7349 17.0376C21.1842 17.3025 20.7002 17.6881 20.3188 18.1656C20.0727 18.5396 19.7375 18.8467 19.3434 19.0591C18.9492 19.2716 18.5085 19.3828 18.0607 19.3828C17.6129 19.3828 17.1722 19.2716 16.7781 19.0591C16.3839 18.8467 16.0487 18.5396 15.8026 18.1656C15.4212 17.6881 14.9372 17.3025 14.3865 17.0376C13.8358 16.7726 13.2325 16.635 12.6214 16.635C12.0103 16.635 11.407 16.7726 10.8563 17.0376C10.3056 17.3025 9.82163 17.6881 9.44025 18.1656C9.19217 18.5396 8.85538 18.8463 8.45993 19.0586C8.06448 19.2708 7.62267 19.3819 7.17387 19.3819C6.72508 19.3819 6.28322 19.2708 5.88777 19.0586C5.49232 18.8463 5.15558 18.5396 4.9075 18.1656C4.04278 17.3212 2.92554 16.7829 1.72629 16.6327C1.53395 16.6327 1.34948 16.7091 1.21347 16.8451C1.07746 16.9811 1.00105 17.1656 1.00105 17.3579C1.00105 17.5503 1.07746 17.7347 1.21347 17.8708C1.34948 18.0068 1.53395 18.0832 1.72629 18.0832C2.5823 18.2727 3.3694 18.6947 4.00092 19.3029C4.86128 20.1441 5.97222 20.6822 7.16563 20.8358C8.36149 20.6855 9.47705 20.1538 10.3468 19.3194C10.9737 18.7017 11.7621 18.2732 12.6214 18.0832C13.4721 18.2739 14.2536 18.696 14.8795 19.3029C15.2611 19.7774 15.7442 20.1603 16.2933 20.4234C16.8424 20.6866 17.4435 20.8231 18.0524 20.8231C18.6613 20.8231 19.2625 20.6866 19.8116 20.4234C20.3608 20.1603 20.8439 19.7774 21.2254 19.3029C21.8523 18.6852 22.6407 18.2567 23.5 18.0667C24.356 18.2562 25.1431 18.6782 25.7746 19.2864C26.635 20.1276 27.7459 20.6657 28.9393 20.8193C30.1352 20.669 31.2507 20.1373 32.1205 19.3029C32.7494 18.6912 33.5376 18.2686 34.3951 18.0832Z" fill="#2BB018"/>
<path d="M39.8347 25.8795C38.4495 25.7582 37.1443 25.1781 36.126 24.2313C35.6237 23.7739 35.0353 23.4209 34.3953 23.1928C33.7473 23.4143 33.1524 23.7679 32.6482 24.2313C32.1933 24.7692 31.6265 25.2016 30.9875 25.4981C30.3484 25.7946 29.6523 25.9483 28.9478 25.9483C28.2433 25.9483 27.5472 25.7946 26.9081 25.4981C26.269 25.2016 25.7023 24.7692 25.2474 24.2313C24.748 23.7823 24.1657 23.4352 23.5332 23.2093C22.8911 23.4328 22.3019 23.7863 21.8025 24.2478C21.3385 24.7739 20.7678 25.1953 20.1284 25.484C19.489 25.7726 18.7955 25.9219 18.0939 25.9219C17.3924 25.9219 16.6988 25.7726 16.0594 25.484C15.42 25.1953 14.8493 24.7739 14.3853 24.2478C14.218 23.9341 13.9686 23.6718 13.6637 23.4889C13.3589 23.306 13.0101 23.2093 12.6546 23.2093C12.2991 23.2093 11.9503 23.306 11.6454 23.4889C11.3406 23.6718 11.0912 23.9341 10.9239 24.2478C9.89709 25.1916 8.5879 25.7709 7.1988 25.896C5.8194 25.7711 4.52064 25.1913 3.50668 24.2478C3.30692 24.0938 3.14823 23.8928 3.04472 23.6628C2.94121 23.4328 2.89606 23.1808 2.91328 22.9291C2.81411 22.9297 2.71596 22.9095 2.6251 22.8697C2.53425 22.83 2.45275 22.7716 2.38587 22.6984C2.30106 22.6003 2.24163 22.4828 2.21288 22.3563C2.18414 22.2299 2.18696 22.0983 2.22103 21.9731C2.22103 21.8742 2.22103 21.7753 2.22103 21.6435C2.22103 21.5116 2.00673 21.3798 1.62763 21.149C1.24853 20.9182 1.06723 20.7864 1.18261 20.4403C1.29799 20.0941 1.36392 20.1106 1.74302 20.1106C3.12726 20.2356 4.43123 20.8152 5.45164 21.7589C5.951 22.2203 6.54015 22.5738 7.1823 22.7973C7.83031 22.5759 8.42532 22.2222 8.92952 21.7589C9.39348 21.2354 9.96316 20.8164 10.601 20.5294C11.2389 20.2425 11.9304 20.094 12.6299 20.094C13.3293 20.094 14.0208 20.2425 14.6587 20.5294C15.2966 20.8164 15.8663 21.2354 16.3303 21.7589C16.4961 22.0767 16.7459 22.343 17.0525 22.5288C17.3591 22.7146 17.7107 22.8129 18.0692 22.8129C18.4277 22.8129 18.7793 22.7146 19.0859 22.5288C19.3925 22.343 19.6422 22.0767 19.8081 21.7589C20.2721 21.2327 20.8428 20.8113 21.4822 20.5227C22.1216 20.234 22.8152 20.0847 23.5167 20.0847C24.2183 20.0847 24.9118 20.234 25.5512 20.5227C26.1906 20.8113 26.7613 21.2327 27.2253 21.7589C27.3951 22.072 27.6462 22.3336 27.9523 22.5158C28.2584 22.6981 28.6081 22.7943 28.9643 22.7943C29.3205 22.7943 29.6701 22.6981 29.9762 22.5158C30.2823 22.3336 30.5335 22.072 30.7032 21.7589C31.1581 21.2209 31.7248 20.7886 32.3639 20.492C33.003 20.1955 33.699 20.0419 34.4036 20.0419C35.1081 20.0419 35.8042 20.1955 36.4432 20.492C37.0823 20.7886 37.649 21.2209 38.1039 21.7589C38.2737 22.072 38.5249 22.3336 38.8309 22.5158C39.137 22.6981 39.4866 22.7943 39.8429 22.7943C40.1991 22.7943 40.5487 22.6981 40.8548 22.5158C41.1609 22.3336 41.4121 22.072 41.5818 21.7589L42.1752 21.2973C42.8749 20.5619 43.8314 20.125 44.8454 20.0776C44.969 20.0583 45.0955 20.0821 45.2036 20.1452C45.3117 20.2082 45.3948 20.3066 45.4388 20.4238C45.5212 20.7534 45.2245 20.9183 45.0432 21.0172C44.6146 21.2644 44.5487 21.3633 44.5487 21.4127V21.5611C44.5816 21.7096 44.581 21.8637 44.5467 22.012C44.5125 22.1603 44.4456 22.299 44.3509 22.4182C44.2537 22.5013 44.1411 22.5646 44.0195 22.6042C43.8979 22.6438 43.7697 22.659 43.6422 22.6489C43.6422 22.6489 43.6422 22.7313 43.6422 22.7808C43.5135 23.1935 43.2601 23.5563 42.9169 23.8192C42.6138 24.0574 42.3325 24.3222 42.0763 24.6104C41.8256 24.9803 41.4929 25.2873 41.1041 25.5074C40.7152 25.7276 40.2808 25.8549 39.8347 25.8795ZM34.3953 22.2863C35.2461 22.477 36.0275 22.8991 36.6535 23.506C37.5182 24.3504 38.6354 24.8887 39.8347 25.0389C40.5269 25.0389 40.8896 24.6434 41.4829 24.0994C41.7681 23.7745 42.0826 23.4765 42.4224 23.2093C42.637 23.0456 42.7884 22.8127 42.851 22.55C42.8885 22.3623 42.989 22.1929 43.1359 22.07C43.2828 21.9471 43.4671 21.878 43.6586 21.8742H43.7575C43.7646 21.803 43.7646 21.7312 43.7575 21.66V21.3798C43.7494 21.3141 43.7494 21.2476 43.7575 21.1819C43.4067 21.3934 43.0757 21.6362 42.7686 21.9072L42.1587 22.3852C41.5348 22.9949 40.7525 23.4175 39.9006 23.6049C39.0445 23.4154 38.2574 22.9934 37.6259 22.3852C36.7656 21.544 35.6547 21.0059 34.4613 20.8523C33.2654 21.0026 32.1498 21.5343 31.2801 22.3687C30.6554 22.9893 29.8661 23.4183 29.0055 23.6049C28.1535 23.4175 27.3712 22.9949 26.7474 22.3852C26.3658 21.9107 25.8827 21.5277 25.3336 21.2646C24.7845 21.0015 24.1833 20.865 23.5744 20.865C22.9655 20.865 22.3644 21.0015 21.8153 21.2646C21.2661 21.5277 20.783 21.9107 20.4015 22.3852C19.7746 23.0029 18.9862 23.4314 18.1269 23.6214C17.2709 23.4319 16.4838 23.0099 15.8522 22.4017C15.4725 21.9244 14.99 21.539 14.4406 21.2741C13.8913 21.0091 13.2892 20.8715 12.6793 20.8715C12.0694 20.8715 11.4674 21.0091 10.918 21.2741C10.3687 21.539 9.88612 21.9244 9.50638 22.4017C9.25829 22.7757 8.92155 23.0825 8.5261 23.2947C8.13066 23.5069 7.6888 23.618 7.24 23.618C6.7912 23.618 6.34939 23.5069 5.95395 23.2947C5.5585 23.0825 5.2217 22.7757 4.97362 22.4017C4.36785 21.9005 3.70376 21.4743 2.99572 21.1325C3.07607 21.2606 3.11621 21.4099 3.11106 21.5611C3.12001 21.6928 3.12001 21.8249 3.11106 21.9566C3.75389 21.9566 3.77041 22.583 3.77041 22.7973C3.74942 22.9232 3.76283 23.0525 3.80925 23.1715C3.85567 23.2904 3.93339 23.3946 4.03414 23.4731C4.41389 23.9503 4.89639 24.3358 5.44575 24.6007C5.99511 24.8657 6.59715 25.0032 7.20705 25.0032C7.81696 25.0032 8.41899 24.8657 8.96835 24.6007C9.51771 24.3358 10.0002 23.9503 10.38 23.4731C10.628 23.0991 10.9648 22.7923 11.3603 22.5801C11.7557 22.3678 12.1975 22.2567 12.6463 22.2567C13.0951 22.2567 13.537 22.3678 13.9324 22.5801C14.3279 22.7923 14.6646 23.0991 14.9127 23.4731C15.2941 23.9506 15.7781 24.3361 16.3288 24.6011C16.8795 24.866 17.4828 25.0036 18.0939 25.0036C18.705 25.0036 19.3083 24.866 19.859 24.6011C20.4097 24.3361 20.8937 23.9506 21.2751 23.4731C21.8989 22.8634 22.6812 22.4408 23.5332 22.2534C24.3892 22.4429 25.1763 22.8649 25.8078 23.4731C26.1876 23.9503 26.6701 24.3358 27.2194 24.6007C27.7688 24.8657 28.3708 25.0032 28.9807 25.0032C29.5906 25.0032 30.1927 24.8657 30.742 24.6007C31.2914 24.3358 31.774 23.9503 32.1537 23.4731C32.7799 22.8822 33.5546 22.472 34.3953 22.2863Z" fill="#2BB018"/>
<path fill-rule="evenodd" clip-rule="evenodd" d="M16.0827 7.88038L21.8186 3.51241C22.0588 3.318 22.3353 3.17345 22.6319 3.08717C22.9286 3.00088 23.2396 2.9746 23.5465 3.0099C23.8535 3.0452 24.1503 3.14137 24.4197 3.29275C24.689 3.44413 24.9254 3.64769 25.1152 3.89153C25.2983 4.12326 25.4335 4.38914 25.5128 4.67362C25.5921 4.9581 25.6139 5.25548 25.5771 5.54851C25.5403 5.84154 25.4455 6.12432 25.2983 6.38034C25.151 6.63636 24.9543 6.86053 24.7196 7.03974L19.0001 11.4077C18.7591 11.6 18.4824 11.7427 18.186 11.8278C17.8896 11.9128 17.5794 11.9385 17.273 11.9033C16.9667 11.8681 16.6704 11.7726 16.401 11.6225C16.1317 11.4724 15.8946 11.2705 15.7035 11.0285C15.5195 10.7978 15.3833 10.5329 15.3026 10.249C15.222 9.96515 15.1987 9.66806 15.234 9.37508C15.2693 9.08211 15.3625 8.79911 15.5082 8.5425C15.6539 8.28588 15.8492 8.06081 16.0827 7.88038Z" fill="#2BB018"/>
<path fill-rule="evenodd" clip-rule="evenodd" d="M7.77568 14.2262L15.4731 8.34189C15.709 8.16583 16.0039 8.08805 16.2959 8.12494C16.5879 8.16182 16.8543 8.31049 17.039 8.53967C17.1268 8.65171 17.1915 8.78012 17.2292 8.91743C17.2668 9.05474 17.2767 9.19818 17.2583 9.33936C17.2399 9.48055 17.1935 9.61665 17.1219 9.73971C17.0502 9.86277 16.9548 9.9703 16.8412 10.0561L9.14372 15.9239C8.91409 16.105 8.62202 16.1876 8.33156 16.1536C8.0411 16.1196 7.77596 15.9718 7.59434 15.7426C7.50341 15.6325 7.4358 15.5051 7.39555 15.3681C7.35531 15.2311 7.34329 15.0874 7.36024 14.9456C7.37719 14.8038 7.42279 14.6669 7.49419 14.5433C7.5656 14.4196 7.66135 14.3117 7.77568 14.2262Z" fill="#2BB018"/>
<path fill-rule="evenodd" clip-rule="evenodd" d="M9.72039 5.82005C10.2105 5.44006 10.8298 5.26696 11.4459 5.33781C12.062 5.40866 12.6259 5.7178 13.0169 6.19912C13.2035 6.43399 13.3414 6.70367 13.4226 6.99243C13.5038 7.28118 13.5266 7.58326 13.4898 7.88095C13.453 8.17863 13.3572 8.466 13.2081 8.72626C13.059 8.98653 12.8595 9.21446 12.6214 9.39678C12.1293 9.77491 11.5086 9.94526 10.8924 9.87132C10.2762 9.79738 9.7135 9.48504 9.32482 9.00121C9.13651 8.7686 8.99706 8.50039 8.91481 8.21264C8.83256 7.92488 8.80917 7.62347 8.8461 7.32648C8.88303 7.02948 8.97953 6.74303 9.12975 6.48418C9.27997 6.22533 9.48084 5.99946 9.72039 5.82005Z" fill="#2BB018"/>
<path fill-rule="evenodd" clip-rule="evenodd" d="M22.6759 4.13877L36.1093 0.2159C36.4044 0.127067 36.7225 0.156513 36.9963 0.298017C37.2701 0.439522 37.4781 0.681972 37.5763 0.974092C37.6191 1.12019 37.6326 1.27334 37.6159 1.42467C37.5993 1.57599 37.5528 1.7225 37.4792 1.8558C37.4057 1.9891 37.3065 2.10653 37.1874 2.20132C37.0683 2.29611 36.9315 2.3664 36.7851 2.40811L23.3517 6.33101C23.0566 6.41561 22.7403 6.38418 22.4676 6.24323C22.1949 6.10228 21.9864 5.86243 21.8847 5.57276C21.8028 5.27775 21.8397 4.96238 21.9876 4.6943C22.1355 4.42622 22.3827 4.22679 22.6759 4.13877Z" fill="#2BB018"/>
<path fill-rule="evenodd" clip-rule="evenodd" d="M36.5048 0.710352C36.5339 0.631563 36.5786 0.559444 36.6362 0.498281C36.6938 0.437119 36.7631 0.388151 36.84 0.354319C36.9169 0.320487 36.9998 0.30246 37.0838 0.301327C37.1678 0.300193 37.2511 0.315985 37.3289 0.347729L39.8013 1.25426C39.9555 1.31022 40.0816 1.42445 40.1525 1.57239C40.2234 1.72033 40.2335 1.8902 40.1805 2.04545C40.1513 2.12424 40.1066 2.19636 40.049 2.25752C39.9914 2.31868 39.9221 2.36765 39.8452 2.40148C39.7684 2.43531 39.6854 2.45332 39.6014 2.45445C39.5174 2.45558 39.4341 2.43982 39.3563 2.40807L36.8839 1.50152C36.7297 1.44556 36.6036 1.33133 36.5327 1.18339C36.4618 1.03544 36.4518 0.865602 36.5048 0.710352Z" fill="#2BB018"/>
</svg>
