<?xml version="1.0" encoding="utf-8"?>
<!-- Generator: Adobe Illustrator 27.1.1, SVG Export Plug-In . SVG Version: 6.00 Build 0)  -->
<svg version="1.1" id="Layer_1" xmlns="http://www.w3.org/2000/svg" xmlns:xlink="http://www.w3.org/1999/xlink" x="0px" y="0px"
	 viewBox="0 0 405 213" style="enable-background:new 0 0 405 213;" xml:space="preserve">
<style type="text/css">
	.st0{fill:#2BB018;}
	.st1{fill:url(#SVGID_1_);}
	.st2{fill:#2D2D2B;}
</style>
<path class="st0" d="M48.9,145.4h5.8v35.1h-4.5l-16.5-23.8v23.8h-5.7v-35.1h4.5l16.5,23.8L48.9,145.4z"/>
<path class="st0" d="M67.4,175h15.5v5.5H61.6v-35.1h21v5.5H67.4v9.1h14v5.5h-14V175z"/>
<path class="st0" d="M95.6,180.5l-9.9-35.1h6.1l7.4,27.5l8-27.5h5.3l7.9,27.5l7.4-27.5h6.1l-9.9,35.1h-6.7l-7.4-25.6l-7.5,25.6H95.6
	z"/>
<path class="st0" d="M160.9,145.4v5.5H151v29.6h-5.7v-29.6h-9.9v-5.5H160.9z"/>
<path class="st0" d="M192.4,175.9c-3,3-6.9,4.9-11.2,5.4c-4.2,0.4-8.5-0.6-12-3c-3.6-2.4-6.2-5.9-7.4-10c-1.3-4.1-1.1-8.5,0.6-12.4
	c1.6-3.9,4.5-7.2,8.3-9.2c3.7-2,8.1-2.7,12.3-1.8c4.2,0.8,7.9,3.1,10.6,6.4c2.7,3.3,4.2,7.4,4.2,11.7c0,2.4-0.4,4.8-1.3,7
	C195.5,172.2,194.1,174.2,192.4,175.9z M170.7,172c2.4,2.3,5.5,3.6,8.8,3.6c3.3,0,6.5-1.3,8.8-3.6c2.4-2.4,3.6-5.4,3.6-9
	c0-3.6-1.2-6.6-3.6-9c-2.4-2.3-5.5-3.6-8.8-3.6c-3.3,0-6.5,1.3-8.8,3.6c-2.4,2.4-3.6,5.4-3.6,9C167.1,166.6,168.3,169.6,170.7,172z"
	/>
<path class="st0" d="M223.9,145.4h5.8v35.1h-4.5l-16.5-23.8v23.8h-5.8v-35.1h4.5l16.5,23.8V145.4z"/>
<path class="st0" d="M270,145.4h5.8v35.1H270v-15.2h-15v15.2h-5.8v-35.1h5.8v14.4h15V145.4z"/>
<path class="st0" d="M312,175.9c-3,3-6.9,4.9-11.2,5.4c-4.2,0.4-8.5-0.6-12-3c-3.5-2.4-6.2-5.9-7.4-9.9c-1.3-4.1-1.1-8.5,0.6-12.4
	c1.6-3.9,4.5-7.2,8.3-9.2c3.7-2,8.1-2.7,12.2-1.8c4.2,0.8,7.9,3.1,10.6,6.4c2.7,3.3,4.2,7.4,4.2,11.7c0,2.4-0.4,4.8-1.3,7
	C315.1,172.2,313.7,174.2,312,175.9z M290.3,172c2.4,2.3,5.5,3.6,8.8,3.6c3.3,0,6.5-1.3,8.8-3.6c2.4-2.4,3.6-5.4,3.6-9
	c0-3.6-1.2-6.6-3.6-9c-2.4-2.3-5.5-3.6-8.8-3.6c-3.3,0-6.5,1.3-8.8,3.6c-2.4,2.4-3.6,5.4-3.6,9C286.7,166.6,287.9,169.6,290.3,172z"
	/>
<path class="st0" d="M344.7,177.9c-2.5,2.2-5.6,3.3-9.5,3.3c-3.9,0-7.1-1.1-9.6-3.3c-2.5-2.2-3.7-5.2-3.7-9v-23.5h5.8v23.1
	c0,2.1,0.6,3.8,1.9,5.1c1.3,1.3,3.1,1.9,5.6,1.9c2.5,0,4.4-0.6,5.6-1.9c1.2-1.3,1.9-3,1.9-5.1v-23.1h5.8v23.5
	C348.4,172.6,347.1,175.6,344.7,177.9z"/>
<path class="st0" d="M366.6,181.2c-3.4,0-6.2-0.8-8.6-2.3c-2.3-1.5-4-3.7-4.9-6.3l5-2.9c1.4,4,4.3,5.9,8.7,5.9
	c2.2,0,3.8-0.4,4.9-1.3c0.5-0.4,0.9-0.9,1.2-1.5s0.4-1.2,0.4-1.9c0-0.7-0.1-1.3-0.4-1.9c-0.3-0.6-0.8-1.1-1.3-1.4
	c-1.2-0.8-3.2-1.6-6.2-2.5c-1.4-0.4-2.7-0.9-4.1-1.4c-1.2-0.5-2.2-1.1-3.3-1.8c-1.1-0.7-2-1.7-2.6-2.9c-0.6-1.3-0.9-2.7-0.9-4.1
	c0-3.1,1.1-5.6,3.3-7.4c2.2-1.8,5.1-2.8,8-2.7c2.6-0.1,5.2,0.7,7.4,2.1c2.1,1.4,3.8,3.4,4.8,5.7l-4.8,2.8c-1.5-3.3-3.9-4.9-7.4-4.9
	c-1.7,0-3,0.4-4,1.2c-0.5,0.4-0.9,0.9-1.1,1.4c-0.3,0.6-0.4,1.2-0.4,1.8c0,0.6,0.1,1.2,0.4,1.7c0.3,0.5,0.7,1,1.2,1.4
	c1,0.8,2.9,1.5,5.5,2.4c1.3,0.4,2.3,0.8,2.9,1c0.6,0.2,1.5,0.6,2.6,1c0.9,0.3,1.8,0.8,2.5,1.4c0.6,0.5,1.3,1.1,1.8,1.8
	c0.6,0.7,1.1,1.5,1.4,2.4c0.3,1,0.4,2,0.4,3.1c0,3.2-1.1,5.7-3.4,7.6C373.3,180.3,370.3,181.2,366.6,181.2z"/>
<path class="st0" d="M389.5,175H405v5.5h-21.3v-35.1h21v5.5h-15.3v9.1h14v5.5h-14V175z"/>
<linearGradient id="SVGID_1_" gradientUnits="userSpaceOnUse" x1="168.258" y1="107.498" x2="-0.2339" y2="107.498" gradientTransform="matrix(1 0 0 -1 0 214)">
	<stop  offset="0" style="stop-color:#2BB018;stop-opacity:0"/>
	<stop  offset="0.13" style="stop-color:#2BB018;stop-opacity:0.29"/>
	<stop  offset="0.33" style="stop-color:#2BB018;stop-opacity:0.45"/>
	<stop  offset="0.45" style="stop-color:#2BB018;stop-opacity:0.61"/>
	<stop  offset="1" style="stop-color:#2BB018"/>
</linearGradient>
<path class="st1" d="M155.5,84.3l-0.1-25.4L84,14.2l-72,45.3l0.1,141.4l143.5-0.1v-25h12.9v37.1L0.1,213L0,52.9L84,0l84.5,52.8v31.4
	L155.5,84.3z"/>
<g>
	<path class="st2" d="M41.6,92.8c1-0.8,1.5-1.9,1.5-3.2c0-1.3-0.5-2.3-1.4-3c-0.4-0.3-0.9-0.5-1.5-0.7c0.3-0.1,0.5-0.3,0.8-0.5
		c0.9-0.7,1.4-1.7,1.4-3c0-1.3-0.5-2.3-1.5-3c-1-0.7-2.4-1-4.2-1h-7.3v15.6h7.7C39,93.9,40.5,93.6,41.6,92.8z M33,81h3.4
		c0.8,0,1.4,0.2,1.8,0.5c0.4,0.3,0.6,0.8,0.6,1.4c0,0.6-0.2,1.1-0.6,1.4c-0.4,0.3-1,0.5-1.8,0.5H33V81z M33,91.3v-3.9h4
		c0.8,0,1.5,0.2,1.9,0.5c0.4,0.3,0.6,0.8,0.6,1.5c0,0.7-0.2,1.2-0.6,1.5c-0.4,0.3-1.1,0.5-1.9,0.5H33z"/>
	<path class="st2" d="M57.7,92.6c1.1-0.9,1.7-2.3,1.7-4.1c0-1.7-0.5-2.9-1.5-3.8c-1-0.8-2.5-1.3-4.4-1.3h-4v-5.1H46v15.6h7
		C55,93.9,56.6,93.5,57.7,92.6z M49.5,91.3v-5.1h3.2c0.9,0,1.7,0.2,2.2,0.6c0.5,0.4,0.8,1,0.8,1.9c0,0.9-0.3,1.5-0.8,2
		c-0.5,0.5-1.3,0.7-2.2,0.7H49.5z"/>
	<rect x="61.4" y="78.4" class="st2" width="3.6" height="15.6"/>
	<polygon class="st2" points="72.4,81.3 79.8,81.3 79.8,78.4 68.8,78.4 68.8,93.9 72.4,93.9 	"/>
	<path class="st2" d="M80,89.4c0.4,1,1,1.8,1.8,2.6c0.8,0.7,1.7,1.3,2.7,1.7c1,0.4,2.2,0.6,3.4,0.6c1.2,0,2.3-0.2,3.4-0.6
		c1-0.4,1.9-1,2.7-1.7c0.8-0.7,1.4-1.6,1.8-2.6c0.4-1,0.6-2.1,0.6-3.2c0-1.2-0.2-2.2-0.6-3.2c-0.4-1-1-1.8-1.8-2.5
		c-0.8-0.7-1.7-1.3-2.7-1.7c-1-0.4-2.2-0.6-3.4-0.6c-1.2,0-2.3,0.2-3.4,0.6c-1,0.4-1.9,1-2.7,1.7C81,81.1,80.4,82,80,83
		c-0.4,1-0.6,2-0.6,3.2S79.6,88.4,80,89.4z M83.4,84.1c0.2-0.6,0.6-1.1,1-1.6c0.4-0.4,1-0.8,1.5-1c0.6-0.2,1.2-0.4,1.9-0.4
		s1.3,0.1,1.9,0.4c0.6,0.2,1.1,0.6,1.5,1c0.4,0.4,0.8,1,1,1.6c0.2,0.6,0.4,1.3,0.4,2c0,0.7-0.1,1.4-0.4,2c-0.2,0.6-0.6,1.1-1,1.6
		c-0.4,0.4-1,0.8-1.5,1s-1.2,0.4-1.9,0.4S86.6,91,86,90.8s-1.1-0.6-1.5-1c-0.4-0.4-0.8-1-1-1.6c-0.2-0.6-0.4-1.3-0.4-2
		C83,85.4,83.1,84.7,83.4,84.1z"/>
	<path class="st2" d="M114.8,97.2V91h-2.2V78.4h-12l-0.2,4.9c0,1.1-0.1,2.1-0.2,3.1c-0.1,0.9-0.2,1.8-0.5,2.5
		c-0.2,0.7-0.5,1.2-0.8,1.6c-0.3,0.4-0.8,0.6-1.3,0.6h-0.5l0,6.2h3.3v-3.2h11v3.2H114.8z M102.5,90.5c0.3-0.5,0.5-1.1,0.6-1.8
		c0.2-0.7,0.3-1.5,0.4-2.3c0.1-0.9,0.1-1.8,0.2-2.7l0.1-2.3h5.3V91h-7C102.2,90.8,102.4,90.7,102.5,90.5z"/>
	<polygon class="st2" points="131.5,93.9 131.5,78.4 127.9,78.4 127.9,84.5 120.9,84.5 120.9,78.4 117.3,78.4 117.3,93.9 
		120.9,93.9 120.9,87.6 127.9,87.6 127.9,93.9 	"/>
	<path class="st2" d="M147.3,84.7c-1-0.8-2.5-1.3-4.4-1.3h-4v-5.1h-3.6v15.6h7c2,0,3.6-0.5,4.7-1.4c1.1-0.9,1.7-2.3,1.7-4.1
		C148.9,86.8,148.4,85.6,147.3,84.7z M144.5,90.6c-0.5,0.5-1.3,0.7-2.2,0.7H139v-5.1h3.2c0.9,0,1.7,0.2,2.2,0.6
		c0.5,0.4,0.8,1,0.8,1.9C145.3,89.5,145,90.1,144.5,90.6z"/>
	<rect x="150.9" y="78.4" class="st2" width="3.6" height="15.6"/>
	<path class="st2" d="M165.5,77.4c1.5,0,2.6-0.3,3.2-0.9s1.1-1.4,1.1-2.5h-2.5c0,0.5-0.2,0.9-0.5,1.2c-0.3,0.3-0.8,0.4-1.4,0.4
		c-0.6,0-1.1-0.1-1.4-0.4c-0.3-0.3-0.5-0.7-0.5-1.2h-2.5c0,1.1,0.4,1.9,1.1,2.5S164,77.4,165.5,77.4z"/>
	<polygon class="st2" points="172.7,93.9 172.7,78.4 169.3,78.4 161.9,88.5 161.9,78.4 158.3,78.4 158.3,93.9 161.7,93.9 
		169.2,83.8 169.2,93.9 	"/>
	<path class="st2" d="M194.4,89.3c-0.5,0.6-1.1,1.1-1.8,1.4c-0.7,0.3-1.4,0.5-2.1,0.5c-0.7,0-1.4-0.1-2-0.4c-0.6-0.2-1.1-0.6-1.6-1
		c-0.4-0.4-0.8-1-1-1.6c-0.2-0.6-0.4-1.3-0.4-2c0-0.7,0.1-1.4,0.4-2s0.6-1.1,1-1.6c0.4-0.4,1-0.8,1.6-1c0.6-0.2,1.3-0.4,2-0.4
		c0.8,0,1.5,0.2,2.1,0.5c0.7,0.3,1.2,0.8,1.8,1.4l2.3-2.1c-0.7-0.9-1.7-1.6-2.7-2.1c-1.1-0.5-2.3-0.7-3.7-0.7
		c-1.2,0-2.3,0.2-3.4,0.6s-1.9,1-2.7,1.7c-0.8,0.7-1.4,1.6-1.8,2.6c-0.4,1-0.6,2.1-0.6,3.2s0.2,2.2,0.6,3.2c0.4,1,1,1.8,1.8,2.6
		c0.8,0.7,1.7,1.3,2.7,1.7c1,0.4,2.1,0.6,3.3,0.6c1.4,0,2.6-0.2,3.7-0.7c1.1-0.5,2-1.2,2.7-2.1L194.4,89.3z"/>
	<polygon class="st2" points="202.6,81.3 209.7,81.3 209.7,93.9 213.3,93.9 213.3,78.4 199.1,78.4 199.1,93.9 202.6,93.9 	"/>
	<path class="st2" d="M218.5,91.9c0.8,0.7,1.7,1.3,2.7,1.7c1,0.4,2.2,0.6,3.4,0.6c1.2,0,2.3-0.2,3.4-0.6c1-0.4,1.9-1,2.7-1.7
		s1.4-1.6,1.8-2.6c0.4-1,0.6-2.1,0.6-3.2c0-1.2-0.2-2.2-0.6-3.2c-0.4-1-1-1.8-1.8-2.5c-0.8-0.7-1.7-1.3-2.7-1.7
		c-1-0.4-2.2-0.6-3.4-0.6c-1.2,0-2.3,0.2-3.4,0.6c-1,0.4-1.9,1-2.7,1.7c-0.8,0.7-1.4,1.6-1.8,2.6c-0.4,1-0.6,2-0.6,3.2
		s0.2,2.2,0.6,3.2C217.1,90.3,217.7,91.2,218.5,91.9z M220.1,84.1c0.2-0.6,0.6-1.1,1-1.6c0.4-0.4,1-0.8,1.5-1
		c0.6-0.2,1.2-0.4,1.9-0.4s1.3,0.1,1.9,0.4c0.6,0.2,1.1,0.6,1.5,1c0.4,0.4,0.8,1,1,1.6c0.2,0.6,0.4,1.3,0.4,2c0,0.7-0.1,1.4-0.4,2
		c-0.2,0.6-0.6,1.1-1,1.6c-0.4,0.4-1,0.8-1.5,1c-0.6,0.2-1.2,0.4-1.9,0.4s-1.3-0.1-1.9-0.4s-1.1-0.6-1.5-1c-0.4-0.4-0.8-1-1-1.6
		s-0.4-1.3-0.4-2C219.7,85.4,219.8,84.7,220.1,84.1z"/>
	<path class="st2" d="M249.7,91.4l-2.3-2.1c-0.5,0.6-1.1,1.1-1.8,1.4c-0.7,0.3-1.4,0.5-2.1,0.5c-0.7,0-1.4-0.1-2-0.4
		c-0.6-0.2-1.1-0.6-1.6-1c-0.4-0.4-0.8-1-1-1.6c-0.2-0.6-0.4-1.3-0.4-2c0-0.7,0.1-1.4,0.4-2s0.6-1.1,1-1.6c0.4-0.4,1-0.8,1.6-1
		c0.6-0.2,1.3-0.4,2-0.4c0.8,0,1.5,0.2,2.1,0.5c0.7,0.3,1.2,0.8,1.8,1.4l2.3-2.1c-0.7-0.9-1.7-1.6-2.7-2.1c-1.1-0.5-2.3-0.7-3.7-0.7
		c-1.2,0-2.3,0.2-3.4,0.6s-1.9,1-2.7,1.7c-0.8,0.7-1.4,1.6-1.8,2.6c-0.4,1-0.6,2.1-0.6,3.2s0.2,2.2,0.6,3.2c0.4,1,1,1.8,1.8,2.6
		c0.8,0.7,1.7,1.3,2.7,1.7c1,0.4,2.1,0.6,3.3,0.6c1.4,0,2.6-0.2,3.7-0.7C248,93,248.9,92.3,249.7,91.4z"/>
	<path class="st2" d="M265.2,91.9c0.8-0.7,1.4-1.6,1.8-2.6c0.4-1,0.6-2.1,0.6-3.2c0-1.2-0.2-2.2-0.6-3.2c-0.4-1-1-1.8-1.8-2.5
		c-0.8-0.7-1.7-1.3-2.7-1.7c-1-0.4-2.2-0.6-3.4-0.6c-1.2,0-2.3,0.2-3.4,0.6c-1,0.4-1.9,1-2.7,1.7c-0.8,0.7-1.4,1.6-1.8,2.6
		c-0.4,1-0.6,2-0.6,3.2s0.2,2.2,0.6,3.2c0.4,1,1,1.8,1.8,2.6c0.8,0.7,1.7,1.3,2.7,1.7c1,0.4,2.2,0.6,3.4,0.6c1.2,0,2.3-0.2,3.4-0.6
		C263.6,93.2,264.5,92.7,265.2,91.9z M259.1,91.1c-0.7,0-1.3-0.1-1.9-0.4c-0.6-0.2-1.1-0.6-1.5-1c-0.4-0.4-0.8-1-1-1.6
		c-0.2-0.6-0.4-1.3-0.4-2c0-0.7,0.1-1.4,0.4-2c0.2-0.6,0.6-1.1,1-1.6c0.4-0.4,1-0.8,1.5-1c0.6-0.2,1.2-0.4,1.9-0.4s1.3,0.1,1.9,0.4
		c0.6,0.2,1.1,0.6,1.5,1c0.4,0.4,0.8,1,1,1.6c0.2,0.6,0.4,1.3,0.4,2c0,0.7-0.1,1.4-0.4,2c-0.2,0.6-0.6,1.1-1,1.6
		c-0.4,0.4-1,0.8-1.5,1S259.8,91.1,259.1,91.1z"/>
	<path class="st2" d="M282.5,92.7c1.1-0.9,1.6-2.1,1.6-3.6c0-1.5-0.5-2.6-1.5-3.4c-1-0.8-2.4-1.2-4.3-1.2H274v-3.2h9v-2.9h-12.6
		v15.6h7.4C279.8,93.9,281.4,93.5,282.5,92.7z M274,91.3v-4.2h3.6c1.9,0,2.8,0.7,2.8,2c0,0.7-0.2,1.2-0.7,1.6
		c-0.5,0.4-1.2,0.5-2.1,0.5H274z"/>
	<path class="st2" d="M306.7,91.9c0.8-0.7,1.4-1.6,1.8-2.6c0.4-1,0.6-2.1,0.6-3.2c0-1.2-0.2-2.2-0.6-3.2c-0.4-1-1-1.8-1.8-2.5
		c-0.8-0.7-1.7-1.3-2.7-1.7c-1-0.4-2.2-0.6-3.4-0.6c-1.2,0-2.3,0.2-3.4,0.6c-1,0.4-1.9,1-2.7,1.7c-0.8,0.7-1.4,1.6-1.8,2.6
		c-0.4,1-0.6,2-0.6,3.2s0.2,2.2,0.6,3.2c0.4,1,1,1.8,1.8,2.6c0.8,0.7,1.7,1.3,2.7,1.7c1,0.4,2.2,0.6,3.4,0.6c1.2,0,2.3-0.2,3.4-0.6
		C305,93.2,305.9,92.7,306.7,91.9z M300.6,91.1c-0.7,0-1.3-0.1-1.9-0.4c-0.6-0.2-1.1-0.6-1.5-1c-0.4-0.4-0.8-1-1-1.6s-0.4-1.3-0.4-2
		c0-0.7,0.1-1.4,0.4-2s0.6-1.1,1-1.6c0.4-0.4,1-0.8,1.5-1c0.6-0.2,1.2-0.4,1.9-0.4s1.3,0.1,1.9,0.4c0.6,0.2,1.1,0.6,1.5,1
		c0.4,0.4,0.8,1,1,1.6c0.2,0.6,0.4,1.3,0.4,2c0,0.7-0.1,1.4-0.4,2c-0.2,0.6-0.6,1.1-1,1.6c-0.4,0.4-1,0.8-1.5,1
		S301.3,91.1,300.6,91.1z"/>
	<polygon class="st2" points="311.9,93.9 315.5,93.9 315.5,81.3 322.5,81.3 322.5,93.9 326.1,93.9 326.1,78.4 311.9,78.4 	"/>
	<path class="st2" d="M331.6,84.7c0,1.3-0.1,2.5-0.3,3.4c-0.1,0.9-0.4,1.7-0.7,2.1c-0.3,0.5-0.8,0.7-1.4,0.7c-0.2,0-0.4,0-0.6-0.1
		l-0.2,3c0.3,0.1,0.7,0.1,0.9,0.2c0.3,0,0.6,0.1,0.8,0.1c0.9,0,1.7-0.2,2.2-0.6c0.6-0.4,1.1-1.1,1.4-1.9c0.3-0.8,0.6-1.8,0.8-3
		c0.2-1.2,0.3-2.5,0.3-4.1l0.1-3.2h5.3v12.6h3.6V78.4h-12L331.6,84.7z"/>
	<path class="st2" d="M352.8,78.4l-6.9,15.6h3.7l1.4-3.3h7.2l1.4,3.3h3.8l-7-15.6H352.8z M352.1,87.9l2.5-6l2.5,6H352.1z"/>
	<polygon class="st2" points="363.1,81.3 368,81.3 368,93.9 371.6,93.9 371.6,81.3 376.6,81.3 376.6,78.4 363.1,78.4 	"/>
	<path class="st2" d="M386.4,83.5h-4v-5.1h-3.6v15.6h7c2,0,3.6-0.5,4.7-1.4c1.1-0.9,1.7-2.3,1.7-4.1c0-1.7-0.5-2.9-1.5-3.8
		C389.7,83.9,388.3,83.5,386.4,83.5z M387.9,90.6c-0.5,0.5-1.3,0.7-2.2,0.7h-3.2v-5.1h3.2c0.9,0,1.7,0.2,2.2,0.6
		c0.5,0.4,0.8,1,0.8,1.9C388.7,89.5,388.4,90.1,387.9,90.6z"/>
	<rect x="394.3" y="78.4" class="st2" width="3.6" height="15.6"/>
	<path class="st2" d="M404.3,90.4c-0.4-0.4-0.9-0.6-1.5-0.6c-0.6,0-1.1,0.2-1.5,0.6c-0.4,0.4-0.6,0.9-0.6,1.6c0,0.7,0.2,1.2,0.6,1.5
		c0.2,0.2,0.4,0.3,0.6,0.3l-1,3.5h2.2l1.3-3.2c0.2-0.4,0.3-0.7,0.4-1s0.1-0.5,0.2-0.7c0-0.2,0-0.4,0-0.6
		C404.9,91.3,404.7,90.8,404.3,90.4z"/>
	<path class="st2" d="M48,111.2H32.4l-0.2,6.4c-0.1,1.5-0.2,2.8-0.3,4c-0.1,1.2-0.3,2.3-0.6,3.2c-0.3,0.9-0.6,1.6-1.1,2.1
		c-0.5,0.5-1,0.7-1.7,0.7h-0.6l0,8.1h4.4v-4.2h14.4v4.2h4.4v-8.1H48V111.2z M34.7,127c0.3-0.6,0.6-1.4,0.8-2.3
		c0.2-0.9,0.4-1.9,0.5-3.1c0.1-1.1,0.2-2.3,0.2-3.6l0.1-3h7v12.7h-9.1C34.4,127.5,34.6,127.2,34.7,127z"/>
	<path class="st2" d="M71.7,113.8c-1-1-2.2-1.7-3.5-2.2c-1.3-0.5-2.8-0.8-4.4-0.8c-1.6,0-3.1,0.3-4.4,0.8c-1.4,0.5-2.5,1.3-3.5,2.2
		c-1,0.9-1.8,2.1-2.3,3.3c-0.6,1.3-0.8,2.7-0.8,4.2s0.3,2.9,0.8,4.2c0.6,1.3,1.3,2.4,2.3,3.3c1,0.9,2.2,1.7,3.5,2.2
		c1.4,0.5,2.9,0.8,4.5,0.8c1.6,0,3.1-0.3,4.4-0.8c1.3-0.5,2.5-1.3,3.5-2.2c1-0.9,1.8-2.1,2.3-3.3c0.6-1.3,0.8-2.7,0.8-4.2
		c0-1.5-0.3-2.9-0.8-4.2C73.5,115.9,72.7,114.8,71.7,113.8z M69.7,124c-0.3,0.8-0.8,1.5-1.4,2.1s-1.3,1-2,1.3s-1.6,0.5-2.5,0.5
		s-1.8-0.2-2.5-0.5c-0.8-0.3-1.4-0.8-2-1.3c-0.6-0.6-1-1.3-1.3-2.1c-0.3-0.8-0.5-1.7-0.5-2.6c0-1,0.2-1.9,0.5-2.6
		c0.3-0.8,0.8-1.5,1.4-2.1c0.6-0.6,1.3-1,2-1.3c0.8-0.3,1.6-0.5,2.5-0.5s1.8,0.2,2.5,0.5c0.8,0.3,1.5,0.8,2,1.3
		c0.6,0.6,1,1.3,1.3,2.1c0.3,0.8,0.5,1.7,0.5,2.6C70.1,122.3,70,123.2,69.7,124z"/>
	<path class="st2" d="M83.7,116.6c0.6-0.6,1.3-1,2.1-1.3c0.8-0.3,1.7-0.5,2.6-0.5c1,0,1.9,0.2,2.8,0.6c0.9,0.4,1.6,1,2.3,1.8l3-2.8
		c-1-1.2-2.2-2.1-3.6-2.7c-1.4-0.6-3-0.9-4.8-0.9c-1.6,0-3.1,0.3-4.4,0.8c-1.3,0.5-2.5,1.2-3.5,2.2c-1,1-1.8,2.1-2.3,3.3
		c-0.6,1.3-0.8,2.7-0.8,4.2c0,1.5,0.3,2.9,0.8,4.2c0.6,1.3,1.3,2.4,2.3,3.3c1,1,2.2,1.7,3.5,2.2c1.3,0.5,2.8,0.8,4.4,0.8
		c1.8,0,3.4-0.3,4.8-0.9c1.4-0.6,2.6-1.5,3.6-2.7l-3-2.8c-0.7,0.8-1.5,1.4-2.3,1.8c-0.9,0.4-1.8,0.6-2.8,0.6c-0.9,0-1.8-0.2-2.6-0.5
		c-0.8-0.3-1.5-0.8-2.1-1.3c-0.6-0.6-1-1.3-1.4-2.1c-0.3-0.8-0.5-1.7-0.5-2.6c0-1,0.2-1.9,0.5-2.6C82.7,117.9,83.2,117.2,83.7,116.6
		z"/>
	<path class="st2" d="M125.3,122.1l-5.4-10.9H115h-0.2H97.4v3.8h6.5v16.5h4.7V115h6.5v-3.5l7.8,14.6l-0.2,0.2
		c-0.6,0.9-1.3,1.5-2.1,1.6c-0.8,0.1-1.7,0.1-2.8-0.3l-1.1,3.6c1.4,0.6,2.7,0.8,3.9,0.7c1.3-0.1,2.4-0.5,3.5-1.3
		c1.1-0.8,2-1.9,2.7-3.3l8.7-16.1h-4.6L125.3,122.1z"/>
	<polygon class="st2" points="137.7,131.5 142.4,131.5 142.4,115 151.6,115 151.6,131.5 156.3,131.5 156.3,111.2 137.7,111.2 	"/>
	<polygon class="st2" points="175.3,119.2 166.1,119.2 166.1,111.2 161.4,111.2 161.4,131.5 166.1,131.5 166.1,123.2 175.3,123.2 
		175.3,131.5 180,131.5 180,111.2 175.3,111.2 	"/>
	<path class="st2" d="M195,117.8h-5.2v-6.7h-4.7v20.4h9.2c2.6,0,4.7-0.6,6.2-1.8c1.5-1.2,2.2-3,2.2-5.3c0-2.2-0.7-3.8-2-4.9
		C199.4,118.4,197.5,117.8,195,117.8z M196.9,127.1c-0.7,0.6-1.7,0.9-2.9,0.9h-4.2v-6.7h4.2c1.2,0,2.2,0.2,2.9,0.7
		c0.7,0.5,1,1.3,1,2.4C198,125.7,197.6,126.5,196.9,127.1z"/>
	<rect x="205.3" y="111.2" class="st2" width="4.7" height="20.4"/>
	<polygon class="st2" points="219.7,124.4 219.7,111.2 215,111.2 215,131.5 219.5,131.5 229.2,118.3 229.2,131.5 233.9,131.5 
		233.9,111.2 229.4,111.2 	"/>
	<path class="st2" d="M224.4,109.1c2,0,3.4-0.4,4.4-1.2c0.9-0.8,1.4-1.9,1.4-3.4h-3.3c0,0.7-0.2,1.3-0.7,1.6c-0.4,0.4-1,0.6-1.8,0.6
		c-0.8,0-1.4-0.2-1.8-0.6c-0.4-0.4-0.6-0.9-0.6-1.6h-3.3c0,1.5,0.5,2.6,1.4,3.4C221,108.7,222.5,109.1,224.4,109.1z"/>
	<polygon class="st2" points="245.1,115 251.5,115 251.5,131.5 256.2,131.5 256.2,115 262.7,115 262.7,111.2 245.1,111.2 	"/>
	<path class="st2" d="M283.1,113.8c-1-1-2.2-1.7-3.5-2.2c-1.3-0.5-2.8-0.8-4.4-0.8c-1.6,0-3.1,0.3-4.4,0.8c-1.4,0.5-2.5,1.3-3.5,2.2
		c-1,0.9-1.8,2.1-2.3,3.3c-0.6,1.3-0.8,2.7-0.8,4.2s0.3,2.9,0.8,4.2c0.6,1.3,1.3,2.4,2.3,3.3c1,0.9,2.2,1.7,3.5,2.2
		c1.4,0.5,2.9,0.8,4.5,0.8c1.6,0,3.1-0.3,4.4-0.8c1.3-0.5,2.5-1.3,3.5-2.2c1-0.9,1.8-2.1,2.3-3.3c0.6-1.3,0.8-2.7,0.8-4.2
		c0-1.5-0.3-2.9-0.8-4.2C284.8,115.9,284.1,114.8,283.1,113.8z M281,124c-0.3,0.8-0.8,1.5-1.4,2.1c-0.6,0.6-1.3,1-2,1.3
		s-1.6,0.5-2.5,0.5s-1.8-0.2-2.5-0.5c-0.8-0.3-1.4-0.8-2-1.3c-0.6-0.6-1-1.3-1.3-2.1c-0.3-0.8-0.5-1.7-0.5-2.6c0-1,0.2-1.9,0.5-2.6
		c0.3-0.8,0.8-1.5,1.4-2.1c0.6-0.6,1.3-1,2-1.3c0.8-0.3,1.6-0.5,2.5-0.5s1.8,0.2,2.5,0.5c0.8,0.3,1.5,0.8,2,1.3
		c0.6,0.6,1,1.3,1.3,2.1c0.3,0.8,0.5,1.7,0.5,2.6C281.5,122.3,281.3,123.2,281,124z"/>
	<path class="st2" d="M291.5,119.4c-0.1,1.7-0.2,3.2-0.4,4.5c-0.2,1.2-0.5,2.2-1,2.8c-0.4,0.7-1.1,1-1.9,1c-0.3,0-0.6,0-0.8-0.1
		l-0.3,4c0.4,0.1,0.9,0.2,1.2,0.2c0.4,0.1,0.7,0.1,1.1,0.1c1.2,0,2.2-0.3,2.9-0.8c0.8-0.6,1.4-1.4,1.8-2.5c0.4-1.1,0.8-2.4,1-4
		c0.2-1.6,0.4-3.3,0.4-5.3l0.1-4.2h7v16.5h4.7v-20.4h-15.7L291.5,119.4z"/>
	<path class="st2" d="M322.4,117.8h-5.2v-6.7h-4.7v20.4h9.2c2.6,0,4.7-0.6,6.2-1.8c1.5-1.2,2.2-3,2.2-5.3c0-2.2-0.7-3.8-2-4.9
		C326.8,118.4,324.9,117.8,322.4,117.8z M324.3,127.1c-0.7,0.6-1.7,0.9-2.9,0.9h-4.2v-6.7h4.2c1.2,0,2.2,0.2,2.9,0.7
		c0.7,0.5,1,1.3,1,2.4C325.4,125.7,325,126.5,324.3,127.1z"/>
	<polygon class="st2" points="351.9,111.2 346.9,111.2 341.5,119.4 338.2,119.4 338.2,111.2 333.5,111.2 333.5,131.5 338.2,131.5 
		338.2,123.3 341.4,123.3 346.7,131.5 352.1,131.5 345.2,121 	"/>
	<path class="st2" d="M371.9,113.8c-1-1-2.2-1.7-3.5-2.2s-2.8-0.8-4.4-0.8c-1.6,0-3.1,0.3-4.4,0.8c-1.4,0.5-2.5,1.3-3.5,2.2
		c-1,0.9-1.8,2.1-2.3,3.3c-0.6,1.3-0.8,2.7-0.8,4.2s0.3,2.9,0.8,4.2c0.6,1.3,1.3,2.4,2.3,3.3c1,0.9,2.2,1.7,3.5,2.2
		c1.4,0.5,2.9,0.8,4.5,0.8c1.6,0,3.1-0.3,4.4-0.8c1.3-0.5,2.5-1.3,3.5-2.2c1-0.9,1.8-2.1,2.3-3.3c0.6-1.3,0.8-2.7,0.8-4.2
		c0-1.5-0.3-2.9-0.8-4.2C373.6,115.9,372.9,114.8,371.9,113.8z M369.8,124c-0.3,0.8-0.8,1.5-1.4,2.1s-1.3,1-2,1.3s-1.6,0.5-2.5,0.5
		c-0.9,0-1.8-0.2-2.5-0.5c-0.8-0.3-1.4-0.8-2-1.3c-0.6-0.6-1-1.3-1.3-2.1s-0.5-1.7-0.5-2.6c0-1,0.2-1.9,0.5-2.6s0.8-1.5,1.4-2.1
		c0.6-0.6,1.3-1,2-1.3c0.8-0.3,1.6-0.5,2.5-0.5c0.9,0,1.8,0.2,2.5,0.5c0.8,0.3,1.5,0.8,2,1.3c0.6,0.6,1,1.3,1.3,2.1
		c0.3,0.8,0.5,1.7,0.5,2.6C370.3,122.3,370.1,123.2,369.8,124z"/>
	<path class="st2" d="M403,121.8c-0.5-0.4-1.2-0.7-2-0.9c0.4-0.2,0.7-0.4,1-0.6c1.2-0.9,1.9-2.2,1.9-3.9c0-1.7-0.7-3-2-3.9
		c-1.3-0.9-3.2-1.4-5.5-1.4h-9.5v20.4h10c2.6,0,4.5-0.5,5.9-1.5c1.3-1,2-2.4,2-4.2C404.9,124.1,404.2,122.7,403,121.8z M391.6,114.6
		h4.4c1,0,1.8,0.2,2.3,0.6c0.5,0.4,0.8,1,0.8,1.8c0,0.8-0.3,1.4-0.8,1.8c-0.5,0.4-1.3,0.6-2.3,0.6h-4.4V114.6z M399.2,127.4
		c-0.6,0.4-1.4,0.6-2.5,0.6h-5.2v-5.1h5.2c1.1,0,1.9,0.2,2.5,0.6c0.6,0.4,0.8,1.1,0.8,1.9C400.1,126.3,399.8,127,399.2,127.4z"/>
</g>
</svg>
