<svg width="405" height="213" viewBox="0 0 405 213" fill="none" xmlns="http://www.w3.org/2000/svg">
<g clip-path="url(#clip0_101_2040)">
<path d="M52.6028 76.0493V102.053H48.3429V83.515L40.4575 96.5899H39.9421L32.0567 83.4797V102.044H27.7969V76.0493H32.3871L40.1976 89.0491L48.0478 76.0493H52.6028Z" fill="#2D2D2B"/>
<path d="M62.0436 97.9646H73.5192V102.053H57.7837V76.0493H73.3342V80.1336H62.0436V86.8965H72.4047V90.9454H62.0436V97.9646Z" fill="#2D2D2B"/>
<path d="M94.25 76.0493V80.1336H86.9417V102.053H82.6862V80.1336H75.3691V76.0493H94.25Z" fill="#2D2D2B"/>
<path d="M117.589 98.6144C115.381 100.863 112.463 102.273 109.334 102.603C106.204 102.932 103.058 102.162 100.433 100.422C97.8067 98.6826 95.8643 96.0824 94.9371 93.0655C94.0099 90.0487 94.1554 86.8024 95.3487 83.8812C96.542 80.96 98.7091 78.5451 101.48 77.0492C104.251 75.5532 107.453 75.0689 110.54 75.6791C113.627 76.2892 116.407 77.9559 118.406 80.3944C120.404 82.833 121.497 85.8921 121.497 89.0492C121.531 90.8268 121.202 92.5927 120.53 94.2378C119.858 95.883 118.857 97.3725 117.589 98.6144ZM101.523 95.706C103.275 97.4102 105.619 98.3632 108.059 98.3632C110.498 98.3632 112.842 97.4102 114.594 95.706C116.293 93.9048 117.241 91.5186 117.241 89.0381C117.241 86.5576 116.293 84.1714 114.594 82.3702C112.842 80.666 110.498 79.713 108.059 79.713C105.619 79.713 103.275 80.666 101.523 82.3702C99.8236 84.1714 98.8764 86.5576 98.8764 89.0381C98.8764 91.5186 99.8236 93.9048 101.523 95.706Z" fill="#2D2D2B"/>
<path d="M135.562 76.0493C137.221 76.0064 138.869 76.3181 140.398 76.9636C141.927 77.6091 143.301 78.5737 144.43 79.7932C146.707 82.3287 147.967 85.6207 147.967 89.0336C147.967 92.4465 146.707 95.7385 144.43 98.274C143.304 99.4993 141.931 100.469 140.402 101.12C138.873 101.77 137.223 102.085 135.562 102.044H125.382V76.0493H135.562ZM135.562 97.9646C136.686 98.0055 137.804 97.801 138.841 97.3652C139.878 96.9294 140.808 96.2727 141.567 95.4407C143.109 93.7551 143.879 91.6246 143.879 89.0491C143.879 86.4736 143.109 84.3386 141.567 82.6442C140.808 81.8193 139.88 81.1681 138.848 80.7349C137.816 80.3017 136.703 80.0966 135.584 80.1336H129.642V97.9646H135.562Z" fill="#2D2D2B"/>
<path d="M167.773 102.053L165.958 96.8155H154.945L153.13 102.053H148.483L157.888 76.0494H162.998L172.364 102.053H167.773ZM160.443 74.1178C158.593 74.1178 157.155 73.6655 156.13 72.7608C155.105 71.8562 154.593 70.5758 154.593 68.9197H158.223C158.223 70.3783 158.957 71.1077 160.426 71.1077C161.879 71.1077 162.628 70.3783 162.628 68.9197H166.236C166.236 70.5787 165.724 71.8591 164.699 72.7608C163.674 73.6625 162.255 74.1149 160.443 74.1178ZM156.333 92.8019H164.553L160.443 81.0664L156.333 92.8019Z" fill="#2D2D2B"/>
<path d="M194.575 76.0493C196.233 76.0064 197.882 76.3181 199.41 76.9636C200.939 77.6091 202.314 78.5737 203.443 79.7932C205.717 82.3301 206.975 85.6215 206.975 89.0336C206.975 92.4457 205.717 95.7371 203.443 98.274C202.317 99.4993 200.944 100.469 199.414 101.12C197.885 101.77 196.235 102.085 194.575 102.044H184.395V76.0493H194.575ZM194.575 97.9646C195.694 98.0025 196.808 97.7965 197.84 97.3608C198.872 96.925 199.798 96.27 200.553 95.4407C202.095 93.7551 202.866 91.6246 202.866 89.0491C202.866 86.4736 202.095 84.3386 200.553 82.6442C199.795 81.8192 198.869 81.1679 197.837 80.7346C196.805 80.3013 195.693 80.0963 194.575 80.1336H188.65V97.9646H194.575Z" fill="#2D2D2B"/>
<path d="M215.134 97.9646H226.588V102.053H210.866V76.0493H226.412V80.1336H215.134V86.8965H225.487V90.9454H215.134V97.9646Z" fill="#2D2D2B"/>
<path d="M256.623 102.053L254.808 96.8154H243.768L241.953 102.053H237.332L246.737 76.0493H251.847L261.213 102.053H256.623ZM245.169 92.8018H253.389L249.279 81.0662L245.169 92.8018Z" fill="#2D2D2B"/>
<path d="M275.279 102.535C271.379 102.535 268.149 101.242 265.588 98.6542C263.117 96.072 261.737 92.631 261.737 89.0514C261.737 85.4717 263.117 82.0308 265.588 79.4485C268.151 76.8612 271.382 75.5676 275.279 75.5676C277.553 75.5489 279.792 76.1247 281.777 77.2384C283.707 78.2972 285.314 79.8635 286.424 81.7691L282.72 83.9262C282.029 82.6349 280.983 81.5701 279.706 80.8585C278.356 80.0959 276.829 79.7055 275.279 79.727C272.519 79.727 270.279 80.611 268.561 82.3791C266.906 84.2097 265.989 86.5929 265.989 89.0646C265.989 91.5363 266.906 93.9196 268.561 95.7502C270.276 97.5182 272.516 98.4023 275.279 98.4023C276.834 98.4205 278.367 98.0288 279.724 97.2663C281.002 96.5646 282.045 95.4987 282.72 94.2031L286.424 96.3204C285.332 98.2323 283.739 99.8071 281.817 100.873C279.819 101.99 277.565 102.563 275.279 102.535Z" fill="#2D2D2B"/>
<path d="M305.305 76.0493H309.56V102.053H305.305V90.7951H294.199V102.053H289.939V76.0493H294.199V86.7108H305.305V76.0493Z" fill="#2D2D2B"/>
<path d="M314.746 76.0493H319.001V102.053H314.746V76.0493Z" fill="#2D2D2B"/>
<path d="M341.027 76.0493V80.1336H333.737V102.053H329.477V80.1336H322.146V76.0493H341.027Z" fill="#2D2D2B"/>
<path d="M359.208 102.053L357.393 96.8154H346.379L344.569 102.053H339.917L349.322 76.0493H354.432L363.798 102.053H359.208ZM347.754 92.8018H355.97L351.864 81.0662L347.754 92.8018Z" fill="#2D2D2B"/>
<path d="M381.344 102.053L375.864 92.5807H370.829V102.053H366.573V76.0492H376.939C378.035 76.0428 379.121 76.2546 380.134 76.6723C381.148 77.0901 382.069 77.7055 382.844 78.483C383.618 79.2605 384.232 80.1845 384.648 81.2015C385.064 82.2185 385.276 83.3083 385.269 84.4078C385.282 86.0348 384.788 87.6252 383.855 88.9562C382.941 90.3037 381.646 91.3459 380.137 91.9486L386.022 102.053H381.344ZM370.829 80.0627V88.7528H376.939C377.482 88.7611 378.02 88.6526 378.518 88.4345C379.016 88.2165 379.461 87.894 379.824 87.4887C380.593 86.6427 381.019 85.5393 381.019 84.3945C381.019 83.2498 380.593 82.1463 379.824 81.3004C379.46 80.8964 379.015 80.575 378.517 80.3577C378.02 80.1404 377.481 80.0324 376.939 80.0406L370.829 80.0627Z" fill="#2D2D2B"/>
<path d="M393.547 97.9646H405V102.053H389.265V76.0493H404.815V80.1336H393.547V86.8965H403.912V90.9454H393.547V97.9646Z" fill="#2D2D2B"/>
<path d="M39.4886 130.183L38.3829 126.983H31.6429L30.5548 130.183H27.7046L33.4314 114.297H36.5547L42.2815 130.183H39.4886ZM32.5019 124.534H37.5239L35.0129 117.365L32.5019 124.534Z" fill="#2D2D2B"/>
<path d="M47.1139 130.183L41.6162 114.297H44.4664L48.6734 127.032L52.9068 114.297H55.7306L50.2373 130.183H47.1139Z" fill="#2D2D2B"/>
<path d="M66.8407 130.183L65.7306 126.983H58.9906L57.8672 130.183H55.0391L60.7659 114.297H63.8848L69.6116 130.183H66.8407ZM59.8496 124.543H64.8716L62.3606 117.365L59.8496 124.543Z" fill="#2D2D2B"/>
<path d="M80.5012 114.306V116.804H76.0475V130.183H73.444V116.804H68.9639V114.306H80.5012Z" fill="#2D2D2B"/>
<path d="M91.6112 130.183L90.5011 126.983H83.761L82.6509 130.183H79.8228L85.5496 114.297H88.7037L94.4305 130.183H91.6112ZM84.6201 124.534H89.642L87.131 117.365L84.6201 124.534Z" fill="#2D2D2B"/>
<path d="M100.408 130.488C97.9502 130.488 96.2542 129.52 95.3203 127.584L97.5582 126.258C98.0751 127.378 99.0325 127.938 100.43 127.938C101.188 127.99 101.936 127.75 102.523 127.266C102.776 127.024 102.972 126.729 103.1 126.402C103.227 126.075 103.281 125.724 103.259 125.374V114.306H105.884V125.383C105.884 127.013 105.372 128.272 104.347 129.162C103.242 130.077 101.839 130.55 100.408 130.488Z" fill="#2D2D2B"/>
<path d="M122.113 128.093C120.764 129.466 118.982 130.326 117.071 130.527C115.159 130.728 113.238 130.257 111.634 129.195C110.031 128.132 108.845 126.544 108.279 124.701C107.713 122.859 107.802 120.876 108.531 119.092C109.26 117.308 110.583 115.833 112.276 114.92C113.968 114.006 115.924 113.711 117.809 114.083C119.694 114.456 121.392 115.474 122.613 116.963C123.833 118.453 124.501 120.321 124.501 122.249C124.521 123.335 124.32 124.414 123.91 125.419C123.499 126.424 122.888 127.334 122.113 128.093ZM112.298 126.324C113.367 127.367 114.799 127.95 116.289 127.95C117.78 127.95 119.212 127.367 120.281 126.324C121.321 125.225 121.902 123.766 121.902 122.249C121.902 120.732 121.321 119.273 120.281 118.174C119.212 117.131 117.78 116.548 116.289 116.548C114.799 116.548 113.367 117.131 112.298 118.174C111.26 119.275 110.682 120.733 110.682 122.249C110.682 123.765 111.26 125.223 112.298 126.324Z" fill="#2D2D2B"/>
<path d="M136.602 130.183L135.496 126.983H128.752L127.646 130.183H124.827L130.553 114.297H133.677L139.404 130.183H136.602ZM129.615 124.534H134.637L132.126 117.365L129.615 124.534Z" fill="#2D2D2B"/>
<path d="M145.972 130.488C144.606 130.531 143.257 130.168 142.095 129.445C141.05 128.773 140.264 127.765 139.866 126.585L142.104 125.259C142.738 127.045 144.051 127.938 146.042 127.938C146.82 127.995 147.595 127.791 148.245 127.359C148.479 127.185 148.669 126.958 148.797 126.696C148.925 126.433 148.988 126.144 148.981 125.852C148.993 125.555 148.927 125.261 148.788 124.999C148.649 124.737 148.444 124.517 148.192 124.362C147.305 123.875 146.363 123.498 145.386 123.239C144.764 123.06 144.152 122.848 143.553 122.603C143.033 122.377 142.536 122.1 142.069 121.776C141.571 121.445 141.17 120.987 140.906 120.45C140.639 119.867 140.507 119.231 140.523 118.589C140.497 117.954 140.618 117.321 140.877 116.74C141.136 116.159 141.526 115.647 142.016 115.243C143.028 114.411 144.303 113.972 145.611 114.005C146.787 113.979 147.945 114.303 148.937 114.938C149.9 115.564 150.664 116.454 151.139 117.502L148.937 118.77C148.683 118.099 148.226 117.524 147.629 117.127C147.032 116.731 146.326 116.532 145.611 116.56C144.964 116.527 144.325 116.715 143.8 117.095C143.581 117.264 143.405 117.482 143.286 117.733C143.168 117.984 143.112 118.259 143.122 118.536C143.112 118.808 143.171 119.078 143.291 119.322C143.412 119.566 143.592 119.776 143.813 119.933C144.588 120.415 145.43 120.778 146.311 121.011C146.915 121.206 147.355 121.356 147.633 121.453C147.91 121.551 148.302 121.705 148.809 121.895C149.217 122.053 149.601 122.267 149.95 122.532C150.242 122.778 150.517 123.044 150.774 123.328C151.063 123.637 151.277 124.009 151.399 124.415C151.524 124.865 151.585 125.331 151.58 125.798C151.606 126.45 151.479 127.099 151.21 127.692C150.94 128.285 150.536 128.807 150.029 129.215C148.866 130.102 147.431 130.552 145.972 130.488Z" fill="#2D2D2B"/>
<path d="M163.932 130.183L162.822 126.983H156.104L154.972 130.183H152.139L157.866 114.297H160.989L166.716 130.183H163.932ZM159.452 113.126C158.499 113.187 157.557 112.891 156.809 112.295C156.488 111.998 156.237 111.634 156.074 111.228C155.911 110.822 155.84 110.385 155.866 109.948H158.069C158.069 110.832 158.509 111.274 159.425 111.274C159.604 111.297 159.786 111.279 159.957 111.22C160.128 111.162 160.283 111.065 160.411 110.937C160.538 110.808 160.635 110.653 160.693 110.481C160.752 110.31 160.77 110.127 160.747 109.948H162.95C162.976 110.384 162.905 110.821 162.743 111.227C162.58 111.633 162.331 111.997 162.011 112.295C161.287 112.874 160.377 113.169 159.452 113.126ZM156.941 124.543H161.963L159.452 117.365L156.941 124.543Z" fill="#2D2D2B"/>
<path d="M180.307 114.306C181.32 114.281 182.327 114.472 183.261 114.866C184.195 115.261 185.035 115.851 185.725 116.596C187.118 118.144 187.889 120.156 187.889 122.242C187.889 124.328 187.118 126.34 185.725 127.889C185.038 128.638 184.199 129.231 183.264 129.629C182.33 130.026 181.321 130.218 180.307 130.192H174.086V114.306H180.307ZM180.307 127.695C180.991 127.718 181.672 127.592 182.303 127.326C182.935 127.059 183.501 126.659 183.963 126.152C184.877 125.055 185.377 123.672 185.377 122.242C185.377 120.813 184.877 119.429 183.963 118.333C183.499 117.829 182.932 117.432 182.301 117.168C181.67 116.904 180.99 116.78 180.307 116.803H176.69V127.695H180.307Z" fill="#2D2D2B"/>
<path d="M190.262 114.306H192.861V130.183H190.262V114.306Z" fill="#2D2D2B"/>
<path d="M201.072 130.488C199.706 130.531 198.358 130.168 197.196 129.445C196.151 128.773 195.365 127.765 194.967 126.585L197.205 125.259C197.839 127.045 199.152 127.938 201.143 127.938C201.921 127.995 202.695 127.791 203.346 127.359C203.58 127.185 203.769 126.958 203.897 126.696C204.025 126.433 204.088 126.144 204.081 125.852C204.094 125.555 204.027 125.26 203.888 124.998C203.748 124.736 203.541 124.516 203.288 124.362C202.404 123.874 201.463 123.497 200.487 123.239C199.865 123.061 199.253 122.848 198.654 122.603C198.133 122.377 197.636 122.1 197.169 121.776C196.672 121.445 196.271 120.987 196.006 120.45C195.739 119.867 195.608 119.231 195.623 118.589C195.597 117.954 195.719 117.321 195.978 116.74C196.237 116.159 196.627 115.647 197.117 115.243C198.128 114.411 199.404 113.972 200.711 114.005C201.887 113.979 203.045 114.303 204.037 114.938C205 115.564 205.764 116.454 206.24 117.502L204.037 118.77C203.784 118.099 203.326 117.524 202.729 117.127C202.133 116.731 201.427 116.532 200.711 116.56C200.065 116.527 199.426 116.715 198.901 117.095C198.681 117.264 198.505 117.482 198.387 117.733C198.269 117.984 198.213 118.259 198.222 118.536C198.213 118.808 198.271 119.078 198.392 119.322C198.513 119.566 198.692 119.776 198.914 119.933C199.689 120.415 200.53 120.778 201.412 121.011C202.015 121.206 202.456 121.356 202.733 121.453C203.011 121.551 203.403 121.705 203.909 121.895C204.317 122.053 204.702 122.267 205.05 122.532C205.343 122.778 205.618 123.044 205.874 123.328C206.163 123.637 206.377 124.009 206.5 124.415C206.625 124.865 206.686 125.331 206.68 125.798C206.706 126.45 206.579 127.099 206.31 127.692C206.041 128.285 205.636 128.807 205.13 129.215C203.967 130.102 202.531 130.552 201.072 130.488Z" fill="#2D2D2B"/>
<path d="M214.645 114.306C215.338 114.288 216.027 114.411 216.671 114.669C217.315 114.926 217.899 115.313 218.389 115.804C219.359 116.796 219.903 118.13 219.903 119.52C219.903 120.909 219.359 122.243 218.389 123.235C217.901 123.73 217.317 124.12 216.673 124.38C216.029 124.64 215.339 124.765 214.645 124.746H211.412V130.183H208.808V114.306H214.645ZM214.645 122.293C214.999 122.304 215.352 122.241 215.68 122.106C216.008 121.971 216.304 121.768 216.548 121.511C217.03 120.961 217.296 120.254 217.296 119.522C217.296 118.79 217.03 118.082 216.548 117.533C216.304 117.274 216.009 117.07 215.681 116.934C215.353 116.799 215 116.734 214.645 116.746H211.412V122.284L214.645 122.293Z" fill="#2D2D2B"/>
<path d="M235.266 128.093C233.917 129.466 232.135 130.326 230.223 130.527C228.312 130.728 226.391 130.257 224.787 129.195C223.184 128.132 221.998 126.544 221.432 124.701C220.865 122.859 220.955 120.876 221.683 119.092C222.412 117.308 223.736 115.833 225.428 114.92C227.121 114.006 229.076 113.711 230.962 114.083C232.847 114.456 234.545 115.474 235.766 116.963C236.986 118.453 237.654 120.321 237.654 122.249C237.674 123.335 237.473 124.414 237.062 125.419C236.652 126.424 236.04 127.334 235.266 128.093ZM225.447 126.324C226.516 127.368 227.948 127.952 229.44 127.952C230.932 127.952 232.364 127.368 233.433 126.324C234.471 125.223 235.05 123.765 235.05 122.249C235.05 120.733 234.471 119.275 233.433 118.174C232.364 117.13 230.932 116.546 229.44 116.546C227.948 116.546 226.516 117.13 225.447 118.174C224.409 119.275 223.831 120.733 223.831 122.249C223.831 123.765 224.409 125.223 225.447 126.324Z" fill="#2D2D2B"/>
<path d="M249.526 114.306H252.138V130.183H250.103L242.614 119.403V130.183H240.015V114.306H242.05L249.513 125.087L249.526 114.306Z" fill="#2D2D2B"/>
<path d="M255.297 114.306H257.896V130.183H255.297V114.306Z" fill="#2D2D2B"/>
<path d="M270.385 121.953C271.053 122.296 271.616 122.814 272.015 123.451C272.413 124.118 272.616 124.884 272.601 125.661C272.616 126.271 272.501 126.876 272.263 127.436C272.025 127.997 271.67 128.5 271.222 128.91C270.311 129.768 269.101 130.231 267.852 130.201H261.063V114.306H267.354C268.573 114.277 269.755 114.729 270.645 115.566C271.076 115.964 271.417 116.451 271.645 116.993C271.873 117.535 271.983 118.12 271.966 118.709C271.992 119.339 271.861 119.965 271.585 120.531C271.309 121.098 270.896 121.586 270.385 121.953ZM267.354 116.755H263.667V120.932H267.354C267.623 120.938 267.891 120.888 268.14 120.784C268.389 120.681 268.613 120.526 268.799 120.331C269.178 119.93 269.39 119.398 269.39 118.846C269.39 118.293 269.178 117.761 268.799 117.36C268.613 117.164 268.389 117.009 268.14 116.905C267.891 116.801 267.624 116.75 267.354 116.755ZM267.852 127.743C268.137 127.749 268.421 127.694 268.683 127.582C268.946 127.47 269.182 127.304 269.376 127.094C269.777 126.668 270.001 126.104 270.001 125.518C270.001 124.932 269.777 124.368 269.376 123.942C269.182 123.732 268.946 123.566 268.683 123.454C268.421 123.342 268.137 123.287 267.852 123.292H263.667V127.743H267.852Z" fill="#2D2D2B"/>
<path d="M274.86 114.306H277.464V130.183H274.86V114.306Z" fill="#2D2D2B"/>
<path d="M283.23 127.695H289.68V130.183H280.631V114.306H283.23V127.695Z" fill="#2D2D2B"/>
<path d="M302.358 130.183L301.252 126.983H294.512L293.411 130.183H290.583L296.31 114.297H299.433L305.16 130.183H302.358ZM297.882 113.117C296.929 113.178 295.987 112.882 295.239 112.286C294.918 111.99 294.667 111.625 294.504 111.219C294.341 110.813 294.27 110.376 294.297 109.939H296.499C296.499 110.823 296.94 111.265 297.856 111.265C298.035 111.288 298.217 111.27 298.388 111.211C298.559 111.153 298.714 111.056 298.841 110.928C298.969 110.8 299.066 110.644 299.124 110.473C299.182 110.301 299.201 110.119 299.178 109.939H301.38C301.406 110.375 301.336 110.812 301.173 111.218C301.011 111.624 300.761 111.989 300.442 112.286C299.721 112.866 298.815 113.164 297.891 113.126L297.882 113.117ZM295.372 124.534H300.393L297.891 117.365L295.372 124.534Z" fill="#2D2D2B"/>
<path d="M318.746 114.306C319.759 114.281 320.766 114.472 321.7 114.866C322.634 115.261 323.474 115.851 324.164 116.596C325.554 118.146 326.323 120.157 326.323 122.242C326.323 124.328 325.554 126.339 324.164 127.889C323.476 128.637 322.636 129.228 321.702 129.624C320.767 130.02 319.759 130.21 318.746 130.183H312.525V114.306H318.746ZM318.746 127.695C319.43 127.718 320.111 127.592 320.742 127.326C321.373 127.059 321.94 126.659 322.402 126.152C323.316 125.055 323.816 123.672 323.816 122.242C323.816 120.813 323.316 119.429 322.402 118.333C321.938 117.829 321.371 117.432 320.74 117.168C320.109 116.904 319.429 116.78 318.746 116.803H315.133V127.695H318.746Z" fill="#2D2D2B"/>
<path d="M341.943 128.093C340.594 129.466 338.812 130.326 336.901 130.527C334.99 130.728 333.068 130.257 331.465 129.195C329.861 128.132 328.675 126.544 328.109 124.701C327.543 122.859 327.632 120.876 328.361 119.092C329.09 117.308 330.413 115.833 332.106 114.92C333.798 114.006 335.754 113.711 337.639 114.083C339.525 114.456 341.223 115.474 342.443 116.963C343.663 118.453 344.331 120.321 344.331 122.249C344.351 123.335 344.15 124.414 343.74 125.419C343.329 126.424 342.718 127.334 341.943 128.093ZM332.128 126.324C333.197 127.367 334.629 127.95 336.119 127.95C337.61 127.95 339.042 127.367 340.111 126.324C341.148 125.223 341.727 123.765 341.727 122.249C341.727 120.733 341.148 119.275 340.111 118.174C339.042 117.131 337.61 116.548 336.119 116.548C334.629 116.548 333.197 117.131 332.128 118.174C331.088 119.273 330.507 120.732 330.507 122.249C330.507 123.766 331.088 125.225 332.128 126.324Z" fill="#2D2D2B"/>
<path d="M356.432 130.183L355.327 126.983H348.582L347.477 130.183H344.648L350.375 114.297H353.499L359.225 130.183H356.432ZM349.441 124.534H354.463L351.952 117.365L349.441 124.534Z" fill="#2D2D2B"/>
<path d="M369.961 130.183L366.613 124.397H363.529V130.183H360.948V114.306H367.282C367.952 114.301 368.616 114.43 369.235 114.685C369.855 114.94 370.417 115.316 370.891 115.791C371.364 116.266 371.739 116.831 371.993 117.452C372.247 118.074 372.375 118.74 372.371 119.411C372.372 120.408 372.064 121.379 371.489 122.192C370.929 123.014 370.138 123.651 369.216 124.022L372.811 130.21L369.961 130.183ZM363.538 116.746V122.05H367.269C367.601 122.055 367.93 121.989 368.234 121.856C368.538 121.722 368.81 121.525 369.031 121.277C369.499 120.762 369.759 120.09 369.759 119.394C369.759 118.697 369.499 118.025 369.031 117.511C368.809 117.264 368.537 117.067 368.233 116.933C367.93 116.8 367.601 116.733 367.269 116.737L363.538 116.746Z" fill="#2D2D2B"/>
<path d="M383.058 127.695H389.507V130.183H380.458V114.306H383.058V127.695Z" fill="#2D2D2B"/>
<path d="M402.194 130.183L401.088 126.983H394.344L393.238 130.183H390.41L396.136 114.297H399.273L405 130.183H402.194ZM395.207 124.534H400.225L397.718 117.365L395.207 124.534Z" fill="#2D2D2B"/>
<path d="M48.8894 145.411H54.6426V180.543H50.1405L33.6384 156.704V180.543H27.9116V145.411H32.4138L48.9158 169.249L48.8894 145.411Z" fill="#2BB018"/>
<path d="M67.3958 175.022H82.9023V180.543H61.6426V145.411H82.6512V150.932H67.3958V160.068H81.4001V165.545H67.3958V175.022Z" fill="#2BB018"/>
<path d="M95.5539 180.543L85.6509 145.411H91.7037L99.056 172.865L107.007 145.411H112.294L120.197 172.865L127.549 145.411H133.637L123.734 180.543H117.082L109.681 154.905L102.228 180.543H95.5539Z" fill="#2BB018"/>
<path d="M160.875 145.411V150.932H151.02V180.547H145.294V150.932H135.369V145.411H160.875Z" fill="#2BB018"/>
<path d="M192.412 175.901C189.425 178.942 185.478 180.847 181.246 181.292C177.014 181.737 172.76 180.693 169.209 178.34C165.659 175.987 163.033 172.469 161.781 168.389C160.528 164.308 160.727 159.918 162.342 155.968C163.958 152.018 166.89 148.754 170.638 146.733C174.386 144.711 178.718 144.059 182.892 144.886C187.067 145.714 190.825 147.97 193.526 151.27C196.226 154.569 197.701 158.707 197.698 162.977C197.744 165.379 197.298 167.765 196.389 169.988C195.48 172.211 194.126 174.223 192.412 175.901ZM170.703 171.985C173.069 174.287 176.235 175.574 179.531 175.574C182.827 175.574 185.993 174.287 188.359 171.985C190.741 169.595 191.933 166.592 191.936 162.977C191.939 159.361 190.747 156.358 188.359 153.968C185.992 151.669 182.826 150.383 179.531 150.383C176.236 150.383 173.07 151.669 170.703 153.968C168.312 156.361 167.117 159.364 167.117 162.977C167.117 166.589 168.312 169.592 170.703 171.985Z" fill="#2BB018"/>
<path d="M223.945 145.411H229.698V180.543H225.196L208.689 156.704V180.543H202.936V145.411H207.438L223.945 169.249V145.411Z" fill="#2BB018"/>
<path d="M269.957 145.411H275.71V180.543H269.957V165.337H254.953V180.543H249.2V145.411H254.953V159.799H269.957V145.411Z" fill="#2BB018"/>
<path d="M311.997 175.901C309.011 178.939 305.067 180.841 300.839 181.285C296.61 181.728 292.359 180.685 288.812 178.333C285.265 175.981 282.642 172.466 281.391 168.389C280.14 164.312 280.339 159.925 281.953 155.979C283.567 152.032 286.497 148.77 290.242 146.751C293.986 144.731 298.314 144.078 302.485 144.904C306.656 145.73 310.412 147.984 313.111 151.28C315.81 154.577 317.285 158.711 317.283 162.977C317.329 165.379 316.884 167.766 315.974 169.989C315.065 172.212 313.711 174.224 311.997 175.901ZM290.288 171.985C292.654 174.287 295.82 175.574 299.116 175.574C302.412 175.574 305.578 174.287 307.944 171.985C310.329 169.595 311.521 166.592 311.521 162.977C311.521 159.361 310.329 156.358 307.944 153.968C305.577 151.669 302.411 150.383 299.116 150.383C295.821 150.383 292.655 151.669 290.288 153.968C287.906 156.361 286.715 159.364 286.715 162.977C286.715 166.589 287.906 169.592 290.288 171.985Z" fill="#2BB018"/>
<path d="M344.679 177.859C342.212 180.081 339.029 181.194 335.128 181.197C331.228 181.2 328.043 180.087 325.573 177.859C323.107 175.632 321.873 172.645 321.873 168.9V145.411H327.626V168.551C327.626 170.69 328.252 172.396 329.503 173.669C330.754 174.942 332.629 175.577 335.128 175.574C337.631 175.574 339.506 174.939 340.754 173.669C342.002 172.399 342.628 170.693 342.631 168.551V145.411H348.384V168.9C348.384 172.648 347.149 175.635 344.679 177.859Z" fill="#2BB018"/>
<path d="M366.639 181.197C363.268 181.197 360.409 180.426 358.062 178.885C355.752 177.4 354.014 175.171 353.133 172.564L358.084 169.651C359.485 173.603 362.387 175.577 366.789 175.574C368.956 175.574 370.582 175.147 371.666 174.292C372.183 173.908 372.6 173.405 372.883 172.825C373.166 172.245 373.306 171.605 373.291 170.96C373.318 170.303 373.168 169.652 372.858 169.074C372.548 168.495 372.089 168.011 371.529 167.671C370.354 166.917 368.288 166.089 365.331 165.187C363.957 164.787 362.605 164.318 361.278 163.781C360.127 163.282 359.029 162.668 358.001 161.947C356.897 161.216 356.007 160.203 355.424 159.012C354.833 157.723 354.542 156.315 354.573 154.897C354.573 151.785 355.675 149.318 357.877 147.497C360.119 145.66 362.944 144.692 365.838 144.77C368.437 144.713 370.995 145.428 373.19 146.825C375.306 148.219 376.986 150.185 378.036 152.497L373.19 155.308C371.721 152.028 369.271 150.39 365.838 150.393C364.168 150.393 362.838 150.781 361.838 151.568C361.352 151.941 360.962 152.424 360.701 152.979C360.439 153.533 360.314 154.142 360.335 154.755C360.314 155.357 360.442 155.955 360.708 156.495C360.975 157.035 361.37 157.501 361.86 157.849C362.876 158.601 364.719 159.395 367.388 160.232C368.721 160.665 369.697 160.991 370.313 161.209C370.93 161.427 371.798 161.77 372.917 162.239C373.819 162.587 374.669 163.06 375.441 163.644C376.088 164.191 376.697 164.782 377.265 165.412C377.905 166.097 378.377 166.922 378.644 167.821C378.92 168.818 379.053 169.85 379.04 170.885C379.04 174.061 377.899 176.579 375.617 178.439C373.335 180.298 370.343 181.217 366.639 181.197Z" fill="#2BB018"/>
<path d="M389.493 175.022H405V180.543H383.745V145.411H404.749V150.932H389.493V160.068H403.498V165.545H389.493V175.022Z" fill="#2BB018"/>
<path d="M155.54 84.2532L155.408 58.8636L84.0034 14.2197L12.0527 59.5576L12.1055 200.928L155.606 200.875V175.875H168.514V212.943L0.0792404 213.004L0.0219727 52.892L83.977 0L168.439 52.8036V84.2488L155.54 84.2532Z" fill="url(#paint0_linear_101_2040)"/>
</g>
<defs>
<linearGradient id="paint0_linear_101_2040" x1="168.258" y1="106.491" x2="-0.171854" y2="106.491" gradientUnits="userSpaceOnUse">
<stop stop-color="#2BB018" stop-opacity="0"/>
<stop offset="0.13" stop-color="#2BB018" stop-opacity="0.29"/>
<stop offset="0.33" stop-color="#2BB018" stop-opacity="0.45"/>
<stop offset="0.45" stop-color="#2BB018" stop-opacity="0.61"/>
<stop offset="1" stop-color="#2BB018"/>
</linearGradient>
<clipPath id="clip0_101_2040">
<rect width="405" height="213" fill="white"/>
</clipPath>
</defs>
</svg>
